%TF.GenerationSoftware,KiCad,Pcbnew,8.0.5*%
%TF.CreationDate,2024-10-18T23:38:30-04:00*%
%TF.ProjectId,KiCADWorkshopExample,4b694341-4457-46f7-926b-73686f704578,rev?*%
%TF.SameCoordinates,Original*%
%TF.FileFunction,Paste,Top*%
%TF.FilePolarity,Positive*%
%FSLAX46Y46*%
G04 Gerber Fmt 4.6, Leading zero omitted, Abs format (unit mm)*
G04 Created by KiCad (PCBNEW 8.0.5) date 2024-10-18 23:38:30*
%MOMM*%
%LPD*%
G01*
G04 APERTURE LIST*
G04 Aperture macros list*
%AMRoundRect*
0 Rectangle with rounded corners*
0 $1 Rounding radius*
0 $2 $3 $4 $5 $6 $7 $8 $9 X,Y pos of 4 corners*
0 Add a 4 corners polygon primitive as box body*
4,1,4,$2,$3,$4,$5,$6,$7,$8,$9,$2,$3,0*
0 Add four circle primitives for the rounded corners*
1,1,$1+$1,$2,$3*
1,1,$1+$1,$4,$5*
1,1,$1+$1,$6,$7*
1,1,$1+$1,$8,$9*
0 Add four rect primitives between the rounded corners*
20,1,$1+$1,$2,$3,$4,$5,0*
20,1,$1+$1,$4,$5,$6,$7,0*
20,1,$1+$1,$6,$7,$8,$9,0*
20,1,$1+$1,$8,$9,$2,$3,0*%
G04 Aperture macros list end*
%ADD10RoundRect,0.250000X0.450000X-0.262500X0.450000X0.262500X-0.450000X0.262500X-0.450000X-0.262500X0*%
%ADD11RoundRect,0.200000X0.275000X-0.200000X0.275000X0.200000X-0.275000X0.200000X-0.275000X-0.200000X0*%
%ADD12R,1.700000X1.000000*%
%ADD13R,0.300000X1.300000*%
G04 APERTURE END LIST*
D10*
%TO.C,R4*%
X80000000Y-125712500D03*
X80000000Y-123887500D03*
%TD*%
%TO.C,R3*%
X89300000Y-125712500D03*
X89300000Y-123887500D03*
%TD*%
%TO.C,R2*%
X98500000Y-125712500D03*
X98500000Y-123887500D03*
%TD*%
%TO.C,R1*%
X108000000Y-125712500D03*
X108000000Y-123887500D03*
%TD*%
D11*
%TO.C,R6*%
X86200000Y-137925000D03*
X86200000Y-136275000D03*
%TD*%
D12*
%TO.C,SW3*%
X105100000Y-131050000D03*
X98500000Y-131050000D03*
X105100000Y-127350000D03*
X98500000Y-127350000D03*
%TD*%
D13*
%TO.C,USBC1*%
X84050000Y-140377500D03*
X84850000Y-140377500D03*
X86150000Y-140377500D03*
X87150000Y-140377500D03*
X87650000Y-140377500D03*
X88650000Y-140377500D03*
X89950000Y-140377500D03*
X90750000Y-140377500D03*
X90450000Y-140377500D03*
X89650000Y-140377500D03*
X89150000Y-140377500D03*
X88150000Y-140377500D03*
X86650000Y-140377500D03*
X85650000Y-140377500D03*
X85150000Y-140377500D03*
X84350000Y-140377500D03*
%TD*%
D12*
%TO.C,SW4*%
X114600000Y-131050000D03*
X108000000Y-131050000D03*
X114600000Y-127350000D03*
X108000000Y-127350000D03*
%TD*%
%TO.C,SW2*%
X95900000Y-131050000D03*
X89300000Y-131050000D03*
X95900000Y-127350000D03*
X89300000Y-127350000D03*
%TD*%
%TO.C,SW1*%
X86600000Y-131050000D03*
X80000000Y-131050000D03*
X86600000Y-127350000D03*
X80000000Y-127350000D03*
%TD*%
D11*
%TO.C,R5*%
X88600000Y-137925000D03*
X88600000Y-136275000D03*
%TD*%
M02*
