%TF.GenerationSoftware,KiCad,Pcbnew,8.0.5*%
%TF.CreationDate,2024-10-13T16:03:52-04:00*%
%TF.ProjectId,KiCADWorkshopExample,4b694341-4457-46f7-926b-73686f704578,rev?*%
%TF.SameCoordinates,Original*%
%TF.FileFunction,Copper,L1,Top*%
%TF.FilePolarity,Positive*%
%FSLAX46Y46*%
G04 Gerber Fmt 4.6, Leading zero omitted, Abs format (unit mm)*
G04 Created by KiCad (PCBNEW 8.0.5) date 2024-10-13 16:03:52*
%MOMM*%
%LPD*%
G01*
G04 APERTURE LIST*
G04 Aperture macros list*
%AMRoundRect*
0 Rectangle with rounded corners*
0 $1 Rounding radius*
0 $2 $3 $4 $5 $6 $7 $8 $9 X,Y pos of 4 corners*
0 Add a 4 corners polygon primitive as box body*
4,1,4,$2,$3,$4,$5,$6,$7,$8,$9,$2,$3,0*
0 Add four circle primitives for the rounded corners*
1,1,$1+$1,$2,$3*
1,1,$1+$1,$4,$5*
1,1,$1+$1,$6,$7*
1,1,$1+$1,$8,$9*
0 Add four rect primitives between the rounded corners*
20,1,$1+$1,$2,$3,$4,$5,0*
20,1,$1+$1,$4,$5,$6,$7,0*
20,1,$1+$1,$6,$7,$8,$9,0*
20,1,$1+$1,$8,$9,$2,$3,0*%
G04 Aperture macros list end*
%TA.AperFunction,SMDPad,CuDef*%
%ADD10RoundRect,0.200000X0.275000X-0.200000X0.275000X0.200000X-0.275000X0.200000X-0.275000X-0.200000X0*%
%TD*%
%TA.AperFunction,SMDPad,CuDef*%
%ADD11RoundRect,0.250000X0.450000X-0.262500X0.450000X0.262500X-0.450000X0.262500X-0.450000X-0.262500X0*%
%TD*%
%TA.AperFunction,SMDPad,CuDef*%
%ADD12R,1.360000X1.230000*%
%TD*%
%TA.AperFunction,ComponentPad*%
%ADD13C,0.750000*%
%TD*%
%TA.AperFunction,ComponentPad*%
%ADD14O,1.200000X2.000000*%
%TD*%
%TA.AperFunction,ComponentPad*%
%ADD15O,1.200000X1.800000*%
%TD*%
%TA.AperFunction,SMDPad,CuDef*%
%ADD16R,0.300000X1.300000*%
%TD*%
%TA.AperFunction,ComponentPad*%
%ADD17C,1.520000*%
%TD*%
%TA.AperFunction,ViaPad*%
%ADD18C,0.600000*%
%TD*%
%TA.AperFunction,Conductor*%
%ADD19C,0.200000*%
%TD*%
G04 APERTURE END LIST*
D10*
%TO.P,R2,1*%
%TO.N,Net-(USBC1-CC1)*%
X91000000Y-139325000D03*
%TO.P,R2,2*%
%TO.N,GND*%
X91000000Y-137675000D03*
%TD*%
D11*
%TO.P,R1,1*%
%TO.N,Net-(R1-Pad1)*%
X103250000Y-125162500D03*
%TO.P,R1,2*%
%TO.N,Net-(LED1-A)*%
X103250000Y-123337500D03*
%TD*%
D12*
%TO.P,SW2,1,1*%
%TO.N,VBUS*%
X96000000Y-132930000D03*
%TO.P,SW2,2,2*%
%TO.N,Net-(R3-Pad1)*%
X96000000Y-128570000D03*
%TD*%
D13*
%TO.P,USBC1,*%
%TO.N,*%
X89600000Y-144737500D03*
X95400000Y-144737500D03*
D14*
%TO.P,USBC1,0,SH*%
%TO.N,unconnected-(USBC1-SH-Pad0)*%
X88170000Y-144237500D03*
%TO.P,USBC1,1*%
%TO.N,N/C*%
X96830000Y-144237500D03*
D15*
%TO.P,USBC1,2*%
X96830000Y-148417500D03*
%TO.P,USBC1,3*%
X88170000Y-148417500D03*
D16*
%TO.P,USBC1,A1,GND*%
%TO.N,GND*%
X89150000Y-143477500D03*
%TO.P,USBC1,A4,VBUS*%
%TO.N,VBUS*%
X89950000Y-143477500D03*
%TO.P,USBC1,A5,CC1*%
%TO.N,Net-(USBC1-CC1)*%
X91250000Y-143477500D03*
%TO.P,USBC1,A6,DP1*%
%TO.N,unconnected-(USBC1-DP1-PadA6)*%
X92250000Y-143477500D03*
%TO.P,USBC1,A7,DN1*%
%TO.N,unconnected-(USBC1-DN1-PadA7)*%
X92750000Y-143477500D03*
%TO.P,USBC1,A8,SBU1*%
%TO.N,unconnected-(USBC1-SBU1-PadA8)*%
X93750000Y-143477500D03*
%TO.P,USBC1,A9,VBUS*%
%TO.N,VBUS*%
X95050000Y-143477500D03*
%TO.P,USBC1,A12,GND*%
%TO.N,GND*%
X95850000Y-143477500D03*
%TO.P,USBC1,B1,GND*%
X95550000Y-143477500D03*
%TO.P,USBC1,B4,VBUS*%
%TO.N,VBUS*%
X94750000Y-143477500D03*
%TO.P,USBC1,B5,CC2*%
%TO.N,Net-(USBC1-CC2)*%
X94250000Y-143477500D03*
%TO.P,USBC1,B6,DP2*%
%TO.N,unconnected-(USBC1-DP2-PadB6)*%
X93250000Y-143477500D03*
%TO.P,USBC1,B7,DN2*%
%TO.N,unconnected-(USBC1-DN2-PadB7)*%
X91750000Y-143477500D03*
%TO.P,USBC1,B8,SBU2*%
%TO.N,unconnected-(USBC1-SBU2-PadB8)*%
X90750000Y-143477500D03*
%TO.P,USBC1,B9,VBUS*%
%TO.N,VBUS*%
X90250000Y-143477500D03*
%TO.P,USBC1,B12,GND*%
%TO.N,GND*%
X89450000Y-143477500D03*
%TD*%
D17*
%TO.P,LED4,1,A*%
%TO.N,Net-(LED4-A)*%
X81750000Y-119500000D03*
%TO.P,LED4,2,K*%
%TO.N,GND*%
X81750000Y-116960000D03*
%TD*%
D12*
%TO.P,SW1,1,1*%
%TO.N,VBUS*%
X103250000Y-132930000D03*
%TO.P,SW1,2,2*%
%TO.N,Net-(R1-Pad1)*%
X103250000Y-128570000D03*
%TD*%
D17*
%TO.P,LED2,1,A*%
%TO.N,Net-(LED2-A)*%
X96000000Y-119520000D03*
%TO.P,LED2,2,K*%
%TO.N,GND*%
X96000000Y-116980000D03*
%TD*%
D11*
%TO.P,R4,1*%
%TO.N,Net-(R4-Pad1)*%
X89000000Y-125162500D03*
%TO.P,R4,2*%
%TO.N,Net-(LED3-A)*%
X89000000Y-123337500D03*
%TD*%
D12*
%TO.P,SW3,1,1*%
%TO.N,VBUS*%
X89000000Y-132930000D03*
%TO.P,SW3,2,2*%
%TO.N,Net-(R4-Pad1)*%
X89000000Y-128570000D03*
%TD*%
%TO.P,SW4,1,1*%
%TO.N,VBUS*%
X81750000Y-132930000D03*
%TO.P,SW4,2,2*%
%TO.N,Net-(R5-Pad1)*%
X81750000Y-128570000D03*
%TD*%
D10*
%TO.P,R6,1*%
%TO.N,Net-(USBC1-CC2)*%
X94000000Y-139325000D03*
%TO.P,R6,2*%
%TO.N,GND*%
X94000000Y-137675000D03*
%TD*%
D17*
%TO.P,LED3,1,A*%
%TO.N,Net-(LED3-A)*%
X89000000Y-119520000D03*
%TO.P,LED3,2,K*%
%TO.N,GND*%
X89000000Y-116980000D03*
%TD*%
D11*
%TO.P,R5,1*%
%TO.N,Net-(R5-Pad1)*%
X81750000Y-125412500D03*
%TO.P,R5,2*%
%TO.N,Net-(LED4-A)*%
X81750000Y-123587500D03*
%TD*%
%TO.P,R3,1*%
%TO.N,Net-(R3-Pad1)*%
X96000000Y-125162500D03*
%TO.P,R3,2*%
%TO.N,Net-(LED2-A)*%
X96000000Y-123337500D03*
%TD*%
D17*
%TO.P,LED1,1,A*%
%TO.N,Net-(LED1-A)*%
X103250000Y-119520000D03*
%TO.P,LED1,2,K*%
%TO.N,GND*%
X103250000Y-116980000D03*
%TD*%
D18*
%TO.N,GND*%
X92500000Y-138250000D03*
X89000000Y-141500000D03*
X96000000Y-141500000D03*
%TD*%
D19*
%TO.N,Net-(LED1-A)*%
X103250000Y-123337500D02*
X103250000Y-119520000D01*
%TO.N,GND*%
X94000000Y-137675000D02*
X93075000Y-137675000D01*
X95550000Y-141950000D02*
X96000000Y-141500000D01*
X91925000Y-137675000D02*
X92500000Y-138250000D01*
X95550000Y-143477500D02*
X95550000Y-141950000D01*
X91000000Y-137675000D02*
X91925000Y-137675000D01*
X93075000Y-137675000D02*
X92500000Y-138250000D01*
X89450000Y-141950000D02*
X89000000Y-141500000D01*
X89450000Y-143477500D02*
X89450000Y-141950000D01*
%TO.N,VBUS*%
X95000000Y-136250000D02*
X95500000Y-136750000D01*
X94750000Y-143477500D02*
X94750000Y-141800000D01*
X95050000Y-141500000D02*
X95050000Y-137200000D01*
X90250000Y-142050000D02*
X89950000Y-141750000D01*
X95050000Y-137200000D02*
X96000000Y-136250000D01*
X89950000Y-143477500D02*
X89950000Y-141750000D01*
X94750000Y-141800000D02*
X95050000Y-141500000D01*
X89950000Y-141750000D02*
X89950000Y-137200000D01*
X95500000Y-136750000D02*
X100000000Y-136750000D01*
X89000000Y-136250000D02*
X89000000Y-132930000D01*
X85000000Y-136750000D02*
X89500000Y-136750000D01*
X81750000Y-132930000D02*
X81750000Y-133500000D01*
X90250000Y-143477500D02*
X90250000Y-142050000D01*
X95050000Y-137200000D02*
X95500000Y-136750000D01*
X96000000Y-136250000D02*
X96000000Y-132930000D01*
X90000000Y-136250000D02*
X95000000Y-136250000D01*
X103250000Y-133500000D02*
X103250000Y-132930000D01*
X89950000Y-137200000D02*
X89000000Y-136250000D01*
X81750000Y-133500000D02*
X85000000Y-136750000D01*
X89500000Y-136750000D02*
X90000000Y-136250000D01*
X95050000Y-143477500D02*
X95050000Y-141500000D01*
X100000000Y-136750000D02*
X103250000Y-133500000D01*
%TO.N,Net-(LED2-A)*%
X96000000Y-123337500D02*
X96000000Y-119520000D01*
%TO.N,Net-(LED3-A)*%
X89000000Y-123337500D02*
X89000000Y-119520000D01*
%TO.N,Net-(LED4-A)*%
X81750000Y-123587500D02*
X81750000Y-119500000D01*
%TO.N,Net-(USBC1-CC1)*%
X91000000Y-141250000D02*
X91000000Y-139325000D01*
X91227500Y-143477500D02*
X91200000Y-143450000D01*
X91200000Y-143450000D02*
X91200000Y-141450000D01*
X91250000Y-143477500D02*
X91227500Y-143477500D01*
X91200000Y-141450000D02*
X91000000Y-141250000D01*
%TO.N,Net-(USBC1-CC2)*%
X94250000Y-141500000D02*
X94000000Y-141250000D01*
X94000000Y-141250000D02*
X94000000Y-139325000D01*
X94250000Y-143477500D02*
X94250000Y-141500000D01*
%TO.N,Net-(R1-Pad1)*%
X103250000Y-128570000D02*
X103250000Y-125162500D01*
%TO.N,Net-(R3-Pad1)*%
X96000000Y-128570000D02*
X96000000Y-125162500D01*
%TO.N,Net-(R4-Pad1)*%
X89000000Y-128570000D02*
X89000000Y-125162500D01*
%TO.N,Net-(R5-Pad1)*%
X81750000Y-128570000D02*
X81750000Y-125412500D01*
%TD*%
%TA.AperFunction,Conductor*%
%TO.N,GND*%
G36*
X93131740Y-136870185D02*
G01*
X93177495Y-136922989D01*
X93187439Y-136992147D01*
X93170818Y-137038650D01*
X93081980Y-137185604D01*
X93031409Y-137347893D01*
X93025000Y-137418427D01*
X93025000Y-137425000D01*
X94126000Y-137425000D01*
X94193039Y-137444685D01*
X94238794Y-137497489D01*
X94250000Y-137549000D01*
X94250000Y-137801000D01*
X94230315Y-137868039D01*
X94177511Y-137913794D01*
X94126000Y-137925000D01*
X93025001Y-137925000D01*
X93025001Y-137931582D01*
X93031408Y-138002102D01*
X93031409Y-138002107D01*
X93081981Y-138164396D01*
X93169927Y-138309877D01*
X93272015Y-138411965D01*
X93305500Y-138473288D01*
X93300516Y-138542980D01*
X93272015Y-138587327D01*
X93169531Y-138689810D01*
X93169530Y-138689811D01*
X93081522Y-138835393D01*
X93030913Y-138997807D01*
X93024500Y-139068386D01*
X93024500Y-139581613D01*
X93030913Y-139652192D01*
X93081522Y-139814606D01*
X93169530Y-139960188D01*
X93289811Y-140080469D01*
X93289813Y-140080470D01*
X93289815Y-140080472D01*
X93339650Y-140110598D01*
X93386838Y-140162126D01*
X93399500Y-140216715D01*
X93399500Y-141163330D01*
X93399499Y-141163348D01*
X93399499Y-141329054D01*
X93399498Y-141329054D01*
X93440424Y-141481789D01*
X93440425Y-141481790D01*
X93461455Y-141518214D01*
X93461456Y-141518216D01*
X93519475Y-141618709D01*
X93519481Y-141618717D01*
X93613181Y-141712417D01*
X93646666Y-141773740D01*
X93649500Y-141800098D01*
X93649500Y-142205148D01*
X93629815Y-142272187D01*
X93577011Y-142317942D01*
X93538753Y-142328438D01*
X93513255Y-142331179D01*
X93486748Y-142331179D01*
X93447874Y-142327000D01*
X93052130Y-142327000D01*
X93052119Y-142327001D01*
X93013253Y-142331179D01*
X92986748Y-142331179D01*
X92947874Y-142327000D01*
X92552130Y-142327000D01*
X92552119Y-142327001D01*
X92513253Y-142331179D01*
X92486748Y-142331179D01*
X92447874Y-142327000D01*
X92052130Y-142327000D01*
X92052119Y-142327001D01*
X92013253Y-142331179D01*
X91986748Y-142331179D01*
X91947875Y-142327000D01*
X91947873Y-142327000D01*
X91924500Y-142327000D01*
X91857461Y-142307315D01*
X91811706Y-142254511D01*
X91800500Y-142203000D01*
X91800500Y-141539060D01*
X91800501Y-141539047D01*
X91800501Y-141370944D01*
X91789277Y-141329057D01*
X91759577Y-141218216D01*
X91727889Y-141163330D01*
X91680524Y-141081290D01*
X91680518Y-141081282D01*
X91636819Y-141037583D01*
X91603334Y-140976260D01*
X91600500Y-140949902D01*
X91600500Y-140216715D01*
X91620185Y-140149676D01*
X91660349Y-140110598D01*
X91710185Y-140080472D01*
X91830472Y-139960185D01*
X91918478Y-139814606D01*
X91969086Y-139652196D01*
X91975500Y-139581616D01*
X91975500Y-139068384D01*
X91969086Y-138997804D01*
X91918478Y-138835394D01*
X91830472Y-138689815D01*
X91830470Y-138689813D01*
X91830469Y-138689811D01*
X91727984Y-138587326D01*
X91694499Y-138526003D01*
X91699483Y-138456311D01*
X91727985Y-138411963D01*
X91830071Y-138309878D01*
X91830072Y-138309877D01*
X91918019Y-138164395D01*
X91968590Y-138002106D01*
X91975000Y-137931572D01*
X91975000Y-137925000D01*
X90874000Y-137925000D01*
X90806961Y-137905315D01*
X90761206Y-137852511D01*
X90750000Y-137801000D01*
X90750000Y-137549000D01*
X90769685Y-137481961D01*
X90822489Y-137436206D01*
X90874000Y-137425000D01*
X91974999Y-137425000D01*
X91974999Y-137418417D01*
X91968591Y-137347897D01*
X91968590Y-137347892D01*
X91918018Y-137185603D01*
X91829182Y-137038650D01*
X91811346Y-136971096D01*
X91832863Y-136904622D01*
X91886904Y-136860334D01*
X91935299Y-136850500D01*
X93064701Y-136850500D01*
X93131740Y-136870185D01*
G37*
%TD.AperFunction*%
%TA.AperFunction,Conductor*%
G36*
X80712510Y-116020185D02*
G01*
X80758265Y-116072989D01*
X80768209Y-116142147D01*
X80747046Y-116195623D01*
X80654642Y-116327589D01*
X80654640Y-116327593D01*
X80561466Y-116527404D01*
X80504402Y-116740366D01*
X80504401Y-116740373D01*
X80485187Y-116959998D01*
X80485187Y-116960001D01*
X80504401Y-117179626D01*
X80504402Y-117179634D01*
X80561463Y-117392587D01*
X80561466Y-117392593D01*
X80654638Y-117592402D01*
X80699694Y-117656750D01*
X81301982Y-117054462D01*
X81323958Y-117136473D01*
X81384149Y-117240727D01*
X81469273Y-117325851D01*
X81573527Y-117386042D01*
X81655536Y-117408016D01*
X81053247Y-118010304D01*
X81117593Y-118055360D01*
X81250514Y-118117342D01*
X81302953Y-118163514D01*
X81322105Y-118230708D01*
X81301889Y-118297589D01*
X81250514Y-118342106D01*
X81117344Y-118404204D01*
X81117342Y-118404205D01*
X80936668Y-118530713D01*
X80780713Y-118686668D01*
X80654205Y-118867342D01*
X80654204Y-118867344D01*
X80560994Y-119067235D01*
X80560990Y-119067244D01*
X80503909Y-119280275D01*
X80503907Y-119280285D01*
X80484685Y-119499998D01*
X80484685Y-119500001D01*
X80503907Y-119719714D01*
X80503909Y-119719724D01*
X80560990Y-119932755D01*
X80560995Y-119932769D01*
X80654203Y-120132654D01*
X80654207Y-120132662D01*
X80780712Y-120313330D01*
X80936668Y-120469286D01*
X80936671Y-120469288D01*
X81096623Y-120581287D01*
X81140248Y-120635864D01*
X81149500Y-120682862D01*
X81149500Y-122494699D01*
X81129815Y-122561738D01*
X81077011Y-122607493D01*
X81064507Y-122612403D01*
X81031962Y-122623188D01*
X80980668Y-122640185D01*
X80980663Y-122640187D01*
X80831342Y-122732289D01*
X80707289Y-122856342D01*
X80615187Y-123005663D01*
X80615186Y-123005666D01*
X80560001Y-123172203D01*
X80560001Y-123172204D01*
X80560000Y-123172204D01*
X80549500Y-123274983D01*
X80549500Y-123900001D01*
X80549501Y-123900019D01*
X80560000Y-124002796D01*
X80560001Y-124002799D01*
X80615185Y-124169331D01*
X80615187Y-124169336D01*
X80638212Y-124206666D01*
X80700276Y-124307288D01*
X80707289Y-124318657D01*
X80800951Y-124412319D01*
X80834436Y-124473642D01*
X80829452Y-124543334D01*
X80800951Y-124587681D01*
X80707289Y-124681342D01*
X80615187Y-124830663D01*
X80615186Y-124830666D01*
X80560001Y-124997203D01*
X80560001Y-124997204D01*
X80560000Y-124997204D01*
X80549500Y-125099983D01*
X80549500Y-125725001D01*
X80549501Y-125725019D01*
X80560000Y-125827796D01*
X80560001Y-125827799D01*
X80615185Y-125994331D01*
X80615187Y-125994336D01*
X80650069Y-126050888D01*
X80707288Y-126143656D01*
X80831344Y-126267712D01*
X80980666Y-126359814D01*
X81064505Y-126387595D01*
X81121948Y-126427366D01*
X81148772Y-126491882D01*
X81149500Y-126505300D01*
X81149500Y-127330500D01*
X81129815Y-127397539D01*
X81077011Y-127443294D01*
X81025519Y-127454500D01*
X81022139Y-127454500D01*
X81022123Y-127454501D01*
X80962516Y-127460908D01*
X80827671Y-127511202D01*
X80827664Y-127511206D01*
X80712455Y-127597452D01*
X80712452Y-127597455D01*
X80626206Y-127712664D01*
X80626202Y-127712671D01*
X80575908Y-127847517D01*
X80569501Y-127907116D01*
X80569501Y-127907123D01*
X80569500Y-127907135D01*
X80569500Y-129232870D01*
X80569501Y-129232876D01*
X80575908Y-129292483D01*
X80626202Y-129427328D01*
X80626206Y-129427335D01*
X80712452Y-129542544D01*
X80712455Y-129542547D01*
X80827664Y-129628793D01*
X80827671Y-129628797D01*
X80962517Y-129679091D01*
X80962516Y-129679091D01*
X80969444Y-129679835D01*
X81022127Y-129685500D01*
X82477872Y-129685499D01*
X82537483Y-129679091D01*
X82672331Y-129628796D01*
X82787546Y-129542546D01*
X82873796Y-129427331D01*
X82924091Y-129292483D01*
X82930500Y-129232873D01*
X82930499Y-127907128D01*
X82924091Y-127847517D01*
X82873796Y-127712669D01*
X82873795Y-127712668D01*
X82873793Y-127712664D01*
X82787547Y-127597455D01*
X82787544Y-127597452D01*
X82672335Y-127511206D01*
X82672328Y-127511202D01*
X82537482Y-127460908D01*
X82537483Y-127460908D01*
X82477883Y-127454501D01*
X82477881Y-127454500D01*
X82477873Y-127454500D01*
X82477865Y-127454500D01*
X82474500Y-127454500D01*
X82407461Y-127434815D01*
X82361706Y-127382011D01*
X82350500Y-127330500D01*
X82350500Y-126505300D01*
X82370185Y-126438261D01*
X82422989Y-126392506D01*
X82435482Y-126387599D01*
X82519334Y-126359814D01*
X82668656Y-126267712D01*
X82792712Y-126143656D01*
X82884814Y-125994334D01*
X82939999Y-125827797D01*
X82950500Y-125725009D01*
X82950499Y-125099992D01*
X82939999Y-124997203D01*
X82884814Y-124830666D01*
X82792712Y-124681344D01*
X82699049Y-124587681D01*
X82665564Y-124526358D01*
X82670548Y-124456666D01*
X82699049Y-124412319D01*
X82792712Y-124318656D01*
X82884814Y-124169334D01*
X82939999Y-124002797D01*
X82950500Y-123900009D01*
X82950499Y-123274992D01*
X82939999Y-123172203D01*
X82884814Y-123005666D01*
X82792712Y-122856344D01*
X82668656Y-122732288D01*
X82519334Y-122640186D01*
X82435495Y-122612404D01*
X82378051Y-122572632D01*
X82351228Y-122508116D01*
X82350500Y-122494699D01*
X82350500Y-120682862D01*
X82370185Y-120615823D01*
X82403375Y-120581288D01*
X82563329Y-120469288D01*
X82719288Y-120313329D01*
X82845795Y-120132658D01*
X82939007Y-119932763D01*
X82996092Y-119719720D01*
X83015315Y-119500000D01*
X82996092Y-119280280D01*
X82944366Y-119087237D01*
X82939009Y-119067244D01*
X82939008Y-119067243D01*
X82939007Y-119067237D01*
X82845795Y-118867343D01*
X82719288Y-118686671D01*
X82719286Y-118686668D01*
X82563330Y-118530712D01*
X82382662Y-118404207D01*
X82382654Y-118404203D01*
X82249486Y-118342106D01*
X82197046Y-118295934D01*
X82177894Y-118228740D01*
X82198110Y-118161859D01*
X82249486Y-118117342D01*
X82382402Y-118055362D01*
X82382410Y-118055358D01*
X82446751Y-118010305D01*
X82446751Y-118010304D01*
X81844464Y-117408016D01*
X81926473Y-117386042D01*
X82030727Y-117325851D01*
X82115851Y-117240727D01*
X82176042Y-117136473D01*
X82198016Y-117054462D01*
X82800305Y-117656751D01*
X82845358Y-117592410D01*
X82845362Y-117592402D01*
X82938532Y-117392598D01*
X82938536Y-117392587D01*
X82995597Y-117179634D01*
X82995598Y-117179626D01*
X83014813Y-116960001D01*
X83014813Y-116959998D01*
X82995598Y-116740373D01*
X82995597Y-116740366D01*
X82938533Y-116527404D01*
X82845359Y-116327593D01*
X82845357Y-116327589D01*
X82752954Y-116195623D01*
X82730627Y-116129417D01*
X82747637Y-116061650D01*
X82798586Y-116013837D01*
X82854529Y-116000500D01*
X87909475Y-116000500D01*
X87976514Y-116020185D01*
X88022269Y-116072989D01*
X88032213Y-116142147D01*
X88011050Y-116195623D01*
X87904642Y-116347589D01*
X87904640Y-116347593D01*
X87811466Y-116547404D01*
X87754402Y-116760366D01*
X87754401Y-116760373D01*
X87735187Y-116979998D01*
X87735187Y-116980001D01*
X87754401Y-117199626D01*
X87754402Y-117199634D01*
X87811463Y-117412587D01*
X87811466Y-117412593D01*
X87904638Y-117612402D01*
X87949694Y-117676750D01*
X88551982Y-117074462D01*
X88573958Y-117156473D01*
X88634149Y-117260727D01*
X88719273Y-117345851D01*
X88823527Y-117406042D01*
X88905536Y-117428016D01*
X88303247Y-118030304D01*
X88367593Y-118075360D01*
X88500514Y-118137342D01*
X88552953Y-118183514D01*
X88572105Y-118250708D01*
X88551889Y-118317589D01*
X88500514Y-118362106D01*
X88367344Y-118424204D01*
X88367342Y-118424205D01*
X88186668Y-118550713D01*
X88030713Y-118706668D01*
X87904205Y-118887342D01*
X87904204Y-118887344D01*
X87810994Y-119087235D01*
X87810990Y-119087244D01*
X87753909Y-119300275D01*
X87753907Y-119300285D01*
X87734685Y-119519998D01*
X87734685Y-119520001D01*
X87753907Y-119739714D01*
X87753909Y-119739724D01*
X87810990Y-119952755D01*
X87810995Y-119952769D01*
X87904203Y-120152654D01*
X87904207Y-120152662D01*
X88030712Y-120333330D01*
X88186668Y-120489286D01*
X88186671Y-120489288D01*
X88346623Y-120601287D01*
X88390248Y-120655864D01*
X88399500Y-120702862D01*
X88399500Y-122244699D01*
X88379815Y-122311738D01*
X88327011Y-122357493D01*
X88314507Y-122362403D01*
X88281962Y-122373188D01*
X88230668Y-122390185D01*
X88230663Y-122390187D01*
X88081342Y-122482289D01*
X87957289Y-122606342D01*
X87865187Y-122755663D01*
X87865186Y-122755666D01*
X87810001Y-122922203D01*
X87810001Y-122922204D01*
X87810000Y-122922204D01*
X87799500Y-123024983D01*
X87799500Y-123650001D01*
X87799501Y-123650019D01*
X87810000Y-123752796D01*
X87810001Y-123752799D01*
X87858780Y-123900001D01*
X87865186Y-123919334D01*
X87916665Y-124002796D01*
X87957289Y-124068657D01*
X88050951Y-124162319D01*
X88084436Y-124223642D01*
X88079452Y-124293334D01*
X88050951Y-124337681D01*
X87957289Y-124431342D01*
X87865187Y-124580663D01*
X87865186Y-124580666D01*
X87810001Y-124747203D01*
X87810001Y-124747204D01*
X87810000Y-124747204D01*
X87799500Y-124849983D01*
X87799500Y-125475001D01*
X87799501Y-125475019D01*
X87810000Y-125577796D01*
X87810001Y-125577799D01*
X87858780Y-125725001D01*
X87865186Y-125744334D01*
X87957288Y-125893656D01*
X88081344Y-126017712D01*
X88230666Y-126109814D01*
X88314505Y-126137595D01*
X88371948Y-126177366D01*
X88398772Y-126241882D01*
X88399500Y-126255300D01*
X88399500Y-127330500D01*
X88379815Y-127397539D01*
X88327011Y-127443294D01*
X88275519Y-127454500D01*
X88272139Y-127454500D01*
X88272123Y-127454501D01*
X88212516Y-127460908D01*
X88077671Y-127511202D01*
X88077664Y-127511206D01*
X87962455Y-127597452D01*
X87962452Y-127597455D01*
X87876206Y-127712664D01*
X87876202Y-127712671D01*
X87825908Y-127847517D01*
X87819501Y-127907116D01*
X87819501Y-127907123D01*
X87819500Y-127907135D01*
X87819500Y-129232870D01*
X87819501Y-129232876D01*
X87825908Y-129292483D01*
X87876202Y-129427328D01*
X87876206Y-129427335D01*
X87962452Y-129542544D01*
X87962455Y-129542547D01*
X88077664Y-129628793D01*
X88077671Y-129628797D01*
X88212517Y-129679091D01*
X88212516Y-129679091D01*
X88219444Y-129679835D01*
X88272127Y-129685500D01*
X89727872Y-129685499D01*
X89787483Y-129679091D01*
X89922331Y-129628796D01*
X90037546Y-129542546D01*
X90123796Y-129427331D01*
X90174091Y-129292483D01*
X90180500Y-129232873D01*
X90180499Y-127907128D01*
X90174091Y-127847517D01*
X90123796Y-127712669D01*
X90123795Y-127712668D01*
X90123793Y-127712664D01*
X90037547Y-127597455D01*
X90037544Y-127597452D01*
X89922335Y-127511206D01*
X89922328Y-127511202D01*
X89787482Y-127460908D01*
X89787483Y-127460908D01*
X89727883Y-127454501D01*
X89727881Y-127454500D01*
X89727873Y-127454500D01*
X89727865Y-127454500D01*
X89724500Y-127454500D01*
X89657461Y-127434815D01*
X89611706Y-127382011D01*
X89600500Y-127330500D01*
X89600500Y-126255300D01*
X89620185Y-126188261D01*
X89672989Y-126142506D01*
X89685482Y-126137599D01*
X89769334Y-126109814D01*
X89918656Y-126017712D01*
X90042712Y-125893656D01*
X90134814Y-125744334D01*
X90189999Y-125577797D01*
X90200500Y-125475009D01*
X90200499Y-124849992D01*
X90189999Y-124747203D01*
X90134814Y-124580666D01*
X90042712Y-124431344D01*
X89949049Y-124337681D01*
X89915564Y-124276358D01*
X89920548Y-124206666D01*
X89949049Y-124162319D01*
X90042712Y-124068656D01*
X90134814Y-123919334D01*
X90189999Y-123752797D01*
X90200500Y-123650009D01*
X90200499Y-123024992D01*
X90189999Y-122922203D01*
X90134814Y-122755666D01*
X90042712Y-122606344D01*
X89918656Y-122482288D01*
X89769334Y-122390186D01*
X89685495Y-122362404D01*
X89628051Y-122322632D01*
X89601228Y-122258116D01*
X89600500Y-122244699D01*
X89600500Y-120702862D01*
X89620185Y-120635823D01*
X89653375Y-120601288D01*
X89813329Y-120489288D01*
X89969288Y-120333329D01*
X90095795Y-120152658D01*
X90189007Y-119952763D01*
X90246092Y-119739720D01*
X90265315Y-119520000D01*
X90246092Y-119300280D01*
X90189007Y-119087237D01*
X90095795Y-118887343D01*
X89969288Y-118706671D01*
X89969286Y-118706668D01*
X89813330Y-118550712D01*
X89632662Y-118424207D01*
X89632654Y-118424203D01*
X89499486Y-118362106D01*
X89447046Y-118315934D01*
X89427894Y-118248740D01*
X89448110Y-118181859D01*
X89499486Y-118137342D01*
X89632402Y-118075362D01*
X89632410Y-118075358D01*
X89696751Y-118030305D01*
X89696751Y-118030304D01*
X89094464Y-117428016D01*
X89176473Y-117406042D01*
X89280727Y-117345851D01*
X89365851Y-117260727D01*
X89426042Y-117156473D01*
X89448016Y-117074462D01*
X90050305Y-117676751D01*
X90095358Y-117612410D01*
X90095362Y-117612402D01*
X90188532Y-117412598D01*
X90188536Y-117412587D01*
X90245597Y-117199634D01*
X90245598Y-117199626D01*
X90264813Y-116980001D01*
X90264813Y-116979998D01*
X90245598Y-116760373D01*
X90245597Y-116760366D01*
X90188533Y-116547404D01*
X90095359Y-116347593D01*
X90095357Y-116347589D01*
X89988950Y-116195623D01*
X89966623Y-116129417D01*
X89983633Y-116061650D01*
X90034582Y-116013837D01*
X90090525Y-116000500D01*
X94909475Y-116000500D01*
X94976514Y-116020185D01*
X95022269Y-116072989D01*
X95032213Y-116142147D01*
X95011050Y-116195623D01*
X94904642Y-116347589D01*
X94904640Y-116347593D01*
X94811466Y-116547404D01*
X94754402Y-116760366D01*
X94754401Y-116760373D01*
X94735187Y-116979998D01*
X94735187Y-116980001D01*
X94754401Y-117199626D01*
X94754402Y-117199634D01*
X94811463Y-117412587D01*
X94811466Y-117412593D01*
X94904638Y-117612402D01*
X94949694Y-117676750D01*
X95551982Y-117074462D01*
X95573958Y-117156473D01*
X95634149Y-117260727D01*
X95719273Y-117345851D01*
X95823527Y-117406042D01*
X95905536Y-117428016D01*
X95303247Y-118030304D01*
X95367593Y-118075360D01*
X95500514Y-118137342D01*
X95552953Y-118183514D01*
X95572105Y-118250708D01*
X95551889Y-118317589D01*
X95500514Y-118362106D01*
X95367344Y-118424204D01*
X95367342Y-118424205D01*
X95186668Y-118550713D01*
X95030713Y-118706668D01*
X94904205Y-118887342D01*
X94904204Y-118887344D01*
X94810994Y-119087235D01*
X94810990Y-119087244D01*
X94753909Y-119300275D01*
X94753907Y-119300285D01*
X94734685Y-119519998D01*
X94734685Y-119520001D01*
X94753907Y-119739714D01*
X94753909Y-119739724D01*
X94810990Y-119952755D01*
X94810995Y-119952769D01*
X94904203Y-120152654D01*
X94904207Y-120152662D01*
X95030712Y-120333330D01*
X95186668Y-120489286D01*
X95186671Y-120489288D01*
X95346623Y-120601287D01*
X95390248Y-120655864D01*
X95399500Y-120702862D01*
X95399500Y-122244699D01*
X95379815Y-122311738D01*
X95327011Y-122357493D01*
X95314507Y-122362403D01*
X95281962Y-122373188D01*
X95230668Y-122390185D01*
X95230663Y-122390187D01*
X95081342Y-122482289D01*
X94957289Y-122606342D01*
X94865187Y-122755663D01*
X94865186Y-122755666D01*
X94810001Y-122922203D01*
X94810001Y-122922204D01*
X94810000Y-122922204D01*
X94799500Y-123024983D01*
X94799500Y-123650001D01*
X94799501Y-123650019D01*
X94810000Y-123752796D01*
X94810001Y-123752799D01*
X94858780Y-123900001D01*
X94865186Y-123919334D01*
X94916665Y-124002796D01*
X94957289Y-124068657D01*
X95050951Y-124162319D01*
X95084436Y-124223642D01*
X95079452Y-124293334D01*
X95050951Y-124337681D01*
X94957289Y-124431342D01*
X94865187Y-124580663D01*
X94865186Y-124580666D01*
X94810001Y-124747203D01*
X94810001Y-124747204D01*
X94810000Y-124747204D01*
X94799500Y-124849983D01*
X94799500Y-125475001D01*
X94799501Y-125475019D01*
X94810000Y-125577796D01*
X94810001Y-125577799D01*
X94858780Y-125725001D01*
X94865186Y-125744334D01*
X94957288Y-125893656D01*
X95081344Y-126017712D01*
X95230666Y-126109814D01*
X95314505Y-126137595D01*
X95371948Y-126177366D01*
X95398772Y-126241882D01*
X95399500Y-126255300D01*
X95399500Y-127330500D01*
X95379815Y-127397539D01*
X95327011Y-127443294D01*
X95275519Y-127454500D01*
X95272139Y-127454500D01*
X95272123Y-127454501D01*
X95212516Y-127460908D01*
X95077671Y-127511202D01*
X95077664Y-127511206D01*
X94962455Y-127597452D01*
X94962452Y-127597455D01*
X94876206Y-127712664D01*
X94876202Y-127712671D01*
X94825908Y-127847517D01*
X94819501Y-127907116D01*
X94819501Y-127907123D01*
X94819500Y-127907135D01*
X94819500Y-129232870D01*
X94819501Y-129232876D01*
X94825908Y-129292483D01*
X94876202Y-129427328D01*
X94876206Y-129427335D01*
X94962452Y-129542544D01*
X94962455Y-129542547D01*
X95077664Y-129628793D01*
X95077671Y-129628797D01*
X95212517Y-129679091D01*
X95212516Y-129679091D01*
X95219444Y-129679835D01*
X95272127Y-129685500D01*
X96727872Y-129685499D01*
X96787483Y-129679091D01*
X96922331Y-129628796D01*
X97037546Y-129542546D01*
X97123796Y-129427331D01*
X97174091Y-129292483D01*
X97180500Y-129232873D01*
X97180499Y-127907128D01*
X97174091Y-127847517D01*
X97123796Y-127712669D01*
X97123795Y-127712668D01*
X97123793Y-127712664D01*
X97037547Y-127597455D01*
X97037544Y-127597452D01*
X96922335Y-127511206D01*
X96922328Y-127511202D01*
X96787482Y-127460908D01*
X96787483Y-127460908D01*
X96727883Y-127454501D01*
X96727881Y-127454500D01*
X96727873Y-127454500D01*
X96727865Y-127454500D01*
X96724500Y-127454500D01*
X96657461Y-127434815D01*
X96611706Y-127382011D01*
X96600500Y-127330500D01*
X96600500Y-126255300D01*
X96620185Y-126188261D01*
X96672989Y-126142506D01*
X96685482Y-126137599D01*
X96769334Y-126109814D01*
X96918656Y-126017712D01*
X97042712Y-125893656D01*
X97134814Y-125744334D01*
X97189999Y-125577797D01*
X97200500Y-125475009D01*
X97200499Y-124849992D01*
X97189999Y-124747203D01*
X97134814Y-124580666D01*
X97042712Y-124431344D01*
X96949049Y-124337681D01*
X96915564Y-124276358D01*
X96920548Y-124206666D01*
X96949049Y-124162319D01*
X97042712Y-124068656D01*
X97134814Y-123919334D01*
X97189999Y-123752797D01*
X97200500Y-123650009D01*
X97200499Y-123024992D01*
X97189999Y-122922203D01*
X97134814Y-122755666D01*
X97042712Y-122606344D01*
X96918656Y-122482288D01*
X96769334Y-122390186D01*
X96685495Y-122362404D01*
X96628051Y-122322632D01*
X96601228Y-122258116D01*
X96600500Y-122244699D01*
X96600500Y-120702862D01*
X96620185Y-120635823D01*
X96653375Y-120601288D01*
X96813329Y-120489288D01*
X96969288Y-120333329D01*
X97095795Y-120152658D01*
X97189007Y-119952763D01*
X97246092Y-119739720D01*
X97265315Y-119520000D01*
X97246092Y-119300280D01*
X97189007Y-119087237D01*
X97095795Y-118887343D01*
X96969288Y-118706671D01*
X96969286Y-118706668D01*
X96813330Y-118550712D01*
X96632662Y-118424207D01*
X96632654Y-118424203D01*
X96499486Y-118362106D01*
X96447046Y-118315934D01*
X96427894Y-118248740D01*
X96448110Y-118181859D01*
X96499486Y-118137342D01*
X96632402Y-118075362D01*
X96632410Y-118075358D01*
X96696751Y-118030305D01*
X96696751Y-118030304D01*
X96094464Y-117428016D01*
X96176473Y-117406042D01*
X96280727Y-117345851D01*
X96365851Y-117260727D01*
X96426042Y-117156473D01*
X96448016Y-117074462D01*
X97050305Y-117676751D01*
X97095358Y-117612410D01*
X97095362Y-117612402D01*
X97188532Y-117412598D01*
X97188536Y-117412587D01*
X97245597Y-117199634D01*
X97245598Y-117199626D01*
X97264813Y-116980001D01*
X97264813Y-116979998D01*
X97245598Y-116760373D01*
X97245597Y-116760366D01*
X97188533Y-116547404D01*
X97095359Y-116347593D01*
X97095357Y-116347589D01*
X96988950Y-116195623D01*
X96966623Y-116129417D01*
X96983633Y-116061650D01*
X97034582Y-116013837D01*
X97090525Y-116000500D01*
X102159475Y-116000500D01*
X102226514Y-116020185D01*
X102272269Y-116072989D01*
X102282213Y-116142147D01*
X102261050Y-116195623D01*
X102154642Y-116347589D01*
X102154640Y-116347593D01*
X102061466Y-116547404D01*
X102004402Y-116760366D01*
X102004401Y-116760373D01*
X101985187Y-116979998D01*
X101985187Y-116980001D01*
X102004401Y-117199626D01*
X102004402Y-117199634D01*
X102061463Y-117412587D01*
X102061466Y-117412593D01*
X102154638Y-117612402D01*
X102199694Y-117676750D01*
X102801982Y-117074462D01*
X102823958Y-117156473D01*
X102884149Y-117260727D01*
X102969273Y-117345851D01*
X103073527Y-117406042D01*
X103155536Y-117428016D01*
X102553247Y-118030304D01*
X102617593Y-118075360D01*
X102750514Y-118137342D01*
X102802953Y-118183514D01*
X102822105Y-118250708D01*
X102801889Y-118317589D01*
X102750514Y-118362106D01*
X102617344Y-118424204D01*
X102617342Y-118424205D01*
X102436668Y-118550713D01*
X102280713Y-118706668D01*
X102154205Y-118887342D01*
X102154204Y-118887344D01*
X102060994Y-119087235D01*
X102060990Y-119087244D01*
X102003909Y-119300275D01*
X102003907Y-119300285D01*
X101984685Y-119519998D01*
X101984685Y-119520001D01*
X102003907Y-119739714D01*
X102003909Y-119739724D01*
X102060990Y-119952755D01*
X102060995Y-119952769D01*
X102154203Y-120152654D01*
X102154207Y-120152662D01*
X102280712Y-120333330D01*
X102436668Y-120489286D01*
X102436671Y-120489288D01*
X102596623Y-120601287D01*
X102640248Y-120655864D01*
X102649500Y-120702862D01*
X102649500Y-122244699D01*
X102629815Y-122311738D01*
X102577011Y-122357493D01*
X102564507Y-122362403D01*
X102531962Y-122373188D01*
X102480668Y-122390185D01*
X102480663Y-122390187D01*
X102331342Y-122482289D01*
X102207289Y-122606342D01*
X102115187Y-122755663D01*
X102115186Y-122755666D01*
X102060001Y-122922203D01*
X102060001Y-122922204D01*
X102060000Y-122922204D01*
X102049500Y-123024983D01*
X102049500Y-123650001D01*
X102049501Y-123650019D01*
X102060000Y-123752796D01*
X102060001Y-123752799D01*
X102108780Y-123900001D01*
X102115186Y-123919334D01*
X102166665Y-124002796D01*
X102207289Y-124068657D01*
X102300951Y-124162319D01*
X102334436Y-124223642D01*
X102329452Y-124293334D01*
X102300951Y-124337681D01*
X102207289Y-124431342D01*
X102115187Y-124580663D01*
X102115186Y-124580666D01*
X102060001Y-124747203D01*
X102060001Y-124747204D01*
X102060000Y-124747204D01*
X102049500Y-124849983D01*
X102049500Y-125475001D01*
X102049501Y-125475019D01*
X102060000Y-125577796D01*
X102060001Y-125577799D01*
X102108780Y-125725001D01*
X102115186Y-125744334D01*
X102207288Y-125893656D01*
X102331344Y-126017712D01*
X102480666Y-126109814D01*
X102564505Y-126137595D01*
X102621948Y-126177366D01*
X102648772Y-126241882D01*
X102649500Y-126255300D01*
X102649500Y-127330500D01*
X102629815Y-127397539D01*
X102577011Y-127443294D01*
X102525519Y-127454500D01*
X102522139Y-127454500D01*
X102522123Y-127454501D01*
X102462516Y-127460908D01*
X102327671Y-127511202D01*
X102327664Y-127511206D01*
X102212455Y-127597452D01*
X102212452Y-127597455D01*
X102126206Y-127712664D01*
X102126202Y-127712671D01*
X102075908Y-127847517D01*
X102069501Y-127907116D01*
X102069501Y-127907123D01*
X102069500Y-127907135D01*
X102069500Y-129232870D01*
X102069501Y-129232876D01*
X102075908Y-129292483D01*
X102126202Y-129427328D01*
X102126206Y-129427335D01*
X102212452Y-129542544D01*
X102212455Y-129542547D01*
X102327664Y-129628793D01*
X102327671Y-129628797D01*
X102462517Y-129679091D01*
X102462516Y-129679091D01*
X102469444Y-129679835D01*
X102522127Y-129685500D01*
X103977872Y-129685499D01*
X104037483Y-129679091D01*
X104172331Y-129628796D01*
X104287546Y-129542546D01*
X104373796Y-129427331D01*
X104424091Y-129292483D01*
X104430500Y-129232873D01*
X104430499Y-127907128D01*
X104424091Y-127847517D01*
X104373796Y-127712669D01*
X104373795Y-127712668D01*
X104373793Y-127712664D01*
X104287547Y-127597455D01*
X104287544Y-127597452D01*
X104172335Y-127511206D01*
X104172328Y-127511202D01*
X104037482Y-127460908D01*
X104037483Y-127460908D01*
X103977883Y-127454501D01*
X103977881Y-127454500D01*
X103977873Y-127454500D01*
X103977865Y-127454500D01*
X103974500Y-127454500D01*
X103907461Y-127434815D01*
X103861706Y-127382011D01*
X103850500Y-127330500D01*
X103850500Y-126255300D01*
X103870185Y-126188261D01*
X103922989Y-126142506D01*
X103935482Y-126137599D01*
X104019334Y-126109814D01*
X104168656Y-126017712D01*
X104292712Y-125893656D01*
X104384814Y-125744334D01*
X104439999Y-125577797D01*
X104450500Y-125475009D01*
X104450499Y-124849992D01*
X104439999Y-124747203D01*
X104384814Y-124580666D01*
X104292712Y-124431344D01*
X104199049Y-124337681D01*
X104165564Y-124276358D01*
X104170548Y-124206666D01*
X104199049Y-124162319D01*
X104292712Y-124068656D01*
X104384814Y-123919334D01*
X104439999Y-123752797D01*
X104450500Y-123650009D01*
X104450499Y-123024992D01*
X104439999Y-122922203D01*
X104384814Y-122755666D01*
X104292712Y-122606344D01*
X104168656Y-122482288D01*
X104019334Y-122390186D01*
X103935495Y-122362404D01*
X103878051Y-122322632D01*
X103851228Y-122258116D01*
X103850500Y-122244699D01*
X103850500Y-120702862D01*
X103870185Y-120635823D01*
X103903375Y-120601288D01*
X104063329Y-120489288D01*
X104219288Y-120333329D01*
X104345795Y-120152658D01*
X104439007Y-119952763D01*
X104496092Y-119739720D01*
X104515315Y-119520000D01*
X104496092Y-119300280D01*
X104439007Y-119087237D01*
X104345795Y-118887343D01*
X104219288Y-118706671D01*
X104219286Y-118706668D01*
X104063330Y-118550712D01*
X103882662Y-118424207D01*
X103882654Y-118424203D01*
X103749486Y-118362106D01*
X103697046Y-118315934D01*
X103677894Y-118248740D01*
X103698110Y-118181859D01*
X103749486Y-118137342D01*
X103882402Y-118075362D01*
X103882410Y-118075358D01*
X103946751Y-118030305D01*
X103946751Y-118030304D01*
X103344464Y-117428016D01*
X103426473Y-117406042D01*
X103530727Y-117345851D01*
X103615851Y-117260727D01*
X103676042Y-117156473D01*
X103698016Y-117074462D01*
X104300305Y-117676751D01*
X104345358Y-117612410D01*
X104345362Y-117612402D01*
X104438532Y-117412598D01*
X104438536Y-117412587D01*
X104495597Y-117199634D01*
X104495598Y-117199626D01*
X104514813Y-116980001D01*
X104514813Y-116979998D01*
X104495598Y-116760373D01*
X104495597Y-116760366D01*
X104438533Y-116547404D01*
X104345359Y-116347593D01*
X104345357Y-116347589D01*
X104238950Y-116195623D01*
X104216623Y-116129417D01*
X104233633Y-116061650D01*
X104284582Y-116013837D01*
X104340525Y-116000500D01*
X105625500Y-116000500D01*
X105692539Y-116020185D01*
X105738294Y-116072989D01*
X105749500Y-116124500D01*
X105749500Y-149375500D01*
X105729815Y-149442539D01*
X105677011Y-149488294D01*
X105625500Y-149499500D01*
X97865501Y-149499500D01*
X97798462Y-149479815D01*
X97752707Y-149427011D01*
X97742763Y-149357853D01*
X97765182Y-149302616D01*
X97771230Y-149294291D01*
X97771232Y-149294288D01*
X97849873Y-149139945D01*
X97903402Y-148975201D01*
X97930500Y-148804111D01*
X97930500Y-148030889D01*
X97903402Y-147859799D01*
X97849873Y-147695055D01*
X97771232Y-147540712D01*
X97669414Y-147400572D01*
X97546928Y-147278086D01*
X97406788Y-147176268D01*
X97252445Y-147097627D01*
X97087701Y-147044098D01*
X97087699Y-147044097D01*
X97087698Y-147044097D01*
X96956271Y-147023281D01*
X96916611Y-147017000D01*
X96743389Y-147017000D01*
X96703728Y-147023281D01*
X96572302Y-147044097D01*
X96407552Y-147097628D01*
X96253211Y-147176268D01*
X96173256Y-147234359D01*
X96113072Y-147278086D01*
X96113070Y-147278088D01*
X96113069Y-147278088D01*
X95990588Y-147400569D01*
X95990588Y-147400570D01*
X95990586Y-147400572D01*
X95946859Y-147460756D01*
X95888768Y-147540711D01*
X95810128Y-147695052D01*
X95756597Y-147859802D01*
X95729500Y-148030889D01*
X95729500Y-148804110D01*
X95756597Y-148975197D01*
X95810128Y-149139947D01*
X95888769Y-149294291D01*
X95894818Y-149302616D01*
X95918297Y-149368422D01*
X95902471Y-149436476D01*
X95852364Y-149485170D01*
X95794499Y-149499500D01*
X89205501Y-149499500D01*
X89138462Y-149479815D01*
X89092707Y-149427011D01*
X89082763Y-149357853D01*
X89105182Y-149302616D01*
X89111230Y-149294291D01*
X89111232Y-149294288D01*
X89189873Y-149139945D01*
X89243402Y-148975201D01*
X89270500Y-148804111D01*
X89270500Y-148030889D01*
X89243402Y-147859799D01*
X89189873Y-147695055D01*
X89111232Y-147540712D01*
X89009414Y-147400572D01*
X88886928Y-147278086D01*
X88746788Y-147176268D01*
X88592445Y-147097627D01*
X88427701Y-147044098D01*
X88427699Y-147044097D01*
X88427698Y-147044097D01*
X88296271Y-147023281D01*
X88256611Y-147017000D01*
X88083389Y-147017000D01*
X88043728Y-147023281D01*
X87912302Y-147044097D01*
X87747552Y-147097628D01*
X87593211Y-147176268D01*
X87513256Y-147234359D01*
X87453072Y-147278086D01*
X87453070Y-147278088D01*
X87453069Y-147278088D01*
X87330588Y-147400569D01*
X87330588Y-147400570D01*
X87330586Y-147400572D01*
X87286859Y-147460756D01*
X87228768Y-147540711D01*
X87150128Y-147695052D01*
X87096597Y-147859802D01*
X87069500Y-148030889D01*
X87069500Y-148804110D01*
X87096597Y-148975197D01*
X87150128Y-149139947D01*
X87228769Y-149294291D01*
X87234818Y-149302616D01*
X87258297Y-149368422D01*
X87242471Y-149436476D01*
X87192364Y-149485170D01*
X87134499Y-149499500D01*
X79124500Y-149499500D01*
X79057461Y-149479815D01*
X79011706Y-149427011D01*
X79000500Y-149375500D01*
X79000500Y-132267135D01*
X80569500Y-132267135D01*
X80569500Y-133592870D01*
X80569501Y-133592876D01*
X80575908Y-133652483D01*
X80626202Y-133787328D01*
X80626206Y-133787335D01*
X80712452Y-133902544D01*
X80712455Y-133902547D01*
X80827664Y-133988793D01*
X80827671Y-133988797D01*
X80872618Y-134005561D01*
X80962517Y-134039091D01*
X81022127Y-134045500D01*
X81394902Y-134045499D01*
X81461941Y-134065183D01*
X81482583Y-134081818D01*
X84515139Y-137114374D01*
X84515149Y-137114385D01*
X84519479Y-137118715D01*
X84519480Y-137118716D01*
X84631284Y-137230520D01*
X84631286Y-137230521D01*
X84631290Y-137230524D01*
X84715352Y-137279057D01*
X84715353Y-137279057D01*
X84768215Y-137309577D01*
X84920943Y-137350500D01*
X85079057Y-137350500D01*
X89199903Y-137350500D01*
X89266942Y-137370185D01*
X89287584Y-137386819D01*
X89313181Y-137412416D01*
X89346666Y-137473739D01*
X89349500Y-137500097D01*
X89349500Y-141663330D01*
X89349499Y-141663348D01*
X89349499Y-141839046D01*
X89349500Y-141839059D01*
X89349500Y-142226638D01*
X89329815Y-142293677D01*
X89313181Y-142314319D01*
X89300000Y-142327500D01*
X89300000Y-142768326D01*
X89299572Y-142776298D01*
X89299678Y-142776304D01*
X89299500Y-142779628D01*
X89299500Y-143138207D01*
X89279815Y-143205246D01*
X89227011Y-143251001D01*
X89157853Y-143260945D01*
X89094297Y-143231920D01*
X89075182Y-143211093D01*
X89023682Y-143140210D01*
X89000202Y-143074404D01*
X89000000Y-143067324D01*
X89000000Y-142327500D01*
X88952155Y-142327500D01*
X88892627Y-142333901D01*
X88892620Y-142333903D01*
X88757913Y-142384145D01*
X88757906Y-142384149D01*
X88642812Y-142470309D01*
X88642809Y-142470312D01*
X88556649Y-142585406D01*
X88556646Y-142585412D01*
X88521958Y-142678414D01*
X88480086Y-142734347D01*
X88414621Y-142758764D01*
X88386378Y-142757553D01*
X88329838Y-142748598D01*
X88256611Y-142737000D01*
X88083389Y-142737000D01*
X88043728Y-142743281D01*
X87912302Y-142764097D01*
X87747552Y-142817628D01*
X87593211Y-142896268D01*
X87513256Y-142954359D01*
X87453072Y-142998086D01*
X87453070Y-142998088D01*
X87453069Y-142998088D01*
X87330588Y-143120569D01*
X87330588Y-143120570D01*
X87330586Y-143120572D01*
X87317772Y-143138209D01*
X87228768Y-143260711D01*
X87150128Y-143415052D01*
X87096597Y-143579802D01*
X87069500Y-143750889D01*
X87069500Y-144724111D01*
X87096598Y-144895201D01*
X87150127Y-145059945D01*
X87228768Y-145214288D01*
X87330586Y-145354428D01*
X87453072Y-145476914D01*
X87593212Y-145578732D01*
X87747555Y-145657373D01*
X87912299Y-145710902D01*
X88083389Y-145738000D01*
X88083390Y-145738000D01*
X88256610Y-145738000D01*
X88256611Y-145738000D01*
X88427701Y-145710902D01*
X88592445Y-145657373D01*
X88746788Y-145578732D01*
X88886928Y-145476914D01*
X88912632Y-145451209D01*
X88973954Y-145417724D01*
X89043646Y-145422707D01*
X89069200Y-145435785D01*
X89097290Y-145454554D01*
X89101285Y-145457339D01*
X89159836Y-145499879D01*
X89159839Y-145499881D01*
X89166013Y-145502630D01*
X89184465Y-145512803D01*
X89185295Y-145513358D01*
X89185297Y-145513359D01*
X89185299Y-145513360D01*
X89228473Y-145531243D01*
X89252903Y-145541362D01*
X89255809Y-145542609D01*
X89327966Y-145574736D01*
X89328130Y-145574770D01*
X89338657Y-145578043D01*
X89338796Y-145577586D01*
X89344615Y-145579350D01*
X89344626Y-145579355D01*
X89376701Y-145585734D01*
X89422832Y-145594911D01*
X89424363Y-145595225D01*
X89507981Y-145613000D01*
X89507982Y-145613000D01*
X89692017Y-145613000D01*
X89692019Y-145613000D01*
X89775656Y-145595221D01*
X89777164Y-145594911D01*
X89855374Y-145579355D01*
X89855379Y-145579353D01*
X89861203Y-145577587D01*
X89861342Y-145578047D01*
X89871875Y-145574769D01*
X89872034Y-145574736D01*
X89944137Y-145542633D01*
X89947085Y-145541366D01*
X90014705Y-145513358D01*
X90015514Y-145512817D01*
X90033981Y-145502631D01*
X90040161Y-145499881D01*
X90098741Y-145457318D01*
X90102683Y-145454571D01*
X90158099Y-145417545D01*
X90163448Y-145412194D01*
X90178246Y-145399555D01*
X90189050Y-145391707D01*
X90233122Y-145342757D01*
X90237554Y-145338088D01*
X90280045Y-145295599D01*
X90287911Y-145283825D01*
X90298852Y-145269757D01*
X90312195Y-145254940D01*
X90341859Y-145203558D01*
X90346106Y-145196729D01*
X90375858Y-145152205D01*
X90383793Y-145133048D01*
X90390958Y-145118516D01*
X90404214Y-145095559D01*
X90420516Y-145045385D01*
X90423879Y-145036271D01*
X90441851Y-144992883D01*
X90441855Y-144992874D01*
X90447180Y-144966099D01*
X90450863Y-144951985D01*
X90461085Y-144920529D01*
X90465913Y-144874580D01*
X90467617Y-144863355D01*
X90475500Y-144823732D01*
X90475500Y-144789879D01*
X90476179Y-144776919D01*
X90480160Y-144739039D01*
X90506744Y-144674424D01*
X90564041Y-144634438D01*
X90603475Y-144627999D01*
X90947872Y-144627999D01*
X90947885Y-144627998D01*
X90986744Y-144623820D01*
X91013252Y-144623820D01*
X91052127Y-144628000D01*
X91447872Y-144627999D01*
X91447873Y-144627998D01*
X91447885Y-144627998D01*
X91486744Y-144623820D01*
X91513252Y-144623820D01*
X91552127Y-144628000D01*
X91947872Y-144627999D01*
X91947873Y-144627998D01*
X91947885Y-144627998D01*
X91986744Y-144623820D01*
X92013252Y-144623820D01*
X92052127Y-144628000D01*
X92447872Y-144627999D01*
X92447873Y-144627998D01*
X92447885Y-144627998D01*
X92486744Y-144623820D01*
X92513252Y-144623820D01*
X92552127Y-144628000D01*
X92947872Y-144627999D01*
X92947873Y-144627998D01*
X92947885Y-144627998D01*
X92986744Y-144623820D01*
X93013252Y-144623820D01*
X93052127Y-144628000D01*
X93447872Y-144627999D01*
X93447873Y-144627998D01*
X93447885Y-144627998D01*
X93486744Y-144623820D01*
X93513252Y-144623820D01*
X93552127Y-144628000D01*
X93947872Y-144627999D01*
X93947873Y-144627998D01*
X93947885Y-144627998D01*
X93986744Y-144623820D01*
X94013252Y-144623820D01*
X94052127Y-144628000D01*
X94396518Y-144627999D01*
X94463557Y-144647683D01*
X94509312Y-144700487D01*
X94519838Y-144739035D01*
X94523820Y-144776915D01*
X94524500Y-144789879D01*
X94524500Y-144823729D01*
X94532383Y-144863363D01*
X94534085Y-144874587D01*
X94538914Y-144920527D01*
X94549135Y-144951985D01*
X94552820Y-144966107D01*
X94558143Y-144992868D01*
X94558144Y-144992870D01*
X94558145Y-144992874D01*
X94558149Y-144992883D01*
X94576116Y-145036260D01*
X94579484Y-145045390D01*
X94595786Y-145095560D01*
X94595787Y-145095561D01*
X94609035Y-145118508D01*
X94616206Y-145133048D01*
X94624142Y-145152205D01*
X94624143Y-145152208D01*
X94653878Y-145196709D01*
X94658163Y-145203599D01*
X94687803Y-145254938D01*
X94687808Y-145254945D01*
X94701140Y-145269751D01*
X94712091Y-145283830D01*
X94719956Y-145295600D01*
X94719958Y-145295603D01*
X94762426Y-145338070D01*
X94766897Y-145342781D01*
X94810947Y-145391705D01*
X94821752Y-145399555D01*
X94836547Y-145412191D01*
X94841901Y-145417545D01*
X94897290Y-145454554D01*
X94901285Y-145457339D01*
X94959836Y-145499879D01*
X94959839Y-145499881D01*
X94966013Y-145502630D01*
X94984465Y-145512803D01*
X94985295Y-145513358D01*
X94985297Y-145513359D01*
X94985299Y-145513360D01*
X95028473Y-145531243D01*
X95052903Y-145541362D01*
X95055809Y-145542609D01*
X95127966Y-145574736D01*
X95128130Y-145574770D01*
X95138657Y-145578043D01*
X95138796Y-145577586D01*
X95144615Y-145579350D01*
X95144626Y-145579355D01*
X95176701Y-145585734D01*
X95222832Y-145594911D01*
X95224363Y-145595225D01*
X95307981Y-145613000D01*
X95307982Y-145613000D01*
X95492017Y-145613000D01*
X95492019Y-145613000D01*
X95575656Y-145595221D01*
X95577164Y-145594911D01*
X95655374Y-145579355D01*
X95655379Y-145579353D01*
X95661203Y-145577587D01*
X95661342Y-145578047D01*
X95671875Y-145574769D01*
X95672034Y-145574736D01*
X95744137Y-145542633D01*
X95747085Y-145541366D01*
X95814705Y-145513358D01*
X95815514Y-145512817D01*
X95833981Y-145502631D01*
X95840161Y-145499881D01*
X95898741Y-145457318D01*
X95902683Y-145454571D01*
X95930799Y-145435785D01*
X95997476Y-145414910D01*
X96064856Y-145433396D01*
X96087367Y-145451209D01*
X96113072Y-145476914D01*
X96253212Y-145578732D01*
X96407555Y-145657373D01*
X96572299Y-145710902D01*
X96743389Y-145738000D01*
X96743390Y-145738000D01*
X96916610Y-145738000D01*
X96916611Y-145738000D01*
X97087701Y-145710902D01*
X97252445Y-145657373D01*
X97406788Y-145578732D01*
X97546928Y-145476914D01*
X97669414Y-145354428D01*
X97771232Y-145214288D01*
X97849873Y-145059945D01*
X97903402Y-144895201D01*
X97930500Y-144724111D01*
X97930500Y-143750889D01*
X97903402Y-143579799D01*
X97849873Y-143415055D01*
X97771232Y-143260712D01*
X97669414Y-143120572D01*
X97546928Y-142998086D01*
X97406788Y-142896268D01*
X97252445Y-142817627D01*
X97087701Y-142764098D01*
X97087699Y-142764097D01*
X97087698Y-142764097D01*
X96956271Y-142743281D01*
X96916611Y-142737000D01*
X96743389Y-142737000D01*
X96691364Y-142745239D01*
X96613621Y-142757553D01*
X96544327Y-142748598D01*
X96490875Y-142703602D01*
X96478041Y-142678413D01*
X96443354Y-142585413D01*
X96443350Y-142585406D01*
X96357190Y-142470312D01*
X96357187Y-142470309D01*
X96242093Y-142384149D01*
X96242086Y-142384145D01*
X96107379Y-142333903D01*
X96107372Y-142333901D01*
X96047844Y-142327500D01*
X96000000Y-142327500D01*
X96000000Y-143067324D01*
X95980315Y-143134363D01*
X95976318Y-143140209D01*
X95924817Y-143211094D01*
X95869487Y-143253760D01*
X95799874Y-143259739D01*
X95738079Y-143227133D01*
X95703722Y-143166295D01*
X95700499Y-143138209D01*
X95700499Y-142779629D01*
X95700321Y-142776304D01*
X95700426Y-142776298D01*
X95700000Y-142768336D01*
X95700000Y-142327500D01*
X95686819Y-142314319D01*
X95653334Y-142252996D01*
X95650500Y-142226638D01*
X95650500Y-137500097D01*
X95670185Y-137433058D01*
X95686819Y-137412416D01*
X95712416Y-137386819D01*
X95773739Y-137353334D01*
X95800097Y-137350500D01*
X99913331Y-137350500D01*
X99913347Y-137350501D01*
X99920943Y-137350501D01*
X100079054Y-137350501D01*
X100079057Y-137350501D01*
X100231785Y-137309577D01*
X100284647Y-137279057D01*
X100284648Y-137279057D01*
X100368709Y-137230524D01*
X100368708Y-137230524D01*
X100368716Y-137230520D01*
X100480520Y-137118716D01*
X100480520Y-137118714D01*
X100490724Y-137108511D01*
X100490728Y-137108506D01*
X103517416Y-134081818D01*
X103578739Y-134048333D01*
X103605097Y-134045499D01*
X103977871Y-134045499D01*
X103977872Y-134045499D01*
X104037483Y-134039091D01*
X104172331Y-133988796D01*
X104287546Y-133902546D01*
X104373796Y-133787331D01*
X104424091Y-133652483D01*
X104430500Y-133592873D01*
X104430499Y-132267128D01*
X104424091Y-132207517D01*
X104373796Y-132072669D01*
X104373795Y-132072668D01*
X104373793Y-132072664D01*
X104287547Y-131957455D01*
X104287544Y-131957452D01*
X104172335Y-131871206D01*
X104172328Y-131871202D01*
X104037482Y-131820908D01*
X104037483Y-131820908D01*
X103977883Y-131814501D01*
X103977881Y-131814500D01*
X103977873Y-131814500D01*
X103977864Y-131814500D01*
X102522129Y-131814500D01*
X102522123Y-131814501D01*
X102462516Y-131820908D01*
X102327671Y-131871202D01*
X102327664Y-131871206D01*
X102212455Y-131957452D01*
X102212452Y-131957455D01*
X102126206Y-132072664D01*
X102126202Y-132072671D01*
X102075908Y-132207517D01*
X102069501Y-132267116D01*
X102069501Y-132267123D01*
X102069500Y-132267135D01*
X102069500Y-133592870D01*
X102069501Y-133592876D01*
X102075908Y-133652483D01*
X102094886Y-133703365D01*
X102099870Y-133773057D01*
X102066385Y-133834378D01*
X99787584Y-136113181D01*
X99726261Y-136146666D01*
X99699903Y-136149500D01*
X96724500Y-136149500D01*
X96657461Y-136129815D01*
X96611706Y-136077011D01*
X96600500Y-136025500D01*
X96600500Y-134169499D01*
X96620185Y-134102460D01*
X96672989Y-134056705D01*
X96724500Y-134045499D01*
X96727871Y-134045499D01*
X96727872Y-134045499D01*
X96787483Y-134039091D01*
X96922331Y-133988796D01*
X97037546Y-133902546D01*
X97123796Y-133787331D01*
X97174091Y-133652483D01*
X97180500Y-133592873D01*
X97180499Y-132267128D01*
X97174091Y-132207517D01*
X97123796Y-132072669D01*
X97123795Y-132072668D01*
X97123793Y-132072664D01*
X97037547Y-131957455D01*
X97037544Y-131957452D01*
X96922335Y-131871206D01*
X96922328Y-131871202D01*
X96787482Y-131820908D01*
X96787483Y-131820908D01*
X96727883Y-131814501D01*
X96727881Y-131814500D01*
X96727873Y-131814500D01*
X96727864Y-131814500D01*
X95272129Y-131814500D01*
X95272123Y-131814501D01*
X95212516Y-131820908D01*
X95077671Y-131871202D01*
X95077664Y-131871206D01*
X94962455Y-131957452D01*
X94962452Y-131957455D01*
X94876206Y-132072664D01*
X94876202Y-132072671D01*
X94825908Y-132207517D01*
X94819501Y-132267116D01*
X94819501Y-132267123D01*
X94819500Y-132267135D01*
X94819500Y-133592870D01*
X94819501Y-133592876D01*
X94825908Y-133652483D01*
X94876202Y-133787328D01*
X94876206Y-133787335D01*
X94962452Y-133902544D01*
X94962455Y-133902547D01*
X95077664Y-133988793D01*
X95077671Y-133988797D01*
X95212516Y-134039091D01*
X95272115Y-134045499D01*
X95272118Y-134045499D01*
X95272127Y-134045500D01*
X95275484Y-134045499D01*
X95342524Y-134065174D01*
X95388287Y-134117971D01*
X95399500Y-134169499D01*
X95399500Y-135574313D01*
X95379815Y-135641352D01*
X95327011Y-135687107D01*
X95257853Y-135697051D01*
X95239753Y-135692086D01*
X95239636Y-135692527D01*
X95231786Y-135690423D01*
X95231785Y-135690423D01*
X95079057Y-135649499D01*
X94920943Y-135649499D01*
X94913347Y-135649499D01*
X94913331Y-135649500D01*
X90086670Y-135649500D01*
X90086654Y-135649499D01*
X90079058Y-135649499D01*
X89920943Y-135649499D01*
X89768216Y-135690423D01*
X89768214Y-135690424D01*
X89760366Y-135692527D01*
X89759739Y-135690190D01*
X89702472Y-135696342D01*
X89639996Y-135665061D01*
X89604349Y-135604969D01*
X89600500Y-135574314D01*
X89600500Y-134169499D01*
X89620185Y-134102460D01*
X89672989Y-134056705D01*
X89724500Y-134045499D01*
X89727871Y-134045499D01*
X89727872Y-134045499D01*
X89787483Y-134039091D01*
X89922331Y-133988796D01*
X90037546Y-133902546D01*
X90123796Y-133787331D01*
X90174091Y-133652483D01*
X90180500Y-133592873D01*
X90180499Y-132267128D01*
X90174091Y-132207517D01*
X90123796Y-132072669D01*
X90123795Y-132072668D01*
X90123793Y-132072664D01*
X90037547Y-131957455D01*
X90037544Y-131957452D01*
X89922335Y-131871206D01*
X89922328Y-131871202D01*
X89787482Y-131820908D01*
X89787483Y-131820908D01*
X89727883Y-131814501D01*
X89727881Y-131814500D01*
X89727873Y-131814500D01*
X89727864Y-131814500D01*
X88272129Y-131814500D01*
X88272123Y-131814501D01*
X88212516Y-131820908D01*
X88077671Y-131871202D01*
X88077664Y-131871206D01*
X87962455Y-131957452D01*
X87962452Y-131957455D01*
X87876206Y-132072664D01*
X87876202Y-132072671D01*
X87825908Y-132207517D01*
X87819501Y-132267116D01*
X87819501Y-132267123D01*
X87819500Y-132267135D01*
X87819500Y-133592870D01*
X87819501Y-133592876D01*
X87825908Y-133652483D01*
X87876202Y-133787328D01*
X87876206Y-133787335D01*
X87962452Y-133902544D01*
X87962455Y-133902547D01*
X88077664Y-133988793D01*
X88077671Y-133988797D01*
X88212516Y-134039091D01*
X88272115Y-134045499D01*
X88272118Y-134045499D01*
X88272127Y-134045500D01*
X88275484Y-134045499D01*
X88342524Y-134065174D01*
X88388287Y-134117971D01*
X88399500Y-134169499D01*
X88399500Y-136025500D01*
X88379815Y-136092539D01*
X88327011Y-136138294D01*
X88275500Y-136149500D01*
X85300097Y-136149500D01*
X85233058Y-136129815D01*
X85212416Y-136113181D01*
X82933614Y-133834379D01*
X82900129Y-133773056D01*
X82905113Y-133703365D01*
X82924091Y-133652483D01*
X82930500Y-133592873D01*
X82930499Y-132267128D01*
X82924091Y-132207517D01*
X82873796Y-132072669D01*
X82873795Y-132072668D01*
X82873793Y-132072664D01*
X82787547Y-131957455D01*
X82787544Y-131957452D01*
X82672335Y-131871206D01*
X82672328Y-131871202D01*
X82537482Y-131820908D01*
X82537483Y-131820908D01*
X82477883Y-131814501D01*
X82477881Y-131814500D01*
X82477873Y-131814500D01*
X82477864Y-131814500D01*
X81022129Y-131814500D01*
X81022123Y-131814501D01*
X80962516Y-131820908D01*
X80827671Y-131871202D01*
X80827664Y-131871206D01*
X80712455Y-131957452D01*
X80712452Y-131957455D01*
X80626206Y-132072664D01*
X80626202Y-132072671D01*
X80575908Y-132207517D01*
X80569501Y-132267116D01*
X80569501Y-132267123D01*
X80569500Y-132267135D01*
X79000500Y-132267135D01*
X79000500Y-116124500D01*
X79020185Y-116057461D01*
X79072989Y-116011706D01*
X79124500Y-116000500D01*
X80645471Y-116000500D01*
X80712510Y-116020185D01*
G37*
%TD.AperFunction*%
%TD*%
M02*
