%TF.GenerationSoftware,KiCad,Pcbnew,8.0.5*%
%TF.CreationDate,2024-10-13T16:03:52-04:00*%
%TF.ProjectId,KiCADWorkshopExample,4b694341-4457-46f7-926b-73686f704578,rev?*%
%TF.SameCoordinates,Original*%
%TF.FileFunction,Legend,Bot*%
%TF.FilePolarity,Positive*%
%FSLAX46Y46*%
G04 Gerber Fmt 4.6, Leading zero omitted, Abs format (unit mm)*
G04 Created by KiCad (PCBNEW 8.0.5) date 2024-10-13 16:03:52*
%MOMM*%
%LPD*%
G01*
G04 APERTURE LIST*
%ADD10C,0.200000*%
%ADD11C,0.750000*%
%ADD12O,1.200000X2.000000*%
%ADD13O,1.200000X1.800000*%
%ADD14C,1.520000*%
G04 APERTURE END LIST*
D10*
X100594612Y-139367219D02*
X100594612Y-140081504D01*
X100594612Y-140081504D02*
X100642231Y-140224361D01*
X100642231Y-140224361D02*
X100737469Y-140319600D01*
X100737469Y-140319600D02*
X100880326Y-140367219D01*
X100880326Y-140367219D02*
X100975564Y-140367219D01*
X100166040Y-140081504D02*
X99689850Y-140081504D01*
X100261278Y-140367219D02*
X99927945Y-139367219D01*
X99927945Y-139367219D02*
X99594612Y-140367219D01*
X99308897Y-140319600D02*
X99166040Y-140367219D01*
X99166040Y-140367219D02*
X98927945Y-140367219D01*
X98927945Y-140367219D02*
X98832707Y-140319600D01*
X98832707Y-140319600D02*
X98785088Y-140271980D01*
X98785088Y-140271980D02*
X98737469Y-140176742D01*
X98737469Y-140176742D02*
X98737469Y-140081504D01*
X98737469Y-140081504D02*
X98785088Y-139986266D01*
X98785088Y-139986266D02*
X98832707Y-139938647D01*
X98832707Y-139938647D02*
X98927945Y-139891028D01*
X98927945Y-139891028D02*
X99118421Y-139843409D01*
X99118421Y-139843409D02*
X99213659Y-139795790D01*
X99213659Y-139795790D02*
X99261278Y-139748171D01*
X99261278Y-139748171D02*
X99308897Y-139652933D01*
X99308897Y-139652933D02*
X99308897Y-139557695D01*
X99308897Y-139557695D02*
X99261278Y-139462457D01*
X99261278Y-139462457D02*
X99213659Y-139414838D01*
X99213659Y-139414838D02*
X99118421Y-139367219D01*
X99118421Y-139367219D02*
X98880326Y-139367219D01*
X98880326Y-139367219D02*
X98737469Y-139414838D01*
X97546992Y-140367219D02*
X97546992Y-139367219D01*
X96975564Y-140367219D02*
X97404135Y-139795790D01*
X96975564Y-139367219D02*
X97546992Y-139938647D01*
X96546992Y-140367219D02*
X96546992Y-139700552D01*
X96546992Y-139367219D02*
X96594611Y-139414838D01*
X96594611Y-139414838D02*
X96546992Y-139462457D01*
X96546992Y-139462457D02*
X96499373Y-139414838D01*
X96499373Y-139414838D02*
X96546992Y-139367219D01*
X96546992Y-139367219D02*
X96546992Y-139462457D01*
X95499374Y-140271980D02*
X95546993Y-140319600D01*
X95546993Y-140319600D02*
X95689850Y-140367219D01*
X95689850Y-140367219D02*
X95785088Y-140367219D01*
X95785088Y-140367219D02*
X95927945Y-140319600D01*
X95927945Y-140319600D02*
X96023183Y-140224361D01*
X96023183Y-140224361D02*
X96070802Y-140129123D01*
X96070802Y-140129123D02*
X96118421Y-139938647D01*
X96118421Y-139938647D02*
X96118421Y-139795790D01*
X96118421Y-139795790D02*
X96070802Y-139605314D01*
X96070802Y-139605314D02*
X96023183Y-139510076D01*
X96023183Y-139510076D02*
X95927945Y-139414838D01*
X95927945Y-139414838D02*
X95785088Y-139367219D01*
X95785088Y-139367219D02*
X95689850Y-139367219D01*
X95689850Y-139367219D02*
X95546993Y-139414838D01*
X95546993Y-139414838D02*
X95499374Y-139462457D01*
X95118421Y-140081504D02*
X94642231Y-140081504D01*
X95213659Y-140367219D02*
X94880326Y-139367219D01*
X94880326Y-139367219D02*
X94546993Y-140367219D01*
X94213659Y-140367219D02*
X94213659Y-139367219D01*
X94213659Y-139367219D02*
X93975564Y-139367219D01*
X93975564Y-139367219D02*
X93832707Y-139414838D01*
X93832707Y-139414838D02*
X93737469Y-139510076D01*
X93737469Y-139510076D02*
X93689850Y-139605314D01*
X93689850Y-139605314D02*
X93642231Y-139795790D01*
X93642231Y-139795790D02*
X93642231Y-139938647D01*
X93642231Y-139938647D02*
X93689850Y-140129123D01*
X93689850Y-140129123D02*
X93737469Y-140224361D01*
X93737469Y-140224361D02*
X93832707Y-140319600D01*
X93832707Y-140319600D02*
X93975564Y-140367219D01*
X93975564Y-140367219D02*
X94213659Y-140367219D01*
X92546992Y-139367219D02*
X92308897Y-140367219D01*
X92308897Y-140367219D02*
X92118421Y-139652933D01*
X92118421Y-139652933D02*
X91927945Y-140367219D01*
X91927945Y-140367219D02*
X91689850Y-139367219D01*
X91308897Y-140367219D02*
X91308897Y-139700552D01*
X91308897Y-139891028D02*
X91261278Y-139795790D01*
X91261278Y-139795790D02*
X91213659Y-139748171D01*
X91213659Y-139748171D02*
X91118421Y-139700552D01*
X91118421Y-139700552D02*
X91023183Y-139700552D01*
X90689849Y-140367219D02*
X90689849Y-139367219D01*
X90594611Y-139986266D02*
X90308897Y-140367219D01*
X90308897Y-139700552D02*
X90689849Y-140081504D01*
X89927944Y-140319600D02*
X89832706Y-140367219D01*
X89832706Y-140367219D02*
X89642230Y-140367219D01*
X89642230Y-140367219D02*
X89546992Y-140319600D01*
X89546992Y-140319600D02*
X89499373Y-140224361D01*
X89499373Y-140224361D02*
X89499373Y-140176742D01*
X89499373Y-140176742D02*
X89546992Y-140081504D01*
X89546992Y-140081504D02*
X89642230Y-140033885D01*
X89642230Y-140033885D02*
X89785087Y-140033885D01*
X89785087Y-140033885D02*
X89880325Y-139986266D01*
X89880325Y-139986266D02*
X89927944Y-139891028D01*
X89927944Y-139891028D02*
X89927944Y-139843409D01*
X89927944Y-139843409D02*
X89880325Y-139748171D01*
X89880325Y-139748171D02*
X89785087Y-139700552D01*
X89785087Y-139700552D02*
X89642230Y-139700552D01*
X89642230Y-139700552D02*
X89546992Y-139748171D01*
X89070801Y-140367219D02*
X89070801Y-139367219D01*
X88642230Y-140367219D02*
X88642230Y-139843409D01*
X88642230Y-139843409D02*
X88689849Y-139748171D01*
X88689849Y-139748171D02*
X88785087Y-139700552D01*
X88785087Y-139700552D02*
X88927944Y-139700552D01*
X88927944Y-139700552D02*
X89023182Y-139748171D01*
X89023182Y-139748171D02*
X89070801Y-139795790D01*
X88166039Y-139700552D02*
X88166039Y-140700552D01*
X88166039Y-139748171D02*
X88070801Y-139700552D01*
X88070801Y-139700552D02*
X87880325Y-139700552D01*
X87880325Y-139700552D02*
X87785087Y-139748171D01*
X87785087Y-139748171D02*
X87737468Y-139795790D01*
X87737468Y-139795790D02*
X87689849Y-139891028D01*
X87689849Y-139891028D02*
X87689849Y-140176742D01*
X87689849Y-140176742D02*
X87737468Y-140271980D01*
X87737468Y-140271980D02*
X87785087Y-140319600D01*
X87785087Y-140319600D02*
X87880325Y-140367219D01*
X87880325Y-140367219D02*
X88070801Y-140367219D01*
X88070801Y-140367219D02*
X88166039Y-140319600D01*
X86546991Y-139462457D02*
X86499372Y-139414838D01*
X86499372Y-139414838D02*
X86404134Y-139367219D01*
X86404134Y-139367219D02*
X86166039Y-139367219D01*
X86166039Y-139367219D02*
X86070801Y-139414838D01*
X86070801Y-139414838D02*
X86023182Y-139462457D01*
X86023182Y-139462457D02*
X85975563Y-139557695D01*
X85975563Y-139557695D02*
X85975563Y-139652933D01*
X85975563Y-139652933D02*
X86023182Y-139795790D01*
X86023182Y-139795790D02*
X86594610Y-140367219D01*
X86594610Y-140367219D02*
X85975563Y-140367219D01*
X85356515Y-139367219D02*
X85261277Y-139367219D01*
X85261277Y-139367219D02*
X85166039Y-139414838D01*
X85166039Y-139414838D02*
X85118420Y-139462457D01*
X85118420Y-139462457D02*
X85070801Y-139557695D01*
X85070801Y-139557695D02*
X85023182Y-139748171D01*
X85023182Y-139748171D02*
X85023182Y-139986266D01*
X85023182Y-139986266D02*
X85070801Y-140176742D01*
X85070801Y-140176742D02*
X85118420Y-140271980D01*
X85118420Y-140271980D02*
X85166039Y-140319600D01*
X85166039Y-140319600D02*
X85261277Y-140367219D01*
X85261277Y-140367219D02*
X85356515Y-140367219D01*
X85356515Y-140367219D02*
X85451753Y-140319600D01*
X85451753Y-140319600D02*
X85499372Y-140271980D01*
X85499372Y-140271980D02*
X85546991Y-140176742D01*
X85546991Y-140176742D02*
X85594610Y-139986266D01*
X85594610Y-139986266D02*
X85594610Y-139748171D01*
X85594610Y-139748171D02*
X85546991Y-139557695D01*
X85546991Y-139557695D02*
X85499372Y-139462457D01*
X85499372Y-139462457D02*
X85451753Y-139414838D01*
X85451753Y-139414838D02*
X85356515Y-139367219D01*
X84642229Y-139462457D02*
X84594610Y-139414838D01*
X84594610Y-139414838D02*
X84499372Y-139367219D01*
X84499372Y-139367219D02*
X84261277Y-139367219D01*
X84261277Y-139367219D02*
X84166039Y-139414838D01*
X84166039Y-139414838D02*
X84118420Y-139462457D01*
X84118420Y-139462457D02*
X84070801Y-139557695D01*
X84070801Y-139557695D02*
X84070801Y-139652933D01*
X84070801Y-139652933D02*
X84118420Y-139795790D01*
X84118420Y-139795790D02*
X84689848Y-140367219D01*
X84689848Y-140367219D02*
X84070801Y-140367219D01*
X83213658Y-139700552D02*
X83213658Y-140367219D01*
X83451753Y-139319600D02*
X83689848Y-140033885D01*
X83689848Y-140033885D02*
X83070801Y-140033885D01*
%LPC*%
D11*
%TO.C,USBC1*%
X89600000Y-144737500D03*
X95400000Y-144737500D03*
D12*
X88170000Y-144237500D03*
X96830000Y-144237500D03*
D13*
X96830000Y-148417500D03*
X88170000Y-148417500D03*
%TD*%
D14*
%TO.C,LED4*%
X81750000Y-119500000D03*
X81750000Y-116960000D03*
%TD*%
%TO.C,LED2*%
X96000000Y-119520000D03*
X96000000Y-116980000D03*
%TD*%
%TO.C,LED3*%
X89000000Y-119520000D03*
X89000000Y-116980000D03*
%TD*%
%TO.C,LED1*%
X103250000Y-119520000D03*
X103250000Y-116980000D03*
%TD*%
%LPD*%
M02*
