%TF.GenerationSoftware,KiCad,Pcbnew,8.0.5*%
%TF.CreationDate,2024-10-13T15:58:06-04:00*%
%TF.ProjectId,KiCADWorkshopExample,4b694341-4457-46f7-926b-73686f704578,rev?*%
%TF.SameCoordinates,Original*%
%TF.FileFunction,Profile,NP*%
%FSLAX46Y46*%
G04 Gerber Fmt 4.6, Leading zero omitted, Abs format (unit mm)*
G04 Created by KiCad (PCBNEW 8.0.5) date 2024-10-13 15:58:06*
%MOMM*%
%LPD*%
G01*
G04 APERTURE LIST*
%TA.AperFunction,Profile*%
%ADD10C,0.200000*%
%TD*%
G04 APERTURE END LIST*
D10*
X78500000Y-115500000D02*
X80700000Y-115500000D01*
X81500000Y-115500000D02*
X83700000Y-115500000D01*
X84500000Y-115500000D02*
X86700000Y-115500000D01*
X87500000Y-115500000D02*
X89700000Y-115500000D01*
X90500000Y-115500000D02*
X92700000Y-115500000D01*
X93500000Y-115500000D02*
X95700000Y-115500000D01*
X96500000Y-115500000D02*
X98700000Y-115500000D01*
X99500000Y-115500000D02*
X101700000Y-115500000D01*
X102500000Y-115500000D02*
X104700000Y-115500000D01*
X105500000Y-115500000D02*
X106250000Y-115500000D01*
X106250000Y-115500000D02*
X106250000Y-117700000D01*
X106250000Y-118500000D02*
X106250000Y-120700000D01*
X106250000Y-121500000D02*
X106250000Y-123700000D01*
X106250000Y-124500000D02*
X106250000Y-126700000D01*
X106250000Y-127500000D02*
X106250000Y-129700000D01*
X106250000Y-130500000D02*
X106250000Y-132700000D01*
X106250000Y-133500000D02*
X106250000Y-135700000D01*
X106250000Y-136500000D02*
X106250000Y-138700000D01*
X106250000Y-139500000D02*
X106250000Y-141700000D01*
X106250000Y-142500000D02*
X106250000Y-144700000D01*
X106250000Y-145500000D02*
X106250000Y-147700000D01*
X106250000Y-148500000D02*
X106250000Y-150000000D01*
X106250000Y-150000000D02*
X104050000Y-150000000D01*
X103250000Y-150000000D02*
X101050000Y-150000000D01*
X100250000Y-150000000D02*
X98050000Y-150000000D01*
X97250000Y-150000000D02*
X95050000Y-150000000D01*
X94250000Y-150000000D02*
X92050000Y-150000000D01*
X91250000Y-150000000D02*
X89050000Y-150000000D01*
X88250000Y-150000000D02*
X86050000Y-150000000D01*
X85250000Y-150000000D02*
X83050000Y-150000000D01*
X82250000Y-150000000D02*
X80050000Y-150000000D01*
X79250000Y-150000000D02*
X78500000Y-150000000D01*
X78500000Y-150000000D02*
X78500000Y-147800000D01*
X78500000Y-147000000D02*
X78500000Y-144800000D01*
X78500000Y-144000000D02*
X78500000Y-141800000D01*
X78500000Y-141000000D02*
X78500000Y-138800000D01*
X78500000Y-138000000D02*
X78500000Y-135800000D01*
X78500000Y-135000000D02*
X78500000Y-132800000D01*
X78500000Y-132000000D02*
X78500000Y-129800000D01*
X78500000Y-129000000D02*
X78500000Y-126800000D01*
X78500000Y-126000000D02*
X78500000Y-123800000D01*
X78500000Y-123000000D02*
X78500000Y-120800000D01*
X78500000Y-120000000D02*
X78500000Y-117800000D01*
X78500000Y-117000000D02*
X78500000Y-115500000D01*
M02*
