%TF.GenerationSoftware,KiCad,Pcbnew,8.0.5*%
%TF.CreationDate,2024-10-18T23:38:30-04:00*%
%TF.ProjectId,KiCADWorkshopExample,4b694341-4457-46f7-926b-73686f704578,rev?*%
%TF.SameCoordinates,Original*%
%TF.FileFunction,Legend,Top*%
%TF.FilePolarity,Positive*%
%FSLAX46Y46*%
G04 Gerber Fmt 4.6, Leading zero omitted, Abs format (unit mm)*
G04 Created by KiCad (PCBNEW 8.0.5) date 2024-10-18 23:38:30*
%MOMM*%
%LPD*%
G01*
G04 APERTURE LIST*
G04 Aperture macros list*
%AMRoundRect*
0 Rectangle with rounded corners*
0 $1 Rounding radius*
0 $2 $3 $4 $5 $6 $7 $8 $9 X,Y pos of 4 corners*
0 Add a 4 corners polygon primitive as box body*
4,1,4,$2,$3,$4,$5,$6,$7,$8,$9,$2,$3,0*
0 Add four circle primitives for the rounded corners*
1,1,$1+$1,$2,$3*
1,1,$1+$1,$4,$5*
1,1,$1+$1,$6,$7*
1,1,$1+$1,$8,$9*
0 Add four rect primitives between the rounded corners*
20,1,$1+$1,$2,$3,$4,$5,0*
20,1,$1+$1,$4,$5,$6,$7,0*
20,1,$1+$1,$6,$7,$8,$9,0*
20,1,$1+$1,$8,$9,$2,$3,0*%
G04 Aperture macros list end*
%ADD10C,0.200000*%
%ADD11C,0.150000*%
%ADD12C,0.120000*%
%ADD13C,0.000000*%
%ADD14C,0.250000*%
%ADD15RoundRect,0.250000X0.450000X-0.262500X0.450000X0.262500X-0.450000X0.262500X-0.450000X-0.262500X0*%
%ADD16C,7.500000*%
%ADD17RoundRect,0.200000X0.275000X-0.200000X0.275000X0.200000X-0.275000X0.200000X-0.275000X-0.200000X0*%
%ADD18R,1.700000X1.000000*%
%ADD19C,0.750000*%
%ADD20O,1.200000X2.000000*%
%ADD21O,1.200000X1.800000*%
%ADD22R,0.300000X1.300000*%
%ADD23C,1.520000*%
G04 APERTURE END LIST*
D10*
X83750625Y-142891695D02*
X83750625Y-143463123D01*
X83750625Y-143463123D02*
X83712530Y-143577409D01*
X83712530Y-143577409D02*
X83636339Y-143653600D01*
X83636339Y-143653600D02*
X83522054Y-143691695D01*
X83522054Y-143691695D02*
X83445863Y-143691695D01*
X84512530Y-143691695D02*
X84131578Y-143691695D01*
X84131578Y-143691695D02*
X84131578Y-142891695D01*
X85236340Y-143615504D02*
X85198244Y-143653600D01*
X85198244Y-143653600D02*
X85083959Y-143691695D01*
X85083959Y-143691695D02*
X85007768Y-143691695D01*
X85007768Y-143691695D02*
X84893482Y-143653600D01*
X84893482Y-143653600D02*
X84817292Y-143577409D01*
X84817292Y-143577409D02*
X84779197Y-143501219D01*
X84779197Y-143501219D02*
X84741101Y-143348838D01*
X84741101Y-143348838D02*
X84741101Y-143234552D01*
X84741101Y-143234552D02*
X84779197Y-143082171D01*
X84779197Y-143082171D02*
X84817292Y-143005980D01*
X84817292Y-143005980D02*
X84893482Y-142929790D01*
X84893482Y-142929790D02*
X85007768Y-142891695D01*
X85007768Y-142891695D02*
X85083959Y-142891695D01*
X85083959Y-142891695D02*
X85198244Y-142929790D01*
X85198244Y-142929790D02*
X85236340Y-142967885D01*
X85807768Y-142891695D02*
X85807768Y-143463123D01*
X85807768Y-143463123D02*
X85769673Y-143577409D01*
X85769673Y-143577409D02*
X85693482Y-143653600D01*
X85693482Y-143653600D02*
X85579197Y-143691695D01*
X85579197Y-143691695D02*
X85503006Y-143691695D01*
X86569673Y-143691695D02*
X86188721Y-143691695D01*
X86188721Y-143691695D02*
X86188721Y-142891695D01*
X87293483Y-143615504D02*
X87255387Y-143653600D01*
X87255387Y-143653600D02*
X87141102Y-143691695D01*
X87141102Y-143691695D02*
X87064911Y-143691695D01*
X87064911Y-143691695D02*
X86950625Y-143653600D01*
X86950625Y-143653600D02*
X86874435Y-143577409D01*
X86874435Y-143577409D02*
X86836340Y-143501219D01*
X86836340Y-143501219D02*
X86798244Y-143348838D01*
X86798244Y-143348838D02*
X86798244Y-143234552D01*
X86798244Y-143234552D02*
X86836340Y-143082171D01*
X86836340Y-143082171D02*
X86874435Y-143005980D01*
X86874435Y-143005980D02*
X86950625Y-142929790D01*
X86950625Y-142929790D02*
X87064911Y-142891695D01*
X87064911Y-142891695D02*
X87141102Y-142891695D01*
X87141102Y-142891695D02*
X87255387Y-142929790D01*
X87255387Y-142929790D02*
X87293483Y-142967885D01*
X87864911Y-142891695D02*
X87864911Y-143463123D01*
X87864911Y-143463123D02*
X87826816Y-143577409D01*
X87826816Y-143577409D02*
X87750625Y-143653600D01*
X87750625Y-143653600D02*
X87636340Y-143691695D01*
X87636340Y-143691695D02*
X87560149Y-143691695D01*
X88626816Y-143691695D02*
X88245864Y-143691695D01*
X88245864Y-143691695D02*
X88245864Y-142891695D01*
X89350626Y-143615504D02*
X89312530Y-143653600D01*
X89312530Y-143653600D02*
X89198245Y-143691695D01*
X89198245Y-143691695D02*
X89122054Y-143691695D01*
X89122054Y-143691695D02*
X89007768Y-143653600D01*
X89007768Y-143653600D02*
X88931578Y-143577409D01*
X88931578Y-143577409D02*
X88893483Y-143501219D01*
X88893483Y-143501219D02*
X88855387Y-143348838D01*
X88855387Y-143348838D02*
X88855387Y-143234552D01*
X88855387Y-143234552D02*
X88893483Y-143082171D01*
X88893483Y-143082171D02*
X88931578Y-143005980D01*
X88931578Y-143005980D02*
X89007768Y-142929790D01*
X89007768Y-142929790D02*
X89122054Y-142891695D01*
X89122054Y-142891695D02*
X89198245Y-142891695D01*
X89198245Y-142891695D02*
X89312530Y-142929790D01*
X89312530Y-142929790D02*
X89350626Y-142967885D01*
X89922054Y-142891695D02*
X89922054Y-143463123D01*
X89922054Y-143463123D02*
X89883959Y-143577409D01*
X89883959Y-143577409D02*
X89807768Y-143653600D01*
X89807768Y-143653600D02*
X89693483Y-143691695D01*
X89693483Y-143691695D02*
X89617292Y-143691695D01*
X90683959Y-143691695D02*
X90303007Y-143691695D01*
X90303007Y-143691695D02*
X90303007Y-142891695D01*
X91407769Y-143615504D02*
X91369673Y-143653600D01*
X91369673Y-143653600D02*
X91255388Y-143691695D01*
X91255388Y-143691695D02*
X91179197Y-143691695D01*
X91179197Y-143691695D02*
X91064911Y-143653600D01*
X91064911Y-143653600D02*
X90988721Y-143577409D01*
X90988721Y-143577409D02*
X90950626Y-143501219D01*
X90950626Y-143501219D02*
X90912530Y-143348838D01*
X90912530Y-143348838D02*
X90912530Y-143234552D01*
X90912530Y-143234552D02*
X90950626Y-143082171D01*
X90950626Y-143082171D02*
X90988721Y-143005980D01*
X90988721Y-143005980D02*
X91064911Y-142929790D01*
X91064911Y-142929790D02*
X91179197Y-142891695D01*
X91179197Y-142891695D02*
X91255388Y-142891695D01*
X91255388Y-142891695D02*
X91369673Y-142929790D01*
X91369673Y-142929790D02*
X91407769Y-142967885D01*
D11*
X110838095Y-138304819D02*
X110838095Y-137304819D01*
X110838095Y-137781009D02*
X111409523Y-137781009D01*
X111409523Y-138304819D02*
X111409523Y-137304819D01*
X112409523Y-138304819D02*
X111838095Y-138304819D01*
X112123809Y-138304819D02*
X112123809Y-137304819D01*
X112123809Y-137304819D02*
X112028571Y-137447676D01*
X112028571Y-137447676D02*
X111933333Y-137542914D01*
X111933333Y-137542914D02*
X111838095Y-137590533D01*
X100466667Y-135457200D02*
X100609524Y-135504819D01*
X100609524Y-135504819D02*
X100847619Y-135504819D01*
X100847619Y-135504819D02*
X100942857Y-135457200D01*
X100942857Y-135457200D02*
X100990476Y-135409580D01*
X100990476Y-135409580D02*
X101038095Y-135314342D01*
X101038095Y-135314342D02*
X101038095Y-135219104D01*
X101038095Y-135219104D02*
X100990476Y-135123866D01*
X100990476Y-135123866D02*
X100942857Y-135076247D01*
X100942857Y-135076247D02*
X100847619Y-135028628D01*
X100847619Y-135028628D02*
X100657143Y-134981009D01*
X100657143Y-134981009D02*
X100561905Y-134933390D01*
X100561905Y-134933390D02*
X100514286Y-134885771D01*
X100514286Y-134885771D02*
X100466667Y-134790533D01*
X100466667Y-134790533D02*
X100466667Y-134695295D01*
X100466667Y-134695295D02*
X100514286Y-134600057D01*
X100514286Y-134600057D02*
X100561905Y-134552438D01*
X100561905Y-134552438D02*
X100657143Y-134504819D01*
X100657143Y-134504819D02*
X100895238Y-134504819D01*
X100895238Y-134504819D02*
X101038095Y-134552438D01*
X101371429Y-134504819D02*
X101609524Y-135504819D01*
X101609524Y-135504819D02*
X101800000Y-134790533D01*
X101800000Y-134790533D02*
X101990476Y-135504819D01*
X101990476Y-135504819D02*
X102228572Y-134504819D01*
X102514286Y-134504819D02*
X103133333Y-134504819D01*
X103133333Y-134504819D02*
X102800000Y-134885771D01*
X102800000Y-134885771D02*
X102942857Y-134885771D01*
X102942857Y-134885771D02*
X103038095Y-134933390D01*
X103038095Y-134933390D02*
X103085714Y-134981009D01*
X103085714Y-134981009D02*
X103133333Y-135076247D01*
X103133333Y-135076247D02*
X103133333Y-135314342D01*
X103133333Y-135314342D02*
X103085714Y-135409580D01*
X103085714Y-135409580D02*
X103038095Y-135457200D01*
X103038095Y-135457200D02*
X102942857Y-135504819D01*
X102942857Y-135504819D02*
X102657143Y-135504819D01*
X102657143Y-135504819D02*
X102561905Y-135457200D01*
X102561905Y-135457200D02*
X102514286Y-135409580D01*
X109966667Y-135457200D02*
X110109524Y-135504819D01*
X110109524Y-135504819D02*
X110347619Y-135504819D01*
X110347619Y-135504819D02*
X110442857Y-135457200D01*
X110442857Y-135457200D02*
X110490476Y-135409580D01*
X110490476Y-135409580D02*
X110538095Y-135314342D01*
X110538095Y-135314342D02*
X110538095Y-135219104D01*
X110538095Y-135219104D02*
X110490476Y-135123866D01*
X110490476Y-135123866D02*
X110442857Y-135076247D01*
X110442857Y-135076247D02*
X110347619Y-135028628D01*
X110347619Y-135028628D02*
X110157143Y-134981009D01*
X110157143Y-134981009D02*
X110061905Y-134933390D01*
X110061905Y-134933390D02*
X110014286Y-134885771D01*
X110014286Y-134885771D02*
X109966667Y-134790533D01*
X109966667Y-134790533D02*
X109966667Y-134695295D01*
X109966667Y-134695295D02*
X110014286Y-134600057D01*
X110014286Y-134600057D02*
X110061905Y-134552438D01*
X110061905Y-134552438D02*
X110157143Y-134504819D01*
X110157143Y-134504819D02*
X110395238Y-134504819D01*
X110395238Y-134504819D02*
X110538095Y-134552438D01*
X110871429Y-134504819D02*
X111109524Y-135504819D01*
X111109524Y-135504819D02*
X111300000Y-134790533D01*
X111300000Y-134790533D02*
X111490476Y-135504819D01*
X111490476Y-135504819D02*
X111728572Y-134504819D01*
X112538095Y-134838152D02*
X112538095Y-135504819D01*
X112300000Y-134457200D02*
X112061905Y-135171485D01*
X112061905Y-135171485D02*
X112680952Y-135171485D01*
X91266667Y-135457200D02*
X91409524Y-135504819D01*
X91409524Y-135504819D02*
X91647619Y-135504819D01*
X91647619Y-135504819D02*
X91742857Y-135457200D01*
X91742857Y-135457200D02*
X91790476Y-135409580D01*
X91790476Y-135409580D02*
X91838095Y-135314342D01*
X91838095Y-135314342D02*
X91838095Y-135219104D01*
X91838095Y-135219104D02*
X91790476Y-135123866D01*
X91790476Y-135123866D02*
X91742857Y-135076247D01*
X91742857Y-135076247D02*
X91647619Y-135028628D01*
X91647619Y-135028628D02*
X91457143Y-134981009D01*
X91457143Y-134981009D02*
X91361905Y-134933390D01*
X91361905Y-134933390D02*
X91314286Y-134885771D01*
X91314286Y-134885771D02*
X91266667Y-134790533D01*
X91266667Y-134790533D02*
X91266667Y-134695295D01*
X91266667Y-134695295D02*
X91314286Y-134600057D01*
X91314286Y-134600057D02*
X91361905Y-134552438D01*
X91361905Y-134552438D02*
X91457143Y-134504819D01*
X91457143Y-134504819D02*
X91695238Y-134504819D01*
X91695238Y-134504819D02*
X91838095Y-134552438D01*
X92171429Y-134504819D02*
X92409524Y-135504819D01*
X92409524Y-135504819D02*
X92600000Y-134790533D01*
X92600000Y-134790533D02*
X92790476Y-135504819D01*
X92790476Y-135504819D02*
X93028572Y-134504819D01*
X93361905Y-134600057D02*
X93409524Y-134552438D01*
X93409524Y-134552438D02*
X93504762Y-134504819D01*
X93504762Y-134504819D02*
X93742857Y-134504819D01*
X93742857Y-134504819D02*
X93838095Y-134552438D01*
X93838095Y-134552438D02*
X93885714Y-134600057D01*
X93885714Y-134600057D02*
X93933333Y-134695295D01*
X93933333Y-134695295D02*
X93933333Y-134790533D01*
X93933333Y-134790533D02*
X93885714Y-134933390D01*
X93885714Y-134933390D02*
X93314286Y-135504819D01*
X93314286Y-135504819D02*
X93933333Y-135504819D01*
X81966667Y-135457200D02*
X82109524Y-135504819D01*
X82109524Y-135504819D02*
X82347619Y-135504819D01*
X82347619Y-135504819D02*
X82442857Y-135457200D01*
X82442857Y-135457200D02*
X82490476Y-135409580D01*
X82490476Y-135409580D02*
X82538095Y-135314342D01*
X82538095Y-135314342D02*
X82538095Y-135219104D01*
X82538095Y-135219104D02*
X82490476Y-135123866D01*
X82490476Y-135123866D02*
X82442857Y-135076247D01*
X82442857Y-135076247D02*
X82347619Y-135028628D01*
X82347619Y-135028628D02*
X82157143Y-134981009D01*
X82157143Y-134981009D02*
X82061905Y-134933390D01*
X82061905Y-134933390D02*
X82014286Y-134885771D01*
X82014286Y-134885771D02*
X81966667Y-134790533D01*
X81966667Y-134790533D02*
X81966667Y-134695295D01*
X81966667Y-134695295D02*
X82014286Y-134600057D01*
X82014286Y-134600057D02*
X82061905Y-134552438D01*
X82061905Y-134552438D02*
X82157143Y-134504819D01*
X82157143Y-134504819D02*
X82395238Y-134504819D01*
X82395238Y-134504819D02*
X82538095Y-134552438D01*
X82871429Y-134504819D02*
X83109524Y-135504819D01*
X83109524Y-135504819D02*
X83300000Y-134790533D01*
X83300000Y-134790533D02*
X83490476Y-135504819D01*
X83490476Y-135504819D02*
X83728572Y-134504819D01*
X84633333Y-135504819D02*
X84061905Y-135504819D01*
X84347619Y-135504819D02*
X84347619Y-134504819D01*
X84347619Y-134504819D02*
X84252381Y-134647676D01*
X84252381Y-134647676D02*
X84157143Y-134742914D01*
X84157143Y-134742914D02*
X84061905Y-134790533D01*
D12*
%TO.C,R4*%
X79265000Y-125027064D02*
X79265000Y-124572936D01*
X80735000Y-125027064D02*
X80735000Y-124572936D01*
%TO.C,R3*%
X88565000Y-125027064D02*
X88565000Y-124572936D01*
X90035000Y-125027064D02*
X90035000Y-124572936D01*
%TO.C,R2*%
X97765000Y-125027064D02*
X97765000Y-124572936D01*
X99235000Y-125027064D02*
X99235000Y-124572936D01*
%TO.C,R1*%
X107265000Y-125027064D02*
X107265000Y-124572936D01*
X108735000Y-125027064D02*
X108735000Y-124572936D01*
D13*
%TO.C,G\u002A\u002A\u002A*%
G36*
X105879919Y-141507328D02*
G01*
X105879919Y-145017599D01*
X103146451Y-145017599D01*
X100412983Y-145017599D01*
X100412983Y-144775764D01*
X100412983Y-144533929D01*
X102897288Y-144533929D01*
X105381592Y-144533929D01*
X105381592Y-141507328D01*
X105381592Y-138480727D01*
X99907328Y-138480727D01*
X94433064Y-138480727D01*
X94433064Y-141507328D01*
X94433064Y-144533929D01*
X96624235Y-144533929D01*
X98815407Y-144533929D01*
X98815407Y-144775764D01*
X98815407Y-145017599D01*
X96375072Y-145017599D01*
X93934737Y-145017599D01*
X93934737Y-141507328D01*
X93934737Y-137997057D01*
X99907328Y-137997057D01*
X105879919Y-137997057D01*
X105879919Y-141507328D01*
G37*
G36*
X97721841Y-139728807D02*
G01*
X97803038Y-139738019D01*
X97862290Y-139758377D01*
X97905916Y-139793247D01*
X97939648Y-139844839D01*
X97944022Y-139854892D01*
X97947870Y-139868040D01*
X97951225Y-139886102D01*
X97954122Y-139910900D01*
X97956593Y-139944257D01*
X97958672Y-139987993D01*
X97960391Y-140043930D01*
X97961785Y-140113889D01*
X97962886Y-140199692D01*
X97963727Y-140303160D01*
X97964343Y-140426115D01*
X97964766Y-140570378D01*
X97965030Y-140737771D01*
X97965168Y-140930115D01*
X97965213Y-141149232D01*
X97965212Y-141243508D01*
X97965060Y-141441705D01*
X97964636Y-141632865D01*
X97963960Y-141814774D01*
X97963054Y-141985222D01*
X97961938Y-142141996D01*
X97960632Y-142282884D01*
X97959158Y-142405674D01*
X97957535Y-142508155D01*
X97955786Y-142588113D01*
X97953930Y-142643338D01*
X97951988Y-142671617D01*
X97951849Y-142672533D01*
X97938662Y-142733042D01*
X97919155Y-142801453D01*
X97905582Y-142841085D01*
X97858967Y-142928466D01*
X97788173Y-143012874D01*
X97698322Y-143090368D01*
X97594533Y-143157009D01*
X97481926Y-143208853D01*
X97392199Y-143236266D01*
X97334611Y-143245445D01*
X97254862Y-143252137D01*
X97159810Y-143256350D01*
X97056313Y-143258090D01*
X96951229Y-143257364D01*
X96851414Y-143254177D01*
X96763729Y-143248536D01*
X96695029Y-143240449D01*
X96670330Y-143235584D01*
X96557983Y-143198105D01*
X96449430Y-143142866D01*
X96349950Y-143073973D01*
X96264827Y-142995536D01*
X96199340Y-142911660D01*
X96164042Y-142841822D01*
X96134803Y-142738253D01*
X96115234Y-142612644D01*
X96106004Y-142470852D01*
X96106833Y-142340772D01*
X96111873Y-142253839D01*
X96120884Y-142190313D01*
X96136128Y-142144335D01*
X96159866Y-142110051D01*
X96194359Y-142081601D01*
X96210981Y-142070965D01*
X96263124Y-142051468D01*
X96332621Y-142041786D01*
X96409217Y-142041874D01*
X96482662Y-142051684D01*
X96542702Y-142071170D01*
X96545316Y-142072473D01*
X96582156Y-142095177D01*
X96609008Y-142123233D01*
X96627357Y-142161335D01*
X96638685Y-142214179D01*
X96644476Y-142286462D01*
X96646212Y-142382878D01*
X96646220Y-142391912D01*
X96646610Y-142471102D01*
X96648470Y-142527846D01*
X96652840Y-142569011D01*
X96660759Y-142601461D01*
X96673265Y-142632062D01*
X96686548Y-142658441D01*
X96716298Y-142708376D01*
X96749006Y-142744867D01*
X96789683Y-142769896D01*
X96843344Y-142785444D01*
X96915002Y-142793492D01*
X97009670Y-142796024D01*
X97034622Y-142796036D01*
X97137129Y-142793680D01*
X97215281Y-142786020D01*
X97273832Y-142771218D01*
X97317535Y-142747436D01*
X97351143Y-142712835D01*
X97379410Y-142665578D01*
X97381173Y-142662031D01*
X97415695Y-142591921D01*
X97423024Y-141221523D01*
X97424285Y-140989806D01*
X97425468Y-140785606D01*
X97426615Y-140607127D01*
X97427770Y-140452573D01*
X97428976Y-140320148D01*
X97430278Y-140208055D01*
X97431718Y-140114498D01*
X97433340Y-140037682D01*
X97435187Y-139975811D01*
X97437303Y-139927088D01*
X97439732Y-139889716D01*
X97442517Y-139861901D01*
X97445702Y-139841846D01*
X97449330Y-139827755D01*
X97453444Y-139817832D01*
X97457190Y-139811577D01*
X97504149Y-139768027D01*
X97574266Y-139740033D01*
X97665458Y-139728248D01*
X97721841Y-139728807D01*
G37*
G36*
X99635134Y-139315165D02*
G01*
X99655355Y-139353683D01*
X99679837Y-139413337D01*
X99707426Y-139490410D01*
X99736974Y-139581185D01*
X99767327Y-139681946D01*
X99797334Y-139788976D01*
X99825845Y-139898559D01*
X99851708Y-140006977D01*
X99873771Y-140110515D01*
X99878522Y-140135008D01*
X99896173Y-140233854D01*
X99910496Y-140328738D01*
X99921805Y-140424303D01*
X99930415Y-140525197D01*
X99936641Y-140636065D01*
X99940797Y-140761551D01*
X99943199Y-140906302D01*
X99944161Y-141074964D01*
X99944202Y-141104270D01*
X99944686Y-141225748D01*
X99945845Y-141340033D01*
X99947588Y-141443270D01*
X99949821Y-141531606D01*
X99952453Y-141601188D01*
X99955390Y-141648161D01*
X99957706Y-141666099D01*
X99970257Y-141700011D01*
X99995058Y-141751834D01*
X100028623Y-141814748D01*
X100067466Y-141881930D01*
X100070945Y-141887695D01*
X100171148Y-142053117D01*
X100209901Y-141904804D01*
X100228211Y-141834917D01*
X100245696Y-141768502D01*
X100259810Y-141715215D01*
X100265429Y-141694201D01*
X100280975Y-141653487D01*
X100298653Y-141633057D01*
X100303476Y-141631910D01*
X100320941Y-141645022D01*
X100346064Y-141681510D01*
X100376769Y-141737099D01*
X100410978Y-141807513D01*
X100446616Y-141888480D01*
X100481606Y-141975724D01*
X100513871Y-142064970D01*
X100513908Y-142065081D01*
X100572385Y-142258165D01*
X100614229Y-142448084D01*
X100642373Y-142648708D01*
X100646840Y-142693745D01*
X100663097Y-142868853D01*
X100860487Y-143194961D01*
X100921164Y-143295641D01*
X100968096Y-143374871D01*
X101003010Y-143436097D01*
X101027636Y-143482766D01*
X101043703Y-143518322D01*
X101052941Y-143546212D01*
X101057077Y-143569881D01*
X101057876Y-143588315D01*
X101055518Y-143636707D01*
X101045974Y-143674211D01*
X101025540Y-143703400D01*
X100990511Y-143726847D01*
X100937183Y-143747124D01*
X100861851Y-143766804D01*
X100773401Y-143785881D01*
X100700210Y-143800825D01*
X100649727Y-143809930D01*
X100615894Y-143813015D01*
X100592658Y-143809897D01*
X100573962Y-143800396D01*
X100553751Y-143784331D01*
X100547581Y-143779124D01*
X100518231Y-143757078D01*
X100502585Y-143754324D01*
X100495618Y-143764467D01*
X100477760Y-143775011D01*
X100438817Y-143782460D01*
X100386868Y-143786683D01*
X100329991Y-143787549D01*
X100276264Y-143784926D01*
X100233767Y-143778683D01*
X100210965Y-143769096D01*
X100200402Y-143759351D01*
X100191613Y-143758333D01*
X100180898Y-143770314D01*
X100164557Y-143799567D01*
X100138890Y-143850364D01*
X100136572Y-143854991D01*
X100111799Y-143901722D01*
X100090374Y-143937404D01*
X100076914Y-143954352D01*
X100076866Y-143954382D01*
X100051987Y-143963105D01*
X100004594Y-143974402D01*
X99941253Y-143987160D01*
X99868531Y-144000266D01*
X99792994Y-144012609D01*
X99721208Y-144023076D01*
X99659740Y-144030555D01*
X99615157Y-144033933D01*
X99606867Y-144033998D01*
X99548460Y-144030099D01*
X99478482Y-144021440D01*
X99423658Y-144012071D01*
X99329280Y-143993297D01*
X99258985Y-143978456D01*
X99208241Y-143965126D01*
X99172515Y-143950885D01*
X99147274Y-143933314D01*
X99127985Y-143909990D01*
X99110115Y-143878493D01*
X99089131Y-143836401D01*
X99087076Y-143832292D01*
X99062417Y-143787732D01*
X99044724Y-143767900D01*
X99031341Y-143769838D01*
X99031176Y-143770001D01*
X99007073Y-143779323D01*
X98962895Y-143784974D01*
X98907237Y-143787080D01*
X98848697Y-143785766D01*
X98795871Y-143781157D01*
X98757357Y-143773380D01*
X98743239Y-143765799D01*
X98728153Y-143754970D01*
X98709523Y-143763180D01*
X98690813Y-143780456D01*
X98673094Y-143797497D01*
X98656619Y-143808275D01*
X98635764Y-143812917D01*
X98604903Y-143811551D01*
X98558413Y-143804304D01*
X98490668Y-143791303D01*
X98462023Y-143785640D01*
X98373964Y-143767380D01*
X98309903Y-143751472D01*
X98264856Y-143735878D01*
X98233837Y-143718558D01*
X98211862Y-143697472D01*
X98198148Y-143677683D01*
X98183152Y-143650456D01*
X98174115Y-143624234D01*
X98172248Y-143595754D01*
X98178758Y-143561752D01*
X98194856Y-143518967D01*
X98221752Y-143464134D01*
X98260655Y-143393991D01*
X98312773Y-143305275D01*
X98373760Y-143203910D01*
X98577007Y-142867857D01*
X98586862Y-142751874D01*
X98615799Y-142507635D01*
X98660189Y-142283010D01*
X98721693Y-142071752D01*
X98801969Y-141867609D01*
X98847320Y-141770997D01*
X98885487Y-141698400D01*
X98915498Y-141652361D01*
X98938363Y-141631594D01*
X98954697Y-141634405D01*
X98960433Y-141650064D01*
X98971925Y-141688775D01*
X98987657Y-141745195D01*
X99006113Y-141813977D01*
X99011799Y-141835631D01*
X99030769Y-141907022D01*
X99047462Y-141967615D01*
X99060362Y-142012063D01*
X99067951Y-142035022D01*
X99068947Y-142036902D01*
X99078007Y-142027380D01*
X99098484Y-141997956D01*
X99127033Y-141954053D01*
X99160308Y-141901092D01*
X99194963Y-141844498D01*
X99227655Y-141789692D01*
X99255037Y-141742098D01*
X99273763Y-141707137D01*
X99278099Y-141697865D01*
X99280974Y-141677324D01*
X99284034Y-141630672D01*
X99287175Y-141561111D01*
X99290291Y-141471843D01*
X99293277Y-141366069D01*
X99296028Y-141246990D01*
X99298438Y-141117808D01*
X99299551Y-141045643D01*
X99301910Y-140889450D01*
X99304234Y-140759128D01*
X99306701Y-140651236D01*
X99309487Y-140562332D01*
X99312769Y-140488974D01*
X99316724Y-140427721D01*
X99321530Y-140375132D01*
X99327362Y-140327765D01*
X99334398Y-140282178D01*
X99340614Y-140246855D01*
X99364430Y-140125117D01*
X99391610Y-140000693D01*
X99421176Y-139876886D01*
X99452150Y-139757000D01*
X99483554Y-139644340D01*
X99514412Y-139542208D01*
X99543745Y-139453910D01*
X99570577Y-139382748D01*
X99593928Y-139332027D01*
X99612823Y-139305051D01*
X99620323Y-139301500D01*
X99635134Y-139315165D01*
G37*
G36*
X102636206Y-139741847D02*
G01*
X102771255Y-139743236D01*
X102885544Y-139745526D01*
X102976954Y-139748661D01*
X103043364Y-139752585D01*
X103082655Y-139757241D01*
X103083439Y-139757401D01*
X103146299Y-139775457D01*
X103223280Y-139804745D01*
X103304520Y-139840800D01*
X103380157Y-139879160D01*
X103440328Y-139915362D01*
X103453610Y-139924921D01*
X103519322Y-139988084D01*
X103579881Y-140070212D01*
X103628082Y-140161025D01*
X103639892Y-140190716D01*
X103652043Y-140228805D01*
X103661038Y-140270032D01*
X103667520Y-140320182D01*
X103672131Y-140385037D01*
X103675511Y-140470385D01*
X103677009Y-140525332D01*
X103679026Y-140617374D01*
X103679608Y-140685064D01*
X103678365Y-140733342D01*
X103674905Y-140767152D01*
X103668840Y-140791434D01*
X103659777Y-140811130D01*
X103653614Y-140821418D01*
X103615040Y-140867870D01*
X103565140Y-140898275D01*
X103498420Y-140914854D01*
X103410271Y-140919833D01*
X103320461Y-140914578D01*
X103253235Y-140897551D01*
X103203577Y-140866854D01*
X103172238Y-140829831D01*
X103160843Y-140806164D01*
X103152411Y-140771746D01*
X103146229Y-140721469D01*
X103141588Y-140650225D01*
X103139123Y-140591966D01*
X103135189Y-140505665D01*
X103130172Y-140442614D01*
X103123182Y-140396750D01*
X103113328Y-140362010D01*
X103101475Y-140335626D01*
X103079573Y-140298897D01*
X103054210Y-140269150D01*
X103022225Y-140245666D01*
X102980462Y-140227729D01*
X102925762Y-140214623D01*
X102854966Y-140205630D01*
X102764916Y-140200034D01*
X102652454Y-140197118D01*
X102514421Y-140196165D01*
X102486901Y-140196146D01*
X102344085Y-140196800D01*
X102227390Y-140199264D01*
X102133641Y-140204294D01*
X102059666Y-140212645D01*
X102002290Y-140225072D01*
X101958339Y-140242332D01*
X101924640Y-140265178D01*
X101898018Y-140294366D01*
X101875301Y-140330651D01*
X101868652Y-140343270D01*
X101857556Y-140366532D01*
X101849243Y-140389972D01*
X101843307Y-140418119D01*
X101839340Y-140455505D01*
X101836935Y-140506657D01*
X101835685Y-140576107D01*
X101835181Y-140668384D01*
X101835092Y-140716427D01*
X101835120Y-140819927D01*
X101835779Y-140898641D01*
X101837466Y-140957091D01*
X101840575Y-140999805D01*
X101845502Y-141031306D01*
X101852643Y-141056119D01*
X101862391Y-141078770D01*
X101867657Y-141089314D01*
X101886675Y-141123513D01*
X101907487Y-141151941D01*
X101932852Y-141175131D01*
X101965527Y-141193617D01*
X102008274Y-141207935D01*
X102063849Y-141218617D01*
X102135012Y-141226198D01*
X102224522Y-141231213D01*
X102335138Y-141234195D01*
X102469618Y-141235679D01*
X102626139Y-141236194D01*
X102755127Y-141236436D01*
X102858493Y-141236943D01*
X102939933Y-141237950D01*
X103003137Y-141239689D01*
X103051800Y-141242396D01*
X103089614Y-141246302D01*
X103120272Y-141251644D01*
X103147467Y-141258653D01*
X103174892Y-141267564D01*
X103186659Y-141271681D01*
X103329520Y-141333916D01*
X103447392Y-141411167D01*
X103540740Y-141503900D01*
X103610023Y-141612585D01*
X103655703Y-141737688D01*
X103658829Y-141750433D01*
X103665437Y-141794389D01*
X103671004Y-141862433D01*
X103675488Y-141949354D01*
X103678847Y-142049942D01*
X103681037Y-142158989D01*
X103682016Y-142271285D01*
X103681740Y-142381621D01*
X103680168Y-142484787D01*
X103677256Y-142575573D01*
X103672962Y-142648770D01*
X103667242Y-142699168D01*
X103666651Y-142702438D01*
X103639051Y-142800956D01*
X103596397Y-142895938D01*
X103543905Y-142976553D01*
X103523094Y-143000508D01*
X103455057Y-143061058D01*
X103369213Y-143121640D01*
X103276260Y-143175447D01*
X103186896Y-143215674D01*
X103182221Y-143217385D01*
X103157518Y-143226008D01*
X103133776Y-143233054D01*
X103107821Y-143238697D01*
X103076479Y-143243112D01*
X103036575Y-143246472D01*
X102984937Y-143248951D01*
X102918390Y-143250725D01*
X102833759Y-143251965D01*
X102727871Y-143252848D01*
X102597552Y-143253546D01*
X102516215Y-143253907D01*
X102386762Y-143254120D01*
X102264176Y-143253669D01*
X102152101Y-143252614D01*
X102054176Y-143251018D01*
X101974044Y-143248942D01*
X101915348Y-143246448D01*
X101881728Y-143243597D01*
X101878875Y-143243104D01*
X101796667Y-143218441D01*
X101704336Y-143177807D01*
X101611876Y-143126552D01*
X101529279Y-143070028D01*
X101484568Y-143032000D01*
X101424291Y-142968353D01*
X101377359Y-142902948D01*
X101342332Y-142831137D01*
X101317772Y-142748277D01*
X101302240Y-142649721D01*
X101294297Y-142530824D01*
X101292438Y-142411656D01*
X101293709Y-142307232D01*
X101298359Y-142227799D01*
X101307729Y-142169103D01*
X101323156Y-142126893D01*
X101345982Y-142096916D01*
X101377546Y-142074921D01*
X101402158Y-142063399D01*
X101457109Y-142049118D01*
X101527206Y-142042687D01*
X101601428Y-142043948D01*
X101668755Y-142052740D01*
X101716384Y-142067968D01*
X101755159Y-142090153D01*
X101783870Y-142114631D01*
X101804214Y-142146163D01*
X101817889Y-142189511D01*
X101826591Y-142249438D01*
X101832017Y-142330704D01*
X101834680Y-142399876D01*
X101837741Y-142485978D01*
X101841020Y-142548398D01*
X101845471Y-142592762D01*
X101852052Y-142624691D01*
X101861718Y-142649809D01*
X101875425Y-142673740D01*
X101883285Y-142685799D01*
X101903560Y-142715106D01*
X101923717Y-142738757D01*
X101947003Y-142757358D01*
X101976668Y-142771514D01*
X102015960Y-142781833D01*
X102068128Y-142788920D01*
X102136420Y-142793382D01*
X102224084Y-142795825D01*
X102334370Y-142796855D01*
X102470526Y-142797079D01*
X102479573Y-142797080D01*
X102618917Y-142796835D01*
X102732124Y-142795772D01*
X102822368Y-142793432D01*
X102892824Y-142789357D01*
X102946666Y-142783089D01*
X102987067Y-142774168D01*
X103017202Y-142762138D01*
X103040246Y-142746540D01*
X103059371Y-142726915D01*
X103071305Y-142711649D01*
X103092091Y-142681234D01*
X103108179Y-142650111D01*
X103120159Y-142614115D01*
X103128623Y-142569081D01*
X103134160Y-142510844D01*
X103137361Y-142435241D01*
X103138817Y-142338106D01*
X103139123Y-142233274D01*
X103139123Y-141900986D01*
X103098817Y-141822166D01*
X103081703Y-141789235D01*
X103065261Y-141761988D01*
X103046664Y-141739845D01*
X103023087Y-141722225D01*
X102991702Y-141708547D01*
X102949683Y-141698231D01*
X102894204Y-141690695D01*
X102822439Y-141685361D01*
X102731559Y-141681646D01*
X102618740Y-141678970D01*
X102481155Y-141676753D01*
X102384305Y-141675383D01*
X102241004Y-141673294D01*
X102123887Y-141671321D01*
X102029828Y-141669271D01*
X101955697Y-141666950D01*
X101898368Y-141664166D01*
X101854713Y-141660725D01*
X101821604Y-141656434D01*
X101795915Y-141651099D01*
X101774517Y-141644528D01*
X101754283Y-141636526D01*
X101754068Y-141636435D01*
X101615760Y-141567154D01*
X101503931Y-141487391D01*
X101417131Y-141395567D01*
X101353909Y-141290101D01*
X101312815Y-141169413D01*
X101308739Y-141151183D01*
X101303286Y-141108898D01*
X101298952Y-141042772D01*
X101295736Y-140958256D01*
X101293638Y-140860803D01*
X101292659Y-140755862D01*
X101292799Y-140648885D01*
X101294057Y-140545324D01*
X101296435Y-140450629D01*
X101299931Y-140370252D01*
X101304547Y-140309643D01*
X101308719Y-140280554D01*
X101346731Y-140155000D01*
X101405016Y-140048482D01*
X101485764Y-139958189D01*
X101591168Y-139881311D01*
X101642196Y-139852924D01*
X101695954Y-139825730D01*
X101744336Y-139803362D01*
X101790897Y-139785350D01*
X101839195Y-139771221D01*
X101892787Y-139760503D01*
X101955229Y-139752725D01*
X102030077Y-139747414D01*
X102120889Y-139744098D01*
X102231221Y-139742306D01*
X102364630Y-139741566D01*
X102482516Y-139741417D01*
X102636206Y-139741847D01*
G37*
D12*
%TO.C,R6*%
X85677500Y-137337258D02*
X85677500Y-136862742D01*
X86722500Y-137337258D02*
X86722500Y-136862742D01*
D14*
%TO.C,SW3*%
X99250000Y-130370000D02*
X99250000Y-128030000D01*
X99630000Y-127540000D02*
X100520000Y-126650000D01*
X100000000Y-128300000D02*
X101000000Y-127300001D01*
X100000000Y-130100000D02*
X100000000Y-128300000D01*
X100520000Y-131750000D02*
X99630000Y-130860000D01*
X100900000Y-131000000D02*
X100000000Y-130100000D01*
X101000000Y-127300001D02*
X102700000Y-127300000D01*
X102700000Y-127300000D02*
X103600000Y-128200000D01*
X102800000Y-131000000D02*
X100900000Y-131000000D01*
X103080000Y-126650000D02*
X100520000Y-126650000D01*
X103080000Y-131750000D02*
X100520000Y-131750000D01*
X103080000Y-131750000D02*
X103970000Y-130860000D01*
X103600000Y-128200000D02*
X103600000Y-130200000D01*
X103600000Y-130200000D02*
X102800000Y-131000000D01*
X103970000Y-127540000D02*
X103080000Y-126650000D01*
X104350000Y-130370000D02*
X104350000Y-128030000D01*
X103080000Y-129200000D02*
G75*
G02*
X100520000Y-129200000I-1280000J0D01*
G01*
X100520000Y-129200000D02*
G75*
G02*
X103080000Y-129200000I1280000J0D01*
G01*
%TO.C,USBC1*%
X82930000Y-144227500D02*
X82930000Y-142367500D01*
X82930000Y-147947500D02*
X82930000Y-146467500D01*
X91870000Y-144227500D02*
X91870000Y-142367500D01*
X91870000Y-147947500D02*
X82930000Y-147947500D01*
X91870000Y-147947500D02*
X91870000Y-146467500D01*
%TO.C,LED4*%
X82260000Y-121170000D02*
X82580000Y-121170000D01*
X84230000Y-121190000D02*
X84530000Y-121190000D01*
X82430000Y-124150000D02*
G75*
G02*
X82501885Y-121793025I969999J1150000D01*
G01*
X82770000Y-125060000D02*
G75*
G02*
X82259529Y-121175276I640000J2060000D01*
G01*
X84370000Y-121850000D02*
G75*
G02*
X84337228Y-124176862I-970000J-1150000D01*
G01*
X84530000Y-121190000D02*
G75*
G02*
X84033930Y-125037433I-1130000J-1810000D01*
G01*
%TO.C,SW4*%
X108750000Y-130370000D02*
X108750000Y-128030000D01*
X109130000Y-127540000D02*
X110020000Y-126650000D01*
X109500000Y-128300000D02*
X110500000Y-127300001D01*
X109500000Y-130100000D02*
X109500000Y-128300000D01*
X110020000Y-131750000D02*
X109130000Y-130860000D01*
X110400000Y-131000000D02*
X109500000Y-130100000D01*
X110500000Y-127300001D02*
X112200000Y-127300000D01*
X112200000Y-127300000D02*
X113100000Y-128200000D01*
X112300000Y-131000000D02*
X110400000Y-131000000D01*
X112580000Y-126650000D02*
X110020000Y-126650000D01*
X112580000Y-131750000D02*
X110020000Y-131750000D01*
X112580000Y-131750000D02*
X113470000Y-130860000D01*
X113100000Y-128200000D02*
X113100000Y-130200000D01*
X113100000Y-130200000D02*
X112300000Y-131000000D01*
X113470000Y-127540000D02*
X112580000Y-126650000D01*
X113850000Y-130370000D02*
X113850000Y-128030000D01*
X112580000Y-129200000D02*
G75*
G02*
X110020000Y-129200000I-1280000J0D01*
G01*
X110020000Y-129200000D02*
G75*
G02*
X112580000Y-129200000I1280000J0D01*
G01*
%TO.C,SW2*%
X90050000Y-130370000D02*
X90050000Y-128030000D01*
X90430000Y-127540000D02*
X91320000Y-126650000D01*
X90800000Y-128300000D02*
X91800000Y-127300001D01*
X90800000Y-130100000D02*
X90800000Y-128300000D01*
X91320000Y-131750000D02*
X90430000Y-130860000D01*
X91700000Y-131000000D02*
X90800000Y-130100000D01*
X91800000Y-127300001D02*
X93500000Y-127300000D01*
X93500000Y-127300000D02*
X94400000Y-128200000D01*
X93600000Y-131000000D02*
X91700000Y-131000000D01*
X93880000Y-126650000D02*
X91320000Y-126650000D01*
X93880000Y-131750000D02*
X91320000Y-131750000D01*
X93880000Y-131750000D02*
X94770000Y-130860000D01*
X94400000Y-128200000D02*
X94400000Y-130200000D01*
X94400000Y-130200000D02*
X93600000Y-131000000D01*
X94770000Y-127540000D02*
X93880000Y-126650000D01*
X95150000Y-130370000D02*
X95150000Y-128030000D01*
X93880000Y-129200000D02*
G75*
G02*
X91320000Y-129200000I-1280000J0D01*
G01*
X91320000Y-129200000D02*
G75*
G02*
X93880000Y-129200000I1280000J0D01*
G01*
%TO.C,SW1*%
X80750000Y-130370000D02*
X80750000Y-128030000D01*
X81130000Y-127540000D02*
X82020000Y-126650000D01*
X81500000Y-128300000D02*
X82500000Y-127300001D01*
X81500000Y-130100000D02*
X81500000Y-128300000D01*
X82020000Y-131750000D02*
X81130000Y-130860000D01*
X82400000Y-131000000D02*
X81500000Y-130100000D01*
X82500000Y-127300001D02*
X84200000Y-127300000D01*
X84200000Y-127300000D02*
X85100000Y-128200000D01*
X84300000Y-131000000D02*
X82400000Y-131000000D01*
X84580000Y-126650000D02*
X82020000Y-126650000D01*
X84580000Y-131750000D02*
X82020000Y-131750000D01*
X84580000Y-131750000D02*
X85470000Y-130860000D01*
X85100000Y-128200000D02*
X85100000Y-130200000D01*
X85100000Y-130200000D02*
X84300000Y-131000000D01*
X85470000Y-127540000D02*
X84580000Y-126650000D01*
X85850000Y-130370000D02*
X85850000Y-128030000D01*
X84580000Y-129200000D02*
G75*
G02*
X82020000Y-129200000I-1280000J0D01*
G01*
X82020000Y-129200000D02*
G75*
G02*
X84580000Y-129200000I1280000J0D01*
G01*
D12*
%TO.C,R5*%
X88077500Y-137337258D02*
X88077500Y-136862742D01*
X89122500Y-137337258D02*
X89122500Y-136862742D01*
D14*
%TO.C,LED3*%
X91560000Y-121170000D02*
X91880000Y-121170000D01*
X93530000Y-121190000D02*
X93830000Y-121190000D01*
X91730000Y-124150000D02*
G75*
G02*
X91801885Y-121793025I969999J1150000D01*
G01*
X92070000Y-125060000D02*
G75*
G02*
X91559529Y-121175276I640000J2060000D01*
G01*
X93670000Y-121850000D02*
G75*
G02*
X93637228Y-124176862I-970000J-1150000D01*
G01*
X93830000Y-121190000D02*
G75*
G02*
X93333930Y-125037433I-1130000J-1810000D01*
G01*
%TO.C,LED1*%
X110260000Y-121170000D02*
X110580000Y-121170000D01*
X112230000Y-121190000D02*
X112530000Y-121190000D01*
X110430000Y-124150000D02*
G75*
G02*
X110501885Y-121793025I969999J1150000D01*
G01*
X110770000Y-125060000D02*
G75*
G02*
X110259529Y-121175276I640000J2060000D01*
G01*
X112370000Y-121850000D02*
G75*
G02*
X112337228Y-124176862I-970000J-1150000D01*
G01*
X112530000Y-121190000D02*
G75*
G02*
X112033930Y-125037433I-1130000J-1810000D01*
G01*
%TO.C,LED2*%
X100760000Y-121070000D02*
X101080000Y-121070000D01*
X102730000Y-121090000D02*
X103030000Y-121090000D01*
X100930000Y-124050000D02*
G75*
G02*
X101001885Y-121693025I969999J1150000D01*
G01*
X101270000Y-124960000D02*
G75*
G02*
X100759529Y-121075276I640000J2060000D01*
G01*
X102870000Y-121750000D02*
G75*
G02*
X102837228Y-124076862I-970000J-1150000D01*
G01*
X103030000Y-121090000D02*
G75*
G02*
X102533930Y-124937433I-1130000J-1810000D01*
G01*
%TD*%
%LPC*%
D15*
%TO.C,R4*%
X80000000Y-125712500D03*
X80000000Y-123887500D03*
%TD*%
%TO.C,R3*%
X89300000Y-125712500D03*
X89300000Y-123887500D03*
%TD*%
%TO.C,R2*%
X98500000Y-125712500D03*
X98500000Y-123887500D03*
%TD*%
%TO.C,R1*%
X108000000Y-125712500D03*
X108000000Y-123887500D03*
%TD*%
D16*
%TO.C,H1*%
X111600000Y-142600000D03*
%TD*%
D17*
%TO.C,R6*%
X86200000Y-137925000D03*
X86200000Y-136275000D03*
%TD*%
D18*
%TO.C,SW3*%
X105100000Y-131050000D03*
X98500000Y-131050000D03*
X105100000Y-127350000D03*
X98500000Y-127350000D03*
%TD*%
D19*
%TO.C,USBC1*%
X84500000Y-141637500D03*
X90300000Y-141637500D03*
D20*
X83070000Y-141137500D03*
X91730000Y-141137500D03*
D21*
X91730000Y-145317500D03*
X83070000Y-145317500D03*
D22*
X84050000Y-140377500D03*
X84850000Y-140377500D03*
X86150000Y-140377500D03*
X87150000Y-140377500D03*
X87650000Y-140377500D03*
X88650000Y-140377500D03*
X89950000Y-140377500D03*
X90750000Y-140377500D03*
X90450000Y-140377500D03*
X89650000Y-140377500D03*
X89150000Y-140377500D03*
X88150000Y-140377500D03*
X86650000Y-140377500D03*
X85650000Y-140377500D03*
X85150000Y-140377500D03*
X84350000Y-140377500D03*
%TD*%
D23*
%TO.C,LED4*%
X83400000Y-124270000D03*
X83400000Y-121730000D03*
%TD*%
D18*
%TO.C,SW4*%
X114600000Y-131050000D03*
X108000000Y-131050000D03*
X114600000Y-127350000D03*
X108000000Y-127350000D03*
%TD*%
%TO.C,SW2*%
X95900000Y-131050000D03*
X89300000Y-131050000D03*
X95900000Y-127350000D03*
X89300000Y-127350000D03*
%TD*%
%TO.C,SW1*%
X86600000Y-131050000D03*
X80000000Y-131050000D03*
X86600000Y-127350000D03*
X80000000Y-127350000D03*
%TD*%
D17*
%TO.C,R5*%
X88600000Y-137925000D03*
X88600000Y-136275000D03*
%TD*%
D23*
%TO.C,LED3*%
X92700000Y-124270000D03*
X92700000Y-121730000D03*
%TD*%
%TO.C,LED1*%
X111400000Y-124270000D03*
X111400000Y-121730000D03*
%TD*%
%TO.C,LED2*%
X101900000Y-124170000D03*
X101900000Y-121630000D03*
%TD*%
%LPD*%
M02*
