%TF.GenerationSoftware,KiCad,Pcbnew,8.0.5*%
%TF.CreationDate,2024-10-18T23:38:30-04:00*%
%TF.ProjectId,KiCADWorkshopExample,4b694341-4457-46f7-926b-73686f704578,rev?*%
%TF.SameCoordinates,Original*%
%TF.FileFunction,Legend,Bot*%
%TF.FilePolarity,Positive*%
%FSLAX46Y46*%
G04 Gerber Fmt 4.6, Leading zero omitted, Abs format (unit mm)*
G04 Created by KiCad (PCBNEW 8.0.5) date 2024-10-18 23:38:30*
%MOMM*%
%LPD*%
G01*
G04 APERTURE LIST*
%ADD10C,0.200000*%
%ADD11C,7.500000*%
%ADD12C,0.750000*%
%ADD13O,1.200000X2.000000*%
%ADD14O,1.200000X1.800000*%
%ADD15C,1.520000*%
G04 APERTURE END LIST*
D10*
G36*
X112951646Y-132685349D02*
G01*
X112967376Y-132685349D01*
X113021060Y-132691162D01*
X113035422Y-132687059D01*
X113046364Y-132687059D01*
X113062093Y-132701420D01*
X113068932Y-132712704D01*
X113067564Y-132715440D01*
X113067564Y-132721595D01*
X113091158Y-132704840D01*
X113192030Y-132743479D01*
X113225198Y-132756473D01*
X113248792Y-132777673D01*
X113299741Y-132821783D01*
X113337697Y-132854951D01*
X113346929Y-132856661D01*
X113371549Y-132895984D01*
X113398220Y-132919920D01*
X113417369Y-132951720D01*
X113418291Y-132952878D01*
X113449853Y-133013612D01*
X113464556Y-133046096D01*
X113484389Y-133115510D01*
X113485757Y-133135684D01*
X113500698Y-133206416D01*
X113504905Y-133275879D01*
X113504905Y-133280667D01*
X113502854Y-133293318D01*
X113502854Y-133297080D01*
X113497041Y-133326145D01*
X113499434Y-133363758D01*
X113493279Y-133387010D01*
X113485757Y-133418468D01*
X113477550Y-133445140D01*
X113471053Y-133473179D01*
X113465240Y-133493011D01*
X113461479Y-133512502D01*
X113463189Y-133526863D01*
X113454640Y-133545670D01*
X113443014Y-133566528D01*
X113431046Y-133595251D01*
X113402665Y-133645859D01*
X113377704Y-133709801D01*
X113350348Y-133753570D01*
X113302477Y-133763486D01*
X113277857Y-133722111D01*
X113292903Y-133661246D01*
X113327780Y-133621581D01*
X113355819Y-133592858D01*
X113379413Y-133559006D01*
X113377362Y-133527889D01*
X113388988Y-133535754D01*
X113388988Y-133520709D01*
X113406769Y-133485831D01*
X113401981Y-133467366D01*
X113404033Y-133430436D01*
X113401981Y-133406159D01*
X113412581Y-133389745D01*
X113415317Y-133381539D01*
X113405743Y-133321016D01*
X113402665Y-133300157D01*
X113391723Y-133256389D01*
X113379755Y-133208517D01*
X113379755Y-133196207D01*
X113381807Y-133184240D01*
X113359581Y-133163723D01*
X113362658Y-133149020D01*
X113364026Y-133150046D01*
X113349323Y-133136026D01*
X113340432Y-133112090D01*
X113334619Y-133091232D01*
X113257341Y-132974288D01*
X113215624Y-132926417D01*
X113211521Y-132907610D01*
X113170830Y-132869313D01*
X113143475Y-132848113D01*
X113125010Y-132836145D01*
X113101074Y-132816996D01*
X113077822Y-132797505D01*
X113061751Y-132781092D01*
X113056964Y-132773228D01*
X113043286Y-132775279D01*
X113024138Y-132762286D01*
X113008750Y-132763995D01*
X112978660Y-132748950D01*
X112951988Y-132748950D01*
X112945491Y-132745531D01*
X112929078Y-132758866D01*
X112913571Y-132776912D01*
X112899672Y-132844351D01*
X112904801Y-132854267D01*
X112909588Y-132868629D01*
X112907536Y-132888803D01*
X112907536Y-132892223D01*
X112915059Y-132901455D01*
X112916427Y-132925733D01*
X112920188Y-132938385D01*
X112928394Y-132944198D01*
X112941046Y-132965056D01*
X112939678Y-132978734D01*
X112946859Y-133000618D01*
X112939177Y-133018308D01*
X112963272Y-133058064D01*
X112956191Y-133073587D01*
X112988234Y-133105935D01*
X112986524Y-133120297D01*
X113004647Y-133149704D01*
X112992293Y-133163886D01*
X112995415Y-133164407D01*
X113002937Y-133173981D01*
X113018325Y-133196207D01*
X113031660Y-133228008D01*
X113031660Y-133236556D01*
X113034054Y-133249892D01*
X113040893Y-133260834D01*
X113048415Y-133275879D01*
X113056280Y-133297080D01*
X113063119Y-133336061D01*
X113059628Y-133342667D01*
X113085003Y-133368887D01*
X113100048Y-133411630D01*
X113114410Y-133440353D01*
X113111332Y-133459501D01*
X113130481Y-133484805D01*
X113145868Y-133519683D01*
X113164675Y-133567212D01*
X113183482Y-133615084D01*
X113183482Y-133619187D01*
X113180311Y-133626679D01*
X113199553Y-133652013D01*
X113219385Y-133699201D01*
X113233405Y-133729976D01*
X113256999Y-133750834D01*
X113300767Y-133777847D01*
X113348639Y-133815803D01*
X113377020Y-133841790D01*
X113393433Y-133850339D01*
X113421472Y-133878378D01*
X113462163Y-133918727D01*
X113481653Y-133930353D01*
X113498750Y-133941637D01*
X113532260Y-133994979D01*
X113543863Y-133999228D01*
X113579106Y-134058238D01*
X113587927Y-134066525D01*
X113626636Y-134124233D01*
X113644417Y-134163898D01*
X113663224Y-134200143D01*
X113688185Y-134244595D01*
X113701863Y-134304777D01*
X113696392Y-134323584D01*
X113699127Y-134335893D01*
X113717592Y-134371455D01*
X113715198Y-134402572D01*
X113719302Y-134434030D01*
X113715786Y-134467111D01*
X113689553Y-134532509D01*
X113671088Y-134557600D01*
X113608171Y-134587561D01*
X113572267Y-134563967D01*
X113537048Y-134540715D01*
X113510034Y-134515070D01*
X113501828Y-134496605D01*
X113467976Y-134459334D01*
X113446092Y-134440185D01*
X113430362Y-134424798D01*
X113410530Y-134381030D01*
X113387962Y-134346152D01*
X113362658Y-134304777D01*
X113343510Y-134283577D01*
X113327096Y-134272635D01*
X113228618Y-134085935D01*
X113219108Y-134071423D01*
X113186901Y-134011050D01*
X113157836Y-133949501D01*
X113135610Y-133917017D01*
X113136636Y-133906759D01*
X113118855Y-133878378D01*
X113107720Y-133856819D01*
X113276009Y-133856819D01*
X113317864Y-133917359D01*
X113351716Y-133986089D01*
X113381807Y-134042851D01*
X113399588Y-134092774D01*
X113420788Y-134125258D01*
X113431730Y-134145775D01*
X113446434Y-134173472D01*
X113453956Y-134195014D01*
X113474515Y-134222027D01*
X113503879Y-134286654D01*
X113536364Y-134320848D01*
X113558248Y-134365984D01*
X113583551Y-134392314D01*
X113592065Y-134404358D01*
X113592442Y-134398468D01*
X113597913Y-134385475D01*
X113604752Y-134367694D01*
X113599281Y-134332132D01*
X113591074Y-134327003D01*
X113580816Y-134290073D01*
X113570216Y-134259641D01*
X113553119Y-134225105D01*
X113543545Y-134199117D01*
X113543203Y-134181337D01*
X113533970Y-134174156D01*
X113523028Y-134150220D01*
X113516873Y-134148168D01*
X113504563Y-134133123D01*
X113500460Y-134113290D01*
X113486782Y-134111239D01*
X113468318Y-134068838D01*
X113453272Y-134058922D01*
X113437201Y-134030199D01*
X113417027Y-134007973D01*
X113392065Y-133981302D01*
X113383859Y-133954972D01*
X113384200Y-133954972D01*
X113364026Y-133943346D01*
X113341800Y-133913939D01*
X113326413Y-133896159D01*
X113308632Y-133882139D01*
X113284354Y-133861281D01*
X113276009Y-133856819D01*
X113107720Y-133856819D01*
X113102784Y-133847261D01*
X113102784Y-133844868D01*
X113104836Y-133829138D01*
X113109281Y-133833926D01*
X113086371Y-133803493D01*
X113093281Y-133790751D01*
X113067222Y-133741602D01*
X113024822Y-133709117D01*
X113008066Y-133709117D01*
X112980369Y-133685866D01*
X112976266Y-133685866D01*
X112910956Y-133650304D01*
X112887362Y-133632181D01*
X112881207Y-133618161D01*
X112873684Y-133618161D01*
X112858297Y-133613374D01*
X112845645Y-133608587D01*
X112821025Y-133591490D01*
X112809741Y-133573367D01*
X112788883Y-133575419D01*
X112773154Y-133561057D01*
X112744431Y-133528915D01*
X112736224Y-133498824D01*
X112729727Y-133473521D01*
X112760844Y-133442404D01*
X112786147Y-133450953D01*
X112812819Y-133469418D01*
X112866503Y-133504637D01*
X112907194Y-133537464D01*
X112932156Y-133552167D01*
X112961905Y-133576787D01*
X112995142Y-133599127D01*
X112980369Y-133568238D01*
X112971821Y-133551141D01*
X112957801Y-133521392D01*
X112944808Y-133486856D01*
X112947201Y-133460527D01*
X112931130Y-133446849D01*
X112911639Y-133417101D01*
X112911639Y-133392823D01*
X112902065Y-133389404D01*
X112890781Y-133372990D01*
X112885652Y-133347345D01*
X112881891Y-133327170D01*
X112881891Y-133319306D01*
X112887346Y-133312362D01*
X112860006Y-133275538D01*
X112846329Y-133227666D01*
X112846329Y-133212621D01*
X112842226Y-133199969D01*
X112854877Y-133178769D01*
X112842226Y-133179110D01*
X112829355Y-133167538D01*
X112804270Y-133102516D01*
X112785806Y-133044386D01*
X112771102Y-132919920D01*
X112772470Y-132910688D01*
X112765289Y-132898036D01*
X112765289Y-132872048D01*
X112771102Y-132805370D01*
X112783070Y-132769466D01*
X112842909Y-132717150D01*
X112875142Y-132692851D01*
X112943098Y-132683297D01*
X112951646Y-132685349D01*
G37*
G36*
X112604919Y-133490276D02*
G01*
X112603551Y-133472837D01*
X112603551Y-133463605D01*
X112594319Y-133436249D01*
X112567700Y-133371398D01*
X112553286Y-133348713D01*
X112529692Y-133309732D01*
X112514305Y-133283402D01*
X112495498Y-133258441D01*
X112489002Y-133248866D01*
X112467117Y-133209543D01*
X112442840Y-133177401D01*
X112414117Y-133136368D01*
X112393258Y-133104226D01*
X112366245Y-133070032D01*
X112343335Y-133052251D01*
X112323503Y-133020108D01*
X112298541Y-132995147D01*
X112278025Y-132978734D01*
X112270160Y-132969501D01*
X112237334Y-132939752D01*
X112203140Y-132909662D01*
X112178520Y-132900087D01*
X112178862Y-132900429D01*
X112176468Y-132886410D01*
X112160397Y-132872732D01*
X112142958Y-132855977D01*
X112116629Y-132829990D01*
X112090642Y-132814944D01*
X112077990Y-132800241D01*
X112041060Y-132780066D01*
X111992505Y-132752711D01*
X111932232Y-132713685D01*
X111921381Y-132708943D01*
X111854955Y-132685802D01*
X111835554Y-132683297D01*
X111795205Y-132688769D01*
X111778792Y-132686717D01*
X111760669Y-132695949D01*
X111759302Y-132694581D01*
X111746992Y-132697659D01*
X111712126Y-132758825D01*
X111708353Y-132787589D01*
X111710062Y-132836829D01*
X111720662Y-132887436D01*
X111731263Y-132923681D01*
X111738101Y-132946933D01*
X111771118Y-133008467D01*
X111788367Y-133011560D01*
X111848313Y-132977515D01*
X111852309Y-132951036D01*
X111820851Y-132888461D01*
X111781489Y-132831827D01*
X111778108Y-132800241D01*
X111782554Y-132792718D01*
X111782554Y-132788957D01*
X111801702Y-132798531D01*
X111820167Y-132792718D01*
X111818457Y-132789299D01*
X111830425Y-132798873D01*
X111839658Y-132798873D01*
X111869406Y-132816654D01*
X111909755Y-132845719D01*
X111955233Y-132878545D01*
X112000369Y-132908636D01*
X112009260Y-132919578D01*
X112029434Y-132917526D01*
X112033538Y-132938043D01*
X112045163Y-132945565D01*
X112052002Y-132945565D01*
X112060893Y-132954456D01*
X112070467Y-132962321D01*
X112094061Y-132990702D01*
X112105687Y-133010534D01*
X112125519Y-133023528D01*
X112141249Y-133033786D01*
X112153217Y-133054986D01*
X112199720Y-133088496D01*
X112198695Y-133085761D01*
X112196643Y-133091916D01*
X112196643Y-133095335D01*
X112240453Y-133151250D01*
X112249986Y-133158252D01*
X112246908Y-133158252D01*
X112264347Y-133203388D01*
X112293754Y-133244421D01*
X112303670Y-133253995D01*
X112303670Y-133267673D01*
X112322477Y-133297080D01*
X112335129Y-133308022D01*
X112352909Y-133339822D01*
X112369323Y-133348713D01*
X112364193Y-133357945D01*
X112364193Y-133364442D01*
X112397704Y-133404107D01*
X112391891Y-133404107D01*
X112407620Y-133438985D01*
X112439420Y-133469418D01*
X112434975Y-133464288D01*
X112431214Y-133490960D01*
X112464980Y-133553684D01*
X112485240Y-133582600D01*
X112490027Y-133579864D01*
X112486266Y-133595593D01*
X112486266Y-133600722D01*
X112497208Y-133637652D01*
X112503705Y-133644149D01*
X112496866Y-133657484D01*
X112507124Y-133677659D01*
X112512254Y-133680053D01*
X112510202Y-133683130D01*
X112510202Y-133691678D01*
X112523879Y-133747757D01*
X112523879Y-133760750D01*
X112527641Y-133774428D01*
X112524563Y-133782976D01*
X112518066Y-133805545D01*
X112525247Y-133822300D01*
X112525589Y-133822300D01*
X112519092Y-133863332D01*
X112500969Y-133886926D01*
X112467459Y-133880771D01*
X112427110Y-133847603D01*
X112381632Y-133808964D01*
X112363852Y-133794602D01*
X112318050Y-133741989D01*
X112312561Y-133735105D01*
X112269647Y-133680907D01*
X112231863Y-133631839D01*
X112227418Y-133620897D01*
X112206559Y-133591832D01*
X112161680Y-133536368D01*
X112153217Y-133524470D01*
X112135094Y-133507031D01*
X112111500Y-133470443D01*
X112097138Y-133455056D01*
X112080383Y-133434198D01*
X112063628Y-133419836D01*
X112055080Y-133419494D01*
X112057473Y-133395900D01*
X112020544Y-133368203D01*
X112028066Y-133358629D01*
X112007892Y-133321016D01*
X111987034Y-133310415D01*
X111982247Y-133295712D01*
X111979511Y-133287505D01*
X111962414Y-133260492D01*
X111950788Y-133243053D01*
X111926168Y-133227666D01*
X111925826Y-133223905D01*
X111934717Y-133204072D01*
X111906336Y-133179794D01*
X111908046Y-133181504D01*
X111908046Y-133166459D01*
X111888213Y-133140471D01*
X111870090Y-133112774D01*
X111851284Y-133070715D01*
X111821193Y-133031734D01*
X111778792Y-133011560D01*
X111727501Y-133031734D01*
X111690914Y-133091574D01*
X111700830Y-133117561D01*
X111718181Y-133186864D01*
X111719295Y-133193814D01*
X111744598Y-133255705D01*
X111740153Y-133275538D01*
X111756908Y-133310415D01*
X111764089Y-133337087D01*
X111764089Y-133350422D01*
X111800676Y-133387010D01*
X111802728Y-133402055D01*
X111803412Y-133424281D01*
X111799651Y-133450269D01*
X111808541Y-133477966D01*
X111829399Y-133503953D01*
X111841025Y-133521050D01*
X111845129Y-133549090D01*
X111849916Y-133570974D01*
X111859148Y-133593200D01*
X111867013Y-133602774D01*
X111862226Y-133617819D01*
X111869406Y-133646884D01*
X111878639Y-133657143D01*
X111871458Y-133668427D01*
X111883084Y-133706382D01*
X111884452Y-133709459D01*
X111880348Y-133762118D01*
X111888213Y-133777847D01*
X111888213Y-133778873D01*
X111893342Y-133777505D01*
X111869064Y-133764854D01*
X111844103Y-133749808D01*
X111786002Y-133706502D01*
X111760669Y-133693046D01*
X111636887Y-133594909D01*
X111611584Y-133580548D01*
X111584228Y-133606535D01*
X111594829Y-133657826D01*
X111594829Y-133669794D01*
X111622868Y-133721769D01*
X111636887Y-133736131D01*
X111653642Y-133749808D01*
X111676210Y-133766563D01*
X111703224Y-133783318D01*
X111712456Y-133788106D01*
X111728527Y-133808280D01*
X111747334Y-133823667D01*
X111801018Y-133858545D01*
X111813670Y-133862648D01*
X111823586Y-133869145D01*
X111846154Y-133879404D01*
X111859490Y-133877694D01*
X111909755Y-133886926D01*
X111939162Y-133868803D01*
X111953524Y-133868803D01*
X111967885Y-133852048D01*
X112011455Y-133798582D01*
X112012679Y-133795628D01*
X112031237Y-133728434D01*
X112032170Y-133712537D01*
X112023279Y-133649278D01*
X112014047Y-133587729D01*
X112006524Y-133543960D01*
X111998660Y-133511476D01*
X111991137Y-133483437D01*
X111983272Y-133438643D01*
X111972330Y-133443772D01*
X112011910Y-133502158D01*
X112038325Y-133528915D01*
X112045163Y-133533702D01*
X112037299Y-133551141D01*
X112076964Y-133610297D01*
X112087222Y-133632523D01*
X112104661Y-133642781D01*
X112120048Y-133641413D01*
X112119023Y-133639704D01*
X112113551Y-133657826D01*
X112145694Y-133692704D01*
X112145010Y-133692020D01*
X112147062Y-133702621D01*
X112163133Y-133713905D01*
X112157662Y-133703988D01*
X112152875Y-133726556D01*
X112167236Y-133742628D01*
X112181256Y-133768615D01*
X112214082Y-133789815D01*
X112222288Y-133785028D01*
X112220237Y-133777505D01*
X112213398Y-133792551D01*
X112211346Y-133799732D01*
X112230495Y-133827087D01*
X112236308Y-133833242D01*
X112259218Y-133867778D01*
X112293412Y-133909152D01*
X112327948Y-133939927D01*
X112367271Y-133975831D01*
X112392233Y-133986089D01*
X112426085Y-134002844D01*
X112463014Y-134012418D01*
X112483872Y-134018231D01*
X112550070Y-133997026D01*
X112559099Y-133990534D01*
X112597397Y-133969676D01*
X112638429Y-133932404D01*
X112669973Y-133868205D01*
X112680488Y-133800073D01*
X112676043Y-133774086D01*
X112671598Y-133762802D01*
X112676043Y-133758357D01*
X112682198Y-133745363D01*
X112672965Y-133725189D01*
X112677411Y-133706382D01*
X112667494Y-133677317D01*
X112647320Y-133659878D01*
X112623042Y-133675949D01*
X112631933Y-133671504D01*
X112639113Y-133678685D01*
X112649371Y-133670136D01*
X112661681Y-133646200D01*
X112665785Y-133634233D01*
X112648346Y-133560374D01*
X112614152Y-133503270D01*
X112604919Y-133490276D01*
G37*
G36*
X110527634Y-132732537D02*
G01*
X110527634Y-132734059D01*
X110582344Y-132713730D01*
X110619616Y-132723646D01*
X110649706Y-132721595D01*
X110672423Y-132728655D01*
X110689713Y-132719543D01*
X110725617Y-132733221D01*
X110739295Y-132746556D01*
X110746817Y-132744847D01*
X110757759Y-132744847D01*
X110874019Y-132780408D01*
X110907871Y-132792376D01*
X110914368Y-132806738D01*
X110941723Y-132800583D01*
X110961556Y-132820073D01*
X110971472Y-132820073D01*
X111010453Y-132847771D01*
X111054221Y-132861790D01*
X111087732Y-132876836D01*
X111101431Y-132883482D01*
X111159197Y-132921630D01*
X111205359Y-132963346D01*
X111216643Y-132968475D01*
X111241946Y-132986256D01*
X111269986Y-133010534D01*
X111311702Y-133050883D01*
X111315122Y-133062509D01*
X111347606Y-133102858D01*
X111381228Y-133149364D01*
X111403684Y-133215698D01*
X111409497Y-133247157D01*
X111402658Y-133255021D01*
X111393084Y-133299815D01*
X111363335Y-133332983D01*
X111335296Y-133353842D01*
X111313754Y-133364442D01*
X111298025Y-133364442D01*
X111293921Y-133365126D01*
X111286057Y-133372648D01*
X111258702Y-133384958D01*
X111219036Y-133396584D01*
X111182791Y-133402055D01*
X111155778Y-133416075D01*
X111125345Y-133411630D01*
X111128764Y-133419836D01*
X111104487Y-133434198D01*
X111068241Y-133425307D01*
X111059351Y-133428385D01*
X111043621Y-133435907D01*
X111027550Y-133444456D01*
X111003614Y-133454030D01*
X110963607Y-133462921D01*
X110956085Y-133454714D01*
X110908213Y-133476940D01*
X110874019Y-133487198D01*
X110867864Y-133487198D01*
X110860756Y-133484107D01*
X110857606Y-133491986D01*
X110782379Y-133528573D01*
X110776224Y-133528573D01*
X110732456Y-133570290D01*
X110726643Y-133594226D01*
X110719804Y-133600722D01*
X110721514Y-133599697D01*
X110732114Y-133618503D01*
X110737585Y-133639362D01*
X110742372Y-133650304D01*
X110773489Y-133688943D01*
X110799134Y-133717666D01*
X110806315Y-133736131D01*
X110825122Y-133753228D01*
X110861367Y-133784002D01*
X110881200Y-133801099D01*
X110922233Y-133818880D01*
X110931123Y-133827429D01*
X110950614Y-133825035D01*
X111029260Y-133855810D01*
X111057641Y-133871197D01*
X111080893Y-133884191D01*
X111090467Y-133884191D01*
X111095596Y-133887952D01*
X111111667Y-133903681D01*
X111112693Y-133903681D01*
X111126029Y-133903681D01*
X111156803Y-133919752D01*
X111172191Y-133929669D01*
X111185868Y-133929669D01*
X111196127Y-133933088D01*
X111233056Y-133952579D01*
X111275115Y-133970018D01*
X111307599Y-133981302D01*
X111336664Y-133996005D01*
X111343388Y-133999788D01*
X111406420Y-134029515D01*
X111416380Y-134034191D01*
X111462156Y-134085593D01*
X111446085Y-134126968D01*
X111421123Y-134141672D01*
X111403342Y-134149536D01*
X111386245Y-134147484D01*
X111357180Y-134153639D01*
X111303838Y-134141330D01*
X111236817Y-134127310D01*
X111187236Y-134115342D01*
X111128422Y-134099613D01*
X111114534Y-134091418D01*
X111050460Y-134065077D01*
X111005324Y-134045586D01*
X110962581Y-134021309D01*
X110956085Y-134021309D01*
X110929071Y-134000450D01*
X110885598Y-133973827D01*
X111105113Y-133973827D01*
X111110642Y-133977882D01*
X111131158Y-133988482D01*
X111147571Y-133995321D01*
X111217327Y-134014812D01*
X111240163Y-134023571D01*
X111209120Y-134008657D01*
X111169455Y-133991560D01*
X111144494Y-133983353D01*
X111133551Y-133985063D01*
X111108248Y-133974463D01*
X111105113Y-133973827D01*
X110885598Y-133973827D01*
X110884961Y-133973437D01*
X110871284Y-133969334D01*
X110831533Y-133942684D01*
X110770753Y-133904023D01*
X110747501Y-133896159D01*
X110714675Y-133876326D01*
X110675010Y-133854784D01*
X110657571Y-133841790D01*
X110657913Y-133837345D01*
X110620642Y-133827087D01*
X110607306Y-133823667D01*
X110548150Y-133789815D01*
X110523659Y-133785819D01*
X110461981Y-133750492D01*
X110460614Y-133750492D01*
X110401116Y-133723479D01*
X110392226Y-133723479D01*
X110371709Y-133702621D01*
X110363869Y-133700532D01*
X110325889Y-133643465D01*
X110312212Y-133617136D01*
X110338541Y-133590806D01*
X110390927Y-133610040D01*
X110455826Y-133640046D01*
X110546782Y-133682788D01*
X110568777Y-133693293D01*
X110567299Y-133691678D01*
X110560460Y-133675607D01*
X110553963Y-133664323D01*
X110544389Y-133651672D01*
X110536524Y-133635600D01*
X110536524Y-133629787D01*
X110541311Y-133615768D01*
X110538576Y-133615426D01*
X110531053Y-133604826D01*
X110529002Y-133589780D01*
X110524898Y-133573025D01*
X110526266Y-133559348D01*
X110522163Y-133544986D01*
X110530711Y-133518315D01*
X110537314Y-133493873D01*
X110580976Y-133440011D01*
X110586337Y-133435994D01*
X110650390Y-133406842D01*
X110662700Y-133412655D01*
X110676036Y-133420178D01*
X110682533Y-133430436D01*
X110685952Y-133432830D01*
X110671249Y-133404107D01*
X110701339Y-133379829D01*
X110718778Y-133382565D01*
X110724249Y-133378461D01*
X110733824Y-133376410D01*
X110784089Y-133363416D01*
X110803237Y-133372648D01*
X110819993Y-133352474D01*
X110855896Y-133345977D01*
X110877096Y-133345977D01*
X110892142Y-133342900D01*
X110926336Y-133327854D01*
X110940697Y-133332300D01*
X110960872Y-133323751D01*
X110978653Y-133328196D01*
X110984498Y-133331362D01*
X110997117Y-133324435D01*
X111020711Y-133315886D01*
X111036099Y-133319990D01*
X111036099Y-133321016D01*
X111067557Y-133310415D01*
X111080209Y-133314519D01*
X111087048Y-133319648D01*
X111085338Y-133317938D01*
X111097648Y-133314177D01*
X111106880Y-133314177D01*
X111108932Y-133316912D01*
X111134919Y-133304602D01*
X111156120Y-133316228D01*
X111159881Y-133319990D01*
X111160565Y-133307338D01*
X111201598Y-133289899D01*
X111227243Y-133284428D01*
X111240237Y-133280325D01*
X111265540Y-133269383D01*
X111285715Y-133253995D01*
X111264856Y-133218775D01*
X111253572Y-133207150D01*
X111236133Y-133183214D01*
X111220404Y-133166117D01*
X111203649Y-133145600D01*
X111179713Y-133127136D01*
X111155778Y-133102174D01*
X111131500Y-133097729D01*
X111122267Y-133080974D01*
X111109958Y-133083709D01*
X111084996Y-133069006D01*
X111064138Y-133050199D01*
X111048066Y-133041309D01*
X111029602Y-133035154D01*
X111011479Y-133024212D01*
X110994382Y-133014295D01*
X110981388Y-133014295D01*
X110967027Y-133006773D01*
X110946852Y-132992411D01*
X110944117Y-132968133D01*
X110941723Y-132965056D01*
X110928387Y-132971553D01*
X110910265Y-132981811D01*
X110823412Y-132939411D01*
X110810418Y-132941120D01*
X110797424Y-132937017D01*
X110791953Y-132934623D01*
X110754682Y-132921288D01*
X110732798Y-132912055D01*
X110705785Y-132912055D01*
X110694501Y-132909662D01*
X110644919Y-132893591D01*
X110618248Y-132895642D01*
X110554305Y-132886068D01*
X110514982Y-132880597D01*
X110465401Y-132887436D01*
X110447278Y-132887436D01*
X110433594Y-132892172D01*
X110366238Y-132906584D01*
X110337173Y-132912055D01*
X110322470Y-132910004D01*
X110317341Y-132919920D01*
X110299560Y-132938385D01*
X110277676Y-132958901D01*
X110260579Y-132977024D01*
X110253398Y-132993437D01*
X110265024Y-132994121D01*
X110302295Y-133045754D01*
X110293063Y-133066954D01*
X110274598Y-133086445D01*
X110234933Y-133099096D01*
X110216810Y-133091232D01*
X110197320Y-133083367D01*
X110162442Y-133022160D01*
X110166203Y-132986256D01*
X110162442Y-132952404D01*
X110169281Y-132933598D01*
X110165861Y-132918210D01*
X110184326Y-132871023D01*
X110205526Y-132836145D01*
X110222623Y-132811183D01*
X110239378Y-132789299D01*
X110264682Y-132763995D01*
X110289644Y-132775279D01*
X110289986Y-132769808D01*
X110301612Y-132756473D01*
X110312212Y-132748266D01*
X110327257Y-132739718D01*
X110349483Y-132739718D01*
X110349825Y-132739718D01*
X110372393Y-132722963D01*
X110386755Y-132730827D01*
X110393251Y-132731511D01*
X110427103Y-132717491D01*
X110445910Y-132725014D01*
X110470530Y-132715440D01*
X110474291Y-132715440D01*
X110480446Y-132712020D01*
X110498227Y-132705182D01*
X110527634Y-132732537D01*
G37*
G36*
X108456503Y-132683981D02*
G01*
X108464710Y-132681246D01*
X108484884Y-132688427D01*
X108506769Y-132695607D01*
X108528995Y-132710995D01*
X108542672Y-132719885D01*
X108552930Y-132726382D01*
X108583021Y-132737666D01*
X108595331Y-132748950D01*
X108657906Y-132771518D01*
X108678080Y-132773570D01*
X108703384Y-132796822D01*
X108711933Y-132798189D01*
X108733475Y-132805712D01*
X108742365Y-132804002D01*
X108763907Y-132820415D01*
X108770746Y-132833067D01*
X108788527Y-132830674D01*
X108826140Y-132842300D01*
X108869909Y-132870339D01*
X108927697Y-132899404D01*
X108985826Y-132932572D01*
X109002240Y-132941120D01*
X109018311Y-132951720D01*
X109048401Y-132965056D01*
X109075757Y-132976340D01*
X109080768Y-132978845D01*
X109069944Y-132958217D01*
X109073705Y-132939411D01*
X109067208Y-132931546D01*
X109050453Y-132910346D01*
X109030963Y-132885726D01*
X109016259Y-132832383D01*
X109016985Y-132814044D01*
X109046008Y-132749634D01*
X109070969Y-132711678D01*
X109096504Y-132692277D01*
X109165687Y-132683297D01*
X109197829Y-132704840D01*
X109212191Y-132746898D01*
X109212191Y-132753053D01*
X109192016Y-132817338D01*
X109192016Y-132822809D01*
X109192603Y-132829152D01*
X109208771Y-132897694D01*
X109223475Y-132932572D01*
X109227236Y-132950695D01*
X109231339Y-132967108D01*
X109222102Y-132984136D01*
X109241475Y-132995013D01*
X109273740Y-133057722D01*
X109291179Y-133074135D01*
X109302805Y-133085077D01*
X109336315Y-133096019D01*
X109351360Y-133103884D01*
X109357173Y-133106961D01*
X109405387Y-133133632D01*
X109453258Y-133159620D01*
X109507969Y-133183214D01*
X109549344Y-133207833D01*
X109581058Y-133225187D01*
X109621835Y-133280325D01*
X109600635Y-133320674D01*
X109583658Y-133332520D01*
X109520816Y-133376473D01*
X109460439Y-133419494D01*
X109461807Y-133421204D01*
X109491898Y-133486173D01*
X109515491Y-133543618D01*
X109530537Y-133552509D01*
X109536692Y-133567212D01*
X109539085Y-133582600D01*
X109540795Y-133586703D01*
X109553105Y-133612690D01*
X109560969Y-133625342D01*
X109587983Y-133677659D01*
X109597899Y-133705356D01*
X109599267Y-133716982D01*
X109612260Y-133743995D01*
X109625254Y-133775796D01*
X109626964Y-133786396D01*
X109644884Y-133821001D01*
X109656371Y-133890004D01*
X109649874Y-133921804D01*
X109643035Y-133942321D01*
X109635170Y-133970360D01*
X109629699Y-133986089D01*
X109574305Y-134025412D01*
X109552079Y-134040799D01*
X109506943Y-134016863D01*
X109496685Y-133994979D01*
X109491214Y-133975831D01*
X109500104Y-133953946D01*
X109493265Y-133925224D01*
X109493265Y-133915307D01*
X109499078Y-133899236D01*
X109500104Y-133901288D01*
X109488686Y-133875632D01*
X109464200Y-133809648D01*
X109446762Y-133759383D01*
X109432742Y-133722795D01*
X109408464Y-133674240D01*
X109408464Y-133666375D01*
X109378032Y-133615084D01*
X109365038Y-133572683D01*
X109365038Y-133559006D01*
X109365722Y-133539173D01*
X109355122Y-133540883D01*
X109329818Y-133502244D01*
X109291537Y-133527489D01*
X109230997Y-133566870D01*
X109194410Y-133593884D01*
X109163635Y-133607903D01*
X109135596Y-133631497D01*
X109129441Y-133634575D01*
X109109086Y-133659284D01*
X109053872Y-133702279D01*
X109004291Y-133731002D01*
X108986852Y-133744679D01*
X108935810Y-133770261D01*
X108879483Y-133812725D01*
X108839818Y-133839739D01*
X108796734Y-133872223D01*
X108764591Y-133898210D01*
X108735526Y-133907443D01*
X108724740Y-133902464D01*
X108719430Y-133916551D01*
X108658590Y-133952579D01*
X108650383Y-133941637D01*
X108642177Y-133943004D01*
X108607299Y-133932404D01*
X108577550Y-133919411D01*
X108551221Y-133871539D01*
X108565823Y-133824127D01*
X108618583Y-133780583D01*
X108638415Y-133767247D01*
X108662009Y-133753228D01*
X108682526Y-133746731D01*
X108686980Y-133742944D01*
X108746810Y-133709801D01*
X108763224Y-133713563D01*
X108772798Y-133700911D01*
X108799127Y-133685524D01*
X108823405Y-133674581D01*
X108832295Y-133662614D01*
X108858625Y-133652355D01*
X108888374Y-133637994D01*
X108905471Y-133625684D01*
X108943084Y-133601064D01*
X108981381Y-133589096D01*
X109002581Y-133572341D01*
X109031646Y-133560374D01*
X109057634Y-133546354D01*
X109091486Y-133528573D01*
X109119183Y-133517973D01*
X109126022Y-133518999D01*
X109148590Y-133497115D01*
X109179706Y-133493011D01*
X109194752Y-133485831D01*
X109203642Y-133480702D01*
X109203642Y-133470443D01*
X109216636Y-133458817D01*
X109230693Y-133454922D01*
X109291521Y-133420862D01*
X109278527Y-133396926D01*
X109264508Y-133371281D01*
X109250830Y-133344267D01*
X109252882Y-133329222D01*
X109246043Y-133325803D01*
X109189911Y-133211521D01*
X109362294Y-133211521D01*
X109384528Y-133260834D01*
X109389915Y-133275317D01*
X109415645Y-133341874D01*
X109416671Y-133341874D01*
X109426245Y-133337087D01*
X109442350Y-133328664D01*
X109499078Y-133287163D01*
X109484033Y-133267331D01*
X109474117Y-133261860D01*
X109428929Y-133237937D01*
X109362294Y-133211521D01*
X109189911Y-133211521D01*
X109188939Y-133209543D01*
X109175603Y-133181846D01*
X109157822Y-133159962D01*
X109141751Y-133128845D01*
X109126022Y-133120981D01*
X109101744Y-133106961D01*
X109093196Y-133098755D01*
X109079860Y-133100806D01*
X109074731Y-133100806D01*
X109066866Y-133098755D01*
X109035750Y-133077212D01*
X109014891Y-133077212D01*
X108975568Y-133057722D01*
X108931800Y-133031734D01*
X108898632Y-133020108D01*
X108873670Y-133010876D01*
X108810753Y-132984205D01*
X108801179Y-132984205D01*
X108771088Y-132973605D01*
X108726978Y-132956166D01*
X108680132Y-132936675D01*
X108646964Y-132921630D01*
X108615847Y-132909662D01*
X108606957Y-132911371D01*
X108582679Y-132902139D01*
X108570369Y-132903849D01*
X108541127Y-132889113D01*
X108474626Y-132862132D01*
X108446587Y-132855635D01*
X108386748Y-132818022D01*
X108364749Y-132790146D01*
X108345031Y-132723646D01*
X108350224Y-132693563D01*
X108410683Y-132661413D01*
X108456503Y-132683981D01*
G37*
G36*
X108178506Y-133148336D02*
G01*
X108184319Y-133111748D01*
X108184319Y-133105251D01*
X108146773Y-133046164D01*
X108144312Y-133045754D01*
X108102937Y-133033102D01*
X108057801Y-133067296D01*
X108036601Y-133119271D01*
X108039678Y-133130213D01*
X108043440Y-133156542D01*
X108065666Y-133192446D01*
X108110802Y-133208517D01*
X108152519Y-133187659D01*
X108178506Y-133148336D01*
G37*
G36*
X108595673Y-133638336D02*
G01*
X108571737Y-133617478D01*
X108561821Y-133617478D01*
X108547801Y-133604484D01*
X108539253Y-133601064D01*
X108503691Y-133566187D01*
X108490355Y-133555928D01*
X108478046Y-133548748D01*
X108454110Y-133528915D01*
X108423335Y-133512160D01*
X108411367Y-133516605D01*
X108393244Y-133494721D01*
X108364180Y-133467366D01*
X108349134Y-133460185D01*
X108322463Y-133440695D01*
X108285875Y-133427359D01*
X108222316Y-133456240D01*
X108220223Y-133458133D01*
X108186404Y-133518059D01*
X108186371Y-133520025D01*
X108203126Y-133593542D01*
X108221505Y-133660049D01*
X108241081Y-133684498D01*
X108244159Y-133701253D01*
X108256810Y-133708434D01*
X108250997Y-133730660D01*
X108268436Y-133756989D01*
X108263307Y-133751518D01*
X108263307Y-133789815D01*
X108284508Y-133807254D01*
X108283482Y-133803151D01*
X108255443Y-133793577D01*
X108244501Y-133794944D01*
X108225352Y-133775796D01*
X108205519Y-133766221D01*
X108165512Y-133747757D01*
X108041046Y-133653039D01*
X107994542Y-133624316D01*
X107969239Y-133654065D01*
X107978129Y-133693730D01*
X107993517Y-133729634D01*
X108010272Y-133759041D01*
X108025659Y-133776822D01*
X108057459Y-133804519D01*
X108101228Y-133840764D01*
X108131318Y-133867094D01*
X108170983Y-133896501D01*
X108176113Y-133905049D01*
X108196629Y-133916333D01*
X108225010Y-133932404D01*
X108242449Y-133942321D01*
X108262623Y-133948475D01*
X108284849Y-133960101D01*
X108305708Y-133970702D01*
X108318702Y-133968992D01*
X108337166Y-133974463D01*
X108386064Y-133952579D01*
X108413077Y-133903681D01*
X108413077Y-133897184D01*
X108411367Y-133884191D01*
X108417180Y-133867778D01*
X108422993Y-133847261D01*
X108421284Y-133836319D01*
X108422993Y-133831190D01*
X108418890Y-133794260D01*
X108413077Y-133776480D01*
X108408974Y-133757673D01*
X108404187Y-133734079D01*
X108393586Y-133714930D01*
X108387090Y-133693388D01*
X108382644Y-133674923D01*
X108371018Y-133659194D01*
X108364180Y-133641755D01*
X108353921Y-133616452D01*
X108346057Y-133602774D01*
X108346399Y-133602432D01*
X108368625Y-133618845D01*
X108389483Y-133611665D01*
X108388799Y-133613716D01*
X108398374Y-133625000D01*
X108416496Y-133639362D01*
X108432226Y-133642781D01*
X108445903Y-133636968D01*
X108447613Y-133636968D01*
X108448297Y-133650646D01*
X108484200Y-133676633D01*
X108505059Y-133682104D01*
X108514633Y-133696124D01*
X108536175Y-133721085D01*
X108561821Y-133733737D01*
X108599776Y-133692020D01*
X108592254Y-133648594D01*
X108595673Y-133638336D01*
G37*
G36*
X107721332Y-133449243D02*
G01*
X107711416Y-133439327D01*
X107711416Y-133436249D01*
X107700816Y-133408210D01*
X107682009Y-133379829D01*
X107669357Y-133362390D01*
X107656022Y-133353842D01*
X107660467Y-133345635D01*
X107664228Y-133327512D01*
X107655680Y-133311441D01*
X107649525Y-133303235D01*
X107637899Y-133294344D01*
X107631060Y-133281009D01*
X107614647Y-133250576D01*
X107586950Y-133229376D01*
X107579085Y-133225614D01*
X107566775Y-133221853D01*
X107552414Y-133234505D01*
X107550362Y-133238950D01*
X107553440Y-133240318D01*
X107558911Y-133240318D01*
X107572930Y-133230401D01*
X107580111Y-133214330D01*
X107583531Y-133203046D01*
X107571221Y-133178427D01*
X107546601Y-133165433D01*
X107545233Y-133170562D01*
X107553440Y-133150046D01*
X107528136Y-133111748D01*
X107495652Y-133087129D01*
X107487787Y-133096361D01*
X107486762Y-133075845D01*
X107494284Y-133055328D01*
X107461800Y-133018057D01*
X107458381Y-133015321D01*
X107409825Y-132967792D01*
X107358267Y-132920187D01*
X107341437Y-132912397D01*
X107330153Y-132917526D01*
X107326050Y-132916159D01*
X107307585Y-132938727D01*
X107348276Y-132963346D01*
X107349302Y-132960953D01*
X107347934Y-132950353D01*
X107315108Y-132920604D01*
X107326050Y-132941120D01*
X107322630Y-132921288D01*
X107331179Y-132921288D01*
X107335282Y-132909662D01*
X107299036Y-132865893D01*
X107242424Y-132823386D01*
X107222784Y-132811525D01*
X107214577Y-132801951D01*
X107195429Y-132793060D01*
X107171835Y-132806054D01*
X107174570Y-132810841D01*
X107181409Y-132798189D01*
X107169099Y-132780750D01*
X107127383Y-132756473D01*
X107083956Y-132736298D01*
X107060704Y-132727408D01*
X107033691Y-132721595D01*
X107004968Y-132717491D01*
X106991974Y-132711337D01*
X106971458Y-132705182D01*
X106939316Y-132723646D01*
X106949574Y-132719543D01*
X106937264Y-132710995D01*
X106927348Y-132710995D01*
X106896573Y-132737324D01*
X106855322Y-132793129D01*
X106851779Y-132819390D01*
X106856566Y-132859739D01*
X106854515Y-132892907D01*
X106870586Y-132928127D01*
X106888025Y-132988308D01*
X106904780Y-133040625D01*
X106938888Y-133100454D01*
X106965987Y-133130213D01*
X106973510Y-133150046D01*
X107003258Y-133204072D01*
X107038136Y-133251260D01*
X107071988Y-133280325D01*
X107074040Y-133272802D01*
X107062414Y-133292976D01*
X107107101Y-133346605D01*
X107146531Y-133361706D01*
X107197822Y-133338796D01*
X107222784Y-133290925D01*
X107189297Y-133228577D01*
X107131940Y-133182578D01*
X107104131Y-133164749D01*
X107096950Y-133168852D01*
X107097976Y-133163723D01*
X107100369Y-133154491D01*
X107068227Y-133115168D01*
X107037452Y-133082341D01*
X107003258Y-133028657D01*
X107000523Y-133022160D01*
X107000523Y-133009508D01*
X106977613Y-132984547D01*
X106978297Y-132985572D01*
X106978297Y-132968133D01*
X106959148Y-132940094D01*
X106954361Y-132913081D01*
X106939316Y-132866919D01*
X106947180Y-132821099D01*
X106961542Y-132814602D01*
X107004284Y-132831357D01*
X107048394Y-132848113D01*
X107059678Y-132845377D01*
X107063782Y-132842300D01*
X107067201Y-132849822D01*
X107078143Y-132863158D01*
X107095924Y-132873758D01*
X107122254Y-132889145D01*
X107136957Y-132908294D01*
X107150635Y-132918210D01*
X107185854Y-132943172D01*
X107193377Y-132961637D01*
X107205345Y-132973605D01*
X107216629Y-132973605D01*
X107216287Y-132972921D01*
X107216287Y-132981127D01*
X107227229Y-132999592D01*
X107263475Y-133038915D01*
X107274417Y-133044728D01*
X107282281Y-133044728D01*
X107280914Y-133040967D01*
X107296985Y-133081658D01*
X107328101Y-133112432D01*
X107338018Y-133125426D01*
X107353747Y-133120297D01*
X107354431Y-133116193D01*
X107340411Y-133124058D01*
X107354773Y-133153807D01*
X107374947Y-133166117D01*
X107388283Y-133212279D01*
X107395464Y-133226298D01*
X107405722Y-133240660D01*
X107405722Y-133243737D01*
X107451200Y-133295370D01*
X107446413Y-133314177D01*
X107463852Y-133341532D01*
X107471716Y-133358287D01*
X107486420Y-133382907D01*
X107494968Y-133395217D01*
X107499755Y-133400346D01*
X107497704Y-133416417D01*
X107516168Y-133455740D01*
X107525743Y-133476940D01*
X107536685Y-133499166D01*
X107555150Y-133524812D01*
X107565408Y-133569264D01*
X107585240Y-133577471D01*
X107585240Y-133593200D01*
X107586266Y-133598671D01*
X107586266Y-133610981D01*
X107607808Y-133638678D01*
X107598918Y-133656117D01*
X107608150Y-133694072D01*
X107621144Y-133718008D01*
X107630718Y-133740576D01*
X107623879Y-133761434D01*
X107632086Y-133823667D01*
X107624221Y-133845893D01*
X107637215Y-133855810D01*
X107628325Y-133862307D01*
X107598918Y-133909494D01*
X107591737Y-133908810D01*
X107576350Y-133907101D01*
X107552072Y-133902997D01*
X107510355Y-133884533D01*
X107491549Y-133884533D01*
X107465903Y-133867778D01*
X107440600Y-133850681D01*
X107414612Y-133843158D01*
X107412561Y-133845210D01*
X107407431Y-133835977D01*
X107389993Y-133816145D01*
X107365031Y-133799732D01*
X107317501Y-133763144D01*
X107305191Y-133757673D01*
X107293565Y-133749808D01*
X107251507Y-133710827D01*
X107205224Y-133659483D01*
X107204661Y-133658168D01*
X107177990Y-133637310D01*
X107163628Y-133639362D01*
X107162602Y-133639362D01*
X107163628Y-133635942D01*
X107128066Y-133604142D01*
X107094214Y-133567896D01*
X107057627Y-133532334D01*
X107041556Y-133534728D01*
X107042581Y-133521392D01*
X107018304Y-133499166D01*
X107011807Y-133499166D01*
X107012833Y-133499508D01*
X106981032Y-133463605D01*
X106973168Y-133463605D01*
X106976587Y-133456082D01*
X106928032Y-133418810D01*
X106912302Y-133410946D01*
X106896231Y-133405475D01*
X106860327Y-133455398D01*
X106871953Y-133480360D01*
X106882212Y-133488908D01*
X106884263Y-133504979D01*
X106921877Y-133539173D01*
X106928374Y-133557296D01*
X106939658Y-133567896D01*
X106948548Y-133576445D01*
X106958122Y-133581916D01*
X107002916Y-133625342D01*
X107032665Y-133668085D01*
X107047369Y-133677317D01*
X107079853Y-133709459D01*
X107121912Y-133753228D01*
X107131486Y-133764170D01*
X107142770Y-133756647D01*
X107147899Y-133772034D01*
X107170125Y-133784002D01*
X107187906Y-133798706D01*
X107198506Y-133816829D01*
X107210474Y-133831874D01*
X107228939Y-133842474D01*
X107246378Y-133825377D01*
X107244326Y-133831190D01*
X107240223Y-133840764D01*
X107245694Y-133856494D01*
X107261765Y-133877352D01*
X107315792Y-133900946D01*
X107319553Y-133909494D01*
X107345198Y-133927959D01*
X107383154Y-133958050D01*
X107424528Y-133971385D01*
X107438890Y-133969676D01*
X107456671Y-133983011D01*
X107464535Y-133985405D01*
X107487787Y-133996347D01*
X107512065Y-133977540D01*
X107510355Y-133969676D01*
X107510355Y-133968308D01*
X107499413Y-133966256D01*
X107525401Y-134014470D01*
X107548311Y-134004212D01*
X107546601Y-134003186D01*
X107559937Y-134014128D01*
X107574298Y-134018231D01*
X107641804Y-134000258D01*
X107648499Y-133996347D01*
X107654996Y-133996347D01*
X107710390Y-133955314D01*
X107708339Y-133954288D01*
X107738771Y-133921462D01*
X107757578Y-133902997D01*
X107766810Y-133876668D01*
X107773649Y-133861965D01*
X107795533Y-133790841D01*
X107799637Y-133738524D01*
X107801688Y-133730660D01*
X107801688Y-133723137D01*
X107797927Y-133698175D01*
X107799637Y-133689285D01*
X107781856Y-133629445D01*
X107760767Y-133563881D01*
X107758946Y-133555586D01*
X107749713Y-133524812D01*
X107721332Y-133449243D01*
G37*
G36*
X106682519Y-133490276D02*
G01*
X106681151Y-133472837D01*
X106681151Y-133463605D01*
X106671919Y-133436249D01*
X106645299Y-133371398D01*
X106630886Y-133348713D01*
X106607292Y-133309732D01*
X106591905Y-133283402D01*
X106573098Y-133258441D01*
X106566601Y-133248866D01*
X106544717Y-133209543D01*
X106520439Y-133177401D01*
X106491716Y-133136368D01*
X106470858Y-133104226D01*
X106443845Y-133070032D01*
X106420935Y-133052251D01*
X106401102Y-133020108D01*
X106376140Y-132995147D01*
X106355624Y-132978734D01*
X106347759Y-132969501D01*
X106314933Y-132939752D01*
X106280739Y-132909662D01*
X106256120Y-132900087D01*
X106256461Y-132900429D01*
X106254068Y-132886410D01*
X106237997Y-132872732D01*
X106220558Y-132855977D01*
X106194228Y-132829990D01*
X106168241Y-132814944D01*
X106155589Y-132800241D01*
X106118660Y-132780066D01*
X106070104Y-132752711D01*
X106009832Y-132713685D01*
X105998981Y-132708943D01*
X105932555Y-132685802D01*
X105913154Y-132683297D01*
X105872805Y-132688769D01*
X105856392Y-132686717D01*
X105838269Y-132695949D01*
X105836901Y-132694581D01*
X105824591Y-132697659D01*
X105789725Y-132758825D01*
X105785952Y-132787589D01*
X105787662Y-132836829D01*
X105798262Y-132887436D01*
X105808862Y-132923681D01*
X105815701Y-132946933D01*
X105848718Y-133008467D01*
X105865966Y-133011560D01*
X105925912Y-132977515D01*
X105929909Y-132951036D01*
X105898450Y-132888461D01*
X105859089Y-132831827D01*
X105855708Y-132800241D01*
X105860153Y-132792718D01*
X105860153Y-132788957D01*
X105879302Y-132798531D01*
X105897766Y-132792718D01*
X105896057Y-132789299D01*
X105908025Y-132798873D01*
X105917257Y-132798873D01*
X105947006Y-132816654D01*
X105987355Y-132845719D01*
X106032833Y-132878545D01*
X106077969Y-132908636D01*
X106086859Y-132919578D01*
X106107034Y-132917526D01*
X106111137Y-132938043D01*
X106122763Y-132945565D01*
X106129602Y-132945565D01*
X106138492Y-132954456D01*
X106148066Y-132962321D01*
X106171660Y-132990702D01*
X106183286Y-133010534D01*
X106203119Y-133023528D01*
X106218848Y-133033786D01*
X106230816Y-133054986D01*
X106277320Y-133088496D01*
X106276294Y-133085761D01*
X106274242Y-133091916D01*
X106274242Y-133095335D01*
X106318052Y-133151250D01*
X106327585Y-133158252D01*
X106324508Y-133158252D01*
X106341946Y-133203388D01*
X106371353Y-133244421D01*
X106381270Y-133253995D01*
X106381270Y-133267673D01*
X106400076Y-133297080D01*
X106412728Y-133308022D01*
X106430509Y-133339822D01*
X106446922Y-133348713D01*
X106441793Y-133357945D01*
X106441793Y-133364442D01*
X106475303Y-133404107D01*
X106469490Y-133404107D01*
X106485219Y-133438985D01*
X106517020Y-133469418D01*
X106512575Y-133464288D01*
X106508813Y-133490960D01*
X106542580Y-133553684D01*
X106562840Y-133582600D01*
X106567627Y-133579864D01*
X106563866Y-133595593D01*
X106563866Y-133600722D01*
X106574808Y-133637652D01*
X106581304Y-133644149D01*
X106574466Y-133657484D01*
X106584724Y-133677659D01*
X106589853Y-133680053D01*
X106587801Y-133683130D01*
X106587801Y-133691678D01*
X106601479Y-133747757D01*
X106601479Y-133760750D01*
X106605240Y-133774428D01*
X106602163Y-133782976D01*
X106595666Y-133805545D01*
X106602847Y-133822300D01*
X106603189Y-133822300D01*
X106596692Y-133863332D01*
X106578569Y-133886926D01*
X106545059Y-133880771D01*
X106504710Y-133847603D01*
X106459232Y-133808964D01*
X106441451Y-133794602D01*
X106395650Y-133741989D01*
X106390160Y-133735105D01*
X106347247Y-133680907D01*
X106309462Y-133631839D01*
X106305017Y-133620897D01*
X106284159Y-133591832D01*
X106239279Y-133536368D01*
X106230816Y-133524470D01*
X106212693Y-133507031D01*
X106189099Y-133470443D01*
X106174738Y-133455056D01*
X106157983Y-133434198D01*
X106141228Y-133419836D01*
X106132679Y-133419494D01*
X106135073Y-133395900D01*
X106098143Y-133368203D01*
X106105666Y-133358629D01*
X106085491Y-133321016D01*
X106064633Y-133310415D01*
X106059846Y-133295712D01*
X106057110Y-133287505D01*
X106040013Y-133260492D01*
X106028387Y-133243053D01*
X106003768Y-133227666D01*
X106003426Y-133223905D01*
X106012316Y-133204072D01*
X105983935Y-133179794D01*
X105985645Y-133181504D01*
X105985645Y-133166459D01*
X105965812Y-133140471D01*
X105947690Y-133112774D01*
X105928883Y-133070715D01*
X105898792Y-133031734D01*
X105856392Y-133011560D01*
X105805101Y-133031734D01*
X105768513Y-133091574D01*
X105778429Y-133117561D01*
X105795780Y-133186864D01*
X105796894Y-133193814D01*
X105822198Y-133255705D01*
X105817752Y-133275538D01*
X105834508Y-133310415D01*
X105841688Y-133337087D01*
X105841688Y-133350422D01*
X105878276Y-133387010D01*
X105880327Y-133402055D01*
X105881011Y-133424281D01*
X105877250Y-133450269D01*
X105886140Y-133477966D01*
X105906999Y-133503953D01*
X105918625Y-133521050D01*
X105922728Y-133549090D01*
X105927515Y-133570974D01*
X105936748Y-133593200D01*
X105944612Y-133602774D01*
X105939825Y-133617819D01*
X105947006Y-133646884D01*
X105956238Y-133657143D01*
X105949057Y-133668427D01*
X105960683Y-133706382D01*
X105962051Y-133709459D01*
X105957948Y-133762118D01*
X105965812Y-133777847D01*
X105965812Y-133778873D01*
X105970942Y-133777505D01*
X105946664Y-133764854D01*
X105921702Y-133749808D01*
X105863602Y-133706502D01*
X105838269Y-133693046D01*
X105714487Y-133594909D01*
X105689183Y-133580548D01*
X105661828Y-133606535D01*
X105672428Y-133657826D01*
X105672428Y-133669794D01*
X105700467Y-133721769D01*
X105714487Y-133736131D01*
X105731242Y-133749808D01*
X105753810Y-133766563D01*
X105780823Y-133783318D01*
X105790055Y-133788106D01*
X105806127Y-133808280D01*
X105824933Y-133823667D01*
X105878618Y-133858545D01*
X105891270Y-133862648D01*
X105901186Y-133869145D01*
X105923754Y-133879404D01*
X105937090Y-133877694D01*
X105987355Y-133886926D01*
X106016762Y-133868803D01*
X106031123Y-133868803D01*
X106045484Y-133852048D01*
X106089055Y-133798582D01*
X106090279Y-133795628D01*
X106108837Y-133728434D01*
X106109769Y-133712537D01*
X106100879Y-133649278D01*
X106091646Y-133587729D01*
X106084124Y-133543960D01*
X106076259Y-133511476D01*
X106068736Y-133483437D01*
X106060872Y-133438643D01*
X106049930Y-133443772D01*
X106089509Y-133502158D01*
X106115924Y-133528915D01*
X106122763Y-133533702D01*
X106114898Y-133551141D01*
X106154563Y-133610297D01*
X106164822Y-133632523D01*
X106182260Y-133642781D01*
X106197648Y-133641413D01*
X106196622Y-133639704D01*
X106191151Y-133657826D01*
X106223293Y-133692704D01*
X106222609Y-133692020D01*
X106224661Y-133702621D01*
X106240732Y-133713905D01*
X106235261Y-133703988D01*
X106230474Y-133726556D01*
X106244836Y-133742628D01*
X106258855Y-133768615D01*
X106291681Y-133789815D01*
X106299888Y-133785028D01*
X106297836Y-133777505D01*
X106290997Y-133792551D01*
X106288946Y-133799732D01*
X106308094Y-133827087D01*
X106313907Y-133833242D01*
X106336817Y-133867778D01*
X106371011Y-133909152D01*
X106405547Y-133939927D01*
X106444870Y-133975831D01*
X106469832Y-133986089D01*
X106503684Y-134002844D01*
X106540614Y-134012418D01*
X106561472Y-134018231D01*
X106627669Y-133997026D01*
X106636699Y-133990534D01*
X106674996Y-133969676D01*
X106716029Y-133932404D01*
X106747573Y-133868205D01*
X106758087Y-133800073D01*
X106753642Y-133774086D01*
X106749197Y-133762802D01*
X106753642Y-133758357D01*
X106759797Y-133745363D01*
X106750565Y-133725189D01*
X106755010Y-133706382D01*
X106745094Y-133677317D01*
X106724919Y-133659878D01*
X106700642Y-133675949D01*
X106709532Y-133671504D01*
X106716713Y-133678685D01*
X106726971Y-133670136D01*
X106739281Y-133646200D01*
X106743384Y-133634233D01*
X106725945Y-133560374D01*
X106691751Y-133503270D01*
X106682519Y-133490276D01*
G37*
G36*
X104764235Y-132819048D02*
G01*
X104773468Y-132823151D01*
X104795694Y-132818022D01*
X104808688Y-132820415D01*
X104826468Y-132818364D01*
X104889385Y-132832725D01*
X104952302Y-132840932D01*
X104961193Y-132848113D01*
X104990258Y-132848113D01*
X105009406Y-132858371D01*
X105058646Y-132872048D01*
X105109937Y-132885042D01*
X105138660Y-132895642D01*
X105147208Y-132902823D01*
X105170118Y-132902823D01*
X105182312Y-132909104D01*
X105241926Y-132943172D01*
X105264494Y-132951378D01*
X105281591Y-132957875D01*
X105317494Y-132988308D01*
X105334933Y-132990018D01*
X105353056Y-133001986D01*
X105405373Y-133039941D01*
X105439909Y-133058748D01*
X105462819Y-133087129D01*
X105462819Y-133089180D01*
X105462135Y-133088838D01*
X105499748Y-133127478D01*
X105530181Y-133165433D01*
X105530181Y-133168617D01*
X105555143Y-133195524D01*
X105560272Y-133214672D01*
X105577369Y-133242369D01*
X105582156Y-133256731D01*
X105586943Y-133275196D01*
X105583182Y-133318280D01*
X105571556Y-133342558D01*
X105552065Y-133355893D01*
X105542491Y-133365126D01*
X105531549Y-133370255D01*
X105513426Y-133375384D01*
X105490516Y-133383249D01*
X105473077Y-133392139D01*
X105453928Y-133389404D01*
X105422128Y-133405475D01*
X105410502Y-133403423D01*
X105393405Y-133405817D01*
X105369127Y-133399662D01*
X105331514Y-133395900D01*
X105316468Y-133399662D01*
X105291849Y-133388378D01*
X105282616Y-133378461D01*
X105253551Y-133388036D01*
X105238848Y-133379829D01*
X105236796Y-133372648D01*
X105220041Y-133376752D01*
X105214570Y-133376752D01*
X105189951Y-133370255D01*
X105170460Y-133361023D01*
X105164111Y-133360590D01*
X105182086Y-133376068D01*
X105180034Y-133389062D01*
X105173196Y-133409236D01*
X105174563Y-133411630D01*
X105189609Y-133397268D01*
X105203286Y-133417443D01*
X105196789Y-133426333D01*
X105220725Y-133448559D01*
X105229616Y-133473179D01*
X105236796Y-133495063D01*
X105221751Y-133505663D01*
X105239532Y-133499166D01*
X105263810Y-133531993D01*
X105258038Y-133543875D01*
X105276461Y-133574051D01*
X105290481Y-133589096D01*
X105304159Y-133619871D01*
X105316810Y-133635600D01*
X105325359Y-133656459D01*
X105336643Y-133672530D01*
X105338353Y-133687917D01*
X105347585Y-133709117D01*
X105356133Y-133724163D01*
X105367759Y-133736815D01*
X105380753Y-133774428D01*
X105402295Y-133831190D01*
X105399145Y-133836071D01*
X105408108Y-133834951D01*
X105416999Y-133834951D01*
X105440593Y-133829138D01*
X105479916Y-133847603D01*
X105498381Y-133888294D01*
X105482651Y-133926591D01*
X105452561Y-133950527D01*
X105431702Y-133955656D01*
X105419392Y-133958392D01*
X105413237Y-133958392D01*
X105408792Y-133956682D01*
X105408792Y-133950527D01*
X105372205Y-133966940D01*
X105329462Y-133975147D01*
X105282616Y-133968650D01*
X105268255Y-133960785D01*
X105258339Y-133962837D01*
X105244319Y-133964547D01*
X105233035Y-133966598D01*
X105220041Y-133964547D01*
X105167383Y-133952237D01*
X105154405Y-133951622D01*
X105097969Y-133912914D01*
X105100020Y-133923514D01*
X105086343Y-133934798D01*
X105072665Y-133931720D01*
X105050781Y-133936508D01*
X105013852Y-133915307D01*
X105014535Y-133910520D01*
X105000516Y-133919069D01*
X104963244Y-133908468D01*
X104948541Y-133905391D01*
X104933496Y-133908468D01*
X104910928Y-133892739D01*
X104872867Y-133889266D01*
X104810055Y-133857177D01*
X104791249Y-133859229D01*
X104760816Y-133849313D01*
X104741667Y-133831532D01*
X104739274Y-133832558D01*
X104722519Y-133826061D01*
X104695163Y-133812725D01*
X104670886Y-133793235D01*
X104666099Y-133794944D01*
X104654815Y-133790157D01*
X104638060Y-133780241D01*
X104622672Y-133766563D01*
X104612414Y-133768273D01*
X104583349Y-133744337D01*
X104558729Y-133725189D01*
X104539923Y-133708092D01*
X104530441Y-133701020D01*
X104475980Y-133657143D01*
X104464696Y-133645859D01*
X104462060Y-133644006D01*
X104415799Y-133593200D01*
X104377843Y-133552851D01*
X104368611Y-133538831D01*
X104352198Y-133524128D01*
X104347411Y-133514554D01*
X104337494Y-133494037D01*
X104321423Y-133467708D01*
X104312533Y-133450953D01*
X104305010Y-133422572D01*
X104297829Y-133414707D01*
X104288939Y-133397268D01*
X104292700Y-133378120D01*
X104285177Y-133347003D01*
X104277313Y-133314861D01*
X104277636Y-133313606D01*
X104435289Y-133313606D01*
X104462644Y-133350080D01*
X104459909Y-133364784D01*
X104456831Y-133385642D01*
X104471877Y-133396242D01*
X104486580Y-133425307D01*
X104486580Y-133427701D01*
X104484870Y-133443088D01*
X104479741Y-133442404D01*
X104504019Y-133465314D01*
X104502711Y-133476427D01*
X104520774Y-133489592D01*
X104536845Y-133513870D01*
X104550523Y-133538831D01*
X104559755Y-133543960D01*
X104561961Y-133545118D01*
X104611388Y-133594226D01*
X104633956Y-133604142D01*
X104651737Y-133618161D01*
X104679092Y-133633549D01*
X104691060Y-133635942D01*
X104710209Y-133649278D01*
X104739274Y-133670820D01*
X104754319Y-133677659D01*
X104779281Y-133693046D01*
X104799455Y-133701937D01*
X104840146Y-133726214D01*
X104947173Y-133766221D01*
X104953670Y-133771009D01*
X104954696Y-133771009D01*
X104967690Y-133768957D01*
X104997096Y-133771009D01*
X105016245Y-133781951D01*
X105029581Y-133777163D01*
X105034339Y-133793977D01*
X105045994Y-133791525D01*
X105056594Y-133794602D01*
X105068220Y-133798364D01*
X105079846Y-133804519D01*
X105082923Y-133804861D01*
X105100020Y-133802809D01*
X105116775Y-133804519D01*
X105126692Y-133801783D01*
X105141395Y-133812725D01*
X105154731Y-133812725D01*
X105166357Y-133808280D01*
X105192686Y-133812041D01*
X105210032Y-133819359D01*
X105209441Y-133817854D01*
X105196106Y-133789131D01*
X105194091Y-133783960D01*
X105162937Y-133721427D01*
X105140516Y-133676314D01*
X105114382Y-133612348D01*
X105104689Y-133588939D01*
X105071506Y-133527772D01*
X105031290Y-133468050D01*
X105031290Y-133460869D01*
X105035069Y-133450036D01*
X105021716Y-133428043D01*
X105004277Y-133395558D01*
X104980683Y-133341190D01*
X104970083Y-133319306D01*
X104936915Y-133313151D01*
X104918792Y-133310757D01*
X104878785Y-133301867D01*
X104857585Y-133301867D01*
X104814159Y-133286822D01*
X104781602Y-133271017D01*
X104770390Y-133278273D01*
X104756371Y-133267331D01*
X104750558Y-133265279D01*
X104742693Y-133263228D01*
X104725938Y-133270750D01*
X104715488Y-133269767D01*
X104646950Y-133255021D01*
X104601846Y-133240339D01*
X104541632Y-133203046D01*
X104536664Y-133198505D01*
X104500600Y-133138078D01*
X104500600Y-133133974D01*
X104506755Y-133116877D01*
X104552916Y-133086445D01*
X104606601Y-133106619D01*
X104634982Y-133133290D01*
X104655498Y-133144233D01*
X104680118Y-133156884D01*
X104706789Y-133177401D01*
X104704054Y-133176375D01*
X104704054Y-133183898D01*
X104713628Y-133168852D01*
X104721151Y-133168852D01*
X104758080Y-133181162D01*
X104807662Y-133190736D01*
X104833991Y-133202362D01*
X104863398Y-133211595D01*
X104888702Y-133219117D01*
X104907166Y-133217066D01*
X104931444Y-133220827D01*
X104931786Y-133220827D01*
X104930076Y-133215014D01*
X104913547Y-133180188D01*
X104895882Y-133113800D01*
X104898126Y-133090633D01*
X104931786Y-133028315D01*
X104947851Y-133013392D01*
X105013510Y-132990018D01*
X105056252Y-133027973D01*
X105043942Y-133088838D01*
X105037787Y-133097045D01*
X105048729Y-133098413D01*
X105053859Y-133109697D01*
X105043600Y-133140813D01*
X105035052Y-133139103D01*
X105079162Y-133171930D01*
X105079162Y-133179794D01*
X105084975Y-133201337D01*
X105098311Y-133229718D01*
X105117117Y-133256047D01*
X105114724Y-133271776D01*
X105167383Y-133283402D01*
X105209783Y-133292635D01*
X105222435Y-133301183D01*
X105227906Y-133303919D01*
X105230300Y-133304260D01*
X105237480Y-133300157D01*
X105292533Y-133316570D01*
X105297486Y-133323901D01*
X105318178Y-133305628D01*
X105325359Y-133305628D01*
X105374256Y-133317938D01*
X105388960Y-133313835D01*
X105419392Y-133309732D01*
X105444354Y-133291609D01*
X105453586Y-133263912D01*
X105429309Y-133217066D01*
X105392721Y-133175691D01*
X105377676Y-133157568D01*
X105364340Y-133144575D01*
X105347243Y-133127136D01*
X105318178Y-133106277D01*
X105311681Y-133099780D01*
X105306210Y-133094993D01*
X105285352Y-133084051D01*
X105275094Y-133074819D01*
X105217306Y-133041309D01*
X105199867Y-133027289D01*
X105186531Y-133027289D01*
X105173196Y-133022160D01*
X105160202Y-133014637D01*
X105137976Y-132999250D01*
X105078136Y-132973263D01*
X105070272Y-132967792D01*
X105045994Y-132967792D01*
X104978632Y-132947959D01*
X104951277Y-132939752D01*
X104872630Y-132927443D01*
X104803558Y-132924023D01*
X104778597Y-132925733D01*
X104757397Y-132924365D01*
X104737222Y-132931888D01*
X104729016Y-132927443D01*
X104722861Y-132927785D01*
X104707815Y-132935991D01*
X104683879Y-132933598D01*
X104669359Y-132939881D01*
X104606259Y-132966424D01*
X104587057Y-132975149D01*
X104527087Y-133013848D01*
X104478596Y-133065009D01*
X104480767Y-133071057D01*
X104480767Y-133075161D01*
X104471193Y-133093625D01*
X104458199Y-133119955D01*
X104449993Y-133150387D01*
X104453412Y-133161330D01*
X104451360Y-133173981D01*
X104453070Y-133180820D01*
X104453070Y-133185949D01*
X104439734Y-133207150D01*
X104439734Y-133213988D01*
X104445547Y-133226982D01*
X104451018Y-133248866D01*
X104444521Y-133265621D01*
X104441444Y-133272802D01*
X104445547Y-133282376D01*
X104449309Y-133297080D01*
X104438709Y-133312467D01*
X104435289Y-133313606D01*
X104277636Y-133313606D01*
X104280390Y-133302893D01*
X104273551Y-133268357D01*
X104280732Y-133233479D01*
X104275603Y-133207150D01*
X104279023Y-133191420D01*
X104285177Y-133175007D01*
X104292565Y-133145922D01*
X104313900Y-133079948D01*
X104323475Y-133063535D01*
X104333391Y-133037547D01*
X104354249Y-133010534D01*
X104372855Y-132987197D01*
X104424005Y-132940094D01*
X104488632Y-132906926D01*
X104505387Y-132882307D01*
X104548471Y-132856319D01*
X104553258Y-132854267D01*
X104574117Y-132854267D01*
X104588136Y-132844351D01*
X104602156Y-132836829D01*
X104627117Y-132838880D01*
X104633956Y-132837170D01*
X104654131Y-132829990D01*
X104690718Y-132821441D01*
X104745087Y-132814602D01*
X104764235Y-132819048D01*
G37*
G36*
X103524703Y-133054302D02*
G01*
X103507606Y-133048489D01*
X103447841Y-133011838D01*
X103439902Y-133004037D01*
X103408101Y-132990018D01*
X103386217Y-132973263D01*
X103356127Y-132957875D01*
X103296971Y-132935307D01*
X103278848Y-132926417D01*
X103243628Y-132916842D01*
X103217299Y-132909320D01*
X103148621Y-132902202D01*
X103141388Y-132902139D01*
X103109588Y-132908978D01*
X103075394Y-132923339D01*
X103044619Y-132947275D01*
X103020384Y-133014408D01*
X103020000Y-133030367D01*
X103031119Y-133098307D01*
X103032651Y-133103200D01*
X103050090Y-133111064D01*
X103062742Y-133139103D01*
X103075052Y-133162697D01*
X103089755Y-133185607D01*
X103120830Y-133247577D01*
X103124291Y-133253653D01*
X103176608Y-133344267D01*
X103177976Y-133350080D01*
X103205563Y-133413205D01*
X103207041Y-133415733D01*
X103217983Y-133439327D01*
X103222428Y-133438985D01*
X103237473Y-133476598D01*
X103241919Y-133482753D01*
X103262777Y-133532676D01*
X103264487Y-133543618D01*
X103277480Y-133571658D01*
X103283977Y-133586703D01*
X103289448Y-133599013D01*
X103298339Y-133616110D01*
X103310307Y-133641413D01*
X103315094Y-133651330D01*
X103311332Y-133666033D01*
X103311332Y-133674923D01*
X103314068Y-133691337D01*
X103323300Y-133699201D01*
X103329797Y-133705698D01*
X103334584Y-133712195D01*
X103333558Y-133724505D01*
X103335268Y-133740576D01*
X103342791Y-133739892D01*
X103332875Y-133728950D01*
X103282267Y-133690311D01*
X103271325Y-133664323D01*
X103238499Y-133640729D01*
X103216615Y-133624658D01*
X103199860Y-133606535D01*
X103154623Y-133554487D01*
X103151988Y-133551825D01*
X103144808Y-133540199D01*
X103114033Y-133505321D01*
X103105826Y-133492669D01*
X103086678Y-133478650D01*
X103063768Y-133445824D01*
X103029574Y-133400346D01*
X102992644Y-133370939D01*
X102987173Y-133361023D01*
X102972470Y-133327854D01*
X102945115Y-133291951D01*
X102921521Y-133265621D01*
X102917418Y-133255363D01*
X102892798Y-133227324D01*
X102880146Y-133222879D01*
X102884249Y-133211253D01*
X102877069Y-133191420D01*
X102864417Y-133159962D01*
X102847662Y-133137052D01*
X102820648Y-133104568D01*
X102803551Y-133094651D01*
X102803551Y-133085419D01*
X102796029Y-133060457D01*
X102797739Y-133048489D01*
X102772777Y-133024212D01*
X102766964Y-133013612D01*
X102757732Y-132989676D01*
X102756022Y-132978050D01*
X102716699Y-132946249D01*
X102701311Y-132934281D01*
X102674982Y-132924023D01*
X102657201Y-132928127D01*
X102617878Y-132934281D01*
X102587224Y-132996732D01*
X102587103Y-133005063D01*
X102595994Y-133040967D01*
X102605910Y-133065928D01*
X102631214Y-133112090D01*
X102634633Y-133131923D01*
X102668143Y-133198259D01*
X102668143Y-133204072D01*
X102666092Y-133216724D01*
X102692763Y-133239976D01*
X102701995Y-133237240D01*
X102694815Y-133242369D01*
X102713279Y-133316570D01*
X102735163Y-133346319D01*
X102736189Y-133353158D01*
X102737557Y-133379829D01*
X102744054Y-133400346D01*
X102751919Y-133421888D01*
X102758415Y-133440353D01*
X102758415Y-133452662D01*
X102765938Y-133464630D01*
X102765938Y-133469418D01*
X102764228Y-133479334D01*
X102775512Y-133493011D01*
X102781325Y-133494037D01*
X102775854Y-133505663D01*
X102775854Y-133518315D01*
X102783035Y-133539857D01*
X102790216Y-133565161D01*
X102797739Y-133596619D01*
X102796029Y-133615768D01*
X102799790Y-133641413D01*
X102791926Y-133680736D01*
X102793977Y-133711853D01*
X102786454Y-133720401D01*
X102776196Y-133729634D01*
X102771409Y-133733737D01*
X102714647Y-133708434D01*
X102664737Y-133656682D01*
X102639420Y-133631497D01*
X102630872Y-133626368D01*
X102619930Y-133593542D01*
X102610013Y-133587387D01*
X102597020Y-133566528D01*
X102589839Y-133554903D01*
X102578213Y-133526180D01*
X102551200Y-133497799D01*
X102537864Y-133464630D01*
X102520083Y-133462921D01*
X102520425Y-133463605D01*
X102529316Y-133454714D01*
X102509825Y-133433856D01*
X102499225Y-133406501D01*
X102492728Y-133392139D01*
X102480076Y-133361364D01*
X102464689Y-133337771D01*
X102464689Y-133326487D01*
X102437676Y-133274512D01*
X102421263Y-133238266D01*
X102407927Y-133197917D01*
X102409979Y-133184581D01*
X102384675Y-133136710D01*
X102387752Y-133119271D01*
X102375443Y-133094993D01*
X102362791Y-133082683D01*
X102366894Y-133071741D01*
X102366894Y-133063535D01*
X102353900Y-133014637D01*
X102340907Y-133014295D01*
X102351849Y-133005405D01*
X102362791Y-132988308D01*
X102355610Y-132971895D01*
X102356978Y-132947275D01*
X102347745Y-132929836D01*
X102351165Y-132923681D01*
X102359371Y-132902481D01*
X102366894Y-132872732D01*
X102361081Y-132841616D01*
X102362791Y-132797163D01*
X102332118Y-132735945D01*
X102319706Y-132728775D01*
X102305003Y-132720227D01*
X102248925Y-132705182D01*
X102193531Y-132745189D01*
X102187034Y-132755447D01*
X102173698Y-132808106D01*
X102181221Y-132860080D01*
X102175750Y-132896668D01*
X102185324Y-132917184D01*
X102188401Y-132922655D01*
X102183272Y-132959927D01*
X102190453Y-132989676D01*
X102199002Y-133002327D01*
X102205840Y-133023528D01*
X102215757Y-133034470D01*
X102218834Y-133087812D01*
X102231144Y-133109013D01*
X102242086Y-133115168D01*
X102240034Y-133125768D01*
X102240034Y-133135342D01*
X102267390Y-133196891D01*
X102289530Y-133261689D01*
X102310816Y-133300157D01*
X102340565Y-133352816D01*
X102358346Y-133366494D01*
X102366894Y-133392823D01*
X102396643Y-133455740D01*
X102423998Y-133497799D01*
X102431521Y-133513870D01*
X102449986Y-133533018D01*
X102461270Y-133536438D01*
X102461270Y-133549773D01*
X102470844Y-133567896D01*
X102495464Y-133611665D01*
X102534787Y-133660220D01*
X102556671Y-133660220D01*
X102556329Y-133666033D01*
X102557013Y-133683814D01*
X102577871Y-133712195D01*
X102583684Y-133705698D01*
X102581290Y-133702621D01*
X102581290Y-133706040D01*
X102579581Y-133713563D01*
X102623224Y-133767412D01*
X102626085Y-133769641D01*
X102658911Y-133795286D01*
X102715649Y-133835026D01*
X102718750Y-133836661D01*
X102783397Y-133862065D01*
X102793635Y-133862990D01*
X102813468Y-133865042D01*
X102845952Y-133856836D01*
X102897927Y-133833584D01*
X102919127Y-133807596D01*
X102942379Y-133781609D01*
X102959134Y-133722111D01*
X102977941Y-133683130D01*
X102973496Y-133628078D01*
X102973496Y-133611665D01*
X102963579Y-133574051D01*
X102953321Y-133549090D01*
X102953321Y-133543960D01*
X102955373Y-133527889D01*
X102946824Y-133496773D01*
X102937934Y-133468392D01*
X102934856Y-133471469D01*
X102935540Y-133486856D01*
X102975547Y-133534728D01*
X103003928Y-133577129D01*
X103012135Y-133590464D01*
X103024787Y-133620213D01*
X103043593Y-133630471D01*
X103051800Y-133626026D01*
X103055219Y-133627052D01*
X103053168Y-133639362D01*
X103069581Y-133671162D01*
X103086678Y-133660904D01*
X103081549Y-133660562D01*
X103081549Y-133675265D01*
X103107878Y-133707408D01*
X103122240Y-133717666D01*
X103119162Y-133721427D01*
X103141730Y-133713221D01*
X103135917Y-133712195D01*
X103134549Y-133721427D01*
X103158827Y-133763144D01*
X103190628Y-133789815D01*
X103201228Y-133782293D01*
X103198492Y-133780925D01*
X103190628Y-133798364D01*
X103219009Y-133819222D01*
X103223796Y-133825719D01*
X103263119Y-133862990D01*
X103291842Y-133865726D01*
X103297655Y-133853416D01*
X103292868Y-133872223D01*
X103320223Y-133887952D01*
X103317829Y-133884533D01*
X103362623Y-133934456D01*
X103422152Y-133969735D01*
X103446399Y-133974463D01*
X103484012Y-133960101D01*
X103508632Y-133938559D01*
X103525729Y-133917359D01*
X103546587Y-133881455D01*
X103560265Y-133833242D01*
X103554452Y-133804861D01*
X103544193Y-133755963D01*
X103534277Y-133728266D01*
X103519574Y-133712537D01*
X103516838Y-133701595D01*
X103514445Y-133689969D01*
X103520942Y-133680394D01*
X103510683Y-133655775D01*
X103496322Y-133620555D01*
X103488115Y-133595251D01*
X103478883Y-133577812D01*
X103465547Y-133557296D01*
X103432687Y-133496021D01*
X103401512Y-133431026D01*
X103397843Y-133423256D01*
X103365359Y-133362390D01*
X103350655Y-133353500D01*
X103359204Y-133331616D01*
X103341765Y-133303577D01*
X103332191Y-133281009D01*
X103319539Y-133263228D01*
X103312358Y-133259808D01*
X103300732Y-133229718D01*
X103296971Y-133219459D01*
X103278506Y-133190736D01*
X103278506Y-133175691D01*
X103270300Y-133159278D01*
X103257306Y-133150729D01*
X103233028Y-133100122D01*
X103227557Y-133090890D01*
X103215931Y-133078580D01*
X103193705Y-133018057D01*
X103201912Y-133016005D01*
X103205673Y-133013270D01*
X103223796Y-133017373D01*
X103242602Y-133012244D01*
X103268590Y-133033102D01*
X103336170Y-133052176D01*
X103340739Y-133052251D01*
X103372540Y-133067980D01*
X103434100Y-133101486D01*
X103443321Y-133105593D01*
X103454263Y-133111406D01*
X103480593Y-133132265D01*
X103504870Y-133129187D01*
X103553426Y-133178769D01*
X103589672Y-133216724D01*
X103621814Y-133246131D01*
X103643356Y-133277931D01*
X103660795Y-133309732D01*
X103693621Y-133347687D01*
X103731919Y-133370939D01*
X103757906Y-133383591D01*
X103782868Y-133374358D01*
X103816036Y-133358287D01*
X103838262Y-133320332D01*
X103803100Y-133258582D01*
X103798255Y-133252628D01*
X103747986Y-133205704D01*
X103740467Y-133199969D01*
X103684527Y-133156788D01*
X103666950Y-133142523D01*
X103622156Y-133116877D01*
X103584200Y-133097045D01*
X103565052Y-133082341D01*
X103543510Y-133064903D01*
X103524703Y-133054302D01*
G37*
G36*
X101976399Y-133412997D02*
G01*
X102000676Y-133423598D01*
X102024270Y-133430778D01*
X102043077Y-133434882D01*
X102063193Y-133437620D01*
X102127194Y-133462921D01*
X102134068Y-133466365D01*
X102194214Y-133503612D01*
X102226015Y-133522418D01*
X102263628Y-133541567D01*
X102289958Y-133563451D01*
X102333042Y-133600722D01*
X102354584Y-133617819D01*
X102384675Y-133646542D01*
X102402114Y-133684156D01*
X102396301Y-133707408D01*
X102398353Y-133723137D01*
X102369972Y-133747757D01*
X102338513Y-133727924D01*
X102337145Y-133705014D01*
X102328597Y-133714588D01*
X102307397Y-133703304D01*
X102295087Y-133689285D01*
X102290578Y-133685986D01*
X102309790Y-133749466D01*
X102309790Y-133779215D01*
X102319706Y-133793577D01*
X102317655Y-133818538D01*
X102319364Y-133835977D01*
X102319364Y-133840422D01*
X102302951Y-133893081D01*
X102268073Y-133937875D01*
X102256106Y-133948133D01*
X102240376Y-133962837D01*
X102219518Y-133980960D01*
X102197976Y-133994979D01*
X102178485Y-134004554D01*
X102157627Y-134012760D01*
X102139504Y-134007289D01*
X102126510Y-134008657D01*
X102083768Y-134001476D01*
X102064619Y-133993270D01*
X102037948Y-133984721D01*
X102011618Y-133973779D01*
X101978792Y-133954288D01*
X101972979Y-133955656D01*
X101946992Y-133938559D01*
X101928527Y-133921462D01*
X101921688Y-133929327D01*
X101869371Y-133884533D01*
X101857062Y-133874958D01*
X101844752Y-133864016D01*
X101833810Y-133847603D01*
X101824577Y-133829480D01*
X101810900Y-133807938D01*
X101803377Y-133791525D01*
X101796880Y-133782976D01*
X101788674Y-133775796D01*
X101777390Y-133754937D01*
X101769183Y-133726214D01*
X101772260Y-133706040D01*
X101763028Y-133700227D01*
X101759951Y-133687917D01*
X101760255Y-133675949D01*
X101894333Y-133675949D01*
X101899462Y-133707408D01*
X101918269Y-133741602D01*
X101919637Y-133750834D01*
X101928869Y-133763828D01*
X101942547Y-133782293D01*
X101960327Y-133804177D01*
X101989734Y-133828454D01*
X102006489Y-133861965D01*
X102006147Y-133856836D01*
X102017090Y-133856836D01*
X102032819Y-133870513D01*
X102044103Y-133884191D01*
X102076245Y-133898552D01*
X102120013Y-133912572D01*
X102146343Y-133909152D01*
X102151814Y-133907101D01*
X102160891Y-133910267D01*
X102164466Y-133892397D01*
X102173356Y-133865042D01*
X102169937Y-133834951D01*
X102165833Y-133822300D01*
X102176092Y-133806570D01*
X102179511Y-133800757D01*
X102170621Y-133792551D01*
X102156259Y-133776822D01*
X102146685Y-133743311D01*
X102129930Y-133704330D01*
X102105994Y-133679711D01*
X102096078Y-133668769D01*
X102073168Y-133634916D01*
X102068381Y-133630471D01*
X102042735Y-133615426D01*
X102033503Y-133606877D01*
X102017090Y-133606877D01*
X102002386Y-133589096D01*
X101997941Y-133580548D01*
X101976399Y-133590806D01*
X101959863Y-133584742D01*
X101909961Y-133557829D01*
X101911772Y-133559348D01*
X101935708Y-133603116D01*
X101915191Y-133652697D01*
X101894333Y-133675949D01*
X101760255Y-133675949D01*
X101762002Y-133607219D01*
X101773286Y-133570974D01*
X101798932Y-133529941D01*
X101817739Y-133527205D01*
X101801325Y-133505321D01*
X101823551Y-133454714D01*
X101862533Y-133436933D01*
X101880655Y-133429411D01*
X101921346Y-133415391D01*
X101950753Y-133405475D01*
X101976399Y-133412997D01*
G37*
G36*
X101492554Y-133488566D02*
G01*
X101479902Y-133484805D01*
X101474773Y-133473863D01*
X101417479Y-133433274D01*
X101408094Y-133423256D01*
X101398178Y-133413339D01*
X101384159Y-133401030D01*
X101323463Y-133365547D01*
X101291493Y-133361706D01*
X101229573Y-133396018D01*
X101219002Y-133441378D01*
X101214214Y-133453688D01*
X101191988Y-133511134D01*
X101177627Y-133565845D01*
X101197459Y-133626710D01*
X101244065Y-133676979D01*
X101261744Y-133699543D01*
X101269951Y-133705698D01*
X101292177Y-133742969D01*
X101307222Y-133748099D01*
X101307222Y-133765879D01*
X101312351Y-133778189D01*
X101325003Y-133801441D01*
X101333893Y-133814435D01*
X101340390Y-133829138D01*
X101350648Y-133850339D01*
X101357487Y-133861281D01*
X101330816Y-133865042D01*
X101317138Y-133858545D01*
X101301409Y-133862990D01*
X101296622Y-133859913D01*
X101274396Y-133847603D01*
X101246357Y-133835977D01*
X101217976Y-133822642D01*
X101186517Y-133803835D01*
X101156427Y-133785028D01*
X101129071Y-133767589D01*
X101100006Y-133745363D01*
X101048374Y-133698859D01*
X101010760Y-133675607D01*
X100996741Y-133654065D01*
X100958443Y-133624316D01*
X100927327Y-133654407D01*
X100936901Y-133678685D01*
X100936901Y-133679369D01*
X100935533Y-133691337D01*
X100933140Y-133703988D01*
X100941004Y-133720401D01*
X100951946Y-133742286D01*
X100970753Y-133759725D01*
X100987166Y-133783660D01*
X101013496Y-133802809D01*
X101059316Y-133840080D01*
X101101374Y-133875300D01*
X101122233Y-133888636D01*
X101132491Y-133882823D01*
X101137620Y-133880771D01*
X101134542Y-133885900D01*
X101140013Y-133900262D01*
X101165659Y-133911546D01*
X101171130Y-133909494D01*
X101173182Y-133909494D01*
X101173524Y-133904365D01*
X101168053Y-133913939D01*
X101168053Y-133918727D01*
X101194382Y-133943004D01*
X101251486Y-133977540D01*
X101279867Y-133983353D01*
X101307222Y-133998057D01*
X101319532Y-133989508D01*
X101334577Y-133994295D01*
X101364326Y-133996347D01*
X101405701Y-133975489D01*
X101449811Y-133933430D01*
X101468276Y-133892055D01*
X101479218Y-133860939D01*
X101471353Y-133792209D01*
X101461437Y-133761434D01*
X101450153Y-133739892D01*
X101435450Y-133704330D01*
X101402431Y-133642781D01*
X101396127Y-133633891D01*
X101380055Y-133603800D01*
X101366036Y-133583625D01*
X101360565Y-133569264D01*
X101349623Y-133552167D01*
X101345519Y-133543960D01*
X101359539Y-133526863D01*
X101363984Y-133534386D01*
X101389630Y-133554561D01*
X101416301Y-133568922D01*
X101436475Y-133580890D01*
X101463147Y-133603116D01*
X101478192Y-133609955D01*
X101494605Y-133631497D01*
X101531877Y-133641413D01*
X101539399Y-133652013D01*
X101562993Y-133663981D01*
X101585219Y-133690995D01*
X101607103Y-133697833D01*
X101625226Y-133702279D01*
X101640272Y-133720060D01*
X101680963Y-133733737D01*
X101706266Y-133699885D01*
X101685878Y-133634040D01*
X101670020Y-133617478D01*
X101619755Y-133585335D01*
X101602316Y-133575077D01*
X101583168Y-133559690D01*
X101547264Y-133531309D01*
X101504180Y-133501902D01*
X101492554Y-133488566D01*
G37*
G36*
X101012812Y-133696466D02*
G01*
X101012812Y-133687917D01*
X101006999Y-133682104D01*
X100995031Y-133662956D01*
X100980327Y-133640729D01*
X100970069Y-133628078D01*
X100957759Y-133613716D01*
X100934166Y-133593200D01*
X100837397Y-133470443D01*
X100813119Y-133442062D01*
X100776769Y-133382263D01*
X100763879Y-133349739D01*
X100750886Y-133336061D01*
X100722450Y-133271098D01*
X100708143Y-133231427D01*
X100698569Y-133216382D01*
X100681814Y-133184240D01*
X100658904Y-133147310D01*
X100645910Y-133113800D01*
X100624368Y-133070374D01*
X100596671Y-133004721D01*
X100575129Y-133002669D01*
X100577522Y-132998224D01*
X100583677Y-132986256D01*
X100563845Y-132955140D01*
X100562477Y-132955482D01*
X100554954Y-132938727D01*
X100553244Y-132933939D01*
X100516120Y-132875839D01*
X100505373Y-132864868D01*
X100445875Y-132836487D01*
X100410314Y-132857687D01*
X100400055Y-132890171D01*
X100393558Y-132916159D01*
X100393558Y-132940778D01*
X100399371Y-133024212D01*
X100396294Y-133035496D01*
X100408604Y-133054644D01*
X100450321Y-133168168D01*
X100469127Y-133193814D01*
X100483489Y-133221853D01*
X100521102Y-133276563D01*
X100525547Y-133282376D01*
X100545038Y-133299131D01*
X100559741Y-133337429D01*
X100586413Y-133375042D01*
X100619581Y-133407184D01*
X100638046Y-133438985D01*
X100681472Y-133497799D01*
X100706775Y-133554219D01*
X100725582Y-133603116D01*
X100730369Y-133615426D01*
X100750544Y-133623974D01*
X100754647Y-133657484D01*
X100767983Y-133679027D01*
X100761486Y-133707408D01*
X100780976Y-133709801D01*
X100780293Y-133717666D01*
X100785422Y-133733053D01*
X100786448Y-133729976D01*
X100789867Y-133717324D01*
X100751228Y-133694414D01*
X100748492Y-133692704D01*
X100731737Y-133663297D01*
X100712930Y-133637652D01*
X100684207Y-133613032D01*
X100648304Y-133579864D01*
X100638729Y-133564477D01*
X100624026Y-133566528D01*
X100627103Y-133568238D01*
X100630181Y-133551483D01*
X100611032Y-133537122D01*
X100581284Y-133507373D01*
X100565554Y-133495405D01*
X100544696Y-133476940D01*
X100517341Y-133464972D01*
X100513921Y-133465998D01*
X100462288Y-133424281D01*
X100408946Y-133405475D01*
X100350132Y-133418810D01*
X100313886Y-133442746D01*
X100286622Y-133506924D01*
X100286189Y-133522076D01*
X100297131Y-133552851D01*
X100295764Y-133567212D01*
X100312519Y-133593542D01*
X100318332Y-133612348D01*
X100376803Y-133664323D01*
X100398346Y-133674923D01*
X100418520Y-133685866D01*
X100462630Y-133709801D01*
X100496482Y-133730318D01*
X100484515Y-133746731D01*
X100466734Y-133774770D01*
X100447243Y-133800415D01*
X100423307Y-133816145D01*
X100404159Y-133829138D01*
X100392191Y-133815119D01*
X100366887Y-133800757D01*
X100350132Y-133796312D01*
X100336796Y-133786738D01*
X100309441Y-133765879D01*
X100272854Y-133735447D01*
X100243105Y-133717666D01*
X100231479Y-133717666D01*
X100226350Y-133702279D01*
X100185317Y-133677317D01*
X100158304Y-133656459D01*
X100153859Y-133653723D01*
X100103593Y-133624316D01*
X100078974Y-133644149D01*
X100086838Y-133688943D01*
X100099832Y-133730318D01*
X100123084Y-133760408D01*
X100133684Y-133756647D01*
X100139497Y-133762802D01*
X100150097Y-133770325D01*
X100161381Y-133781609D01*
X100181556Y-133796312D01*
X100203098Y-133811016D01*
X100214724Y-133822983D01*
X100222588Y-133830506D01*
X100231137Y-133837687D01*
X100243447Y-133849313D01*
X100261570Y-133863674D01*
X100278667Y-133881113D01*
X100296448Y-133898552D01*
X100325512Y-133915307D01*
X100351842Y-133933430D01*
X100369281Y-133940953D01*
X100373042Y-133940953D01*
X100382616Y-133938901D01*
X100374410Y-133937191D01*
X100406552Y-133961127D01*
X100431172Y-133967966D01*
X100456475Y-133974463D01*
X100513579Y-133963863D01*
X100532386Y-133950527D01*
X100557690Y-133912914D01*
X100568974Y-133902997D01*
X100607378Y-133841512D01*
X100624710Y-133802125D01*
X100630181Y-133795286D01*
X100665743Y-133755621D01*
X100651381Y-133720060D01*
X100641807Y-133714247D01*
X100627103Y-133699201D01*
X100612742Y-133684498D01*
X100588464Y-133671846D01*
X100588464Y-133672872D01*
X100564528Y-133653381D01*
X100542986Y-133638336D01*
X100502979Y-133619529D01*
X100471552Y-133558558D01*
X100471521Y-133555244D01*
X100469469Y-133559006D01*
X100506057Y-133583284D01*
X100535122Y-133603800D01*
X100561109Y-133621923D01*
X100579574Y-133619871D01*
X100583677Y-133634575D01*
X100605561Y-133652013D01*
X100611032Y-133652013D01*
X100616503Y-133654749D01*
X100619923Y-133667743D01*
X100657536Y-133697491D01*
X100664033Y-133717666D01*
X100701304Y-133746389D01*
X100707117Y-133750150D01*
X100718743Y-133765538D01*
X100734473Y-133773402D01*
X100751912Y-133805545D01*
X100766273Y-133823667D01*
X100791235Y-133841448D01*
X100791919Y-133841448D01*
X100806964Y-133865384D01*
X100822351Y-133881113D01*
X100835345Y-133901972D01*
X100855519Y-133925565D01*
X100878771Y-133945740D01*
X100894842Y-133956340D01*
X100911598Y-133969334D01*
X100926985Y-133974463D01*
X100961863Y-133956682D01*
X100983063Y-133925907D01*
X100977293Y-133857370D01*
X100972805Y-133842816D01*
X100946817Y-133775454D01*
X100919462Y-133721085D01*
X100904075Y-133692362D01*
X100898262Y-133689969D01*
X100945108Y-133729634D01*
X101009572Y-133706585D01*
X101012812Y-133696466D01*
G37*
G36*
X99978101Y-133502586D02*
G01*
X99964424Y-133477966D01*
X99949378Y-133459843D01*
X99930230Y-133412655D01*
X99904242Y-133357261D01*
X99858764Y-133339822D01*
X99814654Y-133355893D01*
X99775067Y-133415741D01*
X99764731Y-133445140D01*
X99746321Y-133511189D01*
X99741137Y-133549431D01*
X99734640Y-133576445D01*
X99725066Y-133607903D01*
X99733614Y-133624316D01*
X99731563Y-133666375D01*
X99743189Y-133698517D01*
X99743189Y-133722795D01*
X99754815Y-133743995D01*
X99758576Y-133744679D01*
X99713782Y-133714930D01*
X99694633Y-133699543D01*
X99664884Y-133674923D01*
X99646762Y-133665691D01*
X99631374Y-133645517D01*
X99613935Y-133631155D01*
X99591367Y-133617478D01*
X99556489Y-133595935D01*
X99547941Y-133585677D01*
X99510327Y-133556954D01*
X99483998Y-133546012D01*
X99460746Y-133568580D01*
X99451856Y-133610297D01*
X99472372Y-133649278D01*
X99500411Y-133675607D01*
X99533921Y-133690311D01*
X99561960Y-133727924D01*
X99581109Y-133739550D01*
X99588974Y-133749808D01*
X99623510Y-133762460D01*
X99624193Y-133766563D01*
X99644026Y-133784686D01*
X99675143Y-133819906D01*
X99696685Y-133824009D01*
X99709337Y-133846919D01*
X99730879Y-133862648D01*
X99745582Y-133870171D01*
X99747634Y-133871881D01*
X99794822Y-133894791D01*
X99812602Y-133899578D01*
X99816364Y-133905049D01*
X99842351Y-133923172D01*
X99878597Y-133941979D01*
X99896720Y-133955998D01*
X99934675Y-133978566D01*
X99953140Y-133978566D01*
X99992121Y-133998399D01*
X100041702Y-134018231D01*
X100110047Y-134009768D01*
X100123768Y-134003186D01*
X100160355Y-133966940D01*
X100186343Y-133932404D01*
X100198653Y-133907101D01*
X100188394Y-133887610D01*
X100166852Y-133858203D01*
X100105645Y-133829822D01*
X100093335Y-133825035D01*
X100071451Y-133818196D01*
X100036231Y-133842474D01*
X100044096Y-133837345D01*
X100024947Y-133835293D01*
X100013663Y-133843158D01*
X99970921Y-133821616D01*
X99963398Y-133817512D01*
X99953140Y-133817512D01*
X99953482Y-133807254D01*
X99936385Y-133771692D01*
X99904242Y-133729292D01*
X99904242Y-133723479D01*
X99898429Y-133703646D01*
X99898429Y-133690995D01*
X99887145Y-133670820D01*
X99875519Y-133668769D01*
X99876887Y-133664323D01*
X99885094Y-133640387D01*
X99875861Y-133621239D01*
X99877913Y-133600381D01*
X99874494Y-133593542D01*
X99877571Y-133578154D01*
X99873810Y-133553535D01*
X99873126Y-133538147D01*
X99876203Y-133528915D01*
X99905952Y-133556954D01*
X99940488Y-133598671D01*
X99965450Y-133622265D01*
X99991779Y-133646200D01*
X100010928Y-133662272D01*
X100073161Y-133713563D01*
X100142916Y-133765538D01*
X100160013Y-133777505D01*
X100206517Y-133726898D01*
X100189762Y-133673214D01*
X100175059Y-133669794D01*
X100169930Y-133672530D01*
X100167536Y-133672188D01*
X100162065Y-133669452D01*
X100163775Y-133669794D01*
X100122400Y-133637652D01*
X100104961Y-133618503D01*
X100062561Y-133587729D01*
X100016741Y-133546354D01*
X99978101Y-133502586D01*
G37*
G36*
X99578032Y-133614742D02*
G01*
X99568115Y-133601064D01*
X99539734Y-133587045D01*
X99489811Y-133534728D01*
X99439888Y-133488566D01*
X99409551Y-133424943D01*
X99403642Y-133405817D01*
X99393726Y-133397268D01*
X99382442Y-133375042D01*
X99371842Y-133372648D01*
X99373210Y-133374016D01*
X99373210Y-133370255D01*
X99345702Y-133304077D01*
X99334570Y-133284770D01*
X99304887Y-133222956D01*
X99294563Y-133200311D01*
X99282937Y-133176033D01*
X99256608Y-133114826D01*
X99223397Y-133052492D01*
X99198478Y-133017373D01*
X99188562Y-132998224D01*
X99164626Y-132959585D01*
X99153342Y-132940778D01*
X99133168Y-132906584D01*
X99106838Y-132868971D01*
X99088715Y-132839564D01*
X99073328Y-132816654D01*
X99054180Y-132790325D01*
X99018276Y-132770834D01*
X98956559Y-132803245D01*
X98955359Y-132805370D01*
X98936210Y-132865551D01*
X98947836Y-132908978D01*
X98963224Y-132999592D01*
X98981346Y-133014295D01*
X98997775Y-133083431D01*
X99023405Y-133126452D01*
X99027850Y-133149362D01*
X99045289Y-133184240D01*
X99070935Y-133228350D01*
X99161891Y-133357261D01*
X99171123Y-133366152D01*
X99186168Y-133387010D01*
X99208394Y-133380171D01*
X99221730Y-133385300D01*
X99217969Y-133398636D01*
X99217969Y-133402397D01*
X99259130Y-133463882D01*
X99291144Y-133508741D01*
X99303112Y-133543960D01*
X99317473Y-133574393D01*
X99345512Y-133627736D01*
X99367739Y-133670478D01*
X99385177Y-133709459D01*
X99390307Y-133704330D01*
X99369448Y-133678343D01*
X99335254Y-133643465D01*
X99312002Y-133618161D01*
X99299692Y-133609613D01*
X99280202Y-133596619D01*
X99270628Y-133598671D01*
X99268234Y-133591490D01*
X99257976Y-133575761D01*
X99228911Y-133558322D01*
X99206685Y-133543277D01*
X99192665Y-133527547D01*
X99157787Y-133500876D01*
X99122909Y-133481727D01*
X99076406Y-133461211D01*
X99027850Y-133449243D01*
X99021011Y-133449243D01*
X99013489Y-133450953D01*
X99000495Y-133449243D01*
X98932718Y-133466655D01*
X98925610Y-133470443D01*
X98892271Y-133532093D01*
X98892784Y-133537806D01*
X98900648Y-133597645D01*
X98911591Y-133644491D01*
X98926636Y-133695098D01*
X98939972Y-133738866D01*
X98943733Y-133756305D01*
X98939972Y-133780583D01*
X98941681Y-133801099D01*
X98943049Y-133799390D01*
X98925610Y-133780583D01*
X98908171Y-133771351D01*
X98884235Y-133748099D01*
X98871584Y-133735447D01*
X98837732Y-133714588D01*
X98798750Y-133675265D01*
X98743455Y-133634621D01*
X98734124Y-133629445D01*
X98729678Y-133623290D01*
X98691039Y-133602432D01*
X98666762Y-133628078D01*
X98671891Y-133650988D01*
X98678729Y-133679369D01*
X98698562Y-133730318D01*
X98701981Y-133739550D01*
X98721472Y-133764512D01*
X98743014Y-133780583D01*
X98787466Y-133804861D01*
X98821318Y-133836319D01*
X98834654Y-133830164D01*
X98845596Y-133856836D01*
X98881158Y-133891713D01*
X98906461Y-133888978D01*
X98902358Y-133899578D01*
X98924584Y-133920778D01*
X98958436Y-133943004D01*
X99008702Y-133952579D01*
X99025115Y-133945398D01*
X99049734Y-133932746D01*
X99072644Y-133907785D01*
X99086322Y-133877010D01*
X99093503Y-133856836D01*
X99091793Y-133838371D01*
X99097264Y-133815461D01*
X99089057Y-133803151D01*
X99093503Y-133785028D01*
X99083928Y-133725531D01*
X99070338Y-133656533D01*
X99065122Y-133637994D01*
X99064780Y-133633549D01*
X99066831Y-133608587D01*
X99064780Y-133594909D01*
X99072302Y-133590464D01*
X99082903Y-133583625D01*
X99089399Y-133580548D01*
X99094870Y-133590122D01*
X99114361Y-133614058D01*
X99140690Y-133600722D01*
X99131458Y-133600722D01*
X99163258Y-133639704D01*
X99204975Y-133665007D01*
X99231646Y-133679027D01*
X99253189Y-133694072D01*
X99260369Y-133709117D01*
X99275073Y-133713563D01*
X99308241Y-133738524D01*
X99318157Y-133756989D01*
X99345512Y-133777847D01*
X99364661Y-133796312D01*
X99373551Y-133793919D01*
X99379023Y-133791525D01*
X99390990Y-133812041D01*
X99433049Y-133862990D01*
X99477159Y-133906417D01*
X99486734Y-133924540D01*
X99510327Y-133951553D01*
X99534263Y-133967966D01*
X99550334Y-133974463D01*
X99592051Y-133941637D01*
X99606413Y-133903681D01*
X99600600Y-133884191D01*
X99602309Y-133868803D01*
X99590000Y-133826061D01*
X99562302Y-133765538D01*
X99543154Y-133723137D01*
X99580083Y-133739550D01*
X99610174Y-133703646D01*
X99592094Y-133635045D01*
X99578032Y-133614742D01*
G37*
G36*
X98334054Y-133412997D02*
G01*
X98358332Y-133423598D01*
X98381926Y-133430778D01*
X98400732Y-133434882D01*
X98420848Y-133437620D01*
X98484849Y-133462921D01*
X98491723Y-133466365D01*
X98551870Y-133503612D01*
X98583670Y-133522418D01*
X98621284Y-133541567D01*
X98647613Y-133563451D01*
X98690697Y-133600722D01*
X98712240Y-133617819D01*
X98742330Y-133646542D01*
X98759769Y-133684156D01*
X98753956Y-133707408D01*
X98756008Y-133723137D01*
X98727627Y-133747757D01*
X98696168Y-133727924D01*
X98694801Y-133705014D01*
X98686252Y-133714588D01*
X98665052Y-133703304D01*
X98652742Y-133689285D01*
X98648234Y-133685987D01*
X98667445Y-133749466D01*
X98667445Y-133779215D01*
X98677362Y-133793577D01*
X98675310Y-133818538D01*
X98677020Y-133835977D01*
X98677020Y-133840422D01*
X98660607Y-133893081D01*
X98625729Y-133937875D01*
X98613761Y-133948133D01*
X98598032Y-133962837D01*
X98577173Y-133980960D01*
X98555631Y-133994979D01*
X98536140Y-134004554D01*
X98515282Y-134012760D01*
X98497159Y-134007289D01*
X98484166Y-134008657D01*
X98441423Y-134001476D01*
X98422274Y-133993270D01*
X98395603Y-133984721D01*
X98369274Y-133973779D01*
X98336448Y-133954288D01*
X98330635Y-133955656D01*
X98304647Y-133938559D01*
X98286182Y-133921462D01*
X98279344Y-133929327D01*
X98227027Y-133884533D01*
X98214717Y-133874958D01*
X98202407Y-133864016D01*
X98191465Y-133847603D01*
X98182233Y-133829480D01*
X98168555Y-133807938D01*
X98161032Y-133791525D01*
X98154535Y-133782976D01*
X98146329Y-133775796D01*
X98135045Y-133754937D01*
X98126838Y-133726214D01*
X98129916Y-133706040D01*
X98120683Y-133700227D01*
X98117606Y-133687917D01*
X98117910Y-133675949D01*
X98251988Y-133675949D01*
X98257117Y-133707408D01*
X98275924Y-133741602D01*
X98277292Y-133750834D01*
X98286524Y-133763828D01*
X98300202Y-133782293D01*
X98317983Y-133804177D01*
X98347390Y-133828454D01*
X98364145Y-133861965D01*
X98363803Y-133856836D01*
X98374745Y-133856836D01*
X98390474Y-133870513D01*
X98401758Y-133884191D01*
X98433900Y-133898552D01*
X98477669Y-133912572D01*
X98503998Y-133909152D01*
X98509469Y-133907101D01*
X98518547Y-133910267D01*
X98522121Y-133892397D01*
X98531011Y-133865042D01*
X98527592Y-133834951D01*
X98523489Y-133822300D01*
X98533747Y-133806570D01*
X98537166Y-133800757D01*
X98528276Y-133792551D01*
X98513914Y-133776822D01*
X98504340Y-133743311D01*
X98487585Y-133704330D01*
X98463649Y-133679711D01*
X98453733Y-133668769D01*
X98430823Y-133634916D01*
X98426036Y-133630471D01*
X98400390Y-133615426D01*
X98391158Y-133606877D01*
X98374745Y-133606877D01*
X98360041Y-133589096D01*
X98355596Y-133580548D01*
X98334054Y-133590806D01*
X98317518Y-133584742D01*
X98267616Y-133557829D01*
X98269427Y-133559348D01*
X98293363Y-133603116D01*
X98272847Y-133652697D01*
X98251988Y-133675949D01*
X98117910Y-133675949D01*
X98119658Y-133607219D01*
X98130942Y-133570974D01*
X98156587Y-133529941D01*
X98175394Y-133527205D01*
X98158981Y-133505321D01*
X98181207Y-133454714D01*
X98220188Y-133436933D01*
X98238311Y-133429411D01*
X98279002Y-133415391D01*
X98308408Y-133405475D01*
X98334054Y-133412997D01*
G37*
G36*
X97769853Y-133398978D02*
G01*
X97786608Y-133416759D01*
X97809433Y-133445824D01*
X97856364Y-133496089D01*
X97880642Y-133515237D01*
X97910048Y-133538489D01*
X97909706Y-133540199D01*
X97920648Y-133545328D01*
X97932616Y-133549773D01*
X97953475Y-133564477D01*
X97961681Y-133576103D01*
X98003056Y-133606193D01*
X98038276Y-133631839D01*
X98065973Y-133679711D01*
X98023230Y-133733737D01*
X97976385Y-133708092D01*
X97973649Y-133703988D01*
X97943558Y-133674923D01*
X97936036Y-133673556D01*
X97901158Y-133652355D01*
X97891242Y-133618503D01*
X97885087Y-133628762D01*
X97873119Y-133631497D01*
X97844738Y-133607903D01*
X97838583Y-133582600D01*
X97829692Y-133583284D01*
X97827299Y-133583284D01*
X97827299Y-133583625D01*
X97834822Y-133604142D01*
X97836531Y-133618503D01*
X97843535Y-133634974D01*
X97864912Y-133702279D01*
X97868332Y-133725531D01*
X97879958Y-133747415D01*
X97883719Y-133766905D01*
X97897739Y-133807254D01*
X97921674Y-133877352D01*
X97925436Y-133890004D01*
X97932274Y-133899920D01*
X97957920Y-133925224D01*
X97979120Y-133947108D01*
X97997927Y-133972069D01*
X98009211Y-133991218D01*
X98023572Y-133999766D01*
X98040669Y-134026438D01*
X98048534Y-134051057D01*
X98068367Y-134073625D01*
X98092302Y-134110213D01*
X98114870Y-134139962D01*
X98126838Y-134163214D01*
X98154193Y-134213821D01*
X98181207Y-134243912D01*
X98191807Y-134267163D01*
X98198988Y-134283235D01*
X98209588Y-134307170D01*
X98211685Y-134310282D01*
X98230104Y-134376926D01*
X98238995Y-134417617D01*
X98238722Y-134431017D01*
X98221556Y-134499683D01*
X98202749Y-134530799D01*
X98188645Y-134558073D01*
X98125812Y-134587219D01*
X98081702Y-134559522D01*
X98042721Y-134523277D01*
X98019127Y-134493186D01*
X98008185Y-134477457D01*
X97989378Y-134431295D01*
X97985275Y-134428901D01*
X97983565Y-134418985D01*
X97977411Y-134408385D01*
X97971598Y-134391288D01*
X97962023Y-134373507D01*
X97953475Y-134342732D01*
X97922016Y-134282893D01*
X97900816Y-134246989D01*
X97898080Y-134220660D01*
X97878590Y-134170394D01*
X97878590Y-134159110D01*
X97876196Y-134152614D01*
X97856364Y-134103032D01*
X97843067Y-134074075D01*
X97990775Y-134074075D01*
X98009211Y-134116026D01*
X98023914Y-134159794D01*
X98076231Y-134299306D01*
X98085806Y-134312642D01*
X98087857Y-134320848D01*
X98103928Y-134346152D01*
X98113503Y-134363933D01*
X98121026Y-134376508D01*
X98149748Y-134439501D01*
X98141884Y-134418985D01*
X98130942Y-134354016D01*
X98128548Y-134333842D01*
X98130600Y-134313667D01*
X98120000Y-134299306D01*
X98104612Y-134257247D01*
X98108742Y-134250362D01*
X98087515Y-134220318D01*
X98051612Y-134169369D01*
X98051612Y-134158085D01*
X98035882Y-134125942D01*
X98021179Y-134116710D01*
X98013656Y-134107136D01*
X98007159Y-134077729D01*
X97992798Y-134075677D01*
X97990775Y-134074075D01*
X97843067Y-134074075D01*
X97840976Y-134069522D01*
X97839609Y-134066787D01*
X97825589Y-134050032D01*
X97822388Y-134040068D01*
X97798576Y-133974121D01*
X97789002Y-133937533D01*
X97782505Y-133929669D01*
X97778878Y-133921690D01*
X97766434Y-133929669D01*
X97758911Y-133943004D01*
X97730188Y-133977540D01*
X97694626Y-133996347D01*
X97672742Y-133990534D01*
X97663510Y-133990534D01*
X97652909Y-133992244D01*
X97643335Y-133981302D01*
X97635812Y-133976515D01*
X97619741Y-133980960D01*
X97601277Y-133978566D01*
X97593412Y-133981644D01*
X97557166Y-133967282D01*
X97539043Y-133958734D01*
X97528101Y-133951895D01*
X97518185Y-133944030D01*
X97498011Y-133947792D01*
X97492540Y-133936849D01*
X97459030Y-133932404D01*
X97440223Y-133918385D01*
X97440223Y-133916333D01*
X97425861Y-133924198D01*
X97417997Y-133913256D01*
X97393035Y-133905391D01*
X97367390Y-133905391D01*
X97352344Y-133886584D01*
X97343454Y-133868461D01*
X97340034Y-133862990D01*
X97322595Y-133864700D01*
X97294265Y-133851702D01*
X97243265Y-133805545D01*
X97235059Y-133807254D01*
X97213517Y-133799048D01*
X97201687Y-133773744D01*
X97201207Y-133773744D01*
X97165987Y-133748782D01*
X97154361Y-133752544D01*
X97128374Y-133737840D01*
X97096573Y-133705356D01*
X97068192Y-133679027D01*
X97055198Y-133666033D01*
X97023398Y-133647568D01*
X97009036Y-133613716D01*
X97012114Y-133603116D01*
X97012114Y-133598671D01*
X96998436Y-133577812D01*
X97026817Y-133544986D01*
X97036050Y-133548064D01*
X97044940Y-133551141D01*
X97046239Y-133551367D01*
X97102728Y-133591490D01*
X97109909Y-133595593D01*
X97126322Y-133610297D01*
X97146154Y-133624658D01*
X97163251Y-133632865D01*
X97176929Y-133639020D01*
X97189239Y-133652697D01*
X97207704Y-133669452D01*
X97232665Y-133683814D01*
X97255575Y-133702621D01*
X97262756Y-133698859D01*
X97299972Y-133722027D01*
X97298660Y-133720743D01*
X97297126Y-133719135D01*
X97254207Y-133663639D01*
X97242581Y-133609271D01*
X97222832Y-133558664D01*
X97368415Y-133558664D01*
X97371835Y-133568580D01*
X97377648Y-133581916D01*
X97397822Y-133626368D01*
X97430990Y-133676633D01*
X97462449Y-133712879D01*
X97496985Y-133755963D01*
X97511688Y-133774086D01*
X97508953Y-133786054D01*
X97512714Y-133778531D01*
X97534598Y-133789473D01*
X97580760Y-133817854D01*
X97597515Y-133801441D01*
X97614954Y-133794602D01*
X97626922Y-133791183D01*
X97658722Y-133797338D01*
X97692233Y-133802809D01*
X97720272Y-133814777D01*
X97741510Y-133826021D01*
X97738394Y-133813751D01*
X97717536Y-133778531D01*
X97703175Y-133778531D01*
X97714801Y-133751860D01*
X97708304Y-133755963D01*
X97695652Y-133748099D01*
X97658722Y-133701253D01*
X97641625Y-133683130D01*
X97618032Y-133673898D01*
X97596489Y-133653723D01*
X97591360Y-133636626D01*
X97572554Y-133636626D01*
X97548276Y-133608929D01*
X97523314Y-133584651D01*
X97513398Y-133587387D01*
X97505875Y-133582258D01*
X97493565Y-133583967D01*
X97467920Y-133568922D01*
X97449797Y-133561057D01*
X97433042Y-133552167D01*
X97419023Y-133543618D01*
X97414577Y-133536780D01*
X97399532Y-133536438D01*
X97406371Y-133553193D01*
X97375938Y-133539857D01*
X97368415Y-133558664D01*
X97222832Y-133558664D01*
X97220697Y-133553193D01*
X97220697Y-133547380D01*
X97226510Y-133531993D01*
X97223775Y-133525154D01*
X97220697Y-133513870D01*
X97221440Y-133501419D01*
X97251130Y-133439669D01*
X97260982Y-133429818D01*
X97326015Y-133405475D01*
X97334563Y-133416417D01*
X97335589Y-133414707D01*
X97361919Y-133401371D01*
X97376964Y-133411288D01*
X97443642Y-133425991D01*
X97467578Y-133444798D01*
X97508611Y-133472495D01*
X97512372Y-133486173D01*
X97516133Y-133488566D01*
X97562637Y-133511134D01*
X97603328Y-133540541D01*
X97627606Y-133560715D01*
X97654961Y-133581916D01*
X97678751Y-133610527D01*
X97651542Y-133489934D01*
X97652285Y-133475901D01*
X97681974Y-133413681D01*
X97724033Y-133383591D01*
X97747969Y-133383591D01*
X97769853Y-133398978D01*
G37*
G36*
X96403119Y-133567212D02*
G01*
X96431500Y-133565161D01*
X96440048Y-133576103D01*
X96468771Y-133597645D01*
X96491339Y-133616110D01*
X96498520Y-133630471D01*
X96508436Y-133645517D01*
X96521430Y-133660562D01*
X96534424Y-133680394D01*
X96559727Y-133694414D01*
X96610767Y-133648405D01*
X96612044Y-133629787D01*
X96591528Y-133566870D01*
X96547264Y-133514398D01*
X96545708Y-133513870D01*
X96508778Y-133500192D01*
X96487236Y-133490276D01*
X96436287Y-133456082D01*
X96384312Y-133439327D01*
X96351828Y-133419836D01*
X96335757Y-133407184D01*
X96318660Y-133401030D01*
X96304640Y-133399320D01*
X96269078Y-133379829D01*
X96243433Y-133368545D01*
X96179219Y-133341718D01*
X96174019Y-133340164D01*
X96170600Y-133338113D01*
X96159316Y-133331616D01*
X96131618Y-133333325D01*
X96126147Y-133318280D01*
X96110418Y-133312809D01*
X96086140Y-133314861D01*
X96079986Y-133313151D01*
X96064598Y-133304260D01*
X96048185Y-133292976D01*
X96028011Y-133283744D01*
X96011598Y-133283744D01*
X96000314Y-133270408D01*
X95966120Y-133236214D01*
X95956887Y-133239634D01*
X95953810Y-133230060D01*
X95941158Y-133209543D01*
X95919958Y-133180820D01*
X95897390Y-133154833D01*
X95876873Y-133137736D01*
X95855331Y-133129187D01*
X95856357Y-133131581D01*
X95860802Y-133121665D01*
X95827976Y-133082341D01*
X95823531Y-133079606D01*
X95823531Y-133069690D01*
X95813956Y-133052593D01*
X95804382Y-133040283D01*
X95772240Y-132992411D01*
X95727445Y-132948985D01*
X95695987Y-132909320D01*
X95681967Y-132903849D01*
X95649825Y-132866235D01*
X95625205Y-132835461D01*
X95608450Y-132815970D01*
X95607083Y-132817338D01*
X95607766Y-132822467D01*
X95642986Y-132815286D01*
X95658032Y-132820415D01*
X95674787Y-132818706D01*
X95699064Y-132829990D01*
X95721290Y-132827938D01*
X95754459Y-132843325D01*
X95769846Y-132847087D01*
X95781130Y-132850506D01*
X95799253Y-132859397D01*
X95834473Y-132866235D01*
X95848492Y-132874442D01*
X95884054Y-132888120D01*
X95889867Y-132899062D01*
X95913119Y-132897352D01*
X95968620Y-132938753D01*
X95973300Y-132939411D01*
X95993133Y-132935991D01*
X96041004Y-132962321D01*
X96080669Y-132989334D01*
X96096057Y-132987624D01*
X96121702Y-133011218D01*
X96133328Y-133026947D01*
X96155896Y-133038915D01*
X96169916Y-133049173D01*
X96194193Y-133082000D01*
X96193852Y-133080974D01*
X96193852Y-133099096D01*
X96212316Y-133127478D01*
X96242407Y-133142865D01*
X96285833Y-133117219D01*
X96306350Y-133064219D01*
X96300195Y-133041993D01*
X96290621Y-133002327D01*
X96237051Y-132956163D01*
X96185987Y-132936675D01*
X96171625Y-132926075D01*
X96139141Y-132913081D01*
X96134354Y-132911371D01*
X96129225Y-132899062D01*
X96105973Y-132887094D01*
X96080669Y-132872390D01*
X96046133Y-132853926D01*
X96029036Y-132843325D01*
X96010230Y-132843325D01*
X95948829Y-132804776D01*
X95884957Y-132779095D01*
X95812150Y-132755678D01*
X95801988Y-132752711D01*
X95732811Y-132734191D01*
X95660923Y-132718596D01*
X95589195Y-132708152D01*
X95533565Y-132705182D01*
X95474080Y-132739743D01*
X95470307Y-132744505D01*
X95440617Y-132806634D01*
X95439874Y-132817338D01*
X95465861Y-132864526D01*
X95485694Y-132898036D01*
X95514417Y-132939752D01*
X95552372Y-132977366D01*
X95561263Y-132997198D01*
X95575624Y-133013612D01*
X95592037Y-133035496D01*
X95635464Y-133063193D01*
X95634780Y-133070032D01*
X95659057Y-133098071D01*
X95667264Y-133105251D01*
X95688464Y-133143549D01*
X95694961Y-133150046D01*
X95739616Y-133202218D01*
X95748988Y-133203046D01*
X95753091Y-133217408D01*
X95779078Y-133245789D01*
X95785233Y-133239976D01*
X95730523Y-133221169D01*
X95721632Y-133220143D01*
X95712058Y-133209885D01*
X95699064Y-133217408D01*
X95674445Y-133203046D01*
X95657690Y-133210911D01*
X95650509Y-133203730D01*
X95602295Y-133189369D01*
X95554082Y-133179452D01*
X95543140Y-133179452D01*
X95484326Y-133203388D01*
X95463126Y-133261176D01*
X95466887Y-133287847D01*
X95464836Y-133301867D01*
X95487404Y-133328880D01*
X95496636Y-133336061D01*
X95552714Y-133359313D01*
X95615849Y-133330111D01*
X95616657Y-133328196D01*
X95622812Y-133328538D01*
X95641618Y-133327170D01*
X95648799Y-133323409D01*
X95673077Y-133320332D01*
X95712400Y-133330932D01*
X95719923Y-133330932D01*
X95727787Y-133328538D01*
X95744200Y-133340848D01*
X95756510Y-133339138D01*
X95761297Y-133337087D01*
X95771556Y-133341532D01*
X95791388Y-133345635D01*
X95801988Y-133341874D01*
X95811221Y-133344267D01*
X95825924Y-133356919D01*
X95849860Y-133368887D01*
X95872770Y-133396242D01*
X95883028Y-133406501D01*
X95893286Y-133406501D01*
X95894312Y-133418127D01*
X95904570Y-133442062D01*
X95919274Y-133448217D01*
X95928164Y-133478650D01*
X95938764Y-133499850D01*
X95949023Y-133506005D01*
X95979517Y-133567759D01*
X95984242Y-133574051D01*
X96022540Y-133629787D01*
X96044424Y-133659194D01*
X96057418Y-133683814D01*
X96067334Y-133707750D01*
X96090586Y-133749466D01*
X96119993Y-133800415D01*
X96132302Y-133828113D01*
X96159658Y-133847945D01*
X96154528Y-133846577D01*
X96154528Y-133866068D01*
X96174361Y-133916333D01*
X96181542Y-133936166D01*
X96194535Y-133948133D01*
X96206845Y-133972411D01*
X96217445Y-133997373D01*
X96226336Y-134023018D01*
X96245826Y-134049006D01*
X96249246Y-134068838D01*
X96273866Y-134087303D01*
X96276259Y-134077729D01*
X96261556Y-134108161D01*
X96273182Y-134126968D01*
X96274891Y-134123891D01*
X96271130Y-134135517D01*
X96271130Y-134140988D01*
X96281388Y-134161504D01*
X96278653Y-134161504D01*
X96270446Y-134198434D01*
X96276601Y-134211085D01*
X96275575Y-134215189D01*
X96245484Y-134196040D01*
X96218129Y-134238441D01*
X96213342Y-134255196D01*
X96223942Y-134261351D01*
X96221891Y-134268873D01*
X96219839Y-134280499D01*
X96271675Y-134325940D01*
X96287543Y-134326661D01*
X96291304Y-134326661D01*
X96305324Y-134322900D01*
X96322421Y-134324609D01*
X96371660Y-134299990D01*
X96414393Y-134244963D01*
X96421242Y-134227840D01*
X96437195Y-134159511D01*
X96437997Y-134142697D01*
X96409958Y-134026780D01*
X96407222Y-134019599D01*
X96399357Y-133994295D01*
X96388073Y-133962495D01*
X96353538Y-133907785D01*
X96336782Y-133897868D01*
X96323789Y-133897526D01*
X96343621Y-133884191D01*
X96326866Y-133848629D01*
X96294382Y-133815461D01*
X96302247Y-133824693D01*
X96304298Y-133818538D01*
X96304298Y-133814777D01*
X96293698Y-133791867D01*
X96297801Y-133776822D01*
X96283098Y-133760066D01*
X96263607Y-133727240D01*
X96243433Y-133696124D01*
X96237278Y-133693730D01*
X96240013Y-133670478D01*
X96231123Y-133652355D01*
X96226336Y-133642439D01*
X96216078Y-133626368D01*
X96200348Y-133602774D01*
X96193510Y-133594909D01*
X96183935Y-133574735D01*
X96160683Y-133528573D01*
X96124780Y-133471811D01*
X96089148Y-133413433D01*
X96087850Y-133409578D01*
X96078960Y-133409578D01*
X96129225Y-133437617D01*
X96170600Y-133456424D01*
X96190090Y-133451295D01*
X96217445Y-133481043D01*
X96286142Y-133498575D01*
X96303956Y-133509766D01*
X96311137Y-133513186D01*
X96330286Y-133513186D01*
X96328918Y-133512502D01*
X96335415Y-133522760D01*
X96363796Y-133537122D01*
X96388073Y-133549431D01*
X96403119Y-133567212D01*
G37*
G36*
X95190942Y-133430778D02*
G01*
X95202457Y-133439991D01*
X95221374Y-133429411D01*
X95229923Y-133429411D01*
X95278136Y-133453004D01*
X95285659Y-133453004D01*
X95323614Y-133465656D01*
X95369434Y-133486515D01*
X95410467Y-133511818D01*
X95432009Y-133529941D01*
X95452568Y-133541353D01*
X95508604Y-133585335D01*
X95536985Y-133613032D01*
X95570837Y-133643465D01*
X95595457Y-133671162D01*
X95610502Y-133697491D01*
X95616315Y-133705014D01*
X95640935Y-133737498D01*
X95659057Y-133773060D01*
X95658032Y-133787422D01*
X95675471Y-133809990D01*
X95673419Y-133841106D01*
X95673419Y-133843842D01*
X95675471Y-133861623D01*
X95666238Y-133902997D01*
X95657006Y-133939243D01*
X95614947Y-133980618D01*
X95548269Y-133996347D01*
X95494365Y-133979469D01*
X95432693Y-133943004D01*
X95427222Y-133937875D01*
X95393712Y-133918727D01*
X95320537Y-133859229D01*
X95296259Y-133833242D01*
X95292156Y-133814777D01*
X95272323Y-133822300D01*
X95257962Y-133808622D01*
X95240865Y-133799390D01*
X95224794Y-133784002D01*
X95222742Y-133781609D01*
X95201542Y-133761434D01*
X95195045Y-133743311D01*
X95171451Y-133733053D01*
X95170207Y-133731938D01*
X95174187Y-133767247D01*
X95172477Y-133779899D01*
X95170425Y-133789131D01*
X95171793Y-133791183D01*
X95174187Y-133801099D01*
X95169399Y-133814777D01*
X95164612Y-133819906D01*
X95168715Y-133839055D01*
X95159825Y-133875642D01*
X95149567Y-133894791D01*
X95137599Y-133912914D01*
X95103747Y-133923172D01*
X95067159Y-133930695D01*
X95050062Y-133925224D01*
X95017920Y-133913939D01*
X94982358Y-133894107D01*
X94980990Y-133887952D01*
X94960474Y-133879404D01*
X94932435Y-133861965D01*
X94911235Y-133844184D01*
X94883538Y-133822300D01*
X94872937Y-133807596D01*
X94850027Y-133786738D01*
X94831563Y-133771009D01*
X94821988Y-133753912D01*
X94818227Y-133727924D01*
X94817028Y-133725808D01*
X94798736Y-133659878D01*
X94809337Y-133637310D01*
X94830879Y-133624316D01*
X94869518Y-133648936D01*
X94904396Y-133681762D01*
X94925938Y-133701595D01*
X94937906Y-133712879D01*
X94956371Y-133728950D01*
X94976887Y-133752544D01*
X94982358Y-133754937D01*
X95005268Y-133775112D01*
X95040488Y-133798364D01*
X95039120Y-133786054D01*
X95035359Y-133758015D01*
X95037411Y-133732369D01*
X95029204Y-133718350D01*
X95020655Y-133697833D01*
X95020655Y-133697491D01*
X95007662Y-133657826D01*
X95003217Y-133643465D01*
X94978973Y-133609432D01*
X95157127Y-133609432D01*
X95177606Y-133630129D01*
X95230265Y-133674581D01*
X95253859Y-133694756D01*
X95277794Y-133724163D01*
X95294207Y-133735447D01*
X95318827Y-133749808D01*
X95339344Y-133764512D01*
X95394054Y-133792893D01*
X95412861Y-133807938D01*
X95429274Y-133817854D01*
X95437822Y-133823325D01*
X95447739Y-133828454D01*
X95463810Y-133836319D01*
X95480907Y-133844184D01*
X95507578Y-133856494D01*
X95535617Y-133865042D01*
X95543140Y-133832558D01*
X95532540Y-133818196D01*
X95519888Y-133793235D01*
X95508946Y-133776822D01*
X95488429Y-133764512D01*
X95479539Y-133745021D01*
X95455945Y-133727924D01*
X95430983Y-133700227D01*
X95383454Y-133662956D01*
X95349944Y-133645175D01*
X95293524Y-133620555D01*
X95252149Y-133607903D01*
X95229923Y-133602432D01*
X95209748Y-133605852D01*
X95198806Y-133604484D01*
X95185129Y-133610639D01*
X95165296Y-133608587D01*
X95157127Y-133609432D01*
X94978973Y-133609432D01*
X94976423Y-133605852D01*
X95138283Y-133605852D01*
X95139779Y-133604142D01*
X95138283Y-133602432D01*
X95138283Y-133605852D01*
X94976423Y-133605852D01*
X94961983Y-133585582D01*
X94945771Y-133514896D01*
X94947048Y-133495982D01*
X94998087Y-133449243D01*
X95020676Y-133450481D01*
X95080495Y-133484463D01*
X95101011Y-133519341D01*
X95099644Y-133512160D01*
X95113460Y-133460484D01*
X95176238Y-133427359D01*
X95190942Y-133430778D01*
G37*
G36*
X94204445Y-132774937D02*
G01*
X94209574Y-132776647D01*
X94230432Y-132785538D01*
X94242058Y-132793060D01*
X94271465Y-132840590D01*
X94279330Y-132842642D01*
X94311130Y-132860764D01*
X94338827Y-132912055D01*
X94355240Y-132925049D01*
X94378834Y-132944882D01*
X94395931Y-132973605D01*
X94403112Y-132986256D01*
X94429783Y-133016689D01*
X94439016Y-133051567D01*
X94439357Y-133059773D01*
X94452009Y-133074819D01*
X94458848Y-133088838D01*
X94475261Y-133090206D01*
X94499539Y-133132607D01*
X94532023Y-133174323D01*
X94554933Y-133198943D01*
X94575108Y-133239976D01*
X94611011Y-133298789D01*
X94606760Y-133313969D01*
X94615799Y-133315886D01*
X94632896Y-133345977D01*
X94646573Y-133367861D01*
X94656489Y-133384274D01*
X94688290Y-133461211D01*
X94707438Y-133519683D01*
X94728981Y-133558322D01*
X94741974Y-133599697D01*
X94728297Y-133616452D01*
X94743000Y-133631497D01*
X94751549Y-133661246D01*
X94762149Y-133691337D01*
X94756678Y-133719718D01*
X94758046Y-133739892D01*
X94758046Y-133750150D01*
X94741290Y-133765879D01*
X94757362Y-133757673D01*
X94762149Y-133771692D01*
X94762149Y-133790841D01*
X94763859Y-133802467D01*
X94763859Y-133812725D01*
X94749155Y-133845210D01*
X94741974Y-133857519D01*
X94741731Y-133863943D01*
X94714277Y-133927275D01*
X94664696Y-133962837D01*
X94645889Y-133959759D01*
X94620928Y-133968650D01*
X94599727Y-133976515D01*
X94580921Y-133970702D01*
X94550674Y-133959147D01*
X94536810Y-133961127D01*
X94520739Y-133954630D01*
X94504668Y-133947108D01*
X94491674Y-133937533D01*
X94473210Y-133923514D01*
X94453035Y-133910178D01*
X94438332Y-133898894D01*
X94422260Y-133883507D01*
X94401744Y-133886242D01*
X94403454Y-133882481D01*
X94369260Y-133839739D01*
X94343956Y-133802809D01*
X94339169Y-133799732D01*
X94319337Y-133795286D01*
X94296769Y-133766905D01*
X94276936Y-133748099D01*
X94259497Y-133735789D01*
X94247871Y-133696808D01*
X94239665Y-133676291D01*
X94231458Y-133656117D01*
X94238297Y-133628078D01*
X94235219Y-133602774D01*
X94260523Y-133580548D01*
X94274542Y-133587387D01*
X94292323Y-133598671D01*
X94303949Y-133616452D01*
X94315917Y-133639020D01*
X94317285Y-133639020D01*
X94329338Y-133642674D01*
X94372679Y-133697491D01*
X94393196Y-133700569D01*
X94409609Y-133725189D01*
X94418157Y-133741602D01*
X94434228Y-133741602D01*
X94450300Y-133753570D01*
X94453719Y-133782635D01*
X94463635Y-133782635D01*
X94479023Y-133789815D01*
X94495436Y-133799390D01*
X94513900Y-133817512D01*
X94513900Y-133832900D01*
X94512533Y-133837345D01*
X94524842Y-133842474D01*
X94532707Y-133831532D01*
X94571004Y-133852048D01*
X94588443Y-133865042D01*
X94611353Y-133861281D01*
X94624689Y-133839055D01*
X94629476Y-133814093D01*
X94627766Y-133794260D01*
X94634605Y-133772376D01*
X94619902Y-133712879D01*
X94623321Y-133689969D01*
X94620264Y-133668059D01*
X94571346Y-133683472D01*
X94535785Y-133657826D01*
X94511165Y-133616110D01*
X94475603Y-133580206D01*
X94464661Y-133562425D01*
X94447564Y-133540199D01*
X94425338Y-133514212D01*
X94407557Y-133477624D01*
X94395247Y-133460527D01*
X94379518Y-133444456D01*
X94365157Y-133431804D01*
X94354214Y-133394875D01*
X94313524Y-133343242D01*
X94287878Y-133296054D01*
X94272491Y-133265621D01*
X94257103Y-133245447D01*
X94248213Y-133231085D01*
X94223935Y-133195182D01*
X94207522Y-133167484D01*
X94193845Y-133135342D01*
X94196323Y-133131872D01*
X94173670Y-133105935D01*
X94154180Y-133064903D01*
X94139134Y-133041651D01*
X94125115Y-133006773D01*
X94118276Y-132966766D01*
X94107966Y-132945907D01*
X94189741Y-132945907D01*
X94196580Y-132955140D01*
X94204103Y-132986598D01*
X94212309Y-133006773D01*
X94220516Y-133022160D01*
X94234535Y-133054302D01*
X94269413Y-133115852D01*
X94271123Y-133124742D01*
X94273517Y-133134658D01*
X94286852Y-133136368D01*
X94300872Y-133163039D01*
X94316601Y-133181504D01*
X94336775Y-133208517D01*
X94350453Y-133229376D01*
X94350453Y-133241344D01*
X94351821Y-133243395D01*
X94367550Y-133266647D01*
X94367892Y-133266647D01*
X94394905Y-133296738D01*
X94440041Y-133341532D01*
X94446880Y-133355893D01*
X94474577Y-133393507D01*
X94477655Y-133409236D01*
X94476287Y-133418127D01*
X94476971Y-133414023D01*
X94513900Y-133437959D01*
X94541256Y-133475230D01*
X94552115Y-133481242D01*
X94550488Y-133478992D01*
X94549775Y-133476795D01*
X94520055Y-133413339D01*
X94496120Y-133367861D01*
X94485519Y-133347687D01*
X94479364Y-133331958D01*
X94482442Y-133318622D01*
X94478339Y-133316228D01*
X94464661Y-133317938D01*
X94445170Y-133287163D01*
X94429099Y-133254679D01*
X94417473Y-133237582D01*
X94408241Y-133224247D01*
X94401744Y-133207833D01*
X94403454Y-133202362D01*
X94397641Y-133204414D01*
X94384647Y-133188685D01*
X94371548Y-133172818D01*
X94330279Y-133117219D01*
X94299504Y-133079948D01*
X94280013Y-133054644D01*
X94275568Y-133047122D01*
X94250607Y-133013270D01*
X94218122Y-132987624D01*
X94203761Y-132953430D01*
X94189741Y-132945907D01*
X94107966Y-132945907D01*
X94088869Y-132907268D01*
X94086133Y-132902139D01*
X94069720Y-132867945D01*
X94070006Y-132860842D01*
X94102205Y-132800241D01*
X94108297Y-132794986D01*
X94174012Y-132770834D01*
X94204445Y-132774937D01*
G37*
G36*
X93684696Y-132774937D02*
G01*
X93689825Y-132776647D01*
X93710683Y-132785538D01*
X93722309Y-132793060D01*
X93751716Y-132840590D01*
X93759581Y-132842642D01*
X93791381Y-132860764D01*
X93819078Y-132912055D01*
X93835491Y-132925049D01*
X93859085Y-132944882D01*
X93876182Y-132973605D01*
X93883363Y-132986256D01*
X93910034Y-133016689D01*
X93919267Y-133051567D01*
X93919609Y-133059773D01*
X93932260Y-133074819D01*
X93939099Y-133088838D01*
X93955512Y-133090206D01*
X93979790Y-133132607D01*
X94012274Y-133174323D01*
X94035184Y-133198943D01*
X94055359Y-133239976D01*
X94091263Y-133298789D01*
X94087011Y-133313969D01*
X94096050Y-133315886D01*
X94113147Y-133345977D01*
X94126824Y-133367861D01*
X94136741Y-133384274D01*
X94168541Y-133461211D01*
X94187690Y-133519683D01*
X94209232Y-133558322D01*
X94222226Y-133599697D01*
X94208548Y-133616452D01*
X94223251Y-133631497D01*
X94231800Y-133661246D01*
X94242400Y-133691337D01*
X94236929Y-133719718D01*
X94238297Y-133739892D01*
X94238297Y-133750150D01*
X94221542Y-133765879D01*
X94237613Y-133757673D01*
X94242400Y-133771692D01*
X94242400Y-133790841D01*
X94244110Y-133802467D01*
X94244110Y-133812725D01*
X94229406Y-133845210D01*
X94222226Y-133857519D01*
X94221982Y-133863943D01*
X94194528Y-133927275D01*
X94144947Y-133962837D01*
X94126140Y-133959759D01*
X94101179Y-133968650D01*
X94079979Y-133976515D01*
X94061172Y-133970702D01*
X94030925Y-133959147D01*
X94017062Y-133961127D01*
X94000990Y-133954630D01*
X93984919Y-133947108D01*
X93971926Y-133937533D01*
X93953461Y-133923514D01*
X93933286Y-133910178D01*
X93918583Y-133898894D01*
X93902512Y-133883507D01*
X93881995Y-133886242D01*
X93883705Y-133882481D01*
X93849511Y-133839739D01*
X93824207Y-133802809D01*
X93819420Y-133799732D01*
X93799588Y-133795286D01*
X93777020Y-133766905D01*
X93757187Y-133748099D01*
X93739748Y-133735789D01*
X93728122Y-133696808D01*
X93719916Y-133676291D01*
X93711709Y-133656117D01*
X93718548Y-133628078D01*
X93715471Y-133602774D01*
X93740774Y-133580548D01*
X93754794Y-133587387D01*
X93772575Y-133598671D01*
X93784200Y-133616452D01*
X93796168Y-133639020D01*
X93797536Y-133639020D01*
X93809590Y-133642674D01*
X93852930Y-133697491D01*
X93873447Y-133700569D01*
X93889860Y-133725189D01*
X93898408Y-133741602D01*
X93914480Y-133741602D01*
X93930551Y-133753570D01*
X93933970Y-133782635D01*
X93943886Y-133782635D01*
X93959274Y-133789815D01*
X93975687Y-133799390D01*
X93994152Y-133817512D01*
X93994152Y-133832900D01*
X93992784Y-133837345D01*
X94005094Y-133842474D01*
X94012958Y-133831532D01*
X94051256Y-133852048D01*
X94068695Y-133865042D01*
X94091605Y-133861281D01*
X94104940Y-133839055D01*
X94109727Y-133814093D01*
X94108018Y-133794260D01*
X94114856Y-133772376D01*
X94100153Y-133712879D01*
X94103572Y-133689969D01*
X94100515Y-133668059D01*
X94051598Y-133683472D01*
X94016036Y-133657826D01*
X93991416Y-133616110D01*
X93955854Y-133580206D01*
X93944912Y-133562425D01*
X93927815Y-133540199D01*
X93905589Y-133514212D01*
X93887808Y-133477624D01*
X93875498Y-133460527D01*
X93859769Y-133444456D01*
X93845408Y-133431804D01*
X93834466Y-133394875D01*
X93793775Y-133343242D01*
X93768129Y-133296054D01*
X93752742Y-133265621D01*
X93737355Y-133245447D01*
X93728464Y-133231085D01*
X93704187Y-133195182D01*
X93687773Y-133167484D01*
X93674096Y-133135342D01*
X93676574Y-133131872D01*
X93653921Y-133105935D01*
X93634431Y-133064903D01*
X93619385Y-133041651D01*
X93605366Y-133006773D01*
X93598527Y-132966766D01*
X93588217Y-132945907D01*
X93669993Y-132945907D01*
X93676831Y-132955140D01*
X93684354Y-132986598D01*
X93692561Y-133006773D01*
X93700767Y-133022160D01*
X93714787Y-133054302D01*
X93749665Y-133115852D01*
X93751374Y-133124742D01*
X93753768Y-133134658D01*
X93767103Y-133136368D01*
X93781123Y-133163039D01*
X93796852Y-133181504D01*
X93817027Y-133208517D01*
X93830704Y-133229376D01*
X93830704Y-133241344D01*
X93832072Y-133243395D01*
X93847801Y-133266647D01*
X93848143Y-133266647D01*
X93875157Y-133296738D01*
X93920293Y-133341532D01*
X93927131Y-133355893D01*
X93954829Y-133393507D01*
X93957906Y-133409236D01*
X93956538Y-133418127D01*
X93957222Y-133414023D01*
X93994152Y-133437959D01*
X94021507Y-133475230D01*
X94032366Y-133481242D01*
X94030739Y-133478992D01*
X94030026Y-133476795D01*
X94000307Y-133413339D01*
X93976371Y-133367861D01*
X93965771Y-133347687D01*
X93959616Y-133331958D01*
X93962693Y-133318622D01*
X93958590Y-133316228D01*
X93944912Y-133317938D01*
X93925422Y-133287163D01*
X93909351Y-133254679D01*
X93897725Y-133237582D01*
X93888492Y-133224247D01*
X93881995Y-133207833D01*
X93883705Y-133202362D01*
X93877892Y-133204414D01*
X93864898Y-133188685D01*
X93851799Y-133172818D01*
X93810530Y-133117219D01*
X93779755Y-133079948D01*
X93760265Y-133054644D01*
X93755819Y-133047122D01*
X93730858Y-133013270D01*
X93698374Y-132987624D01*
X93684012Y-132953430D01*
X93669993Y-132945907D01*
X93588217Y-132945907D01*
X93569120Y-132907268D01*
X93566385Y-132902139D01*
X93549972Y-132867945D01*
X93550257Y-132860842D01*
X93582456Y-132800241D01*
X93588549Y-132794986D01*
X93654263Y-132770834D01*
X93684696Y-132774937D01*
G37*
G36*
X92786420Y-133453004D02*
G01*
X92794968Y-133467024D01*
X92819588Y-133482069D01*
X92872899Y-133526954D01*
X92874982Y-133529257D01*
X92929960Y-133570985D01*
X92931402Y-133571316D01*
X92937899Y-133575419D01*
X92953286Y-133590464D01*
X92978590Y-133613032D01*
X93001158Y-133635258D01*
X93017229Y-133661930D01*
X93062707Y-133700911D01*
X93060997Y-133703304D01*
X93038087Y-133733737D01*
X93030565Y-133732027D01*
X93005261Y-133727924D01*
X92977564Y-133719718D01*
X92945764Y-133713563D01*
X92941318Y-133713563D01*
X92922512Y-133715614D01*
X92858911Y-133702279D01*
X92844207Y-133696124D01*
X92810013Y-133698175D01*
X92790523Y-133690311D01*
X92770006Y-133682446D01*
X92760774Y-133678001D01*
X92736496Y-133680053D01*
X92704012Y-133668769D01*
X92658192Y-133662614D01*
X92592882Y-133660562D01*
X92553558Y-133665349D01*
X92549797Y-133666375D01*
X92527913Y-133663639D01*
X92493035Y-133660562D01*
X92426010Y-133675121D01*
X92411311Y-133697833D01*
X92390795Y-133739892D01*
X92377117Y-133777505D01*
X92377117Y-133788448D01*
X92381563Y-133802125D01*
X92380195Y-133814777D01*
X92395924Y-133861281D01*
X92418834Y-133874958D01*
X92425673Y-133874958D01*
X92478332Y-133840080D01*
X92485170Y-133843158D01*
X92501242Y-133836319D01*
X92526545Y-133840080D01*
X92558346Y-133822300D01*
X92572707Y-133826403D01*
X92589120Y-133830506D01*
X92600062Y-133827429D01*
X92607243Y-133824351D01*
X92645540Y-133836661D01*
X92782316Y-133860597D01*
X92807620Y-133856494D01*
X92846943Y-133869829D01*
X92868485Y-133879062D01*
X92899260Y-133871197D01*
X93038087Y-133896159D01*
X93059288Y-133886926D01*
X93065443Y-133871881D01*
X93065785Y-133891371D01*
X93097927Y-133908810D01*
X93164872Y-133889961D01*
X93171786Y-133884191D01*
X93174180Y-133885558D01*
X93202903Y-133878036D01*
X93211793Y-133855126D01*
X93220341Y-133828454D01*
X93231625Y-133809990D01*
X93242568Y-133760750D01*
X93235558Y-133689370D01*
X93214528Y-133648252D01*
X93185122Y-133614742D01*
X93141929Y-133557653D01*
X93089036Y-133507715D01*
X93048004Y-133465656D01*
X93041165Y-133460527D01*
X93006971Y-133432488D01*
X92962177Y-133397610D01*
X92921144Y-133366836D01*
X92875324Y-133331958D01*
X92819014Y-133289084D01*
X92777529Y-133263570D01*
X92771032Y-133256731D01*
X92750858Y-133250918D01*
X92740942Y-133239634D01*
X92698883Y-133225272D01*
X92623656Y-133178427D01*
X92586727Y-133164065D01*
X92544326Y-133141155D01*
X92492351Y-133120639D01*
X92468757Y-133111064D01*
X92450976Y-133094309D01*
X92419176Y-133078238D01*
X92384640Y-133059431D01*
X92343607Y-133036863D01*
X92314542Y-133003695D01*
X92331981Y-132992411D01*
X92358995Y-132980101D01*
X92368569Y-132974630D01*
X92422937Y-132976682D01*
X92437299Y-132972237D01*
X92459183Y-132967792D01*
X92483803Y-132972237D01*
X92508080Y-132976682D01*
X92536120Y-132968475D01*
X92583649Y-132987624D01*
X92590146Y-132988992D01*
X92609637Y-132997882D01*
X92632205Y-132996173D01*
X92673237Y-133014637D01*
X92700935Y-133030367D01*
X92722135Y-133041651D01*
X92744703Y-133048831D01*
X92770690Y-133040967D01*
X92777187Y-133051225D01*
X92795994Y-133061141D01*
X92845041Y-133009594D01*
X92848311Y-132969501D01*
X92820713Y-132904958D01*
X92818904Y-132902823D01*
X92761800Y-132868629D01*
X92686915Y-132858029D01*
X92659218Y-132861790D01*
X92634598Y-132848796D01*
X92614766Y-132844351D01*
X92585701Y-132846403D01*
X92515261Y-132836487D01*
X92429776Y-132845035D01*
X92380879Y-132851874D01*
X92362414Y-132853926D01*
X92299800Y-132889563D01*
X92263593Y-132936675D01*
X92237264Y-132970527D01*
X92214894Y-133036338D01*
X92214696Y-133045070D01*
X92236922Y-133097729D01*
X92240341Y-133107987D01*
X92274535Y-133156542D01*
X92331670Y-133196907D01*
X92343265Y-133197917D01*
X92363440Y-133196207D01*
X92368569Y-133198601D01*
X92441402Y-133247157D01*
X92491325Y-133277589D01*
X92505687Y-133287847D01*
X92525177Y-133292293D01*
X92541933Y-133311441D01*
X92572023Y-133330248D01*
X92598011Y-133328196D01*
X92627418Y-133349739D01*
X92673237Y-133387352D01*
X92689651Y-133405475D01*
X92718374Y-133415391D01*
X92747780Y-133432830D01*
X92771716Y-133448217D01*
X92786420Y-133453004D01*
G37*
G36*
X91618353Y-132798531D02*
G01*
X91665882Y-132837854D01*
X91706573Y-132857687D01*
X91721618Y-132871364D01*
X91759574Y-132895984D01*
X91794110Y-132925733D01*
X91826594Y-132948301D01*
X91872756Y-132992753D01*
X91906266Y-133031050D01*
X91948325Y-133073451D01*
X91952770Y-133079264D01*
X91990041Y-133115852D01*
X92008164Y-133148336D01*
X91998932Y-133159278D01*
X91991409Y-133157910D01*
X92004061Y-133164065D01*
X92055010Y-133198259D01*
X92080997Y-133233821D01*
X92087230Y-133240351D01*
X92115875Y-133302551D01*
X92109740Y-133318993D01*
X92151095Y-133356235D01*
X92161011Y-133386668D01*
X92157763Y-133389856D01*
X92178450Y-133405133D01*
X92196573Y-133445824D01*
X92206147Y-133474205D01*
X92198625Y-133487882D01*
X92208541Y-133490618D01*
X92229057Y-133526180D01*
X92226322Y-133539857D01*
X92234528Y-133554219D01*
X92249916Y-133607219D01*
X92256071Y-133655433D01*
X92249574Y-133740918D01*
X92240341Y-133762802D01*
X92233503Y-133769299D01*
X92215038Y-133801783D01*
X92189392Y-133835293D01*
X92117243Y-133901972D01*
X92075184Y-133928301D01*
X92030390Y-133947450D01*
X92017739Y-133940953D01*
X92012609Y-133937191D01*
X92009874Y-133937191D01*
X91986280Y-133945740D01*
X91955847Y-133952579D01*
X91927808Y-133937875D01*
X91915157Y-133939243D01*
X91872072Y-133931036D01*
X91838220Y-133917017D01*
X91824586Y-133914038D01*
X91760923Y-133886699D01*
X91708283Y-133842474D01*
X91698709Y-133831532D01*
X91655963Y-133816460D01*
X91605701Y-133767589D01*
X91558171Y-133708434D01*
X91534235Y-133677317D01*
X91507222Y-133630129D01*
X91492861Y-133624658D01*
X91469267Y-133601406D01*
X91448750Y-133571658D01*
X91416608Y-133532334D01*
X91395408Y-133494037D01*
X91386859Y-133468392D01*
X91381388Y-133442062D01*
X91359162Y-133395558D01*
X91361898Y-133364100D01*
X91358478Y-133360339D01*
X91332149Y-133335035D01*
X91335226Y-133319306D01*
X91327704Y-133301525D01*
X91318129Y-133279299D01*
X91309923Y-133247498D01*
X91309923Y-133225956D01*
X91302400Y-133197575D01*
X91305819Y-133165775D01*
X91296587Y-133149020D01*
X91299323Y-133129529D01*
X91294535Y-133113116D01*
X91304452Y-133084051D01*
X91310857Y-133067638D01*
X91420711Y-133067638D01*
X91429944Y-133105593D01*
X91426866Y-133126110D01*
X91441228Y-133160988D01*
X91450460Y-133192788D01*
X91459009Y-133235872D01*
X91464138Y-133253653D01*
X91473028Y-133266647D01*
X91484654Y-133299473D01*
X91492861Y-133321357D01*
X91505170Y-133333325D01*
X91515771Y-133352132D01*
X91512351Y-133363074D01*
X91508932Y-133369229D01*
X91513377Y-133371965D01*
X91541074Y-133414365D01*
X91554068Y-133439327D01*
X91569455Y-133446849D01*
X91579030Y-133466682D01*
X91620404Y-133520025D01*
X91629605Y-133530769D01*
X91677850Y-133580548D01*
X91703838Y-133606193D01*
X91718883Y-133622949D01*
X91743503Y-133652013D01*
X91762865Y-133661182D01*
X91805052Y-133716640D01*
X91806762Y-133717666D01*
X91839930Y-133742286D01*
X91839246Y-133750150D01*
X91858394Y-133750150D01*
X91872093Y-133760515D01*
X91932981Y-133796720D01*
X91997906Y-133824693D01*
X92021500Y-133832900D01*
X92058429Y-133843158D01*
X92079972Y-133839397D01*
X92105491Y-133828740D01*
X92105275Y-133828454D01*
X92116559Y-133809306D01*
X92127501Y-133777505D01*
X92129553Y-133762118D01*
X92119001Y-133703748D01*
X92102540Y-133635258D01*
X92086825Y-133576628D01*
X92060481Y-133511818D01*
X92054310Y-133504962D01*
X92015345Y-133447191D01*
X92011242Y-133422572D01*
X91975680Y-133365468D01*
X91970209Y-133334009D01*
X91962559Y-133328704D01*
X91919602Y-133272460D01*
X91911395Y-133238608D01*
X91892588Y-133238608D01*
X91890879Y-133230401D01*
X91892854Y-133227239D01*
X91878569Y-133216382D01*
X91862498Y-133188343D01*
X91851556Y-133177059D01*
X91830013Y-133150046D01*
X91814626Y-133135000D01*
X91798897Y-133114826D01*
X91786929Y-133097729D01*
X91774961Y-133084393D01*
X91763441Y-133076873D01*
X91709651Y-133034470D01*
X91710676Y-133048831D01*
X91691186Y-133064903D01*
X91675799Y-133058406D01*
X91655966Y-133044386D01*
X91632372Y-133024896D01*
X91624086Y-133020768D01*
X91558855Y-132996173D01*
X91498674Y-132974288D01*
X91486364Y-132967792D01*
X91463112Y-132974630D01*
X91447725Y-132990702D01*
X91442595Y-133005747D01*
X91438834Y-133012928D01*
X91430969Y-133038915D01*
X91424131Y-133050199D01*
X91420711Y-133067638D01*
X91310857Y-133067638D01*
X91315394Y-133056012D01*
X91318471Y-133042334D01*
X91337620Y-132998224D01*
X91373524Y-132939069D01*
X91390279Y-132926075D01*
X91411821Y-132902139D01*
X91438492Y-132875468D01*
X91460050Y-132871023D01*
X91629295Y-132871023D01*
X91629356Y-132871084D01*
X91630662Y-132869655D01*
X91629295Y-132871023D01*
X91460050Y-132871023D01*
X91471660Y-132868629D01*
X91481235Y-132859055D01*
X91493886Y-132862132D01*
X91552700Y-132858371D01*
X91586210Y-132866577D01*
X91572191Y-132855635D01*
X91540048Y-132835803D01*
X91524661Y-132814602D01*
X91585526Y-132783486D01*
X91618353Y-132798531D01*
G37*
G36*
X90885233Y-133453004D02*
G01*
X90893782Y-133467024D01*
X90918401Y-133482069D01*
X90971713Y-133526954D01*
X90973796Y-133529257D01*
X91028774Y-133570985D01*
X91030216Y-133571316D01*
X91036713Y-133575419D01*
X91052100Y-133590464D01*
X91077404Y-133613032D01*
X91099972Y-133635258D01*
X91116043Y-133661930D01*
X91161521Y-133700911D01*
X91159811Y-133703304D01*
X91136901Y-133733737D01*
X91129378Y-133732027D01*
X91104075Y-133727924D01*
X91076378Y-133719718D01*
X91044577Y-133713563D01*
X91040132Y-133713563D01*
X91021325Y-133715614D01*
X90957725Y-133702279D01*
X90943021Y-133696124D01*
X90908827Y-133698175D01*
X90889337Y-133690311D01*
X90868820Y-133682446D01*
X90859588Y-133678001D01*
X90835310Y-133680053D01*
X90802826Y-133668769D01*
X90757006Y-133662614D01*
X90691695Y-133660562D01*
X90652372Y-133665349D01*
X90648611Y-133666375D01*
X90626727Y-133663639D01*
X90591849Y-133660562D01*
X90524823Y-133675121D01*
X90510125Y-133697833D01*
X90489609Y-133739892D01*
X90475931Y-133777505D01*
X90475931Y-133788448D01*
X90480376Y-133802125D01*
X90479009Y-133814777D01*
X90494738Y-133861281D01*
X90517648Y-133874958D01*
X90524487Y-133874958D01*
X90577145Y-133840080D01*
X90583984Y-133843158D01*
X90600055Y-133836319D01*
X90625359Y-133840080D01*
X90657159Y-133822300D01*
X90671521Y-133826403D01*
X90687934Y-133830506D01*
X90698876Y-133827429D01*
X90706057Y-133824351D01*
X90744354Y-133836661D01*
X90881130Y-133860597D01*
X90906434Y-133856494D01*
X90945757Y-133869829D01*
X90967299Y-133879062D01*
X90998073Y-133871197D01*
X91136901Y-133896159D01*
X91158101Y-133886926D01*
X91164256Y-133871881D01*
X91164598Y-133891371D01*
X91196741Y-133908810D01*
X91263686Y-133889961D01*
X91270600Y-133884191D01*
X91272993Y-133885558D01*
X91301716Y-133878036D01*
X91310607Y-133855126D01*
X91319155Y-133828454D01*
X91330439Y-133809990D01*
X91341381Y-133760750D01*
X91334371Y-133689370D01*
X91313342Y-133648252D01*
X91283935Y-133614742D01*
X91240743Y-133557653D01*
X91187850Y-133507715D01*
X91146817Y-133465656D01*
X91139979Y-133460527D01*
X91105785Y-133432488D01*
X91060990Y-133397610D01*
X91019958Y-133366836D01*
X90974138Y-133331958D01*
X90917828Y-133289084D01*
X90876343Y-133263570D01*
X90869846Y-133256731D01*
X90849672Y-133250918D01*
X90839755Y-133239634D01*
X90797697Y-133225272D01*
X90722470Y-133178427D01*
X90685540Y-133164065D01*
X90643140Y-133141155D01*
X90591165Y-133120639D01*
X90567571Y-133111064D01*
X90549790Y-133094309D01*
X90517990Y-133078238D01*
X90483454Y-133059431D01*
X90442421Y-133036863D01*
X90413356Y-133003695D01*
X90430795Y-132992411D01*
X90457808Y-132980101D01*
X90467383Y-132974630D01*
X90521751Y-132976682D01*
X90536113Y-132972237D01*
X90557997Y-132967792D01*
X90582616Y-132972237D01*
X90606894Y-132976682D01*
X90634933Y-132968475D01*
X90682463Y-132987624D01*
X90688960Y-132988992D01*
X90708450Y-132997882D01*
X90731018Y-132996173D01*
X90772051Y-133014637D01*
X90799748Y-133030367D01*
X90820949Y-133041651D01*
X90843517Y-133048831D01*
X90869504Y-133040967D01*
X90876001Y-133051225D01*
X90894808Y-133061141D01*
X90943855Y-133009594D01*
X90947124Y-132969501D01*
X90919527Y-132904958D01*
X90917718Y-132902823D01*
X90860614Y-132868629D01*
X90785729Y-132858029D01*
X90758032Y-132861790D01*
X90733412Y-132848796D01*
X90713579Y-132844351D01*
X90684515Y-132846403D01*
X90614075Y-132836487D01*
X90528590Y-132845035D01*
X90479692Y-132851874D01*
X90461228Y-132853926D01*
X90398614Y-132889563D01*
X90362407Y-132936675D01*
X90336078Y-132970527D01*
X90313708Y-133036338D01*
X90313510Y-133045070D01*
X90335736Y-133097729D01*
X90339155Y-133107987D01*
X90373349Y-133156542D01*
X90430483Y-133196907D01*
X90442079Y-133197917D01*
X90462254Y-133196207D01*
X90467383Y-133198601D01*
X90540216Y-133247157D01*
X90590139Y-133277589D01*
X90604501Y-133287847D01*
X90623991Y-133292293D01*
X90640746Y-133311441D01*
X90670837Y-133330248D01*
X90696824Y-133328196D01*
X90726231Y-133349739D01*
X90772051Y-133387352D01*
X90788464Y-133405475D01*
X90817187Y-133415391D01*
X90846594Y-133432830D01*
X90870530Y-133448217D01*
X90885233Y-133453004D01*
G37*
G36*
X90260509Y-133223221D02*
G01*
X90256064Y-133230401D01*
X90265296Y-133224588D01*
X90252302Y-133181504D01*
X90212637Y-133145942D01*
X90207850Y-133139445D01*
X90179469Y-133112432D01*
X90166133Y-133097387D01*
X90144933Y-133088154D01*
X90135359Y-133088154D01*
X90118262Y-133064903D01*
X90096378Y-133049857D01*
X90083384Y-133057038D01*
X90079623Y-133057722D01*
X90085778Y-133066954D01*
X90092274Y-133049173D01*
X90077571Y-133020108D01*
X90054319Y-132994121D01*
X90024228Y-132970527D01*
X90004738Y-132946933D01*
X89981144Y-132931204D01*
X89946608Y-132897010D01*
X89911046Y-132865210D01*
X89874459Y-132844693D01*
X89874117Y-132844009D01*
X89874117Y-132807422D01*
X89852916Y-132792718D01*
X89833768Y-132805370D01*
X89823852Y-132796480D01*
X89799232Y-132834777D01*
X89816671Y-132870681D01*
X89846762Y-132931204D01*
X89854626Y-132948985D01*
X89900024Y-133002285D01*
X89903182Y-133009850D01*
X89921304Y-133036521D01*
X89934982Y-133035154D01*
X89942505Y-133065586D01*
X89963705Y-133089864D01*
X89976357Y-133088154D01*
X89983538Y-133104226D01*
X89993796Y-133128845D01*
X90018757Y-133155859D01*
X90043719Y-133185607D01*
X90058422Y-133201337D01*
X90075177Y-133213988D01*
X90113817Y-133257757D01*
X90146643Y-133305286D01*
X90158953Y-133325119D01*
X90120997Y-133332642D01*
X90099113Y-133337771D01*
X90074152Y-133345977D01*
X90047138Y-133355893D01*
X90003028Y-133369229D01*
X89978750Y-133374700D01*
X89953789Y-133372648D01*
X89947292Y-133372648D01*
X89915833Y-133374700D01*
X89893949Y-133354868D01*
X89868646Y-133311441D01*
X89846420Y-133276221D01*
X89837187Y-133264595D01*
X89827955Y-133237924D01*
X89797522Y-133210911D01*
X89785554Y-133195866D01*
X89787606Y-133182188D01*
X89772903Y-133158594D01*
X89757173Y-133128161D01*
X89744863Y-133100122D01*
X89733579Y-133066270D01*
X89718876Y-133045754D01*
X89708960Y-133032760D01*
X89691179Y-133009166D01*
X89684340Y-133004721D01*
X89670321Y-132993779D01*
X89655275Y-132943514D01*
X89650830Y-132928810D01*
X89633391Y-132919236D01*
X89641256Y-132902139D01*
X89618004Y-132898036D01*
X89607062Y-132885726D01*
X89611507Y-132867603D01*
X89611507Y-132862474D01*
X89594068Y-132800241D01*
X89555429Y-132748950D01*
X89499351Y-132783828D01*
X89477938Y-132850961D01*
X89476099Y-132886752D01*
X89492170Y-132924365D01*
X89522602Y-132983521D01*
X89548590Y-133031734D01*
X89566713Y-133063877D01*
X89582442Y-133110381D01*
X89601591Y-133141497D01*
X89619713Y-133184581D01*
X89643307Y-133202362D01*
X89654933Y-133200995D01*
X89674372Y-133267213D01*
X89700069Y-133289557D01*
X89707592Y-133312809D01*
X89716482Y-133345635D01*
X89722295Y-133361706D01*
X89725715Y-133360339D01*
X89676817Y-133349397D01*
X89633049Y-133331958D01*
X89579706Y-133311099D01*
X89545170Y-133330248D01*
X89514054Y-133349055D01*
X89480202Y-133367519D01*
X89457976Y-133399320D01*
X89484647Y-133442404D01*
X89522602Y-133459159D01*
X89547222Y-133468734D01*
X89589281Y-133481043D01*
X89651029Y-133511488D01*
X89653224Y-133512844D01*
X89660404Y-133512844D01*
X89688443Y-133496431D01*
X89677843Y-133500534D01*
X89719218Y-133514896D01*
X89732896Y-133512844D01*
X89735289Y-133512844D01*
X89770167Y-133521392D01*
X89782477Y-133514896D01*
X89813935Y-133573367D01*
X89844368Y-133633891D01*
X89844368Y-133653039D01*
X89851549Y-133673556D01*
X89860439Y-133695782D01*
X89873433Y-133739892D01*
X89896343Y-133726214D01*
X89889504Y-133732027D01*
X89887794Y-133743653D01*
X89887794Y-133753912D01*
X89897369Y-133773744D01*
X89897369Y-133782976D01*
X89905917Y-133817854D01*
X89914466Y-133856152D01*
X89924724Y-133893423D01*
X89919253Y-133957708D01*
X89930195Y-134010709D01*
X89947976Y-134022676D01*
X89946266Y-134020625D01*
X89966782Y-134040115D01*
X89987299Y-134033618D01*
X90015680Y-134019257D01*
X90056371Y-133975489D01*
X90083042Y-133950869D01*
X90098087Y-133935140D01*
X90114842Y-133915307D01*
X90127836Y-133876326D01*
X90106978Y-133822300D01*
X90106978Y-133818538D01*
X90102875Y-133807254D01*
X90091249Y-133784686D01*
X90077913Y-133759041D01*
X90051926Y-133727924D01*
X90042009Y-133727924D01*
X90046454Y-133726556D01*
X90052951Y-133712537D01*
X90035110Y-133645019D01*
X90018415Y-133624658D01*
X90006106Y-133607561D01*
X89989351Y-133578838D01*
X89974989Y-133544302D01*
X89953105Y-133488908D01*
X89953105Y-133487540D01*
X89956524Y-133477282D01*
X89976699Y-133481043D01*
X89994822Y-133481043D01*
X90056371Y-133467024D01*
X90067997Y-133453004D01*
X90089197Y-133453004D01*
X90130572Y-133439327D01*
X90137752Y-133431462D01*
X90204089Y-133447191D01*
X90218450Y-133435907D01*
X90221870Y-133431462D01*
X90231444Y-133435565D01*
X90243412Y-133439327D01*
X90265638Y-133437275D01*
X90276922Y-133441378D01*
X90339519Y-133411855D01*
X90342233Y-133409920D01*
X90383581Y-133352510D01*
X90385659Y-133333667D01*
X90366852Y-133297422D01*
X90344626Y-133286480D01*
X90276580Y-133220827D01*
X90260509Y-133223221D01*
G37*
%LPC*%
D11*
%TO.C,H1*%
X111600000Y-142600000D03*
%TD*%
D12*
%TO.C,USBC1*%
X84500000Y-141637500D03*
X90300000Y-141637500D03*
D13*
X83070000Y-141137500D03*
X91730000Y-141137500D03*
D14*
X91730000Y-145317500D03*
X83070000Y-145317500D03*
%TD*%
D15*
%TO.C,LED4*%
X83400000Y-124270000D03*
X83400000Y-121730000D03*
%TD*%
%TO.C,LED3*%
X92700000Y-124270000D03*
X92700000Y-121730000D03*
%TD*%
%TO.C,LED1*%
X111400000Y-124270000D03*
X111400000Y-121730000D03*
%TD*%
%TO.C,LED2*%
X101900000Y-124170000D03*
X101900000Y-121630000D03*
%TD*%
%LPD*%
M02*
