%TF.GenerationSoftware,KiCad,Pcbnew,8.0.5*%
%TF.CreationDate,2024-10-13T16:03:52-04:00*%
%TF.ProjectId,KiCADWorkshopExample,4b694341-4457-46f7-926b-73686f704578,rev?*%
%TF.SameCoordinates,Original*%
%TF.FileFunction,Legend,Top*%
%TF.FilePolarity,Positive*%
%FSLAX46Y46*%
G04 Gerber Fmt 4.6, Leading zero omitted, Abs format (unit mm)*
G04 Created by KiCad (PCBNEW 8.0.5) date 2024-10-13 16:03:52*
%MOMM*%
%LPD*%
G01*
G04 APERTURE LIST*
G04 Aperture macros list*
%AMRoundRect*
0 Rectangle with rounded corners*
0 $1 Rounding radius*
0 $2 $3 $4 $5 $6 $7 $8 $9 X,Y pos of 4 corners*
0 Add a 4 corners polygon primitive as box body*
4,1,4,$2,$3,$4,$5,$6,$7,$8,$9,$2,$3,0*
0 Add four circle primitives for the rounded corners*
1,1,$1+$1,$2,$3*
1,1,$1+$1,$4,$5*
1,1,$1+$1,$6,$7*
1,1,$1+$1,$8,$9*
0 Add four rect primitives between the rounded corners*
20,1,$1+$1,$2,$3,$4,$5,0*
20,1,$1+$1,$4,$5,$6,$7,0*
20,1,$1+$1,$6,$7,$8,$9,0*
20,1,$1+$1,$8,$9,$2,$3,0*%
G04 Aperture macros list end*
%ADD10C,0.300000*%
%ADD11C,0.120000*%
%ADD12C,0.150000*%
%ADD13C,0.250000*%
%ADD14RoundRect,0.200000X0.275000X-0.200000X0.275000X0.200000X-0.275000X0.200000X-0.275000X-0.200000X0*%
%ADD15RoundRect,0.250000X0.450000X-0.262500X0.450000X0.262500X-0.450000X0.262500X-0.450000X-0.262500X0*%
%ADD16R,1.360000X1.230000*%
%ADD17C,0.750000*%
%ADD18O,1.200000X2.000000*%
%ADD19O,1.200000X1.800000*%
%ADD20R,0.300000X1.300000*%
%ADD21C,1.520000*%
G04 APERTURE END LIST*
D10*
G36*
X102525593Y-148461573D02*
G01*
X102522480Y-148538488D01*
X102511866Y-148617227D01*
X102493719Y-148689818D01*
X102465709Y-148761379D01*
X102425482Y-148829253D01*
X102399563Y-148861643D01*
X102344183Y-148913354D01*
X102279248Y-148954181D01*
X102246057Y-148969354D01*
X102174255Y-148992126D01*
X102095138Y-149004388D01*
X102038328Y-149006723D01*
X101964718Y-149003043D01*
X101886951Y-148992004D01*
X101812648Y-148975582D01*
X101818510Y-148907072D01*
X101824738Y-148849187D01*
X101841957Y-148814382D01*
X101882990Y-148800460D01*
X101935380Y-148809986D01*
X102008797Y-148819064D01*
X102018178Y-148819145D01*
X102092804Y-148812170D01*
X102137613Y-148799361D01*
X102201353Y-148761438D01*
X102225174Y-148737445D01*
X102264717Y-148671734D01*
X102279762Y-148629002D01*
X102294050Y-148555820D01*
X102298739Y-148481118D01*
X102298813Y-148469633D01*
X102298813Y-147470924D01*
X102525593Y-147470924D01*
X102525593Y-148461573D01*
G37*
G36*
X104080076Y-148995000D02*
G01*
X103904588Y-148995000D01*
X103853297Y-148978879D01*
X103823988Y-148938579D01*
X103685502Y-148578077D01*
X103023115Y-148578077D01*
X102884630Y-148938213D01*
X102855321Y-148977780D01*
X102804030Y-148995000D01*
X102628541Y-148995000D01*
X102864564Y-148408817D01*
X103089061Y-148408817D01*
X103619190Y-148408817D01*
X103388014Y-147823367D01*
X103361819Y-147752542D01*
X103353576Y-147724815D01*
X103342219Y-147761451D01*
X103320237Y-147824466D01*
X103089061Y-148408817D01*
X102864564Y-148408817D01*
X103242201Y-147470924D01*
X103466050Y-147470924D01*
X104080076Y-148995000D01*
G37*
G36*
X105030792Y-147723349D02*
G01*
X105006978Y-147750826D01*
X104972906Y-147760352D01*
X104926011Y-147741667D01*
X104865561Y-147702100D01*
X104798381Y-147670584D01*
X104780198Y-147663998D01*
X104705974Y-147648814D01*
X104659665Y-147646779D01*
X104586038Y-147652979D01*
X104542062Y-147664364D01*
X104475910Y-147697543D01*
X104458164Y-147711625D01*
X104412163Y-147771331D01*
X104407606Y-147781235D01*
X104391165Y-147853318D01*
X104390753Y-147867697D01*
X104405894Y-147941551D01*
X104420062Y-147964783D01*
X104475360Y-148016921D01*
X104498831Y-148031828D01*
X104566522Y-148064686D01*
X104612770Y-148081653D01*
X104682314Y-148104748D01*
X104745394Y-148125983D01*
X104817359Y-148151979D01*
X104879483Y-148178007D01*
X104945828Y-148213412D01*
X104998185Y-148252379D01*
X105048734Y-148306152D01*
X105083548Y-148363387D01*
X105107728Y-148436660D01*
X105115662Y-148512795D01*
X105115788Y-148524588D01*
X105110894Y-148598175D01*
X105094545Y-148674058D01*
X105080983Y-148713265D01*
X105047444Y-148781018D01*
X105003384Y-148841394D01*
X104979501Y-148866772D01*
X104920604Y-148915162D01*
X104851669Y-148954362D01*
X104816468Y-148969354D01*
X104740322Y-148992126D01*
X104664185Y-149003767D01*
X104597383Y-149006723D01*
X104515566Y-149002579D01*
X104437864Y-148990147D01*
X104364277Y-148969426D01*
X104325174Y-148954333D01*
X104258456Y-148921415D01*
X104196374Y-148881600D01*
X104138929Y-148834887D01*
X104109019Y-148805956D01*
X104172766Y-148700809D01*
X104197679Y-148678094D01*
X104230286Y-148668569D01*
X104286339Y-148693115D01*
X104345381Y-148736885D01*
X104358147Y-148745505D01*
X104424044Y-148781539D01*
X104459263Y-148796430D01*
X104533967Y-148814797D01*
X104603611Y-148819145D01*
X104678353Y-148813117D01*
X104729274Y-148800094D01*
X104796698Y-148766626D01*
X104821964Y-148746605D01*
X104868675Y-148687528D01*
X104879849Y-148664539D01*
X104898032Y-148593510D01*
X104900000Y-148557561D01*
X104887377Y-148483509D01*
X104870690Y-148452780D01*
X104818338Y-148400757D01*
X104792288Y-148383904D01*
X104725227Y-148351618D01*
X104679082Y-148335544D01*
X104605563Y-148312527D01*
X104546458Y-148294145D01*
X104474676Y-148269214D01*
X104412369Y-148243953D01*
X104346127Y-148208341D01*
X104294033Y-148168848D01*
X104244341Y-148113184D01*
X104209769Y-148053077D01*
X104186628Y-147980815D01*
X104178033Y-147906858D01*
X104177529Y-147881985D01*
X104184533Y-147806599D01*
X104205543Y-147733629D01*
X104209403Y-147724082D01*
X104245826Y-147656424D01*
X104294647Y-147596334D01*
X104302093Y-147588893D01*
X104360707Y-147541840D01*
X104424804Y-147506310D01*
X104451936Y-147494738D01*
X104522587Y-147473082D01*
X104600451Y-147461422D01*
X104656367Y-147459200D01*
X104734749Y-147463064D01*
X104808695Y-147474656D01*
X104884911Y-147496333D01*
X104891573Y-147498768D01*
X104962488Y-147530862D01*
X105028641Y-147572740D01*
X105084647Y-147619302D01*
X105030792Y-147723349D01*
G37*
D11*
%TO.C,R2*%
X90477500Y-138737258D02*
X90477500Y-138262742D01*
X91522500Y-138737258D02*
X91522500Y-138262742D01*
%TO.C,R1*%
X102515000Y-124477064D02*
X102515000Y-124022936D01*
X103985000Y-124477064D02*
X103985000Y-124022936D01*
D12*
%TO.C,SW2*%
X94460000Y-128720000D02*
X94460000Y-132780000D01*
X94460000Y-132780000D02*
X95120000Y-132780000D01*
X97540000Y-128720000D02*
X97540000Y-132780000D01*
X97540000Y-132780000D02*
X96880000Y-132780000D01*
D13*
X96900000Y-130750000D02*
G75*
G02*
X95100000Y-130750000I-900000J0D01*
G01*
X95100000Y-130750000D02*
G75*
G02*
X96900000Y-130750000I900000J0D01*
G01*
%TO.C,USBC1*%
X88030000Y-147327500D02*
X88030000Y-145467500D01*
X88030000Y-151047500D02*
X88030000Y-149567500D01*
X96970000Y-147327500D02*
X96970000Y-145467500D01*
X96970000Y-151047500D02*
X88030000Y-151047500D01*
X96970000Y-151047500D02*
X96970000Y-149567500D01*
%TO.C,LED4*%
X80610000Y-116400000D02*
X80930000Y-116400000D01*
X82580000Y-116420000D02*
X82880000Y-116420000D01*
X80780000Y-119380000D02*
G75*
G02*
X80851885Y-117023025I969999J1150000D01*
G01*
X81120000Y-120290000D02*
G75*
G02*
X80609529Y-116405276I640000J2060000D01*
G01*
X82720000Y-117080000D02*
G75*
G02*
X82687228Y-119406862I-970000J-1150000D01*
G01*
X82880000Y-116420000D02*
G75*
G02*
X82383930Y-120267433I-1130000J-1810000D01*
G01*
D12*
%TO.C,SW1*%
X101710000Y-128720000D02*
X101710000Y-132780000D01*
X101710000Y-132780000D02*
X102370000Y-132780000D01*
X104790000Y-128720000D02*
X104790000Y-132780000D01*
X104790000Y-132780000D02*
X104130000Y-132780000D01*
D13*
X104150000Y-130750000D02*
G75*
G02*
X102350000Y-130750000I-900000J0D01*
G01*
X102350000Y-130750000D02*
G75*
G02*
X104150000Y-130750000I900000J0D01*
G01*
%TO.C,LED2*%
X94860000Y-116420000D02*
X95180000Y-116420000D01*
X96830000Y-116440000D02*
X97130000Y-116440000D01*
X95030000Y-119400000D02*
G75*
G02*
X95101885Y-117043025I969999J1150000D01*
G01*
X95370000Y-120310000D02*
G75*
G02*
X94859529Y-116425276I640000J2060000D01*
G01*
X96970000Y-117100000D02*
G75*
G02*
X96937228Y-119426862I-970000J-1150000D01*
G01*
X97130000Y-116440000D02*
G75*
G02*
X96633930Y-120287433I-1130000J-1810000D01*
G01*
D11*
%TO.C,R4*%
X88265000Y-124477064D02*
X88265000Y-124022936D01*
X89735000Y-124477064D02*
X89735000Y-124022936D01*
D12*
%TO.C,SW3*%
X87460000Y-128720000D02*
X87460000Y-132780000D01*
X87460000Y-132780000D02*
X88120000Y-132780000D01*
X90540000Y-128720000D02*
X90540000Y-132780000D01*
X90540000Y-132780000D02*
X89880000Y-132780000D01*
D13*
X89900000Y-130750000D02*
G75*
G02*
X88100000Y-130750000I-900000J0D01*
G01*
X88100000Y-130750000D02*
G75*
G02*
X89900000Y-130750000I900000J0D01*
G01*
D12*
%TO.C,SW4*%
X80210000Y-128720000D02*
X80210000Y-132780000D01*
X80210000Y-132780000D02*
X80870000Y-132780000D01*
X83290000Y-128720000D02*
X83290000Y-132780000D01*
X83290000Y-132780000D02*
X82630000Y-132780000D01*
D13*
X82650000Y-130750000D02*
G75*
G02*
X80850000Y-130750000I-900000J0D01*
G01*
X80850000Y-130750000D02*
G75*
G02*
X82650000Y-130750000I900000J0D01*
G01*
D11*
%TO.C,R6*%
X93477500Y-138737258D02*
X93477500Y-138262742D01*
X94522500Y-138737258D02*
X94522500Y-138262742D01*
D13*
%TO.C,LED3*%
X87860000Y-116420000D02*
X88180000Y-116420000D01*
X89830000Y-116440000D02*
X90130000Y-116440000D01*
X88030000Y-119400000D02*
G75*
G02*
X88101885Y-117043025I969999J1150000D01*
G01*
X88370000Y-120310000D02*
G75*
G02*
X87859529Y-116425276I640000J2060000D01*
G01*
X89970000Y-117100000D02*
G75*
G02*
X89937228Y-119426862I-970000J-1150000D01*
G01*
X90130000Y-116440000D02*
G75*
G02*
X89633930Y-120287433I-1130000J-1810000D01*
G01*
D11*
%TO.C,R5*%
X81015000Y-124727064D02*
X81015000Y-124272936D01*
X82485000Y-124727064D02*
X82485000Y-124272936D01*
%TO.C,R3*%
X95265000Y-124477064D02*
X95265000Y-124022936D01*
X96735000Y-124477064D02*
X96735000Y-124022936D01*
D13*
%TO.C,LED1*%
X102110000Y-116420000D02*
X102430000Y-116420000D01*
X104080000Y-116440000D02*
X104380000Y-116440000D01*
X102280000Y-119400000D02*
G75*
G02*
X102351885Y-117043025I969999J1150000D01*
G01*
X102620000Y-120310000D02*
G75*
G02*
X102109529Y-116425276I640000J2060000D01*
G01*
X104220000Y-117100000D02*
G75*
G02*
X104187228Y-119426862I-970000J-1150000D01*
G01*
X104380000Y-116440000D02*
G75*
G02*
X103883930Y-120287433I-1130000J-1810000D01*
G01*
%TD*%
%LPC*%
D14*
%TO.C,R2*%
X91000000Y-139325000D03*
X91000000Y-137675000D03*
%TD*%
D15*
%TO.C,R1*%
X103250000Y-125162500D03*
X103250000Y-123337500D03*
%TD*%
D16*
%TO.C,SW2*%
X96000000Y-132930000D03*
X96000000Y-128570000D03*
%TD*%
D17*
%TO.C,USBC1*%
X89600000Y-144737500D03*
X95400000Y-144737500D03*
D18*
X88170000Y-144237500D03*
X96830000Y-144237500D03*
D19*
X96830000Y-148417500D03*
X88170000Y-148417500D03*
D20*
X89150000Y-143477500D03*
X89950000Y-143477500D03*
X91250000Y-143477500D03*
X92250000Y-143477500D03*
X92750000Y-143477500D03*
X93750000Y-143477500D03*
X95050000Y-143477500D03*
X95850000Y-143477500D03*
X95550000Y-143477500D03*
X94750000Y-143477500D03*
X94250000Y-143477500D03*
X93250000Y-143477500D03*
X91750000Y-143477500D03*
X90750000Y-143477500D03*
X90250000Y-143477500D03*
X89450000Y-143477500D03*
%TD*%
D21*
%TO.C,LED4*%
X81750000Y-119500000D03*
X81750000Y-116960000D03*
%TD*%
D16*
%TO.C,SW1*%
X103250000Y-132930000D03*
X103250000Y-128570000D03*
%TD*%
D21*
%TO.C,LED2*%
X96000000Y-119520000D03*
X96000000Y-116980000D03*
%TD*%
D15*
%TO.C,R4*%
X89000000Y-125162500D03*
X89000000Y-123337500D03*
%TD*%
D16*
%TO.C,SW3*%
X89000000Y-132930000D03*
X89000000Y-128570000D03*
%TD*%
%TO.C,SW4*%
X81750000Y-132930000D03*
X81750000Y-128570000D03*
%TD*%
D14*
%TO.C,R6*%
X94000000Y-139325000D03*
X94000000Y-137675000D03*
%TD*%
D21*
%TO.C,LED3*%
X89000000Y-119520000D03*
X89000000Y-116980000D03*
%TD*%
D15*
%TO.C,R5*%
X81750000Y-125412500D03*
X81750000Y-123587500D03*
%TD*%
%TO.C,R3*%
X96000000Y-125162500D03*
X96000000Y-123337500D03*
%TD*%
D21*
%TO.C,LED1*%
X103250000Y-119520000D03*
X103250000Y-116980000D03*
%TD*%
%LPD*%
M02*
