%TF.GenerationSoftware,KiCad,Pcbnew,8.0.5*%
%TF.CreationDate,2024-10-18T23:38:30-04:00*%
%TF.ProjectId,KiCADWorkshopExample,4b694341-4457-46f7-926b-73686f704578,rev?*%
%TF.SameCoordinates,Original*%
%TF.FileFunction,Copper,L1,Top*%
%TF.FilePolarity,Positive*%
%FSLAX46Y46*%
G04 Gerber Fmt 4.6, Leading zero omitted, Abs format (unit mm)*
G04 Created by KiCad (PCBNEW 8.0.5) date 2024-10-18 23:38:30*
%MOMM*%
%LPD*%
G01*
G04 APERTURE LIST*
G04 Aperture macros list*
%AMRoundRect*
0 Rectangle with rounded corners*
0 $1 Rounding radius*
0 $2 $3 $4 $5 $6 $7 $8 $9 X,Y pos of 4 corners*
0 Add a 4 corners polygon primitive as box body*
4,1,4,$2,$3,$4,$5,$6,$7,$8,$9,$2,$3,0*
0 Add four circle primitives for the rounded corners*
1,1,$1+$1,$2,$3*
1,1,$1+$1,$4,$5*
1,1,$1+$1,$6,$7*
1,1,$1+$1,$8,$9*
0 Add four rect primitives between the rounded corners*
20,1,$1+$1,$2,$3,$4,$5,0*
20,1,$1+$1,$4,$5,$6,$7,0*
20,1,$1+$1,$6,$7,$8,$9,0*
20,1,$1+$1,$8,$9,$2,$3,0*%
G04 Aperture macros list end*
%TA.AperFunction,SMDPad,CuDef*%
%ADD10RoundRect,0.250000X0.450000X-0.262500X0.450000X0.262500X-0.450000X0.262500X-0.450000X-0.262500X0*%
%TD*%
%TA.AperFunction,ComponentPad*%
%ADD11C,7.500000*%
%TD*%
%TA.AperFunction,SMDPad,CuDef*%
%ADD12RoundRect,0.200000X0.275000X-0.200000X0.275000X0.200000X-0.275000X0.200000X-0.275000X-0.200000X0*%
%TD*%
%TA.AperFunction,SMDPad,CuDef*%
%ADD13R,1.700000X1.000000*%
%TD*%
%TA.AperFunction,ComponentPad*%
%ADD14C,0.750000*%
%TD*%
%TA.AperFunction,ComponentPad*%
%ADD15O,1.200000X2.000000*%
%TD*%
%TA.AperFunction,ComponentPad*%
%ADD16O,1.200000X1.800000*%
%TD*%
%TA.AperFunction,SMDPad,CuDef*%
%ADD17R,0.300000X1.300000*%
%TD*%
%TA.AperFunction,ComponentPad*%
%ADD18C,1.520000*%
%TD*%
%TA.AperFunction,Conductor*%
%ADD19C,0.200000*%
%TD*%
%TA.AperFunction,Conductor*%
%ADD20C,0.400000*%
%TD*%
G04 APERTURE END LIST*
D10*
%TO.P,R4,1*%
%TO.N,Net-(SW1-D)*%
X80000000Y-125712500D03*
%TO.P,R4,2*%
%TO.N,Net-(LED4-A)*%
X80000000Y-123887500D03*
%TD*%
%TO.P,R3,1*%
%TO.N,Net-(SW2-D)*%
X89300000Y-125712500D03*
%TO.P,R3,2*%
%TO.N,Net-(LED3-A)*%
X89300000Y-123887500D03*
%TD*%
%TO.P,R2,1*%
%TO.N,Net-(SW3-D)*%
X98500000Y-125712500D03*
%TO.P,R2,2*%
%TO.N,Net-(LED2-A)*%
X98500000Y-123887500D03*
%TD*%
%TO.P,R1,1*%
%TO.N,Net-(SW4-D)*%
X108000000Y-125712500D03*
%TO.P,R1,2*%
%TO.N,Net-(LED1-A)*%
X108000000Y-123887500D03*
%TD*%
D11*
%TO.P,H1,1,1*%
%TO.N,GND*%
X111600000Y-142600000D03*
%TD*%
D12*
%TO.P,R6,1*%
%TO.N,Net-(USBC1-CC1)*%
X86200000Y-137925000D03*
%TO.P,R6,2*%
%TO.N,GND*%
X86200000Y-136275000D03*
%TD*%
D13*
%TO.P,SW3,1,A*%
%TO.N,unconnected-(SW3-A-Pad1)*%
X105100000Y-131050000D03*
%TO.P,SW3,2,B*%
%TO.N,VBUS*%
X98500000Y-131050000D03*
%TO.P,SW3,3,C*%
%TO.N,unconnected-(SW3-C-Pad3)*%
X105100000Y-127350000D03*
%TO.P,SW3,4,D*%
%TO.N,Net-(SW3-D)*%
X98500000Y-127350000D03*
%TD*%
D14*
%TO.P,USBC1,*%
%TO.N,*%
X84500000Y-141637500D03*
X90300000Y-141637500D03*
D15*
%TO.P,USBC1,0,SH*%
%TO.N,unconnected-(USBC1-SH-Pad0)*%
X83070000Y-141137500D03*
%TO.P,USBC1,1*%
%TO.N,N/C*%
X91730000Y-141137500D03*
D16*
%TO.P,USBC1,2*%
X91730000Y-145317500D03*
%TO.P,USBC1,3*%
X83070000Y-145317500D03*
D17*
%TO.P,USBC1,A1,GND*%
%TO.N,GND*%
X84050000Y-140377500D03*
%TO.P,USBC1,A4,VBUS*%
%TO.N,VBUS*%
X84850000Y-140377500D03*
%TO.P,USBC1,A5,CC1*%
%TO.N,Net-(USBC1-CC1)*%
X86150000Y-140377500D03*
%TO.P,USBC1,A6,DP1*%
%TO.N,unconnected-(USBC1-DP1-PadA6)*%
X87150000Y-140377500D03*
%TO.P,USBC1,A7,DN1*%
%TO.N,unconnected-(USBC1-DN1-PadA7)*%
X87650000Y-140377500D03*
%TO.P,USBC1,A8,SBU1*%
%TO.N,unconnected-(USBC1-SBU1-PadA8)*%
X88650000Y-140377500D03*
%TO.P,USBC1,A9,VBUS*%
%TO.N,VBUS*%
X89950000Y-140377500D03*
%TO.P,USBC1,A12,GND*%
%TO.N,GND*%
X90750000Y-140377500D03*
%TO.P,USBC1,B1,GND*%
X90450000Y-140377500D03*
%TO.P,USBC1,B4,VBUS*%
%TO.N,VBUS*%
X89650000Y-140377500D03*
%TO.P,USBC1,B5,CC2*%
%TO.N,Net-(USBC1-CC2)*%
X89150000Y-140377500D03*
%TO.P,USBC1,B6,DP2*%
%TO.N,unconnected-(USBC1-DP2-PadB6)*%
X88150000Y-140377500D03*
%TO.P,USBC1,B7,DN2*%
%TO.N,unconnected-(USBC1-DN2-PadB7)*%
X86650000Y-140377500D03*
%TO.P,USBC1,B8,SBU2*%
%TO.N,unconnected-(USBC1-SBU2-PadB8)*%
X85650000Y-140377500D03*
%TO.P,USBC1,B9,VBUS*%
%TO.N,VBUS*%
X85150000Y-140377500D03*
%TO.P,USBC1,B12,GND*%
%TO.N,GND*%
X84350000Y-140377500D03*
%TD*%
D18*
%TO.P,LED4,1,A*%
%TO.N,Net-(LED4-A)*%
X83400000Y-124270000D03*
%TO.P,LED4,2,K*%
%TO.N,GND*%
X83400000Y-121730000D03*
%TD*%
D13*
%TO.P,SW4,1,A*%
%TO.N,unconnected-(SW4-A-Pad1)*%
X114600000Y-131050000D03*
%TO.P,SW4,2,B*%
%TO.N,VBUS*%
X108000000Y-131050000D03*
%TO.P,SW4,3,C*%
%TO.N,unconnected-(SW4-C-Pad3)*%
X114600000Y-127350000D03*
%TO.P,SW4,4,D*%
%TO.N,Net-(SW4-D)*%
X108000000Y-127350000D03*
%TD*%
%TO.P,SW2,1,A*%
%TO.N,unconnected-(SW2-A-Pad1)*%
X95900000Y-131050000D03*
%TO.P,SW2,2,B*%
%TO.N,VBUS*%
X89300000Y-131050000D03*
%TO.P,SW2,3,C*%
%TO.N,unconnected-(SW2-C-Pad3)*%
X95900000Y-127350000D03*
%TO.P,SW2,4,D*%
%TO.N,Net-(SW2-D)*%
X89300000Y-127350000D03*
%TD*%
%TO.P,SW1,1,A*%
%TO.N,unconnected-(SW1-A-Pad1)*%
X86600000Y-131050000D03*
%TO.P,SW1,2,B*%
%TO.N,VBUS*%
X80000000Y-131050000D03*
%TO.P,SW1,3,C*%
%TO.N,unconnected-(SW1-C-Pad3)*%
X86600000Y-127350000D03*
%TO.P,SW1,4,D*%
%TO.N,Net-(SW1-D)*%
X80000000Y-127350000D03*
%TD*%
D12*
%TO.P,R5,1*%
%TO.N,Net-(USBC1-CC2)*%
X88600000Y-137925000D03*
%TO.P,R5,2*%
%TO.N,GND*%
X88600000Y-136275000D03*
%TD*%
D18*
%TO.P,LED3,1,A*%
%TO.N,Net-(LED3-A)*%
X92700000Y-124270000D03*
%TO.P,LED3,2,K*%
%TO.N,GND*%
X92700000Y-121730000D03*
%TD*%
%TO.P,LED1,1,A*%
%TO.N,Net-(LED1-A)*%
X111400000Y-124270000D03*
%TO.P,LED1,2,K*%
%TO.N,GND*%
X111400000Y-121730000D03*
%TD*%
%TO.P,LED2,1,A*%
%TO.N,Net-(LED2-A)*%
X101900000Y-124170000D03*
%TO.P,LED2,2,K*%
%TO.N,GND*%
X101900000Y-121630000D03*
%TD*%
D19*
%TO.N,Net-(USBC1-CC2)*%
X88600000Y-138700000D02*
X88600000Y-137925000D01*
X89150000Y-139250000D02*
X88600000Y-138700000D01*
X89150000Y-140377500D02*
X89150000Y-139250000D01*
D20*
%TO.N,VBUS*%
X89700000Y-134600000D02*
X89700000Y-140377500D01*
X89300000Y-134200000D02*
X89700000Y-134600000D01*
X89300000Y-131050000D02*
X89300000Y-134200000D01*
D19*
%TO.N,GND*%
X90750000Y-139650000D02*
X91500000Y-138900000D01*
X90750000Y-140377500D02*
X90750000Y-139650000D01*
X91500000Y-138900000D02*
X91800000Y-138900000D01*
%TO.N,VBUS*%
X85300000Y-141327500D02*
X89500000Y-141327500D01*
X89500000Y-141327500D02*
X89950000Y-140877500D01*
X89950000Y-140877500D02*
X89950000Y-140377500D01*
X84850000Y-140877500D02*
X85300000Y-141327500D01*
X84850000Y-140377500D02*
X84850000Y-140877500D01*
%TO.N,Net-(USBC1-CC1)*%
X86150000Y-137975000D02*
X86200000Y-137925000D01*
X86150000Y-140377500D02*
X86150000Y-137975000D01*
D20*
%TO.N,Net-(LED1-A)*%
X110917500Y-123787500D02*
X111400000Y-124270000D01*
X108000000Y-123787500D02*
X110917500Y-123787500D01*
%TO.N,Net-(SW4-D)*%
X108000000Y-127350000D02*
X108000000Y-125612500D01*
%TO.N,Net-(LED2-A)*%
X101517500Y-123787500D02*
X101900000Y-124170000D01*
X98500000Y-123787500D02*
X101517500Y-123787500D01*
%TO.N,Net-(SW3-D)*%
X98500000Y-127350000D02*
X98500000Y-125612500D01*
%TO.N,Net-(LED3-A)*%
X92217500Y-123787500D02*
X92700000Y-124270000D01*
X89300000Y-123787500D02*
X92217500Y-123787500D01*
%TO.N,Net-(SW2-D)*%
X89300000Y-127350000D02*
X89300000Y-125612500D01*
%TO.N,Net-(LED4-A)*%
X82917500Y-123787500D02*
X83400000Y-124270000D01*
X80000000Y-123787500D02*
X82917500Y-123787500D01*
%TO.N,Net-(SW1-D)*%
X80000000Y-127350000D02*
X80000000Y-125612500D01*
%TO.N,VBUS*%
X99400000Y-130150000D02*
X107100000Y-130150000D01*
X107100000Y-130150000D02*
X108000000Y-131050000D01*
X98500000Y-131050000D02*
X99400000Y-130150000D01*
X97600000Y-130150000D02*
X98500000Y-131050000D01*
X90200000Y-130150000D02*
X97600000Y-130150000D01*
X89300000Y-131050000D02*
X90200000Y-130150000D01*
X80900000Y-130150000D02*
X88400000Y-130150000D01*
X88400000Y-130150000D02*
X89300000Y-131050000D01*
X80000000Y-131050000D02*
X80900000Y-130150000D01*
%TD*%
%TA.AperFunction,Conductor*%
%TO.N,GND*%
G36*
X91950643Y-120520185D02*
G01*
X91996398Y-120572989D01*
X92007132Y-120635309D01*
X92003248Y-120679694D01*
X92605537Y-121281983D01*
X92523527Y-121303958D01*
X92419273Y-121364149D01*
X92334149Y-121449273D01*
X92273958Y-121553527D01*
X92251983Y-121635537D01*
X91649694Y-121033248D01*
X91604640Y-121097594D01*
X91511466Y-121297404D01*
X91454402Y-121510366D01*
X91454401Y-121510373D01*
X91435187Y-121729998D01*
X91435187Y-121730001D01*
X91454401Y-121949626D01*
X91454402Y-121949634D01*
X91511463Y-122162587D01*
X91511466Y-122162593D01*
X91604638Y-122362402D01*
X91649694Y-122426750D01*
X92251982Y-121824462D01*
X92273958Y-121906473D01*
X92334149Y-122010727D01*
X92419273Y-122095851D01*
X92523527Y-122156042D01*
X92605536Y-122178016D01*
X92003247Y-122780304D01*
X92067594Y-122825360D01*
X92067596Y-122825361D01*
X92121759Y-122850618D01*
X92174199Y-122896790D01*
X92193351Y-122963983D01*
X92173135Y-123030865D01*
X92119970Y-123076199D01*
X92069355Y-123087000D01*
X90324730Y-123087000D01*
X90257691Y-123067315D01*
X90237049Y-123050681D01*
X90218657Y-123032289D01*
X90218656Y-123032288D01*
X90113762Y-122967589D01*
X90069336Y-122940187D01*
X90069331Y-122940185D01*
X90020210Y-122923908D01*
X89902797Y-122885001D01*
X89902795Y-122885000D01*
X89800010Y-122874500D01*
X88799998Y-122874500D01*
X88799980Y-122874501D01*
X88697203Y-122885000D01*
X88697200Y-122885001D01*
X88530668Y-122940185D01*
X88530663Y-122940187D01*
X88381342Y-123032289D01*
X88257289Y-123156342D01*
X88165187Y-123305663D01*
X88165185Y-123305668D01*
X88137349Y-123389670D01*
X88110001Y-123472203D01*
X88110001Y-123472204D01*
X88110000Y-123472204D01*
X88099500Y-123574983D01*
X88099500Y-124200001D01*
X88099501Y-124200019D01*
X88110000Y-124302796D01*
X88110001Y-124302799D01*
X88165185Y-124469331D01*
X88165187Y-124469336D01*
X88184211Y-124500179D01*
X88247480Y-124602755D01*
X88257289Y-124618657D01*
X88350951Y-124712319D01*
X88384436Y-124773642D01*
X88379452Y-124843334D01*
X88350951Y-124887681D01*
X88257289Y-124981342D01*
X88165187Y-125130663D01*
X88165186Y-125130666D01*
X88110001Y-125297203D01*
X88110001Y-125297204D01*
X88110000Y-125297204D01*
X88099500Y-125399983D01*
X88099500Y-126025001D01*
X88099501Y-126025019D01*
X88110000Y-126127796D01*
X88110001Y-126127799D01*
X88137593Y-126211065D01*
X88165186Y-126294334D01*
X88166321Y-126296175D01*
X88166714Y-126297610D01*
X88168238Y-126300878D01*
X88167679Y-126301138D01*
X88184760Y-126363566D01*
X88163836Y-126430229D01*
X88135093Y-126460534D01*
X88092454Y-126492454D01*
X88049266Y-126550145D01*
X87993332Y-126592015D01*
X87923640Y-126596999D01*
X87862317Y-126563513D01*
X87850734Y-126550145D01*
X87811119Y-126497227D01*
X87807546Y-126492454D01*
X87807544Y-126492453D01*
X87807544Y-126492452D01*
X87692335Y-126406206D01*
X87692328Y-126406202D01*
X87557482Y-126355908D01*
X87557483Y-126355908D01*
X87497883Y-126349501D01*
X87497881Y-126349500D01*
X87497873Y-126349500D01*
X87497864Y-126349500D01*
X85702129Y-126349500D01*
X85702123Y-126349501D01*
X85642516Y-126355908D01*
X85507671Y-126406202D01*
X85507664Y-126406206D01*
X85392455Y-126492452D01*
X85392452Y-126492455D01*
X85306206Y-126607664D01*
X85306202Y-126607671D01*
X85255908Y-126742517D01*
X85249501Y-126802116D01*
X85249501Y-126802123D01*
X85249500Y-126802135D01*
X85249500Y-127897870D01*
X85249501Y-127897876D01*
X85255908Y-127957483D01*
X85306202Y-128092328D01*
X85306206Y-128092335D01*
X85392452Y-128207544D01*
X85392455Y-128207547D01*
X85507664Y-128293793D01*
X85507671Y-128293797D01*
X85642517Y-128344091D01*
X85642516Y-128344091D01*
X85649444Y-128344835D01*
X85702127Y-128350500D01*
X87497872Y-128350499D01*
X87557483Y-128344091D01*
X87692331Y-128293796D01*
X87807546Y-128207546D01*
X87850734Y-128149854D01*
X87906667Y-128107984D01*
X87976359Y-128103000D01*
X88037682Y-128136485D01*
X88049263Y-128149850D01*
X88092454Y-128207546D01*
X88138643Y-128242123D01*
X88207664Y-128293793D01*
X88207671Y-128293797D01*
X88342517Y-128344091D01*
X88342516Y-128344091D01*
X88349444Y-128344835D01*
X88402127Y-128350500D01*
X90197872Y-128350499D01*
X90257483Y-128344091D01*
X90392331Y-128293796D01*
X90507546Y-128207546D01*
X90593796Y-128092331D01*
X90644091Y-127957483D01*
X90650500Y-127897873D01*
X90650499Y-126802128D01*
X90644091Y-126742517D01*
X90633817Y-126714972D01*
X90593797Y-126607671D01*
X90593793Y-126607664D01*
X90507547Y-126492455D01*
X90464907Y-126460534D01*
X90423036Y-126404600D01*
X90418053Y-126334908D01*
X90431777Y-126300890D01*
X90431760Y-126300882D01*
X90431913Y-126300551D01*
X90433683Y-126296167D01*
X90434814Y-126294334D01*
X90489999Y-126127797D01*
X90500500Y-126025009D01*
X90500499Y-125399992D01*
X90497005Y-125365792D01*
X90489999Y-125297203D01*
X90489998Y-125297200D01*
X90470808Y-125239288D01*
X90434814Y-125130666D01*
X90342712Y-124981344D01*
X90249049Y-124887681D01*
X90215564Y-124826358D01*
X90220548Y-124756666D01*
X90249049Y-124712319D01*
X90258613Y-124702755D01*
X90342712Y-124618656D01*
X90386970Y-124546902D01*
X90438917Y-124500179D01*
X90492508Y-124488000D01*
X91358299Y-124488000D01*
X91425338Y-124507685D01*
X91471093Y-124560489D01*
X91478074Y-124579907D01*
X91510990Y-124702755D01*
X91510995Y-124702769D01*
X91604203Y-124902654D01*
X91604207Y-124902662D01*
X91730712Y-125083330D01*
X91886669Y-125239287D01*
X92067337Y-125365792D01*
X92067339Y-125365793D01*
X92067342Y-125365795D01*
X92140659Y-125399983D01*
X92267230Y-125459004D01*
X92267232Y-125459004D01*
X92267237Y-125459007D01*
X92480280Y-125516092D01*
X92637222Y-125529822D01*
X92699998Y-125535315D01*
X92700000Y-125535315D01*
X92700002Y-125535315D01*
X92754930Y-125530509D01*
X92919720Y-125516092D01*
X93132763Y-125459007D01*
X93332658Y-125365795D01*
X93513329Y-125239288D01*
X93669288Y-125083329D01*
X93795795Y-124902658D01*
X93889007Y-124702763D01*
X93946092Y-124489720D01*
X93965315Y-124270000D01*
X93946092Y-124050280D01*
X93889007Y-123837237D01*
X93795795Y-123637343D01*
X93669288Y-123456671D01*
X93669286Y-123456668D01*
X93513330Y-123300712D01*
X93332662Y-123174207D01*
X93332654Y-123174203D01*
X93199486Y-123112106D01*
X93147046Y-123065934D01*
X93127894Y-122998740D01*
X93148110Y-122931859D01*
X93199486Y-122887342D01*
X93332402Y-122825362D01*
X93332410Y-122825358D01*
X93396751Y-122780305D01*
X93396751Y-122780304D01*
X92794464Y-122178016D01*
X92876473Y-122156042D01*
X92980727Y-122095851D01*
X93065851Y-122010727D01*
X93126042Y-121906473D01*
X93148016Y-121824463D01*
X93750304Y-122426751D01*
X93750305Y-122426751D01*
X93795358Y-122362410D01*
X93795362Y-122362402D01*
X93888532Y-122162598D01*
X93888536Y-122162587D01*
X93945597Y-121949634D01*
X93945598Y-121949626D01*
X93964813Y-121730001D01*
X93964813Y-121729998D01*
X93945598Y-121510373D01*
X93945597Y-121510366D01*
X93888533Y-121297404D01*
X93795360Y-121097595D01*
X93795359Y-121097593D01*
X93750304Y-121033248D01*
X93750304Y-121033247D01*
X93148016Y-121635535D01*
X93126042Y-121553527D01*
X93065851Y-121449273D01*
X92980727Y-121364149D01*
X92876473Y-121303958D01*
X92794463Y-121281983D01*
X93396751Y-120679694D01*
X93392868Y-120635307D01*
X93406635Y-120566807D01*
X93455250Y-120516624D01*
X93516396Y-120500500D01*
X101074854Y-120500500D01*
X101141893Y-120520185D01*
X101160040Y-120541127D01*
X101162361Y-120538807D01*
X101805537Y-121181983D01*
X101723527Y-121203958D01*
X101619273Y-121264149D01*
X101534149Y-121349273D01*
X101473958Y-121453527D01*
X101451983Y-121535537D01*
X100849694Y-120933248D01*
X100804640Y-120997594D01*
X100711466Y-121197404D01*
X100654402Y-121410366D01*
X100654401Y-121410373D01*
X100635187Y-121629998D01*
X100635187Y-121630001D01*
X100654401Y-121849626D01*
X100654402Y-121849634D01*
X100711463Y-122062587D01*
X100711466Y-122062593D01*
X100804638Y-122262402D01*
X100849694Y-122326750D01*
X101451982Y-121724462D01*
X101473958Y-121806473D01*
X101534149Y-121910727D01*
X101619273Y-121995851D01*
X101723527Y-122056042D01*
X101805536Y-122078016D01*
X101203247Y-122680304D01*
X101267593Y-122725360D01*
X101400514Y-122787342D01*
X101452953Y-122833514D01*
X101472105Y-122900708D01*
X101451889Y-122967589D01*
X101400514Y-123012106D01*
X101360286Y-123030865D01*
X101267343Y-123074205D01*
X101267340Y-123074206D01*
X101264820Y-123075382D01*
X101212415Y-123087000D01*
X99524730Y-123087000D01*
X99457691Y-123067315D01*
X99437049Y-123050681D01*
X99418657Y-123032289D01*
X99418656Y-123032288D01*
X99313762Y-122967589D01*
X99269336Y-122940187D01*
X99269331Y-122940185D01*
X99220210Y-122923908D01*
X99102797Y-122885001D01*
X99102795Y-122885000D01*
X99000010Y-122874500D01*
X97999998Y-122874500D01*
X97999980Y-122874501D01*
X97897203Y-122885000D01*
X97897200Y-122885001D01*
X97730668Y-122940185D01*
X97730663Y-122940187D01*
X97581342Y-123032289D01*
X97457289Y-123156342D01*
X97365187Y-123305663D01*
X97365185Y-123305668D01*
X97337349Y-123389670D01*
X97310001Y-123472203D01*
X97310001Y-123472204D01*
X97310000Y-123472204D01*
X97299500Y-123574983D01*
X97299500Y-124200001D01*
X97299501Y-124200019D01*
X97310000Y-124302796D01*
X97310001Y-124302799D01*
X97365185Y-124469331D01*
X97365187Y-124469336D01*
X97384211Y-124500179D01*
X97447480Y-124602755D01*
X97457289Y-124618657D01*
X97550951Y-124712319D01*
X97584436Y-124773642D01*
X97579452Y-124843334D01*
X97550951Y-124887681D01*
X97457289Y-124981342D01*
X97365187Y-125130663D01*
X97365186Y-125130666D01*
X97310001Y-125297203D01*
X97310001Y-125297204D01*
X97310000Y-125297204D01*
X97299500Y-125399983D01*
X97299500Y-126025001D01*
X97299501Y-126025019D01*
X97310000Y-126127796D01*
X97310001Y-126127799D01*
X97337593Y-126211065D01*
X97365186Y-126294334D01*
X97366321Y-126296175D01*
X97366714Y-126297610D01*
X97368238Y-126300878D01*
X97367679Y-126301138D01*
X97384760Y-126363566D01*
X97363836Y-126430229D01*
X97335093Y-126460534D01*
X97292452Y-126492455D01*
X97287681Y-126497227D01*
X97226358Y-126530712D01*
X97156666Y-126525728D01*
X97112319Y-126497227D01*
X97107544Y-126492452D01*
X96992335Y-126406206D01*
X96992328Y-126406202D01*
X96857482Y-126355908D01*
X96857483Y-126355908D01*
X96797883Y-126349501D01*
X96797881Y-126349500D01*
X96797873Y-126349500D01*
X96797864Y-126349500D01*
X95002129Y-126349500D01*
X95002123Y-126349501D01*
X94942516Y-126355908D01*
X94807671Y-126406202D01*
X94807664Y-126406206D01*
X94692455Y-126492452D01*
X94692452Y-126492455D01*
X94606206Y-126607664D01*
X94606202Y-126607671D01*
X94555908Y-126742517D01*
X94549501Y-126802116D01*
X94549501Y-126802123D01*
X94549500Y-126802135D01*
X94549500Y-127897870D01*
X94549501Y-127897876D01*
X94555908Y-127957483D01*
X94606202Y-128092328D01*
X94606206Y-128092335D01*
X94692452Y-128207544D01*
X94692455Y-128207547D01*
X94807664Y-128293793D01*
X94807671Y-128293797D01*
X94942517Y-128344091D01*
X94942516Y-128344091D01*
X94949444Y-128344835D01*
X95002127Y-128350500D01*
X96797872Y-128350499D01*
X96857483Y-128344091D01*
X96992331Y-128293796D01*
X97107546Y-128207546D01*
X97107548Y-128207542D01*
X97112319Y-128202773D01*
X97173642Y-128169288D01*
X97243334Y-128174272D01*
X97287681Y-128202773D01*
X97292455Y-128207547D01*
X97407664Y-128293793D01*
X97407671Y-128293797D01*
X97542517Y-128344091D01*
X97542516Y-128344091D01*
X97549444Y-128344835D01*
X97602127Y-128350500D01*
X99397872Y-128350499D01*
X99457483Y-128344091D01*
X99592331Y-128293796D01*
X99707546Y-128207546D01*
X99793796Y-128092331D01*
X99844091Y-127957483D01*
X99850500Y-127897873D01*
X99850499Y-126802128D01*
X99844091Y-126742517D01*
X99833817Y-126714972D01*
X99793797Y-126607671D01*
X99793793Y-126607664D01*
X99707547Y-126492455D01*
X99664907Y-126460534D01*
X99623036Y-126404600D01*
X99618053Y-126334908D01*
X99631777Y-126300890D01*
X99631760Y-126300882D01*
X99631913Y-126300551D01*
X99633683Y-126296167D01*
X99634814Y-126294334D01*
X99689999Y-126127797D01*
X99700500Y-126025009D01*
X99700499Y-125399992D01*
X99697005Y-125365792D01*
X99689999Y-125297203D01*
X99689998Y-125297200D01*
X99670808Y-125239288D01*
X99634814Y-125130666D01*
X99542712Y-124981344D01*
X99449049Y-124887681D01*
X99415564Y-124826358D01*
X99420548Y-124756666D01*
X99449049Y-124712319D01*
X99458613Y-124702755D01*
X99542712Y-124618656D01*
X99586970Y-124546902D01*
X99638917Y-124500179D01*
X99692508Y-124488000D01*
X100585093Y-124488000D01*
X100652132Y-124507685D01*
X100697887Y-124560489D01*
X100704867Y-124579905D01*
X100710988Y-124602749D01*
X100710995Y-124602769D01*
X100804203Y-124802654D01*
X100804207Y-124802662D01*
X100930712Y-124983330D01*
X101086669Y-125139287D01*
X101267337Y-125265792D01*
X101267339Y-125265793D01*
X101267342Y-125265795D01*
X101387603Y-125321873D01*
X101467230Y-125359004D01*
X101467232Y-125359004D01*
X101467237Y-125359007D01*
X101680280Y-125416092D01*
X101837222Y-125429822D01*
X101899998Y-125435315D01*
X101900000Y-125435315D01*
X101900002Y-125435315D01*
X101954930Y-125430509D01*
X102119720Y-125416092D01*
X102332763Y-125359007D01*
X102532658Y-125265795D01*
X102713329Y-125139288D01*
X102869288Y-124983329D01*
X102995795Y-124802658D01*
X103089007Y-124602763D01*
X103146092Y-124389720D01*
X103165315Y-124170000D01*
X103146092Y-123950280D01*
X103089007Y-123737237D01*
X102995795Y-123537343D01*
X102869288Y-123356671D01*
X102869286Y-123356668D01*
X102713330Y-123200712D01*
X102532662Y-123074207D01*
X102532654Y-123074203D01*
X102399486Y-123012106D01*
X102347046Y-122965934D01*
X102327894Y-122898740D01*
X102348110Y-122831859D01*
X102399486Y-122787342D01*
X102532402Y-122725362D01*
X102532410Y-122725358D01*
X102596751Y-122680305D01*
X102596751Y-122680304D01*
X101994464Y-122078016D01*
X102076473Y-122056042D01*
X102180727Y-121995851D01*
X102265851Y-121910727D01*
X102326042Y-121806473D01*
X102348016Y-121724463D01*
X102950304Y-122326751D01*
X102950305Y-122326751D01*
X102995358Y-122262410D01*
X102995362Y-122262402D01*
X103088532Y-122062598D01*
X103088536Y-122062587D01*
X103145597Y-121849634D01*
X103145598Y-121849626D01*
X103164813Y-121630001D01*
X103164813Y-121629998D01*
X103145598Y-121410373D01*
X103145597Y-121410366D01*
X103088533Y-121197404D01*
X102995360Y-120997595D01*
X102995359Y-120997593D01*
X102950304Y-120933248D01*
X102950304Y-120933247D01*
X102348016Y-121535535D01*
X102326042Y-121453527D01*
X102265851Y-121349273D01*
X102180727Y-121264149D01*
X102076473Y-121203958D01*
X101994463Y-121181983D01*
X102637638Y-120538808D01*
X102640111Y-120541281D01*
X102664000Y-120516624D01*
X102725145Y-120500500D01*
X110583604Y-120500500D01*
X110650643Y-120520185D01*
X110696398Y-120572989D01*
X110707132Y-120635309D01*
X110703248Y-120679694D01*
X111305537Y-121281983D01*
X111223527Y-121303958D01*
X111119273Y-121364149D01*
X111034149Y-121449273D01*
X110973958Y-121553527D01*
X110951983Y-121635537D01*
X110349694Y-121033248D01*
X110304640Y-121097594D01*
X110211466Y-121297404D01*
X110154402Y-121510366D01*
X110154401Y-121510373D01*
X110135187Y-121729998D01*
X110135187Y-121730001D01*
X110154401Y-121949626D01*
X110154402Y-121949634D01*
X110211463Y-122162587D01*
X110211466Y-122162593D01*
X110304638Y-122362402D01*
X110349694Y-122426750D01*
X110951982Y-121824462D01*
X110973958Y-121906473D01*
X111034149Y-122010727D01*
X111119273Y-122095851D01*
X111223527Y-122156042D01*
X111305536Y-122178016D01*
X110703247Y-122780304D01*
X110767594Y-122825360D01*
X110767596Y-122825361D01*
X110821759Y-122850618D01*
X110874199Y-122896790D01*
X110893351Y-122963983D01*
X110873135Y-123030865D01*
X110819970Y-123076199D01*
X110769355Y-123087000D01*
X109024730Y-123087000D01*
X108957691Y-123067315D01*
X108937049Y-123050681D01*
X108918657Y-123032289D01*
X108918656Y-123032288D01*
X108813762Y-122967589D01*
X108769336Y-122940187D01*
X108769331Y-122940185D01*
X108720210Y-122923908D01*
X108602797Y-122885001D01*
X108602795Y-122885000D01*
X108500010Y-122874500D01*
X107499998Y-122874500D01*
X107499980Y-122874501D01*
X107397203Y-122885000D01*
X107397200Y-122885001D01*
X107230668Y-122940185D01*
X107230663Y-122940187D01*
X107081342Y-123032289D01*
X106957289Y-123156342D01*
X106865187Y-123305663D01*
X106865185Y-123305668D01*
X106837349Y-123389670D01*
X106810001Y-123472203D01*
X106810001Y-123472204D01*
X106810000Y-123472204D01*
X106799500Y-123574983D01*
X106799500Y-124200001D01*
X106799501Y-124200019D01*
X106810000Y-124302796D01*
X106810001Y-124302799D01*
X106865185Y-124469331D01*
X106865187Y-124469336D01*
X106884211Y-124500179D01*
X106947480Y-124602755D01*
X106957289Y-124618657D01*
X107050951Y-124712319D01*
X107084436Y-124773642D01*
X107079452Y-124843334D01*
X107050951Y-124887681D01*
X106957289Y-124981342D01*
X106865187Y-125130663D01*
X106865186Y-125130666D01*
X106810001Y-125297203D01*
X106810001Y-125297204D01*
X106810000Y-125297204D01*
X106799500Y-125399983D01*
X106799500Y-126025001D01*
X106799501Y-126025019D01*
X106810000Y-126127796D01*
X106810001Y-126127799D01*
X106837593Y-126211065D01*
X106865186Y-126294334D01*
X106866321Y-126296175D01*
X106866714Y-126297610D01*
X106868238Y-126300878D01*
X106867679Y-126301138D01*
X106884760Y-126363566D01*
X106863836Y-126430229D01*
X106835093Y-126460534D01*
X106792452Y-126492455D01*
X106706206Y-126607664D01*
X106706202Y-126607671D01*
X106666182Y-126714972D01*
X106624311Y-126770906D01*
X106558846Y-126795323D01*
X106490573Y-126780471D01*
X106441168Y-126731066D01*
X106433818Y-126714972D01*
X106393797Y-126607671D01*
X106393793Y-126607664D01*
X106307547Y-126492455D01*
X106307544Y-126492452D01*
X106192335Y-126406206D01*
X106192328Y-126406202D01*
X106057482Y-126355908D01*
X106057483Y-126355908D01*
X105997883Y-126349501D01*
X105997881Y-126349500D01*
X105997873Y-126349500D01*
X105997864Y-126349500D01*
X104202129Y-126349500D01*
X104202123Y-126349501D01*
X104142516Y-126355908D01*
X104007671Y-126406202D01*
X104007664Y-126406206D01*
X103892455Y-126492452D01*
X103892452Y-126492455D01*
X103806206Y-126607664D01*
X103806202Y-126607671D01*
X103755908Y-126742517D01*
X103749501Y-126802116D01*
X103749501Y-126802123D01*
X103749500Y-126802135D01*
X103749500Y-127897870D01*
X103749501Y-127897876D01*
X103755908Y-127957483D01*
X103806202Y-128092328D01*
X103806206Y-128092335D01*
X103892452Y-128207544D01*
X103892455Y-128207547D01*
X104007664Y-128293793D01*
X104007671Y-128293797D01*
X104142517Y-128344091D01*
X104142516Y-128344091D01*
X104149444Y-128344835D01*
X104202127Y-128350500D01*
X105997872Y-128350499D01*
X106057483Y-128344091D01*
X106192331Y-128293796D01*
X106307546Y-128207546D01*
X106393796Y-128092331D01*
X106433818Y-127985027D01*
X106475689Y-127929093D01*
X106541153Y-127904676D01*
X106609426Y-127919527D01*
X106658832Y-127968932D01*
X106666182Y-127985027D01*
X106706202Y-128092328D01*
X106706206Y-128092335D01*
X106792452Y-128207544D01*
X106792455Y-128207547D01*
X106907664Y-128293793D01*
X106907671Y-128293797D01*
X107042517Y-128344091D01*
X107042516Y-128344091D01*
X107049444Y-128344835D01*
X107102127Y-128350500D01*
X108897872Y-128350499D01*
X108957483Y-128344091D01*
X109092331Y-128293796D01*
X109207546Y-128207546D01*
X109293796Y-128092331D01*
X109344091Y-127957483D01*
X109350500Y-127897873D01*
X109350499Y-126802128D01*
X109344091Y-126742517D01*
X109333817Y-126714972D01*
X109293797Y-126607671D01*
X109293793Y-126607664D01*
X109207547Y-126492455D01*
X109164907Y-126460534D01*
X109123036Y-126404600D01*
X109118053Y-126334908D01*
X109131777Y-126300890D01*
X109131760Y-126300882D01*
X109131913Y-126300551D01*
X109133683Y-126296167D01*
X109134814Y-126294334D01*
X109189999Y-126127797D01*
X109200500Y-126025009D01*
X109200499Y-125399992D01*
X109197005Y-125365792D01*
X109189999Y-125297203D01*
X109189998Y-125297200D01*
X109170808Y-125239288D01*
X109134814Y-125130666D01*
X109042712Y-124981344D01*
X108949049Y-124887681D01*
X108915564Y-124826358D01*
X108920548Y-124756666D01*
X108949049Y-124712319D01*
X108958613Y-124702755D01*
X109042712Y-124618656D01*
X109086970Y-124546902D01*
X109138917Y-124500179D01*
X109192508Y-124488000D01*
X110058299Y-124488000D01*
X110125338Y-124507685D01*
X110171093Y-124560489D01*
X110178074Y-124579907D01*
X110210990Y-124702755D01*
X110210995Y-124702769D01*
X110304203Y-124902654D01*
X110304207Y-124902662D01*
X110430712Y-125083330D01*
X110586669Y-125239287D01*
X110767337Y-125365792D01*
X110767339Y-125365793D01*
X110767342Y-125365795D01*
X110840659Y-125399983D01*
X110967230Y-125459004D01*
X110967232Y-125459004D01*
X110967237Y-125459007D01*
X111180280Y-125516092D01*
X111337222Y-125529822D01*
X111399998Y-125535315D01*
X111400000Y-125535315D01*
X111400002Y-125535315D01*
X111454930Y-125530509D01*
X111619720Y-125516092D01*
X111832763Y-125459007D01*
X112032658Y-125365795D01*
X112213329Y-125239288D01*
X112369288Y-125083329D01*
X112495795Y-124902658D01*
X112589007Y-124702763D01*
X112646092Y-124489720D01*
X112665315Y-124270000D01*
X112646092Y-124050280D01*
X112589007Y-123837237D01*
X112495795Y-123637343D01*
X112369288Y-123456671D01*
X112369286Y-123456668D01*
X112213330Y-123300712D01*
X112032662Y-123174207D01*
X112032654Y-123174203D01*
X111899486Y-123112106D01*
X111847046Y-123065934D01*
X111827894Y-122998740D01*
X111848110Y-122931859D01*
X111899486Y-122887342D01*
X112032402Y-122825362D01*
X112032410Y-122825358D01*
X112096751Y-122780305D01*
X112096751Y-122780304D01*
X111494464Y-122178016D01*
X111576473Y-122156042D01*
X111680727Y-122095851D01*
X111765851Y-122010727D01*
X111826042Y-121906473D01*
X111848016Y-121824463D01*
X112450304Y-122426751D01*
X112450305Y-122426751D01*
X112495358Y-122362410D01*
X112495362Y-122362402D01*
X112588532Y-122162598D01*
X112588536Y-122162587D01*
X112645597Y-121949634D01*
X112645598Y-121949626D01*
X112664813Y-121730001D01*
X112664813Y-121729998D01*
X112645598Y-121510373D01*
X112645597Y-121510366D01*
X112588533Y-121297404D01*
X112495360Y-121097595D01*
X112495359Y-121097593D01*
X112450304Y-121033248D01*
X112450304Y-121033247D01*
X111848016Y-121635535D01*
X111826042Y-121553527D01*
X111765851Y-121449273D01*
X111680727Y-121364149D01*
X111576473Y-121303958D01*
X111494463Y-121281983D01*
X112096751Y-120679694D01*
X112094789Y-120657269D01*
X112108555Y-120588769D01*
X112157170Y-120538586D01*
X112225199Y-120522652D01*
X112236495Y-120523801D01*
X112526703Y-120566849D01*
X112538617Y-120569219D01*
X112859951Y-120649709D01*
X112871588Y-120653240D01*
X112942806Y-120678722D01*
X113183467Y-120764832D01*
X113194688Y-120769479D01*
X113494163Y-120911120D01*
X113504871Y-120916844D01*
X113788988Y-121087137D01*
X113799106Y-121093897D01*
X114065170Y-121291224D01*
X114074576Y-121298944D01*
X114320013Y-121521395D01*
X114328604Y-121529986D01*
X114455331Y-121669808D01*
X114551055Y-121775423D01*
X114558775Y-121784829D01*
X114756102Y-122050893D01*
X114762862Y-122061011D01*
X114891776Y-122276092D01*
X114933148Y-122345116D01*
X114938883Y-122355844D01*
X114972419Y-122426751D01*
X115080514Y-122655297D01*
X115085170Y-122666540D01*
X115196759Y-122978411D01*
X115200292Y-122990055D01*
X115280777Y-123311369D01*
X115283151Y-123323305D01*
X115331754Y-123650962D01*
X115332947Y-123663071D01*
X115349351Y-123996966D01*
X115349500Y-124003051D01*
X115349500Y-126225500D01*
X115329815Y-126292539D01*
X115277011Y-126338294D01*
X115225500Y-126349500D01*
X113702129Y-126349500D01*
X113702123Y-126349501D01*
X113642516Y-126355908D01*
X113507671Y-126406202D01*
X113507664Y-126406206D01*
X113392455Y-126492452D01*
X113392452Y-126492455D01*
X113306206Y-126607664D01*
X113306202Y-126607671D01*
X113255908Y-126742517D01*
X113249501Y-126802116D01*
X113249501Y-126802123D01*
X113249500Y-126802135D01*
X113249500Y-127897870D01*
X113249501Y-127897876D01*
X113255908Y-127957483D01*
X113306202Y-128092328D01*
X113306206Y-128092335D01*
X113392452Y-128207544D01*
X113392455Y-128207547D01*
X113507664Y-128293793D01*
X113507671Y-128293797D01*
X113642517Y-128344091D01*
X113642516Y-128344091D01*
X113649444Y-128344835D01*
X113702127Y-128350500D01*
X115225500Y-128350499D01*
X115292539Y-128370184D01*
X115338294Y-128422987D01*
X115349500Y-128474499D01*
X115349500Y-129925500D01*
X115329815Y-129992539D01*
X115277011Y-130038294D01*
X115225500Y-130049500D01*
X113702129Y-130049500D01*
X113702123Y-130049501D01*
X113642516Y-130055908D01*
X113507671Y-130106202D01*
X113507664Y-130106206D01*
X113392455Y-130192452D01*
X113392452Y-130192455D01*
X113306206Y-130307664D01*
X113306202Y-130307671D01*
X113255908Y-130442517D01*
X113249501Y-130502116D01*
X113249501Y-130502123D01*
X113249500Y-130502135D01*
X113249500Y-131597870D01*
X113249501Y-131597876D01*
X113255908Y-131657483D01*
X113306202Y-131792328D01*
X113306206Y-131792335D01*
X113392452Y-131907544D01*
X113392455Y-131907547D01*
X113507664Y-131993793D01*
X113507671Y-131993797D01*
X113642517Y-132044091D01*
X113642516Y-132044091D01*
X113649444Y-132044835D01*
X113702127Y-132050500D01*
X115225500Y-132050499D01*
X115292539Y-132070184D01*
X115338294Y-132122987D01*
X115349500Y-132174499D01*
X115349500Y-140150661D01*
X115329815Y-140217700D01*
X115277011Y-140263455D01*
X115207853Y-140273399D01*
X115144297Y-140244374D01*
X115124493Y-140222588D01*
X114944523Y-139969856D01*
X114944512Y-139969843D01*
X114777013Y-139776538D01*
X113286900Y-141266651D01*
X113219924Y-141179365D01*
X113020635Y-140980076D01*
X112933348Y-140913098D01*
X114425070Y-139421376D01*
X114386323Y-139384431D01*
X114386304Y-139384414D01*
X114068031Y-139134122D01*
X113727406Y-138915217D01*
X113367511Y-138729679D01*
X113367507Y-138729677D01*
X112991616Y-138579193D01*
X112991604Y-138579189D01*
X112603117Y-138465119D01*
X112603100Y-138465115D01*
X112205539Y-138388491D01*
X112205527Y-138388489D01*
X111802446Y-138350000D01*
X111397554Y-138350000D01*
X110994472Y-138388489D01*
X110994460Y-138388491D01*
X110596899Y-138465115D01*
X110596882Y-138465119D01*
X110208395Y-138579189D01*
X110208383Y-138579193D01*
X109832485Y-138729680D01*
X109472594Y-138915217D01*
X109131968Y-139134122D01*
X108813685Y-139384421D01*
X108813673Y-139384432D01*
X108774929Y-139421375D01*
X108774929Y-139421376D01*
X110266651Y-140913098D01*
X110179365Y-140980076D01*
X109980076Y-141179365D01*
X109913098Y-141266651D01*
X108422986Y-139776539D01*
X108255485Y-139969845D01*
X108020627Y-140299656D01*
X108020621Y-140299664D01*
X107818168Y-140650324D01*
X107649966Y-141018634D01*
X107649956Y-141018659D01*
X107517534Y-141401266D01*
X107517531Y-141401277D01*
X107422071Y-141794768D01*
X107364447Y-142195549D01*
X107345181Y-142600000D01*
X107364447Y-143004450D01*
X107422071Y-143405231D01*
X107517531Y-143798722D01*
X107517534Y-143798733D01*
X107649956Y-144181340D01*
X107649966Y-144181365D01*
X107818168Y-144549675D01*
X108020621Y-144900335D01*
X108020627Y-144900343D01*
X108255485Y-145230154D01*
X108422985Y-145423460D01*
X109913098Y-143933347D01*
X109980076Y-144020635D01*
X110179365Y-144219924D01*
X110266650Y-144286900D01*
X108774928Y-145778622D01*
X108813676Y-145815568D01*
X108813695Y-145815585D01*
X109131970Y-146065878D01*
X109140225Y-146071183D01*
X109185981Y-146123986D01*
X109195926Y-146193144D01*
X109166903Y-146256701D01*
X109108125Y-146294476D01*
X109073188Y-146299500D01*
X92819973Y-146299500D01*
X92752934Y-146279815D01*
X92707179Y-146227011D01*
X92697235Y-146157853D01*
X92709488Y-146119205D01*
X92749873Y-146039945D01*
X92803402Y-145875201D01*
X92830500Y-145704111D01*
X92830500Y-144930889D01*
X92803402Y-144759799D01*
X92749873Y-144595055D01*
X92671232Y-144440712D01*
X92569414Y-144300572D01*
X92446928Y-144178086D01*
X92306788Y-144076268D01*
X92152445Y-143997627D01*
X91987701Y-143944098D01*
X91987699Y-143944097D01*
X91987698Y-143944097D01*
X91856271Y-143923281D01*
X91816611Y-143917000D01*
X91643389Y-143917000D01*
X91603728Y-143923281D01*
X91472302Y-143944097D01*
X91307552Y-143997628D01*
X91153211Y-144076268D01*
X91074496Y-144133459D01*
X91013072Y-144178086D01*
X91013070Y-144178088D01*
X91013069Y-144178088D01*
X90890588Y-144300569D01*
X90890588Y-144300570D01*
X90890586Y-144300572D01*
X90846859Y-144360756D01*
X90788768Y-144440711D01*
X90710128Y-144595052D01*
X90656597Y-144759802D01*
X90637547Y-144880080D01*
X90629500Y-144930889D01*
X90629500Y-145704111D01*
X90656598Y-145875201D01*
X90710127Y-146039945D01*
X90726043Y-146071183D01*
X90750512Y-146119205D01*
X90763408Y-146187874D01*
X90737132Y-146252615D01*
X90680025Y-146292872D01*
X90640027Y-146299500D01*
X84159973Y-146299500D01*
X84092934Y-146279815D01*
X84047179Y-146227011D01*
X84037235Y-146157853D01*
X84049488Y-146119205D01*
X84089873Y-146039945D01*
X84143402Y-145875201D01*
X84170500Y-145704111D01*
X84170500Y-144930889D01*
X84143402Y-144759799D01*
X84089873Y-144595055D01*
X84011232Y-144440712D01*
X83909414Y-144300572D01*
X83786928Y-144178086D01*
X83646788Y-144076268D01*
X83492445Y-143997627D01*
X83327701Y-143944098D01*
X83327699Y-143944097D01*
X83327698Y-143944097D01*
X83196271Y-143923281D01*
X83156611Y-143917000D01*
X82983389Y-143917000D01*
X82943728Y-143923281D01*
X82812302Y-143944097D01*
X82647552Y-143997628D01*
X82493211Y-144076268D01*
X82414496Y-144133459D01*
X82353072Y-144178086D01*
X82353070Y-144178088D01*
X82353069Y-144178088D01*
X82230588Y-144300569D01*
X82230588Y-144300570D01*
X82230586Y-144300572D01*
X82186859Y-144360756D01*
X82128768Y-144440711D01*
X82050128Y-144595052D01*
X81996597Y-144759802D01*
X81977547Y-144880080D01*
X81969500Y-144930889D01*
X81969500Y-145704111D01*
X81996598Y-145875201D01*
X82048575Y-146035170D01*
X82050129Y-146039950D01*
X82066007Y-146071113D01*
X82078903Y-146139782D01*
X82052626Y-146204522D01*
X81995520Y-146244779D01*
X81937327Y-146250065D01*
X81823304Y-146233151D01*
X81811369Y-146230777D01*
X81490055Y-146150292D01*
X81478411Y-146146759D01*
X81166540Y-146035170D01*
X81155301Y-146030515D01*
X80855844Y-145888883D01*
X80845121Y-145883150D01*
X80561011Y-145712862D01*
X80550893Y-145706102D01*
X80284829Y-145508775D01*
X80275423Y-145501055D01*
X80189810Y-145423460D01*
X80029986Y-145278604D01*
X80021395Y-145270013D01*
X79798944Y-145024576D01*
X79791224Y-145015170D01*
X79601830Y-144759802D01*
X79593895Y-144749103D01*
X79587137Y-144738988D01*
X79500867Y-144595055D01*
X79416844Y-144454871D01*
X79411120Y-144444163D01*
X79269479Y-144144688D01*
X79264829Y-144133459D01*
X79153240Y-143821588D01*
X79149707Y-143809944D01*
X79146896Y-143798722D01*
X79069219Y-143488617D01*
X79066848Y-143476694D01*
X79018245Y-143149037D01*
X79017052Y-143136927D01*
X79000649Y-142803032D01*
X79000500Y-142796948D01*
X79000500Y-136018427D01*
X85225000Y-136018427D01*
X85225000Y-136025000D01*
X85950000Y-136025000D01*
X86450000Y-136025000D01*
X87174999Y-136025000D01*
X87174999Y-136018427D01*
X87625000Y-136018427D01*
X87625000Y-136025000D01*
X88350000Y-136025000D01*
X88350000Y-135375000D01*
X88349999Y-135374999D01*
X88268417Y-135375000D01*
X88197897Y-135381408D01*
X88197892Y-135381409D01*
X88035603Y-135431981D01*
X87890122Y-135519927D01*
X87769927Y-135640122D01*
X87681980Y-135785604D01*
X87631409Y-135947893D01*
X87625000Y-136018427D01*
X87174999Y-136018427D01*
X87174999Y-136018417D01*
X87168591Y-135947897D01*
X87168590Y-135947892D01*
X87118018Y-135785603D01*
X87030072Y-135640122D01*
X86909877Y-135519927D01*
X86764395Y-135431980D01*
X86764396Y-135431980D01*
X86602105Y-135381409D01*
X86602106Y-135381409D01*
X86531572Y-135375000D01*
X86450000Y-135375000D01*
X86450000Y-136025000D01*
X85950000Y-136025000D01*
X85950000Y-135375000D01*
X85949999Y-135374999D01*
X85868417Y-135375000D01*
X85797897Y-135381408D01*
X85797892Y-135381409D01*
X85635603Y-135431981D01*
X85490122Y-135519927D01*
X85369927Y-135640122D01*
X85281980Y-135785604D01*
X85231409Y-135947893D01*
X85225000Y-136018427D01*
X79000500Y-136018427D01*
X79000500Y-132174499D01*
X79020185Y-132107460D01*
X79072989Y-132061705D01*
X79124495Y-132050499D01*
X80897872Y-132050499D01*
X80957483Y-132044091D01*
X81092331Y-131993796D01*
X81207546Y-131907546D01*
X81293796Y-131792331D01*
X81344091Y-131657483D01*
X81350500Y-131597873D01*
X81350499Y-130974499D01*
X81370183Y-130907461D01*
X81422987Y-130861706D01*
X81474499Y-130850500D01*
X85125500Y-130850500D01*
X85192539Y-130870185D01*
X85238294Y-130922989D01*
X85249500Y-130974500D01*
X85249500Y-131597870D01*
X85249501Y-131597876D01*
X85255908Y-131657483D01*
X85306202Y-131792328D01*
X85306206Y-131792335D01*
X85392452Y-131907544D01*
X85392455Y-131907547D01*
X85507664Y-131993793D01*
X85507671Y-131993797D01*
X85642517Y-132044091D01*
X85642516Y-132044091D01*
X85649444Y-132044835D01*
X85702127Y-132050500D01*
X87497872Y-132050499D01*
X87557483Y-132044091D01*
X87692331Y-131993796D01*
X87807546Y-131907546D01*
X87850734Y-131849854D01*
X87906667Y-131807984D01*
X87976359Y-131803000D01*
X88037682Y-131836485D01*
X88049263Y-131849850D01*
X88092454Y-131907546D01*
X88138643Y-131942123D01*
X88207664Y-131993793D01*
X88207671Y-131993797D01*
X88252618Y-132010561D01*
X88342517Y-132044091D01*
X88402127Y-132050500D01*
X88475500Y-132050499D01*
X88542538Y-132070183D01*
X88588294Y-132122986D01*
X88599500Y-132174499D01*
X88599500Y-134131006D01*
X88599500Y-134268994D01*
X88599500Y-134268996D01*
X88599499Y-134268996D01*
X88626418Y-134404322D01*
X88626421Y-134404332D01*
X88679222Y-134531807D01*
X88679225Y-134531811D01*
X88755886Y-134646543D01*
X88963182Y-134853838D01*
X88996666Y-134915159D01*
X88999500Y-134941518D01*
X88999500Y-135251000D01*
X88979815Y-135318039D01*
X88927011Y-135363794D01*
X88875500Y-135375000D01*
X88850000Y-135375000D01*
X88850000Y-136401000D01*
X88830315Y-136468039D01*
X88777511Y-136513794D01*
X88726000Y-136525000D01*
X87625001Y-136525000D01*
X87625001Y-136531582D01*
X87631408Y-136602102D01*
X87631409Y-136602107D01*
X87681981Y-136764396D01*
X87769927Y-136909877D01*
X87872015Y-137011965D01*
X87905500Y-137073288D01*
X87900516Y-137142980D01*
X87872015Y-137187327D01*
X87769531Y-137289810D01*
X87769530Y-137289811D01*
X87681522Y-137435393D01*
X87630913Y-137597807D01*
X87624500Y-137668386D01*
X87624500Y-138181613D01*
X87630913Y-138252192D01*
X87630913Y-138252194D01*
X87630914Y-138252196D01*
X87681522Y-138414606D01*
X87769528Y-138560185D01*
X87889815Y-138680472D01*
X87889817Y-138680473D01*
X87889819Y-138680475D01*
X87946469Y-138714721D01*
X87993657Y-138766248D01*
X88002095Y-138788744D01*
X88040423Y-138931785D01*
X88069358Y-138981900D01*
X88069359Y-138981904D01*
X88069360Y-138981904D01*
X88103479Y-139041001D01*
X88119950Y-139108901D01*
X88097098Y-139174928D01*
X88042176Y-139218118D01*
X87996094Y-139227000D01*
X87952132Y-139227000D01*
X87952119Y-139227001D01*
X87913253Y-139231179D01*
X87886748Y-139231179D01*
X87847874Y-139227000D01*
X87452130Y-139227000D01*
X87452119Y-139227001D01*
X87413253Y-139231179D01*
X87386748Y-139231179D01*
X87347874Y-139227000D01*
X86952130Y-139227000D01*
X86952119Y-139227001D01*
X86913253Y-139231179D01*
X86886746Y-139231178D01*
X86861244Y-139228436D01*
X86796693Y-139201698D01*
X86756845Y-139144305D01*
X86750500Y-139105147D01*
X86750500Y-138846941D01*
X86770185Y-138779902D01*
X86810348Y-138740825D01*
X86910185Y-138680472D01*
X87030472Y-138560185D01*
X87118478Y-138414606D01*
X87169086Y-138252196D01*
X87175500Y-138181616D01*
X87175500Y-137668384D01*
X87169086Y-137597804D01*
X87118478Y-137435394D01*
X87030472Y-137289815D01*
X87030470Y-137289813D01*
X87030469Y-137289811D01*
X86927984Y-137187326D01*
X86894499Y-137126003D01*
X86899483Y-137056311D01*
X86927985Y-137011963D01*
X87030071Y-136909878D01*
X87030072Y-136909877D01*
X87118019Y-136764395D01*
X87168590Y-136602106D01*
X87175000Y-136531572D01*
X87175000Y-136525000D01*
X85225001Y-136525000D01*
X85225001Y-136531582D01*
X85231408Y-136602102D01*
X85231409Y-136602107D01*
X85281981Y-136764396D01*
X85369927Y-136909877D01*
X85472015Y-137011965D01*
X85505500Y-137073288D01*
X85500516Y-137142980D01*
X85472015Y-137187327D01*
X85369531Y-137289810D01*
X85369530Y-137289811D01*
X85281522Y-137435393D01*
X85230913Y-137597807D01*
X85224500Y-137668386D01*
X85224500Y-138181613D01*
X85230913Y-138252192D01*
X85281522Y-138414606D01*
X85369530Y-138560188D01*
X85489810Y-138680468D01*
X85495715Y-138685094D01*
X85494911Y-138686119D01*
X85536833Y-138731890D01*
X85549500Y-138786488D01*
X85549500Y-139105148D01*
X85529815Y-139172187D01*
X85477011Y-139217942D01*
X85438753Y-139228438D01*
X85413255Y-139231179D01*
X85386748Y-139231179D01*
X85347875Y-139227000D01*
X85347873Y-139227000D01*
X85047880Y-139227000D01*
X85047873Y-139227000D01*
X84652132Y-139227000D01*
X84652117Y-139227001D01*
X84610904Y-139231431D01*
X84584402Y-139231431D01*
X84547834Y-139227500D01*
X84500000Y-139227500D01*
X84484388Y-139243111D01*
X84480315Y-139256985D01*
X84450313Y-139289210D01*
X84342454Y-139369954D01*
X84342453Y-139369955D01*
X84342452Y-139369956D01*
X84256206Y-139485164D01*
X84256202Y-139485171D01*
X84205908Y-139620016D01*
X84199999Y-139674973D01*
X84200000Y-139674974D01*
X84199500Y-139679622D01*
X84199500Y-140038207D01*
X84179815Y-140105246D01*
X84127011Y-140151001D01*
X84057853Y-140160945D01*
X83994297Y-140131920D01*
X83975182Y-140111093D01*
X83923682Y-140040210D01*
X83900202Y-139974404D01*
X83900000Y-139967324D01*
X83900000Y-139227500D01*
X83852155Y-139227500D01*
X83792627Y-139233901D01*
X83792620Y-139233903D01*
X83657913Y-139284145D01*
X83657906Y-139284149D01*
X83542812Y-139370309D01*
X83542809Y-139370312D01*
X83456649Y-139485406D01*
X83456646Y-139485412D01*
X83421958Y-139578414D01*
X83380086Y-139634347D01*
X83314621Y-139658764D01*
X83286378Y-139657553D01*
X83229838Y-139648598D01*
X83156611Y-139637000D01*
X82983389Y-139637000D01*
X82943728Y-139643281D01*
X82812302Y-139664097D01*
X82647552Y-139717628D01*
X82493211Y-139796268D01*
X82413256Y-139854359D01*
X82353072Y-139898086D01*
X82353070Y-139898088D01*
X82353069Y-139898088D01*
X82230588Y-140020569D01*
X82230588Y-140020570D01*
X82230586Y-140020572D01*
X82217772Y-140038209D01*
X82128768Y-140160711D01*
X82050128Y-140315052D01*
X81996597Y-140479802D01*
X81995491Y-140486787D01*
X81969500Y-140650889D01*
X81969500Y-141624111D01*
X81996598Y-141795201D01*
X82050127Y-141959945D01*
X82128768Y-142114288D01*
X82230586Y-142254428D01*
X82353072Y-142376914D01*
X82493212Y-142478732D01*
X82647555Y-142557373D01*
X82812299Y-142610902D01*
X82983389Y-142638000D01*
X82983390Y-142638000D01*
X83156610Y-142638000D01*
X83156611Y-142638000D01*
X83327701Y-142610902D01*
X83492445Y-142557373D01*
X83646788Y-142478732D01*
X83786928Y-142376914D01*
X83812632Y-142351209D01*
X83873954Y-142317724D01*
X83943646Y-142322707D01*
X83969200Y-142335785D01*
X83997290Y-142354554D01*
X84001285Y-142357339D01*
X84059836Y-142399879D01*
X84059839Y-142399881D01*
X84066013Y-142402630D01*
X84084465Y-142412803D01*
X84085295Y-142413358D01*
X84085297Y-142413359D01*
X84085299Y-142413360D01*
X84128473Y-142431243D01*
X84152903Y-142441362D01*
X84155809Y-142442609D01*
X84227966Y-142474736D01*
X84228130Y-142474770D01*
X84238657Y-142478043D01*
X84238796Y-142477586D01*
X84244615Y-142479350D01*
X84244626Y-142479355D01*
X84276701Y-142485734D01*
X84322832Y-142494911D01*
X84324363Y-142495225D01*
X84407981Y-142513000D01*
X84407982Y-142513000D01*
X84592017Y-142513000D01*
X84592019Y-142513000D01*
X84675656Y-142495221D01*
X84677164Y-142494911D01*
X84755374Y-142479355D01*
X84755379Y-142479353D01*
X84761203Y-142477587D01*
X84761342Y-142478047D01*
X84771875Y-142474769D01*
X84772034Y-142474736D01*
X84844137Y-142442633D01*
X84847085Y-142441366D01*
X84914705Y-142413358D01*
X84915514Y-142412817D01*
X84933981Y-142402631D01*
X84940161Y-142399881D01*
X84998741Y-142357318D01*
X85002683Y-142354571D01*
X85058099Y-142317545D01*
X85063448Y-142312194D01*
X85078246Y-142299555D01*
X85089050Y-142291707D01*
X85133122Y-142242757D01*
X85137554Y-142238088D01*
X85180045Y-142195599D01*
X85187911Y-142183825D01*
X85198852Y-142169757D01*
X85212195Y-142154940D01*
X85241859Y-142103558D01*
X85246106Y-142096729D01*
X85275858Y-142052205D01*
X85283793Y-142033048D01*
X85290965Y-142018505D01*
X85307427Y-141989995D01*
X85357996Y-141941782D01*
X85414811Y-141928000D01*
X89385190Y-141928000D01*
X89452229Y-141947685D01*
X89492579Y-141990003D01*
X89495785Y-141995556D01*
X89495786Y-141995559D01*
X89507625Y-142016065D01*
X89509036Y-142018509D01*
X89516206Y-142033048D01*
X89524142Y-142052205D01*
X89524143Y-142052208D01*
X89553878Y-142096709D01*
X89558163Y-142103599D01*
X89587803Y-142154938D01*
X89587808Y-142154945D01*
X89601140Y-142169751D01*
X89612091Y-142183830D01*
X89619956Y-142195600D01*
X89619958Y-142195603D01*
X89662426Y-142238070D01*
X89666897Y-142242781D01*
X89710947Y-142291705D01*
X89721752Y-142299555D01*
X89736547Y-142312191D01*
X89741901Y-142317545D01*
X89797290Y-142354554D01*
X89801285Y-142357339D01*
X89859836Y-142399879D01*
X89859839Y-142399881D01*
X89866013Y-142402630D01*
X89884465Y-142412803D01*
X89885295Y-142413358D01*
X89885297Y-142413359D01*
X89885299Y-142413360D01*
X89928473Y-142431243D01*
X89952903Y-142441362D01*
X89955809Y-142442609D01*
X90027966Y-142474736D01*
X90028130Y-142474770D01*
X90038657Y-142478043D01*
X90038796Y-142477586D01*
X90044615Y-142479350D01*
X90044626Y-142479355D01*
X90076701Y-142485734D01*
X90122832Y-142494911D01*
X90124363Y-142495225D01*
X90207981Y-142513000D01*
X90207982Y-142513000D01*
X90392017Y-142513000D01*
X90392019Y-142513000D01*
X90475656Y-142495221D01*
X90477164Y-142494911D01*
X90555374Y-142479355D01*
X90555379Y-142479353D01*
X90561203Y-142477587D01*
X90561342Y-142478047D01*
X90571875Y-142474769D01*
X90572034Y-142474736D01*
X90644137Y-142442633D01*
X90647085Y-142441366D01*
X90714705Y-142413358D01*
X90715514Y-142412817D01*
X90733981Y-142402631D01*
X90740161Y-142399881D01*
X90798741Y-142357318D01*
X90802683Y-142354571D01*
X90830799Y-142335785D01*
X90897476Y-142314910D01*
X90964856Y-142333396D01*
X90987367Y-142351209D01*
X91013072Y-142376914D01*
X91153212Y-142478732D01*
X91307555Y-142557373D01*
X91472299Y-142610902D01*
X91643389Y-142638000D01*
X91643390Y-142638000D01*
X91816610Y-142638000D01*
X91816611Y-142638000D01*
X91987701Y-142610902D01*
X92152445Y-142557373D01*
X92306788Y-142478732D01*
X92446928Y-142376914D01*
X92569414Y-142254428D01*
X92671232Y-142114288D01*
X92749873Y-141959945D01*
X92803402Y-141795201D01*
X92830500Y-141624111D01*
X92830500Y-140650889D01*
X92803402Y-140479799D01*
X92749873Y-140315055D01*
X92671232Y-140160712D01*
X92569414Y-140020572D01*
X92446928Y-139898086D01*
X92306788Y-139796268D01*
X92152445Y-139717627D01*
X91987701Y-139664098D01*
X91987699Y-139664097D01*
X91987698Y-139664097D01*
X91856271Y-139643281D01*
X91816611Y-139637000D01*
X91643389Y-139637000D01*
X91591364Y-139645239D01*
X91513621Y-139657553D01*
X91444327Y-139648598D01*
X91390875Y-139603602D01*
X91378041Y-139578413D01*
X91343354Y-139485413D01*
X91343350Y-139485406D01*
X91257190Y-139370312D01*
X91257187Y-139370309D01*
X91142093Y-139284149D01*
X91142086Y-139284145D01*
X91007379Y-139233903D01*
X91007372Y-139233901D01*
X90947844Y-139227500D01*
X90900000Y-139227500D01*
X90900000Y-139967324D01*
X90880315Y-140034363D01*
X90876318Y-140040209D01*
X90824817Y-140111094D01*
X90769487Y-140153760D01*
X90699874Y-140159739D01*
X90638079Y-140127133D01*
X90603722Y-140066295D01*
X90600499Y-140038209D01*
X90600499Y-139679629D01*
X90600498Y-139679612D01*
X90600001Y-139674989D01*
X90600000Y-139674986D01*
X90594091Y-139620016D01*
X90543797Y-139485171D01*
X90543793Y-139485164D01*
X90457548Y-139369957D01*
X90457547Y-139369956D01*
X90457546Y-139369954D01*
X90457542Y-139369951D01*
X90457540Y-139369949D01*
X90450187Y-139364444D01*
X90408317Y-139308509D01*
X90400500Y-139265179D01*
X90400500Y-134531004D01*
X90373581Y-134395677D01*
X90373580Y-134395676D01*
X90373580Y-134395672D01*
X90373578Y-134395667D01*
X90320778Y-134268195D01*
X90320771Y-134268182D01*
X90244115Y-134153459D01*
X90221662Y-134131006D01*
X90146542Y-134055886D01*
X90036818Y-133946161D01*
X90003334Y-133884838D01*
X90000500Y-133858480D01*
X90000500Y-132174499D01*
X90020185Y-132107460D01*
X90072989Y-132061705D01*
X90124500Y-132050499D01*
X90197871Y-132050499D01*
X90197872Y-132050499D01*
X90257483Y-132044091D01*
X90392331Y-131993796D01*
X90507546Y-131907546D01*
X90593796Y-131792331D01*
X90644091Y-131657483D01*
X90650500Y-131597873D01*
X90650499Y-130974499D01*
X90670183Y-130907461D01*
X90722987Y-130861706D01*
X90774499Y-130850500D01*
X94425500Y-130850500D01*
X94492539Y-130870185D01*
X94538294Y-130922989D01*
X94549500Y-130974500D01*
X94549500Y-131597870D01*
X94549501Y-131597876D01*
X94555908Y-131657483D01*
X94606202Y-131792328D01*
X94606206Y-131792335D01*
X94692452Y-131907544D01*
X94692455Y-131907547D01*
X94807664Y-131993793D01*
X94807671Y-131993797D01*
X94942517Y-132044091D01*
X94942516Y-132044091D01*
X94949444Y-132044835D01*
X95002127Y-132050500D01*
X96797872Y-132050499D01*
X96857483Y-132044091D01*
X96992331Y-131993796D01*
X97107546Y-131907546D01*
X97107548Y-131907542D01*
X97112319Y-131902773D01*
X97173642Y-131869288D01*
X97243334Y-131874272D01*
X97287681Y-131902773D01*
X97292455Y-131907547D01*
X97407664Y-131993793D01*
X97407671Y-131993797D01*
X97542517Y-132044091D01*
X97542516Y-132044091D01*
X97549444Y-132044835D01*
X97602127Y-132050500D01*
X99397872Y-132050499D01*
X99457483Y-132044091D01*
X99592331Y-131993796D01*
X99707546Y-131907546D01*
X99793796Y-131792331D01*
X99844091Y-131657483D01*
X99850500Y-131597873D01*
X99850499Y-130974499D01*
X99870183Y-130907461D01*
X99922987Y-130861706D01*
X99974499Y-130850500D01*
X103625500Y-130850500D01*
X103692539Y-130870185D01*
X103738294Y-130922989D01*
X103749500Y-130974500D01*
X103749500Y-131597870D01*
X103749501Y-131597876D01*
X103755908Y-131657483D01*
X103806202Y-131792328D01*
X103806206Y-131792335D01*
X103892452Y-131907544D01*
X103892455Y-131907547D01*
X104007664Y-131993793D01*
X104007671Y-131993797D01*
X104142517Y-132044091D01*
X104142516Y-132044091D01*
X104149444Y-132044835D01*
X104202127Y-132050500D01*
X105997872Y-132050499D01*
X106057483Y-132044091D01*
X106192331Y-131993796D01*
X106307546Y-131907546D01*
X106393796Y-131792331D01*
X106433818Y-131685027D01*
X106475689Y-131629093D01*
X106541153Y-131604676D01*
X106609426Y-131619527D01*
X106658832Y-131668932D01*
X106666182Y-131685027D01*
X106706202Y-131792328D01*
X106706206Y-131792335D01*
X106792452Y-131907544D01*
X106792455Y-131907547D01*
X106907664Y-131993793D01*
X106907671Y-131993797D01*
X107042517Y-132044091D01*
X107042516Y-132044091D01*
X107049444Y-132044835D01*
X107102127Y-132050500D01*
X108897872Y-132050499D01*
X108957483Y-132044091D01*
X109092331Y-131993796D01*
X109207546Y-131907546D01*
X109293796Y-131792331D01*
X109344091Y-131657483D01*
X109350500Y-131597873D01*
X109350499Y-130502128D01*
X109344091Y-130442517D01*
X109293796Y-130307669D01*
X109293795Y-130307668D01*
X109293793Y-130307664D01*
X109207547Y-130192455D01*
X109207544Y-130192452D01*
X109092335Y-130106206D01*
X109092328Y-130106202D01*
X108957482Y-130055908D01*
X108957483Y-130055908D01*
X108897883Y-130049501D01*
X108897881Y-130049500D01*
X108897873Y-130049500D01*
X108897865Y-130049500D01*
X108041519Y-130049500D01*
X107974480Y-130029815D01*
X107953838Y-130013181D01*
X107546546Y-129605888D01*
X107546545Y-129605887D01*
X107431807Y-129529222D01*
X107304332Y-129476421D01*
X107304322Y-129476418D01*
X107168996Y-129449500D01*
X107168994Y-129449500D01*
X107168993Y-129449500D01*
X99331007Y-129449500D01*
X99331003Y-129449500D01*
X99222590Y-129471065D01*
X99222589Y-129471065D01*
X99195681Y-129476418D01*
X99195671Y-129476420D01*
X99068190Y-129529224D01*
X98953454Y-129605887D01*
X98587680Y-129971661D01*
X98526357Y-130005146D01*
X98456665Y-130000162D01*
X98412318Y-129971661D01*
X98046546Y-129605888D01*
X98046545Y-129605887D01*
X97931807Y-129529222D01*
X97804332Y-129476421D01*
X97804322Y-129476418D01*
X97668996Y-129449500D01*
X97668994Y-129449500D01*
X97668993Y-129449500D01*
X90131007Y-129449500D01*
X90131003Y-129449500D01*
X90022590Y-129471065D01*
X90022589Y-129471065D01*
X89995681Y-129476418D01*
X89995671Y-129476420D01*
X89868190Y-129529224D01*
X89753454Y-129605887D01*
X89387680Y-129971661D01*
X89326357Y-130005146D01*
X89256665Y-130000162D01*
X89212318Y-129971661D01*
X88846546Y-129605888D01*
X88846545Y-129605887D01*
X88731807Y-129529222D01*
X88604332Y-129476421D01*
X88604322Y-129476418D01*
X88468996Y-129449500D01*
X88468994Y-129449500D01*
X88468993Y-129449500D01*
X80831007Y-129449500D01*
X80831003Y-129449500D01*
X80722590Y-129471065D01*
X80722589Y-129471065D01*
X80695681Y-129476418D01*
X80695671Y-129476420D01*
X80568190Y-129529224D01*
X80453454Y-129605887D01*
X80046160Y-130013181D01*
X79984837Y-130046666D01*
X79958479Y-130049500D01*
X79124500Y-130049500D01*
X79057461Y-130029815D01*
X79011706Y-129977011D01*
X79000500Y-129925500D01*
X79000500Y-128474499D01*
X79020185Y-128407460D01*
X79072989Y-128361705D01*
X79124495Y-128350499D01*
X80897872Y-128350499D01*
X80957483Y-128344091D01*
X81092331Y-128293796D01*
X81207546Y-128207546D01*
X81293796Y-128092331D01*
X81344091Y-127957483D01*
X81350500Y-127897873D01*
X81350499Y-126802128D01*
X81344091Y-126742517D01*
X81333817Y-126714972D01*
X81293797Y-126607671D01*
X81293793Y-126607664D01*
X81207547Y-126492455D01*
X81164907Y-126460534D01*
X81123036Y-126404600D01*
X81118053Y-126334908D01*
X81131777Y-126300890D01*
X81131760Y-126300882D01*
X81131913Y-126300551D01*
X81133683Y-126296167D01*
X81134814Y-126294334D01*
X81189999Y-126127797D01*
X81200500Y-126025009D01*
X81200499Y-125399992D01*
X81197005Y-125365792D01*
X81189999Y-125297203D01*
X81189998Y-125297200D01*
X81170808Y-125239288D01*
X81134814Y-125130666D01*
X81042712Y-124981344D01*
X80949049Y-124887681D01*
X80915564Y-124826358D01*
X80920548Y-124756666D01*
X80949049Y-124712319D01*
X80958613Y-124702755D01*
X81042712Y-124618656D01*
X81086970Y-124546902D01*
X81138917Y-124500179D01*
X81192508Y-124488000D01*
X82058299Y-124488000D01*
X82125338Y-124507685D01*
X82171093Y-124560489D01*
X82178074Y-124579907D01*
X82210990Y-124702755D01*
X82210995Y-124702769D01*
X82304203Y-124902654D01*
X82304207Y-124902662D01*
X82430712Y-125083330D01*
X82586669Y-125239287D01*
X82767337Y-125365792D01*
X82767339Y-125365793D01*
X82767342Y-125365795D01*
X82840659Y-125399983D01*
X82967230Y-125459004D01*
X82967232Y-125459004D01*
X82967237Y-125459007D01*
X83180280Y-125516092D01*
X83337222Y-125529822D01*
X83399998Y-125535315D01*
X83400000Y-125535315D01*
X83400002Y-125535315D01*
X83454930Y-125530509D01*
X83619720Y-125516092D01*
X83832763Y-125459007D01*
X84032658Y-125365795D01*
X84213329Y-125239288D01*
X84369288Y-125083329D01*
X84495795Y-124902658D01*
X84589007Y-124702763D01*
X84646092Y-124489720D01*
X84665315Y-124270000D01*
X84646092Y-124050280D01*
X84589007Y-123837237D01*
X84495795Y-123637343D01*
X84369288Y-123456671D01*
X84369286Y-123456668D01*
X84213330Y-123300712D01*
X84032662Y-123174207D01*
X84032654Y-123174203D01*
X83899486Y-123112106D01*
X83847046Y-123065934D01*
X83827894Y-122998740D01*
X83848110Y-122931859D01*
X83899486Y-122887342D01*
X84032402Y-122825362D01*
X84032410Y-122825358D01*
X84096751Y-122780305D01*
X84096751Y-122780304D01*
X83494464Y-122178016D01*
X83576473Y-122156042D01*
X83680727Y-122095851D01*
X83765851Y-122010727D01*
X83826042Y-121906473D01*
X83848016Y-121824463D01*
X84450304Y-122426751D01*
X84450305Y-122426751D01*
X84495358Y-122362410D01*
X84495362Y-122362402D01*
X84588532Y-122162598D01*
X84588536Y-122162587D01*
X84645597Y-121949634D01*
X84645598Y-121949626D01*
X84664813Y-121730001D01*
X84664813Y-121729998D01*
X84645598Y-121510373D01*
X84645597Y-121510366D01*
X84588533Y-121297404D01*
X84495360Y-121097595D01*
X84495359Y-121097593D01*
X84450304Y-121033248D01*
X84450304Y-121033247D01*
X83848016Y-121635535D01*
X83826042Y-121553527D01*
X83765851Y-121449273D01*
X83680727Y-121364149D01*
X83576473Y-121303958D01*
X83494463Y-121281983D01*
X84096751Y-120679694D01*
X84092868Y-120635307D01*
X84106635Y-120566807D01*
X84155250Y-120516624D01*
X84216396Y-120500500D01*
X91883604Y-120500500D01*
X91950643Y-120520185D01*
G37*
%TD.AperFunction*%
%TA.AperFunction,Conductor*%
G36*
X82650643Y-120520185D02*
G01*
X82696398Y-120572989D01*
X82707132Y-120635309D01*
X82703248Y-120679694D01*
X83305537Y-121281983D01*
X83223527Y-121303958D01*
X83119273Y-121364149D01*
X83034149Y-121449273D01*
X82973958Y-121553527D01*
X82951983Y-121635537D01*
X82349694Y-121033248D01*
X82304640Y-121097594D01*
X82211466Y-121297404D01*
X82154402Y-121510366D01*
X82154401Y-121510373D01*
X82135187Y-121729998D01*
X82135187Y-121730001D01*
X82154401Y-121949626D01*
X82154402Y-121949634D01*
X82211463Y-122162587D01*
X82211466Y-122162593D01*
X82304638Y-122362402D01*
X82349694Y-122426750D01*
X82951982Y-121824462D01*
X82973958Y-121906473D01*
X83034149Y-122010727D01*
X83119273Y-122095851D01*
X83223527Y-122156042D01*
X83305536Y-122178016D01*
X82703247Y-122780304D01*
X82767594Y-122825360D01*
X82767596Y-122825361D01*
X82821759Y-122850618D01*
X82874199Y-122896790D01*
X82893351Y-122963983D01*
X82873135Y-123030865D01*
X82819970Y-123076199D01*
X82769355Y-123087000D01*
X81024730Y-123087000D01*
X80957691Y-123067315D01*
X80937049Y-123050681D01*
X80918657Y-123032289D01*
X80918656Y-123032288D01*
X80813762Y-122967589D01*
X80769336Y-122940187D01*
X80769331Y-122940185D01*
X80720210Y-122923908D01*
X80602797Y-122885001D01*
X80602795Y-122885000D01*
X80500010Y-122874500D01*
X79499998Y-122874500D01*
X79499980Y-122874501D01*
X79397203Y-122885000D01*
X79390578Y-122886419D01*
X79390162Y-122884477D01*
X79329946Y-122886542D01*
X79269908Y-122850805D01*
X79238722Y-122788281D01*
X79244030Y-122724669D01*
X79264841Y-122666507D01*
X79269476Y-122655318D01*
X79411124Y-122355828D01*
X79416840Y-122345136D01*
X79587145Y-122060998D01*
X79593888Y-122050905D01*
X79791232Y-121784818D01*
X79798935Y-121775433D01*
X80021405Y-121529975D01*
X80029975Y-121521405D01*
X80275433Y-121298935D01*
X80284818Y-121291232D01*
X80550905Y-121093888D01*
X80560998Y-121087145D01*
X80845136Y-120916840D01*
X80855828Y-120911124D01*
X81155318Y-120769476D01*
X81166525Y-120764835D01*
X81478412Y-120653239D01*
X81490043Y-120649710D01*
X81811385Y-120569218D01*
X81823296Y-120566849D01*
X82150962Y-120518244D01*
X82163068Y-120517052D01*
X82496967Y-120500648D01*
X82503051Y-120500500D01*
X82565892Y-120500500D01*
X82583604Y-120500500D01*
X82650643Y-120520185D01*
G37*
%TD.AperFunction*%
%TD*%
M02*
