M48
; DRILL file {KiCad 8.0.5} date 2024-10-13T15:58:06-0400
; FORMAT={-:-/ absolute / inch / decimal}
; #@! TF.CreationDate,2024-10-13T15:58:06-04:00
; #@! TF.GenerationSoftware,Kicad,Pcbnew,8.0.5
; #@! TF.FileFunction,Plated,1,2,PTH
FMAT,2
INCH
; #@! TA.AperFunction,Plated,PTH,ViaDrill
T1C0.0118
; #@! TA.AperFunction,Plated,PTH,ComponentDrill
T2C0.0295
; #@! TA.AperFunction,Plated,PTH,ComponentDrill
T3C0.0315
; #@! TA.AperFunction,Plated,PTH,ComponentDrill
T4C0.0360
%
G90
G05
T1
X3.5039Y-5.5709
X3.6417Y-5.4429
X3.7795Y-5.5709
T2
X3.5276Y-5.6983
X3.7559Y-5.6983
T4
X3.2185Y-4.6047
X3.2185Y-4.7047
X3.5039Y-4.6055
X3.5039Y-4.7055
X3.7795Y-4.6055
X3.7795Y-4.7055
X4.065Y-4.6055
X4.065Y-4.7055
T3
G00X3.4713Y-5.6629
M15
G01X3.4713Y-5.6944
M16
G05
G00X3.4713Y-5.8314
M15
G01X3.4713Y-5.855
M16
G05
G00X3.8122Y-5.6629
M15
G01X3.8122Y-5.6944
M16
G05
G00X3.8122Y-5.8314
M15
G01X3.8122Y-5.855
M16
G05
M30
