%TF.GenerationSoftware,KiCad,Pcbnew,8.0.5*%
%TF.CreationDate,2024-10-18T17:30:21-04:00*%
%TF.ProjectId,STM32F4Example,53544d33-3246-4344-9578-616d706c652e,rev?*%
%TF.SameCoordinates,Original*%
%TF.FileFunction,Copper,L2,Bot*%
%TF.FilePolarity,Positive*%
%FSLAX46Y46*%
G04 Gerber Fmt 4.6, Leading zero omitted, Abs format (unit mm)*
G04 Created by KiCad (PCBNEW 8.0.5) date 2024-10-18 17:30:21*
%MOMM*%
%LPD*%
G01*
G04 APERTURE LIST*
%TA.AperFunction,ComponentPad*%
%ADD10R,1.700000X1.700000*%
%TD*%
%TA.AperFunction,ComponentPad*%
%ADD11O,1.700000X1.700000*%
%TD*%
%TA.AperFunction,ComponentPad*%
%ADD12C,0.650000*%
%TD*%
%TA.AperFunction,ComponentPad*%
%ADD13O,1.000000X2.100000*%
%TD*%
%TA.AperFunction,ComponentPad*%
%ADD14O,1.000000X1.800000*%
%TD*%
%TA.AperFunction,ViaPad*%
%ADD15C,0.600000*%
%TD*%
%TA.AperFunction,Conductor*%
%ADD16C,0.200000*%
%TD*%
G04 APERTURE END LIST*
D10*
%TO.P,J3,1,Pin_1*%
%TO.N,+3V3*%
X95089776Y-114480951D03*
D11*
%TO.P,J3,2,Pin_2*%
%TO.N,Net-(J3-Pin_2)*%
X95089776Y-111940951D03*
%TO.P,J3,3,Pin_3*%
%TO.N,Net-(J3-Pin_3)*%
X95089776Y-109400951D03*
%TO.P,J3,4,Pin_4*%
%TO.N,Net-(J3-Pin_4)*%
X95089776Y-106860951D03*
%TO.P,J3,5,Pin_5*%
%TO.N,GND*%
X95089776Y-104320951D03*
%TO.P,J3,6,Pin_6*%
X95089776Y-101780951D03*
%TO.P,J3,7,Pin_7*%
%TO.N,Net-(J3-Pin_7)*%
X95089776Y-99240951D03*
%TO.P,J3,8,Pin_8*%
%TO.N,Net-(J3-Pin_8)*%
X95089776Y-96700951D03*
%TO.P,J3,9,Pin_9*%
%TO.N,Net-(J3-Pin_9)*%
X95089776Y-94160951D03*
%TO.P,J3,10,Pin_10*%
%TO.N,Net-(J3-Pin_10)*%
X95089776Y-91620951D03*
%TO.P,J3,11,Pin_11*%
%TO.N,Net-(J3-Pin_11)*%
X95089776Y-89080951D03*
%TO.P,J3,12,Pin_12*%
%TO.N,Net-(J3-Pin_12)*%
X95089776Y-86540951D03*
%TO.P,J3,13,Pin_13*%
%TO.N,Net-(J3-Pin_13)*%
X95089776Y-84000951D03*
%TO.P,J3,14,Pin_14*%
%TO.N,Net-(J3-Pin_14)*%
X95089776Y-81460951D03*
%TO.P,J3,15,Pin_15*%
%TO.N,Net-(J3-Pin_15)*%
X95089776Y-78920951D03*
%TO.P,J3,16,Pin_16*%
%TO.N,Net-(J3-Pin_16)*%
X95089776Y-76380951D03*
%TO.P,J3,17,Pin_17*%
%TO.N,+3V3*%
X95089776Y-73840951D03*
%TD*%
D10*
%TO.P,J1,1,Pin_1*%
%TO.N,+3V3*%
X110300000Y-98975000D03*
D11*
%TO.P,J1,2,Pin_2*%
%TO.N,Net-(J1-Pin_2)*%
X110300000Y-96435000D03*
%TD*%
D12*
%TO.P,U3,*%
%TO.N,*%
X103700000Y-111552500D03*
X109490000Y-111552500D03*
D13*
%TO.P,U3,1,SHELL*%
%TO.N,unconnected-(U3-SHELL-Pad1)*%
X102280000Y-111052500D03*
%TO.P,U3,2,SHELL*%
%TO.N,unconnected-(U3-SHELL-Pad2)*%
X110920000Y-111052500D03*
D14*
%TO.P,U3,3,SHELL*%
%TO.N,unconnected-(U3-SHELL-Pad3)*%
X110920000Y-115232500D03*
%TO.P,U3,4,SHELL*%
%TO.N,unconnected-(U3-SHELL-Pad4)*%
X102280000Y-115232500D03*
%TD*%
D10*
%TO.P,J2,1,Pin_1*%
%TO.N,+5V*%
X117929776Y-114470951D03*
D11*
%TO.P,J2,2,Pin_2*%
%TO.N,Net-(J2-Pin_2)*%
X117929776Y-111930951D03*
%TO.P,J2,3,Pin_3*%
%TO.N,Net-(J2-Pin_3)*%
X117929776Y-109390951D03*
%TO.P,J2,4,Pin_4*%
%TO.N,Net-(J2-Pin_4)*%
X117929776Y-106850951D03*
%TO.P,J2,5,Pin_5*%
%TO.N,Net-(J2-Pin_5)*%
X117929776Y-104310951D03*
%TO.P,J2,6,Pin_6*%
%TO.N,Net-(J2-Pin_6)*%
X117929776Y-101770951D03*
%TO.P,J2,7,Pin_7*%
%TO.N,Net-(J2-Pin_7)*%
X117929776Y-99230951D03*
%TO.P,J2,8,Pin_8*%
%TO.N,Net-(J2-Pin_8)*%
X117929776Y-96690951D03*
%TO.P,J2,9,Pin_9*%
%TO.N,Net-(J2-Pin_9)*%
X117929776Y-94150951D03*
%TO.P,J2,10,Pin_10*%
%TO.N,Net-(J2-Pin_10)*%
X117929776Y-91610951D03*
%TO.P,J2,11,Pin_11*%
%TO.N,Net-(J2-Pin_11)*%
X117929776Y-89070951D03*
%TO.P,J2,12,Pin_12*%
%TO.N,Net-(J2-Pin_12)*%
X117929776Y-86530951D03*
%TO.P,J2,13,Pin_13*%
%TO.N,Net-(J2-Pin_13)*%
X117929776Y-83990951D03*
%TO.P,J2,14,Pin_14*%
%TO.N,Net-(J2-Pin_14)*%
X117929776Y-81450951D03*
%TO.P,J2,15,Pin_15*%
%TO.N,Net-(J2-Pin_15)*%
X117929776Y-78910951D03*
%TO.P,J2,16,Pin_16*%
%TO.N,Net-(J2-Pin_16)*%
X117929776Y-76370951D03*
%TO.P,J2,17,Pin_17*%
%TO.N,+5V*%
X117929776Y-73830951D03*
%TD*%
D15*
%TO.N,GND*%
X111700000Y-78800000D03*
X101300000Y-109200000D03*
X114800000Y-85100000D03*
X113200000Y-114300000D03*
X111900000Y-75400000D03*
X114900000Y-74300000D03*
X100000000Y-88700000D03*
X103400000Y-92000000D03*
X108684441Y-80570048D03*
X112361947Y-84300000D03*
X111600000Y-73900000D03*
X103800000Y-92900000D03*
X100400000Y-107000000D03*
X112200000Y-110300000D03*
X105800000Y-75000000D03*
X104800000Y-74300000D03*
X99200000Y-76200000D03*
X113800000Y-88000000D03*
X99200000Y-111600000D03*
X103800000Y-101600000D03*
X113200000Y-111700000D03*
X105900000Y-99100000D03*
X99900000Y-83100000D03*
X99200000Y-114500000D03*
X99000000Y-88400000D03*
%TO.N,+3V3*%
X109700000Y-102800000D03*
X100500000Y-105600000D03*
%TO.N,Net-(J1-Pin_2)*%
X112956497Y-90543503D03*
%TO.N,Net-(J2-Pin_2)*%
X103276210Y-81824739D03*
%TO.N,Net-(J2-Pin_14)*%
X100100000Y-86200000D03*
%TO.N,Net-(J2-Pin_13)*%
X100700000Y-85600000D03*
%TO.N,Net-(J2-Pin_12)*%
X100016735Y-81801357D03*
%TO.N,Net-(J2-Pin_4)*%
X101676547Y-81801358D03*
%TO.N,Net-(J2-Pin_15)*%
X99527180Y-86758464D03*
%TO.N,Net-(J2-Pin_16)*%
X100600000Y-87400000D03*
%TO.N,Net-(J2-Pin_3)*%
X102476549Y-81801357D03*
%TO.N,Net-(J3-Pin_4)*%
X98700000Y-99600000D03*
%TO.N,/USBD-*%
X101325000Y-94600000D03*
X105900000Y-108900000D03*
%TO.N,/USBD+*%
X106800000Y-108600000D03*
X102125003Y-94600000D03*
%TD*%
D16*
%TO.N,GND*%
X112361947Y-84247554D02*
X112361947Y-84300000D01*
X101700000Y-85500000D02*
X101700000Y-87148529D01*
X113161947Y-85100000D02*
X114800000Y-85100000D01*
X112361947Y-84300000D02*
X113161947Y-85100000D01*
X101700000Y-87148529D02*
X100148529Y-88700000D01*
X100148529Y-88700000D02*
X100000000Y-88700000D01*
X99900000Y-83100000D02*
X99900000Y-83700000D01*
X99900000Y-83700000D02*
X101700000Y-85500000D01*
%TO.N,Net-(J1-Pin_2)*%
X112956497Y-90543503D02*
X112956497Y-93778503D01*
X112956497Y-93778503D02*
X110300000Y-96435000D01*
%TO.N,Net-(J2-Pin_2)*%
X115600000Y-103847521D02*
X117453430Y-105700951D01*
X106324742Y-81824742D02*
X115600000Y-91100000D01*
X103276210Y-81824739D02*
X103276213Y-81824742D01*
X103276213Y-81824742D02*
X106324742Y-81824742D01*
X118406122Y-105700951D02*
X119079776Y-106374605D01*
X115600000Y-91100000D02*
X115600000Y-103847521D01*
X119079776Y-110780951D02*
X117929776Y-111930951D01*
X117453430Y-105700951D02*
X118406122Y-105700951D01*
X119079776Y-106374605D02*
X119079776Y-110780951D01*
%TO.N,Net-(J2-Pin_14)*%
X98400000Y-81734314D02*
X101834314Y-78300000D01*
X101834314Y-78300000D02*
X108665686Y-78300000D01*
X111816636Y-81450951D02*
X117929776Y-81450951D01*
X108900000Y-78534315D02*
X111816636Y-81450951D01*
X100100000Y-86200000D02*
X98400000Y-84500000D01*
X98400000Y-84500000D02*
X98400000Y-81734314D01*
X108665686Y-78300000D02*
X108900000Y-78534315D01*
%TO.N,Net-(J2-Pin_13)*%
X100700000Y-85600000D02*
X98800000Y-83700000D01*
X108500000Y-78700000D02*
X113790951Y-83990951D01*
X113790951Y-83990951D02*
X117929776Y-83990951D01*
X98800000Y-83700000D02*
X98800000Y-81900000D01*
X98800000Y-81900000D02*
X102000000Y-78700000D01*
X102000000Y-78700000D02*
X108500000Y-78700000D01*
%TO.N,Net-(J2-Pin_12)*%
X101218092Y-80600000D02*
X107600000Y-80600000D01*
X100016735Y-81801357D02*
X101218092Y-80600000D01*
X113530951Y-86530951D02*
X117929776Y-86530951D01*
X107600000Y-80600000D02*
X113530951Y-86530951D01*
%TO.N,Net-(J2-Pin_4)*%
X105200000Y-87800000D02*
X105200000Y-96175000D01*
X101676547Y-84276547D02*
X105200000Y-87800000D01*
X101676547Y-81801358D02*
X101676547Y-84276547D01*
X115875951Y-106850951D02*
X117929776Y-106850951D01*
X105200000Y-96175000D02*
X115875951Y-106850951D01*
%TO.N,Net-(J2-Pin_15)*%
X99527180Y-86758464D02*
X98000000Y-85231284D01*
X98000000Y-81568628D02*
X101668628Y-77900000D01*
X98000000Y-85231284D02*
X98000000Y-81568628D01*
X116918825Y-77900000D02*
X117929776Y-78910951D01*
X101668628Y-77900000D02*
X116918825Y-77900000D01*
%TO.N,Net-(J2-Pin_16)*%
X97600000Y-81402942D02*
X102631991Y-76370951D01*
X97600000Y-85679813D02*
X97600000Y-81402942D01*
X100600000Y-87400000D02*
X99320187Y-87400000D01*
X102631991Y-76370951D02*
X117929776Y-76370951D01*
X99320187Y-87400000D02*
X97600000Y-85679813D01*
%TO.N,Net-(J2-Pin_3)*%
X102476549Y-81752829D02*
X101923720Y-81200000D01*
X104800000Y-87965686D02*
X104800000Y-96340686D01*
X104800000Y-96340686D02*
X117850265Y-109390951D01*
X101923720Y-81200000D02*
X101216735Y-81200000D01*
X100800000Y-81616735D02*
X100800000Y-83965686D01*
X101216735Y-81200000D02*
X100800000Y-81616735D01*
X117850265Y-109390951D02*
X117929776Y-109390951D01*
X102476549Y-81801357D02*
X102476549Y-81752829D01*
X100800000Y-83965686D02*
X104800000Y-87965686D01*
%TO.N,Net-(J3-Pin_4)*%
X98300000Y-100000000D02*
X98300000Y-103700000D01*
X98300000Y-103700000D02*
X95139049Y-106860951D01*
X98700000Y-99600000D02*
X98300000Y-100000000D01*
X95139049Y-106860951D02*
X95089776Y-106860951D01*
%TO.N,/USBD-*%
X101325000Y-94600000D02*
X101325000Y-97443199D01*
X105747887Y-108113573D02*
X105800000Y-108165686D01*
X101325000Y-97443199D02*
X105747887Y-101866086D01*
X105800000Y-108800000D02*
X105900000Y-108900000D01*
X105747887Y-101866086D02*
X105747887Y-108113573D01*
X105800000Y-108165686D02*
X105800000Y-108800000D01*
%TO.N,/USBD+*%
X106147887Y-101629688D02*
X106147887Y-107947887D01*
X102125003Y-97606804D02*
X106147887Y-101629688D01*
X106147887Y-107947887D02*
X106800000Y-108600000D01*
X102125003Y-94600000D02*
X102125003Y-97606804D01*
%TD*%
%TA.AperFunction,Conductor*%
%TO.N,GND*%
G36*
X117548728Y-72320185D02*
G01*
X117594483Y-72372989D01*
X117604427Y-72442147D01*
X117575402Y-72505703D01*
X117516624Y-72543477D01*
X117513782Y-72544275D01*
X117466120Y-72557045D01*
X117466111Y-72557049D01*
X117251947Y-72656915D01*
X117251945Y-72656916D01*
X117058373Y-72792456D01*
X116891281Y-72959548D01*
X116755741Y-73153120D01*
X116755740Y-73153122D01*
X116655874Y-73367286D01*
X116655870Y-73367295D01*
X116594714Y-73595537D01*
X116594712Y-73595547D01*
X116574117Y-73830950D01*
X116574117Y-73830951D01*
X116594712Y-74066354D01*
X116594714Y-74066364D01*
X116655870Y-74294606D01*
X116655872Y-74294610D01*
X116655873Y-74294614D01*
X116660537Y-74304615D01*
X116755741Y-74508781D01*
X116755743Y-74508785D01*
X116891277Y-74702346D01*
X116891282Y-74702353D01*
X117058373Y-74869444D01*
X117058379Y-74869449D01*
X117243934Y-74999376D01*
X117287559Y-75053953D01*
X117294753Y-75123451D01*
X117263230Y-75185806D01*
X117243934Y-75202526D01*
X117058373Y-75332456D01*
X116891282Y-75499547D01*
X116755741Y-75693121D01*
X116755738Y-75693126D01*
X116753065Y-75698860D01*
X116706891Y-75751297D01*
X116640685Y-75770451D01*
X102718660Y-75770451D01*
X102718644Y-75770450D01*
X102711048Y-75770450D01*
X102552934Y-75770450D01*
X102445578Y-75799216D01*
X102400201Y-75811375D01*
X102400200Y-75811376D01*
X102350087Y-75840310D01*
X102350086Y-75840311D01*
X102306680Y-75865371D01*
X102263276Y-75890430D01*
X102263273Y-75890432D01*
X97119481Y-81034224D01*
X97119480Y-81034226D01*
X97082112Y-81098950D01*
X97040423Y-81171157D01*
X96999499Y-81323885D01*
X96999499Y-81323887D01*
X96999499Y-81491988D01*
X96999500Y-81492001D01*
X96999500Y-85593143D01*
X96999499Y-85593161D01*
X96999499Y-85758867D01*
X96999498Y-85758867D01*
X97040423Y-85911598D01*
X97069358Y-85961713D01*
X97069359Y-85961717D01*
X97069360Y-85961717D01*
X97119479Y-86048527D01*
X97119481Y-86048530D01*
X97238349Y-86167398D01*
X97238354Y-86167402D01*
X98951471Y-87880520D01*
X99088402Y-87959577D01*
X99241130Y-88000501D01*
X99241133Y-88000501D01*
X99406841Y-88000501D01*
X99406857Y-88000500D01*
X100017588Y-88000500D01*
X100084627Y-88020185D01*
X100094903Y-88027555D01*
X100097736Y-88029814D01*
X100097738Y-88029816D01*
X100250478Y-88125789D01*
X100399980Y-88178102D01*
X100420745Y-88185368D01*
X100420750Y-88185369D01*
X100599996Y-88205565D01*
X100600000Y-88205565D01*
X100600004Y-88205565D01*
X100779249Y-88185369D01*
X100779252Y-88185368D01*
X100779255Y-88185368D01*
X100949522Y-88125789D01*
X101102262Y-88029816D01*
X101229816Y-87902262D01*
X101325789Y-87749522D01*
X101385368Y-87579255D01*
X101386473Y-87569449D01*
X101405565Y-87400003D01*
X101405565Y-87399996D01*
X101385369Y-87220750D01*
X101385368Y-87220745D01*
X101354123Y-87131451D01*
X101325789Y-87050478D01*
X101229816Y-86897738D01*
X101102262Y-86770184D01*
X100949524Y-86674212D01*
X100949523Y-86674211D01*
X100917455Y-86662990D01*
X100860679Y-86622267D01*
X100834933Y-86557314D01*
X100841368Y-86504997D01*
X100864061Y-86440145D01*
X100904782Y-86383371D01*
X100940146Y-86364060D01*
X101049522Y-86325789D01*
X101202262Y-86229816D01*
X101329816Y-86102262D01*
X101425789Y-85949522D01*
X101485368Y-85779255D01*
X101485368Y-85779253D01*
X101486917Y-85772468D01*
X101489553Y-85773069D01*
X101511850Y-85719998D01*
X101569443Y-85680440D01*
X101639280Y-85678299D01*
X101695689Y-85710610D01*
X104163181Y-88178102D01*
X104196666Y-88239425D01*
X104199500Y-88265783D01*
X104199500Y-96254016D01*
X104199499Y-96254034D01*
X104199499Y-96419740D01*
X104199498Y-96419740D01*
X104221601Y-96502229D01*
X104240423Y-96572471D01*
X104260370Y-96607020D01*
X104269358Y-96622586D01*
X104269359Y-96622590D01*
X104269360Y-96622590D01*
X104319479Y-96709400D01*
X104319481Y-96709403D01*
X104438349Y-96828271D01*
X104438354Y-96828275D01*
X109458218Y-101848140D01*
X109491702Y-101909461D01*
X109486718Y-101979153D01*
X109444846Y-102035086D01*
X109411492Y-102052860D01*
X109350479Y-102074209D01*
X109197737Y-102170184D01*
X109070184Y-102297737D01*
X108974211Y-102450476D01*
X108914631Y-102620745D01*
X108914630Y-102620750D01*
X108894435Y-102799996D01*
X108894435Y-102800003D01*
X108914630Y-102979249D01*
X108914631Y-102979254D01*
X108974211Y-103149523D01*
X109051453Y-103272452D01*
X109070184Y-103302262D01*
X109197738Y-103429816D01*
X109350478Y-103525789D01*
X109487634Y-103573782D01*
X109520745Y-103585368D01*
X109520750Y-103585369D01*
X109699996Y-103605565D01*
X109700000Y-103605565D01*
X109700004Y-103605565D01*
X109879249Y-103585369D01*
X109879252Y-103585368D01*
X109879255Y-103585368D01*
X110049522Y-103525789D01*
X110202262Y-103429816D01*
X110329816Y-103302262D01*
X110425789Y-103149522D01*
X110447138Y-103088509D01*
X110487860Y-103031734D01*
X110552812Y-103005986D01*
X110621374Y-103019442D01*
X110651861Y-103041783D01*
X116580206Y-108970128D01*
X116613691Y-109031451D01*
X116612301Y-109089900D01*
X116594712Y-109155546D01*
X116574117Y-109390950D01*
X116574117Y-109390951D01*
X116594712Y-109626354D01*
X116594714Y-109626364D01*
X116655870Y-109854606D01*
X116655872Y-109854610D01*
X116655873Y-109854614D01*
X116736998Y-110028586D01*
X116755741Y-110068781D01*
X116755743Y-110068785D01*
X116891277Y-110262346D01*
X116891282Y-110262353D01*
X117058373Y-110429444D01*
X117058379Y-110429449D01*
X117243934Y-110559376D01*
X117287559Y-110613953D01*
X117294753Y-110683451D01*
X117263230Y-110745806D01*
X117243934Y-110762526D01*
X117058373Y-110892456D01*
X116891281Y-111059548D01*
X116755741Y-111253120D01*
X116755740Y-111253122D01*
X116655874Y-111467286D01*
X116655870Y-111467295D01*
X116594714Y-111695537D01*
X116594712Y-111695547D01*
X116574117Y-111930950D01*
X116574117Y-111930951D01*
X116594712Y-112166354D01*
X116594714Y-112166364D01*
X116655870Y-112394606D01*
X116655872Y-112394610D01*
X116655873Y-112394614D01*
X116660537Y-112404615D01*
X116755741Y-112608781D01*
X116755743Y-112608785D01*
X116864057Y-112763472D01*
X116891277Y-112802347D01*
X116891282Y-112802353D01*
X117013206Y-112924277D01*
X117046691Y-112985600D01*
X117041707Y-113055292D01*
X116999835Y-113111225D01*
X116968859Y-113128140D01*
X116837445Y-113177154D01*
X116837440Y-113177157D01*
X116722231Y-113263403D01*
X116722228Y-113263406D01*
X116635982Y-113378615D01*
X116635978Y-113378622D01*
X116585684Y-113513468D01*
X116579277Y-113573067D01*
X116579276Y-113573086D01*
X116579276Y-115368821D01*
X116579277Y-115368827D01*
X116585684Y-115428434D01*
X116635978Y-115563279D01*
X116635982Y-115563286D01*
X116722228Y-115678495D01*
X116722231Y-115678498D01*
X116837445Y-115764748D01*
X116840963Y-115766669D01*
X116843796Y-115769503D01*
X116844545Y-115770063D01*
X116844464Y-115770170D01*
X116890368Y-115816075D01*
X116905219Y-115884348D01*
X116880801Y-115949812D01*
X116824867Y-115991682D01*
X116781535Y-115999500D01*
X112018195Y-115999500D01*
X111951156Y-115979815D01*
X111905401Y-115927011D01*
X111895457Y-115857853D01*
X111896578Y-115851309D01*
X111920499Y-115731045D01*
X111920500Y-115731043D01*
X111920500Y-114733956D01*
X111882052Y-114540670D01*
X111882051Y-114540669D01*
X111882051Y-114540665D01*
X111882049Y-114540660D01*
X111806635Y-114358592D01*
X111806628Y-114358579D01*
X111697139Y-114194718D01*
X111697136Y-114194714D01*
X111557785Y-114055363D01*
X111557781Y-114055360D01*
X111393920Y-113945871D01*
X111393907Y-113945864D01*
X111211839Y-113870450D01*
X111211829Y-113870447D01*
X111018543Y-113832000D01*
X111018541Y-113832000D01*
X110821459Y-113832000D01*
X110821457Y-113832000D01*
X110628170Y-113870447D01*
X110628160Y-113870450D01*
X110446092Y-113945864D01*
X110446079Y-113945871D01*
X110282218Y-114055360D01*
X110282214Y-114055363D01*
X110142863Y-114194714D01*
X110142860Y-114194718D01*
X110033371Y-114358579D01*
X110033364Y-114358592D01*
X109957950Y-114540660D01*
X109957947Y-114540670D01*
X109919500Y-114733956D01*
X109919500Y-115731045D01*
X109943422Y-115851309D01*
X109937195Y-115920900D01*
X109894332Y-115976078D01*
X109828442Y-115999322D01*
X109821805Y-115999500D01*
X103378195Y-115999500D01*
X103311156Y-115979815D01*
X103265401Y-115927011D01*
X103255457Y-115857853D01*
X103256578Y-115851309D01*
X103280499Y-115731045D01*
X103280500Y-115731043D01*
X103280500Y-114733956D01*
X103242052Y-114540670D01*
X103242051Y-114540669D01*
X103242051Y-114540665D01*
X103242049Y-114540660D01*
X103166635Y-114358592D01*
X103166628Y-114358579D01*
X103057139Y-114194718D01*
X103057136Y-114194714D01*
X102917785Y-114055363D01*
X102917781Y-114055360D01*
X102753920Y-113945871D01*
X102753907Y-113945864D01*
X102571839Y-113870450D01*
X102571829Y-113870447D01*
X102378543Y-113832000D01*
X102378541Y-113832000D01*
X102181459Y-113832000D01*
X102181457Y-113832000D01*
X101988170Y-113870447D01*
X101988160Y-113870450D01*
X101806092Y-113945864D01*
X101806079Y-113945871D01*
X101642218Y-114055360D01*
X101642214Y-114055363D01*
X101502863Y-114194714D01*
X101502860Y-114194718D01*
X101393371Y-114358579D01*
X101393364Y-114358592D01*
X101317950Y-114540660D01*
X101317947Y-114540670D01*
X101279500Y-114733956D01*
X101279500Y-115731045D01*
X101303422Y-115851309D01*
X101297195Y-115920900D01*
X101254332Y-115976078D01*
X101188442Y-115999322D01*
X101181805Y-115999500D01*
X96254433Y-115999500D01*
X96187394Y-115979815D01*
X96141639Y-115927011D01*
X96131695Y-115857853D01*
X96160720Y-115794297D01*
X96180122Y-115776234D01*
X96259117Y-115717096D01*
X96297322Y-115688497D01*
X96383572Y-115573282D01*
X96433867Y-115438434D01*
X96440276Y-115378824D01*
X96440275Y-113583079D01*
X96433867Y-113523468D01*
X96433866Y-113523466D01*
X96383573Y-113388622D01*
X96383569Y-113388615D01*
X96297323Y-113273406D01*
X96297320Y-113273403D01*
X96182111Y-113187157D01*
X96182104Y-113187153D01*
X96050693Y-113138140D01*
X95994759Y-113096269D01*
X95970342Y-113030804D01*
X95985194Y-112962531D01*
X96006339Y-112934283D01*
X96128271Y-112812352D01*
X96263811Y-112618781D01*
X96363679Y-112404614D01*
X96424839Y-112176359D01*
X96445435Y-111940951D01*
X96424839Y-111705543D01*
X96423633Y-111701043D01*
X101279499Y-111701043D01*
X101317947Y-111894329D01*
X101317950Y-111894339D01*
X101393364Y-112076407D01*
X101393371Y-112076420D01*
X101502860Y-112240281D01*
X101502863Y-112240285D01*
X101642214Y-112379636D01*
X101642218Y-112379639D01*
X101806079Y-112489128D01*
X101806092Y-112489135D01*
X101988160Y-112564549D01*
X101988165Y-112564551D01*
X101988169Y-112564551D01*
X101988170Y-112564552D01*
X102181456Y-112603000D01*
X102181459Y-112603000D01*
X102378543Y-112603000D01*
X102508582Y-112577132D01*
X102571835Y-112564551D01*
X102753914Y-112489132D01*
X102917782Y-112379639D01*
X103057139Y-112240282D01*
X103057142Y-112240276D01*
X103059817Y-112237602D01*
X103121140Y-112204117D01*
X103190832Y-112209101D01*
X103216387Y-112222180D01*
X103225878Y-112228521D01*
X103225884Y-112228525D01*
X103229843Y-112231284D01*
X103284976Y-112271342D01*
X103290248Y-112273689D01*
X103290259Y-112273694D01*
X103308714Y-112283871D01*
X103308763Y-112283903D01*
X103308979Y-112284048D01*
X103372630Y-112310412D01*
X103375514Y-112311651D01*
X103443501Y-112341922D01*
X103447813Y-112343323D01*
X103453225Y-112345020D01*
X103453381Y-112344507D01*
X103459208Y-112346274D01*
X103459211Y-112346276D01*
X103532931Y-112360939D01*
X103534390Y-112361240D01*
X103613236Y-112378000D01*
X103786763Y-112378000D01*
X103786764Y-112378000D01*
X103865626Y-112361236D01*
X103867051Y-112360943D01*
X103940789Y-112346276D01*
X103940794Y-112346273D01*
X103940798Y-112346273D01*
X103946627Y-112344505D01*
X103946782Y-112345016D01*
X103952255Y-112343300D01*
X103956495Y-112341923D01*
X103956495Y-112341922D01*
X103956499Y-112341922D01*
X104024494Y-112311647D01*
X104027358Y-112310417D01*
X104091021Y-112284048D01*
X104091274Y-112283878D01*
X104109742Y-112273693D01*
X104115024Y-112271342D01*
X104170163Y-112231279D01*
X104174127Y-112228518D01*
X104210646Y-112204117D01*
X104226225Y-112193708D01*
X104230870Y-112189062D01*
X104245667Y-112176423D01*
X104255410Y-112169345D01*
X104296852Y-112123317D01*
X104301283Y-112118648D01*
X104341208Y-112078725D01*
X104348340Y-112068049D01*
X104359285Y-112053977D01*
X104371522Y-112040389D01*
X104399373Y-111992147D01*
X104403633Y-111985296D01*
X104431548Y-111943521D01*
X104438846Y-111925902D01*
X104446017Y-111911359D01*
X104458286Y-111890111D01*
X104473577Y-111843048D01*
X104476932Y-111833953D01*
X104493776Y-111793289D01*
X104498715Y-111768457D01*
X104502401Y-111754335D01*
X104503938Y-111749603D01*
X104511908Y-111725076D01*
X104516427Y-111682076D01*
X104518125Y-111670873D01*
X104525500Y-111633805D01*
X104525500Y-111602261D01*
X104526179Y-111589300D01*
X104530047Y-111552500D01*
X104530047Y-111552499D01*
X108659953Y-111552499D01*
X108663821Y-111589300D01*
X108664500Y-111602261D01*
X108664500Y-111633809D01*
X108671868Y-111670851D01*
X108673571Y-111682076D01*
X108678091Y-111725072D01*
X108678091Y-111725074D01*
X108678092Y-111725076D01*
X108683262Y-111740990D01*
X108687601Y-111754344D01*
X108691285Y-111768463D01*
X108696224Y-111793291D01*
X108713057Y-111833932D01*
X108716425Y-111843062D01*
X108731711Y-111890105D01*
X108731712Y-111890108D01*
X108734155Y-111894339D01*
X108743975Y-111911349D01*
X108743982Y-111911360D01*
X108751154Y-111925904D01*
X108758450Y-111943518D01*
X108758451Y-111943520D01*
X108758452Y-111943521D01*
X108786344Y-111985264D01*
X108790627Y-111992151D01*
X108818476Y-112040386D01*
X108818480Y-112040391D01*
X108830715Y-112053980D01*
X108841666Y-112068060D01*
X108848793Y-112078727D01*
X108848794Y-112078728D01*
X108888697Y-112118630D01*
X108893168Y-112123341D01*
X108934588Y-112169344D01*
X108944325Y-112176418D01*
X108959123Y-112189057D01*
X108963770Y-112193704D01*
X108963773Y-112193706D01*
X108963775Y-112193708D01*
X109015878Y-112228521D01*
X109019843Y-112231284D01*
X109074976Y-112271342D01*
X109080248Y-112273689D01*
X109080259Y-112273694D01*
X109098714Y-112283871D01*
X109098763Y-112283903D01*
X109098979Y-112284048D01*
X109162630Y-112310412D01*
X109165514Y-112311651D01*
X109233501Y-112341922D01*
X109237813Y-112343323D01*
X109243225Y-112345020D01*
X109243381Y-112344507D01*
X109249208Y-112346274D01*
X109249211Y-112346276D01*
X109322931Y-112360939D01*
X109324390Y-112361240D01*
X109403236Y-112378000D01*
X109576763Y-112378000D01*
X109576764Y-112378000D01*
X109655626Y-112361236D01*
X109657051Y-112360943D01*
X109730789Y-112346276D01*
X109730794Y-112346273D01*
X109730798Y-112346273D01*
X109736627Y-112344505D01*
X109736782Y-112345016D01*
X109742255Y-112343300D01*
X109746495Y-112341923D01*
X109746495Y-112341922D01*
X109746499Y-112341922D01*
X109814494Y-112311647D01*
X109817358Y-112310417D01*
X109881021Y-112284048D01*
X109881274Y-112283878D01*
X109899742Y-112273693D01*
X109905024Y-112271342D01*
X109960163Y-112231279D01*
X109964123Y-112228520D01*
X109964126Y-112228518D01*
X109979879Y-112217992D01*
X110046554Y-112197114D01*
X110113934Y-112215597D01*
X110137939Y-112236588D01*
X110138553Y-112235975D01*
X110282214Y-112379636D01*
X110282218Y-112379639D01*
X110446079Y-112489128D01*
X110446092Y-112489135D01*
X110628160Y-112564549D01*
X110628165Y-112564551D01*
X110628169Y-112564551D01*
X110628170Y-112564552D01*
X110821456Y-112603000D01*
X110821459Y-112603000D01*
X111018543Y-112603000D01*
X111148582Y-112577132D01*
X111211835Y-112564551D01*
X111393914Y-112489132D01*
X111557782Y-112379639D01*
X111697139Y-112240282D01*
X111806632Y-112076414D01*
X111882051Y-111894335D01*
X111904406Y-111781952D01*
X111920500Y-111701043D01*
X111920500Y-110403956D01*
X111882052Y-110210670D01*
X111882051Y-110210669D01*
X111882051Y-110210665D01*
X111827425Y-110078785D01*
X111806635Y-110028592D01*
X111806628Y-110028579D01*
X111697139Y-109864718D01*
X111697136Y-109864714D01*
X111557785Y-109725363D01*
X111557781Y-109725360D01*
X111393920Y-109615871D01*
X111393907Y-109615864D01*
X111211839Y-109540450D01*
X111211829Y-109540447D01*
X111018543Y-109502000D01*
X111018541Y-109502000D01*
X110821459Y-109502000D01*
X110821457Y-109502000D01*
X110628170Y-109540447D01*
X110628160Y-109540450D01*
X110446092Y-109615864D01*
X110446079Y-109615871D01*
X110282218Y-109725360D01*
X110282214Y-109725363D01*
X110142863Y-109864714D01*
X110142860Y-109864718D01*
X110033371Y-110028579D01*
X110033364Y-110028592D01*
X109957950Y-110210660D01*
X109957947Y-110210670D01*
X109919500Y-110403956D01*
X109919500Y-110649159D01*
X109899815Y-110716198D01*
X109847011Y-110761953D01*
X109777853Y-110771897D01*
X109752819Y-110764677D01*
X109752686Y-110765088D01*
X109743170Y-110761996D01*
X109736766Y-110760002D01*
X109736618Y-110760492D01*
X109730788Y-110758723D01*
X109657155Y-110744076D01*
X109655567Y-110743749D01*
X109576768Y-110727000D01*
X109576764Y-110727000D01*
X109403236Y-110727000D01*
X109324372Y-110743762D01*
X109322786Y-110744088D01*
X109249203Y-110758725D01*
X109243380Y-110760492D01*
X109243237Y-110760023D01*
X109236296Y-110762169D01*
X109233504Y-110763076D01*
X109165571Y-110793321D01*
X109162595Y-110794599D01*
X109098982Y-110820950D01*
X109098975Y-110820954D01*
X109098696Y-110821141D01*
X109080269Y-110831301D01*
X109074983Y-110833654D01*
X109074973Y-110833660D01*
X109019864Y-110873698D01*
X109015875Y-110876478D01*
X108963778Y-110911289D01*
X108963768Y-110911297D01*
X108959122Y-110915944D01*
X108944336Y-110928572D01*
X108934595Y-110935649D01*
X108893167Y-110981659D01*
X108888701Y-110986364D01*
X108848795Y-111026271D01*
X108848790Y-111026276D01*
X108841659Y-111036949D01*
X108830715Y-111051019D01*
X108818479Y-111064608D01*
X108790632Y-111112840D01*
X108786349Y-111119726D01*
X108758454Y-111161474D01*
X108758453Y-111161476D01*
X108751153Y-111179098D01*
X108743986Y-111193630D01*
X108731713Y-111214889D01*
X108716428Y-111261933D01*
X108713059Y-111271064D01*
X108696223Y-111311711D01*
X108696222Y-111311713D01*
X108691283Y-111336541D01*
X108687600Y-111350656D01*
X108678092Y-111379922D01*
X108673571Y-111422924D01*
X108671869Y-111434148D01*
X108664500Y-111471196D01*
X108664500Y-111502737D01*
X108663821Y-111515698D01*
X108659953Y-111552499D01*
X104530047Y-111552499D01*
X104526179Y-111515698D01*
X104525500Y-111502737D01*
X104525500Y-111471190D01*
X104518130Y-111434147D01*
X104516425Y-111422909D01*
X104511908Y-111379928D01*
X104511908Y-111379924D01*
X104502396Y-111350651D01*
X104498715Y-111336541D01*
X104493776Y-111311711D01*
X104476933Y-111271049D01*
X104473579Y-111261957D01*
X104458286Y-111214889D01*
X104446018Y-111193640D01*
X104438844Y-111179092D01*
X104431550Y-111161483D01*
X104431549Y-111161482D01*
X104431548Y-111161479D01*
X104403641Y-111119713D01*
X104399367Y-111112840D01*
X104371522Y-111064611D01*
X104359284Y-111051019D01*
X104348337Y-111036945D01*
X104341208Y-111026275D01*
X104301297Y-110986364D01*
X104296831Y-110981658D01*
X104255410Y-110935655D01*
X104245666Y-110928575D01*
X104230875Y-110915941D01*
X104226227Y-110911293D01*
X104174135Y-110876487D01*
X104170140Y-110873703D01*
X104170133Y-110873698D01*
X104115024Y-110833658D01*
X104115023Y-110833657D01*
X104115021Y-110833656D01*
X104109740Y-110831305D01*
X104091282Y-110821126D01*
X104091025Y-110820954D01*
X104091018Y-110820950D01*
X104027426Y-110794610D01*
X104024444Y-110793329D01*
X103956500Y-110763078D01*
X103953170Y-110761996D01*
X103946766Y-110760002D01*
X103946618Y-110760492D01*
X103940788Y-110758723D01*
X103867155Y-110744076D01*
X103865567Y-110743749D01*
X103786768Y-110727000D01*
X103786764Y-110727000D01*
X103613236Y-110727000D01*
X103534372Y-110743762D01*
X103532786Y-110744088D01*
X103459203Y-110758725D01*
X103453380Y-110760492D01*
X103453237Y-110760023D01*
X103446252Y-110762183D01*
X103442808Y-110763302D01*
X103442390Y-110763313D01*
X103437151Y-110764428D01*
X103436947Y-110763468D01*
X103372967Y-110765292D01*
X103313137Y-110729206D01*
X103282314Y-110666503D01*
X103280500Y-110645368D01*
X103280500Y-110403956D01*
X103242052Y-110210670D01*
X103242051Y-110210669D01*
X103242051Y-110210665D01*
X103187425Y-110078785D01*
X103166635Y-110028592D01*
X103166628Y-110028579D01*
X103057139Y-109864718D01*
X103057136Y-109864714D01*
X102917785Y-109725363D01*
X102917781Y-109725360D01*
X102753920Y-109615871D01*
X102753907Y-109615864D01*
X102571839Y-109540450D01*
X102571829Y-109540447D01*
X102378543Y-109502000D01*
X102378541Y-109502000D01*
X102181459Y-109502000D01*
X102181457Y-109502000D01*
X101988170Y-109540447D01*
X101988160Y-109540450D01*
X101806092Y-109615864D01*
X101806079Y-109615871D01*
X101642218Y-109725360D01*
X101642214Y-109725363D01*
X101502863Y-109864714D01*
X101502860Y-109864718D01*
X101393371Y-110028579D01*
X101393364Y-110028592D01*
X101317950Y-110210660D01*
X101317947Y-110210670D01*
X101279500Y-110403956D01*
X101279500Y-110403959D01*
X101279500Y-111701041D01*
X101279500Y-111701043D01*
X101279499Y-111701043D01*
X96423633Y-111701043D01*
X96363679Y-111477288D01*
X96263811Y-111263122D01*
X96262979Y-111261933D01*
X96128270Y-111069548D01*
X95961178Y-110902457D01*
X95961172Y-110902452D01*
X95775618Y-110772526D01*
X95731993Y-110717949D01*
X95724799Y-110648451D01*
X95756322Y-110586096D01*
X95775618Y-110569376D01*
X95797802Y-110553842D01*
X95961177Y-110439446D01*
X96128271Y-110272352D01*
X96263811Y-110078781D01*
X96363679Y-109864614D01*
X96424839Y-109636359D01*
X96445435Y-109400951D01*
X96444003Y-109384589D01*
X96424839Y-109165547D01*
X96424839Y-109165543D01*
X96363679Y-108937288D01*
X96263811Y-108723122D01*
X96262151Y-108720750D01*
X96128270Y-108529548D01*
X95961178Y-108362457D01*
X95961172Y-108362452D01*
X95775618Y-108232526D01*
X95731993Y-108177949D01*
X95724799Y-108108451D01*
X95756322Y-108046096D01*
X95775618Y-108029376D01*
X95797802Y-108013842D01*
X95961177Y-107899446D01*
X96128271Y-107732352D01*
X96263811Y-107538781D01*
X96363679Y-107324614D01*
X96424839Y-107096359D01*
X96445435Y-106860951D01*
X96424839Y-106625543D01*
X96400860Y-106536051D01*
X96402523Y-106466205D01*
X96432952Y-106416282D01*
X97249239Y-105599996D01*
X99694435Y-105599996D01*
X99694435Y-105600003D01*
X99714630Y-105779249D01*
X99714631Y-105779254D01*
X99774211Y-105949523D01*
X99799361Y-105989548D01*
X99870184Y-106102262D01*
X99997738Y-106229816D01*
X100150478Y-106325789D01*
X100320745Y-106385368D01*
X100320750Y-106385369D01*
X100499996Y-106405565D01*
X100500000Y-106405565D01*
X100500004Y-106405565D01*
X100679249Y-106385369D01*
X100679252Y-106385368D01*
X100679255Y-106385368D01*
X100849522Y-106325789D01*
X101002262Y-106229816D01*
X101129816Y-106102262D01*
X101225789Y-105949522D01*
X101285368Y-105779255D01*
X101285369Y-105779249D01*
X101305565Y-105600003D01*
X101305565Y-105599996D01*
X101285369Y-105420750D01*
X101285368Y-105420745D01*
X101254397Y-105332235D01*
X101225789Y-105250478D01*
X101129816Y-105097738D01*
X101002262Y-104970184D01*
X100849523Y-104874211D01*
X100679254Y-104814631D01*
X100679249Y-104814630D01*
X100500004Y-104794435D01*
X100499996Y-104794435D01*
X100320750Y-104814630D01*
X100320745Y-104814631D01*
X100150476Y-104874211D01*
X99997737Y-104970184D01*
X99870184Y-105097737D01*
X99774211Y-105250476D01*
X99714631Y-105420745D01*
X99714630Y-105420750D01*
X99694435Y-105599996D01*
X97249239Y-105599996D01*
X98780520Y-104068716D01*
X98859577Y-103931784D01*
X98900501Y-103779057D01*
X98900501Y-103620942D01*
X98900501Y-103613347D01*
X98900500Y-103613329D01*
X98900500Y-100465917D01*
X98920185Y-100398878D01*
X98972989Y-100353123D01*
X98983546Y-100348875D01*
X98987553Y-100347472D01*
X99049522Y-100325789D01*
X99202262Y-100229816D01*
X99329816Y-100102262D01*
X99425789Y-99949522D01*
X99485368Y-99779255D01*
X99494906Y-99694606D01*
X99505565Y-99600003D01*
X99505565Y-99599996D01*
X99485369Y-99420750D01*
X99485368Y-99420745D01*
X99425788Y-99250476D01*
X99386531Y-99187999D01*
X99329816Y-99097738D01*
X99202262Y-98970184D01*
X99188486Y-98961528D01*
X99049523Y-98874211D01*
X98879254Y-98814631D01*
X98879249Y-98814630D01*
X98700004Y-98794435D01*
X98699996Y-98794435D01*
X98520750Y-98814630D01*
X98520745Y-98814631D01*
X98350476Y-98874211D01*
X98197737Y-98970184D01*
X98070184Y-99097737D01*
X97974210Y-99250478D01*
X97914630Y-99420750D01*
X97904837Y-99507666D01*
X97877770Y-99572080D01*
X97869300Y-99581462D01*
X97819479Y-99631284D01*
X97771225Y-99714864D01*
X97771225Y-99714865D01*
X97740423Y-99768214D01*
X97740423Y-99768215D01*
X97699499Y-99920943D01*
X97699499Y-99920945D01*
X97699499Y-100089046D01*
X97699500Y-100089059D01*
X97699500Y-103399901D01*
X97679815Y-103466940D01*
X97663181Y-103487582D01*
X96589600Y-104561162D01*
X96528277Y-104594647D01*
X96458585Y-104589663D01*
X96433277Y-104570951D01*
X95522788Y-104570951D01*
X95555701Y-104513944D01*
X95589776Y-104386777D01*
X95589776Y-104255125D01*
X95555701Y-104127958D01*
X95522788Y-104070951D01*
X96420412Y-104070951D01*
X96420411Y-104070950D01*
X96363208Y-103857464D01*
X96363205Y-103857458D01*
X96263376Y-103643373D01*
X96263375Y-103643371D01*
X96127889Y-103449877D01*
X96127884Y-103449871D01*
X95960858Y-103282845D01*
X95774744Y-103152526D01*
X95731120Y-103097949D01*
X95723927Y-103028450D01*
X95755449Y-102966096D01*
X95774744Y-102949376D01*
X95960858Y-102819056D01*
X96127881Y-102652033D01*
X96263376Y-102458529D01*
X96363205Y-102244443D01*
X96363208Y-102244437D01*
X96420412Y-102030951D01*
X95522788Y-102030951D01*
X95555701Y-101973944D01*
X95589776Y-101846777D01*
X95589776Y-101715125D01*
X95555701Y-101587958D01*
X95522788Y-101530951D01*
X96420412Y-101530951D01*
X96420411Y-101530950D01*
X96363208Y-101317464D01*
X96363205Y-101317458D01*
X96263376Y-101103373D01*
X96263375Y-101103371D01*
X96127889Y-100909877D01*
X96127884Y-100909871D01*
X95960854Y-100742841D01*
X95775181Y-100612830D01*
X95731556Y-100558253D01*
X95724364Y-100488755D01*
X95755886Y-100426400D01*
X95775182Y-100409681D01*
X95961177Y-100279446D01*
X96128271Y-100112352D01*
X96263811Y-99918781D01*
X96363679Y-99704614D01*
X96424839Y-99476359D01*
X96445435Y-99240951D01*
X96424839Y-99005543D01*
X96373685Y-98814630D01*
X96363681Y-98777295D01*
X96363680Y-98777294D01*
X96363679Y-98777288D01*
X96263811Y-98563122D01*
X96128271Y-98369550D01*
X96128270Y-98369548D01*
X95961178Y-98202457D01*
X95961172Y-98202452D01*
X95775618Y-98072526D01*
X95731993Y-98017949D01*
X95724799Y-97948451D01*
X95756322Y-97886096D01*
X95775618Y-97869376D01*
X95857679Y-97811916D01*
X95961177Y-97739446D01*
X96128271Y-97572352D01*
X96263811Y-97378781D01*
X96363679Y-97164614D01*
X96424839Y-96936359D01*
X96445435Y-96700951D01*
X96424839Y-96465543D01*
X96363679Y-96237288D01*
X96263811Y-96023122D01*
X96248597Y-96001393D01*
X96128270Y-95829548D01*
X95961178Y-95662457D01*
X95961172Y-95662452D01*
X95775618Y-95532526D01*
X95731993Y-95477949D01*
X95724799Y-95408451D01*
X95756322Y-95346096D01*
X95775618Y-95329376D01*
X95873320Y-95260964D01*
X95961177Y-95199446D01*
X96128271Y-95032352D01*
X96263811Y-94838781D01*
X96363679Y-94624614D01*
X96370275Y-94599996D01*
X100519435Y-94599996D01*
X100519435Y-94600003D01*
X100539630Y-94779249D01*
X100539631Y-94779254D01*
X100599211Y-94949523D01*
X100644969Y-95022346D01*
X100693722Y-95099936D01*
X100695185Y-95102263D01*
X100697445Y-95105097D01*
X100698334Y-95107275D01*
X100698889Y-95108158D01*
X100698734Y-95108255D01*
X100723855Y-95169783D01*
X100724500Y-95182412D01*
X100724500Y-97356529D01*
X100724499Y-97356547D01*
X100724499Y-97522253D01*
X100724498Y-97522253D01*
X100765423Y-97674984D01*
X100794358Y-97725099D01*
X100794359Y-97725103D01*
X100794360Y-97725103D01*
X100818811Y-97767455D01*
X100844479Y-97811913D01*
X100844481Y-97811916D01*
X100963349Y-97930784D01*
X100963355Y-97930789D01*
X105111068Y-102078502D01*
X105144553Y-102139825D01*
X105147387Y-102166183D01*
X105147387Y-108026903D01*
X105147386Y-108026921D01*
X105147386Y-108192627D01*
X105147385Y-108192627D01*
X105188311Y-108345363D01*
X105190060Y-108349584D01*
X105199500Y-108397038D01*
X105199500Y-108474507D01*
X105180494Y-108540478D01*
X105174209Y-108550479D01*
X105114633Y-108720737D01*
X105114630Y-108720750D01*
X105094435Y-108899996D01*
X105094435Y-108900003D01*
X105114630Y-109079249D01*
X105114631Y-109079254D01*
X105174211Y-109249523D01*
X105236088Y-109347999D01*
X105270184Y-109402262D01*
X105397738Y-109529816D01*
X105462895Y-109570757D01*
X105534693Y-109615871D01*
X105550478Y-109625789D01*
X105580700Y-109636364D01*
X105720745Y-109685368D01*
X105720750Y-109685369D01*
X105899996Y-109705565D01*
X105900000Y-109705565D01*
X105900004Y-109705565D01*
X106079249Y-109685369D01*
X106079252Y-109685368D01*
X106079255Y-109685368D01*
X106249522Y-109625789D01*
X106402262Y-109529816D01*
X106512008Y-109420070D01*
X106573331Y-109386585D01*
X106613574Y-109386809D01*
X106613825Y-109384589D01*
X106799996Y-109405565D01*
X106800000Y-109405565D01*
X106800004Y-109405565D01*
X106979249Y-109385369D01*
X106979252Y-109385368D01*
X106979255Y-109385368D01*
X107149522Y-109325789D01*
X107302262Y-109229816D01*
X107429816Y-109102262D01*
X107525789Y-108949522D01*
X107585368Y-108779255D01*
X107591960Y-108720750D01*
X107605565Y-108600003D01*
X107605565Y-108599996D01*
X107585369Y-108420750D01*
X107585368Y-108420745D01*
X107525788Y-108250476D01*
X107450045Y-108129932D01*
X107429816Y-108097738D01*
X107302262Y-107970184D01*
X107189688Y-107899449D01*
X107149521Y-107874210D01*
X106979249Y-107814630D01*
X106892330Y-107804837D01*
X106827916Y-107777770D01*
X106818533Y-107769298D01*
X106784706Y-107735471D01*
X106751221Y-107674148D01*
X106748387Y-107647790D01*
X106748387Y-101550633D01*
X106748387Y-101550631D01*
X106707464Y-101397904D01*
X106707464Y-101397903D01*
X106655147Y-101307288D01*
X106628407Y-101260972D01*
X106516603Y-101149168D01*
X106516602Y-101149167D01*
X106512272Y-101144837D01*
X106512261Y-101144827D01*
X102761822Y-97394388D01*
X102728337Y-97333065D01*
X102725503Y-97306707D01*
X102725503Y-95182412D01*
X102745188Y-95115373D01*
X102752558Y-95105097D01*
X102754813Y-95102267D01*
X102754819Y-95102262D01*
X102850792Y-94949522D01*
X102910371Y-94779255D01*
X102927796Y-94624606D01*
X102930568Y-94600003D01*
X102930568Y-94599996D01*
X102910372Y-94420750D01*
X102910371Y-94420745D01*
X102898337Y-94386354D01*
X102850792Y-94250478D01*
X102830361Y-94217963D01*
X102754818Y-94097737D01*
X102627265Y-93970184D01*
X102474526Y-93874211D01*
X102304257Y-93814631D01*
X102304252Y-93814630D01*
X102125007Y-93794435D01*
X102124999Y-93794435D01*
X101945753Y-93814630D01*
X101945740Y-93814633D01*
X101768909Y-93876510D01*
X101768160Y-93874369D01*
X101709824Y-93883958D01*
X101681408Y-93875611D01*
X101681094Y-93876510D01*
X101504262Y-93814633D01*
X101504249Y-93814630D01*
X101325004Y-93794435D01*
X101324996Y-93794435D01*
X101145750Y-93814630D01*
X101145745Y-93814631D01*
X100975476Y-93874211D01*
X100822737Y-93970184D01*
X100695184Y-94097737D01*
X100599211Y-94250476D01*
X100539631Y-94420745D01*
X100539630Y-94420750D01*
X100519435Y-94599996D01*
X96370275Y-94599996D01*
X96424839Y-94396359D01*
X96445435Y-94160951D01*
X96424839Y-93925543D01*
X96363679Y-93697288D01*
X96263811Y-93483122D01*
X96260509Y-93478405D01*
X96128270Y-93289548D01*
X95961178Y-93122457D01*
X95961172Y-93122452D01*
X95775618Y-92992526D01*
X95731993Y-92937949D01*
X95724799Y-92868451D01*
X95756322Y-92806096D01*
X95775618Y-92789376D01*
X95797802Y-92773842D01*
X95961177Y-92659446D01*
X96128271Y-92492352D01*
X96263811Y-92298781D01*
X96363679Y-92084614D01*
X96424839Y-91856359D01*
X96445435Y-91620951D01*
X96424839Y-91385543D01*
X96363679Y-91157288D01*
X96263811Y-90943122D01*
X96211362Y-90868216D01*
X96128270Y-90749548D01*
X95961178Y-90582457D01*
X95961172Y-90582452D01*
X95775618Y-90452526D01*
X95731993Y-90397949D01*
X95724799Y-90328451D01*
X95756322Y-90266096D01*
X95775618Y-90249376D01*
X95854733Y-90193979D01*
X95961177Y-90119446D01*
X96128271Y-89952352D01*
X96263811Y-89758781D01*
X96363679Y-89544614D01*
X96424839Y-89316359D01*
X96445435Y-89080951D01*
X96424839Y-88845543D01*
X96363679Y-88617288D01*
X96263811Y-88403122D01*
X96128271Y-88209550D01*
X96128270Y-88209548D01*
X95961178Y-88042457D01*
X95961172Y-88042452D01*
X95775618Y-87912526D01*
X95731993Y-87857949D01*
X95724799Y-87788451D01*
X95756322Y-87726096D01*
X95775618Y-87709376D01*
X95797802Y-87693842D01*
X95961177Y-87579446D01*
X96128271Y-87412352D01*
X96263811Y-87218781D01*
X96363679Y-87004614D01*
X96424839Y-86776359D01*
X96445435Y-86540951D01*
X96424839Y-86305543D01*
X96363679Y-86077288D01*
X96263811Y-85863122D01*
X96256809Y-85853121D01*
X96128270Y-85669548D01*
X95961178Y-85502457D01*
X95961172Y-85502452D01*
X95775618Y-85372526D01*
X95731993Y-85317949D01*
X95724799Y-85248451D01*
X95756322Y-85186096D01*
X95775618Y-85169376D01*
X95797802Y-85153842D01*
X95961177Y-85039446D01*
X96128271Y-84872352D01*
X96263811Y-84678781D01*
X96363679Y-84464614D01*
X96424839Y-84236359D01*
X96445435Y-84000951D01*
X96424839Y-83765543D01*
X96363679Y-83537288D01*
X96263811Y-83323122D01*
X96256809Y-83313121D01*
X96128270Y-83129548D01*
X95961178Y-82962457D01*
X95961172Y-82962452D01*
X95775618Y-82832526D01*
X95731993Y-82777949D01*
X95724799Y-82708451D01*
X95756322Y-82646096D01*
X95775618Y-82629376D01*
X95803140Y-82610105D01*
X95961177Y-82499446D01*
X96128271Y-82332352D01*
X96263811Y-82138781D01*
X96363679Y-81924614D01*
X96424839Y-81696359D01*
X96445435Y-81460951D01*
X96424839Y-81225543D01*
X96363679Y-80997288D01*
X96263811Y-80783122D01*
X96256809Y-80773121D01*
X96128270Y-80589548D01*
X95961178Y-80422457D01*
X95961172Y-80422452D01*
X95775618Y-80292526D01*
X95731993Y-80237949D01*
X95724799Y-80168451D01*
X95756322Y-80106096D01*
X95775618Y-80089376D01*
X95903975Y-79999499D01*
X95961177Y-79959446D01*
X96128271Y-79792352D01*
X96263811Y-79598781D01*
X96363679Y-79384614D01*
X96424839Y-79156359D01*
X96445435Y-78920951D01*
X96424839Y-78685543D01*
X96375342Y-78500816D01*
X96363681Y-78457295D01*
X96363680Y-78457294D01*
X96363679Y-78457288D01*
X96263811Y-78243122D01*
X96128271Y-78049550D01*
X96128270Y-78049548D01*
X95961178Y-77882457D01*
X95961172Y-77882452D01*
X95775618Y-77752526D01*
X95731993Y-77697949D01*
X95724799Y-77628451D01*
X95756322Y-77566096D01*
X95775618Y-77549376D01*
X95797802Y-77533842D01*
X95961177Y-77419446D01*
X96128271Y-77252352D01*
X96263811Y-77058781D01*
X96363679Y-76844614D01*
X96424839Y-76616359D01*
X96445435Y-76380951D01*
X96424839Y-76145543D01*
X96363679Y-75917288D01*
X96263811Y-75703122D01*
X96256809Y-75693121D01*
X96128270Y-75509548D01*
X95961178Y-75342457D01*
X95961172Y-75342452D01*
X95775618Y-75212526D01*
X95731993Y-75157949D01*
X95724799Y-75088451D01*
X95756322Y-75026096D01*
X95775618Y-75009376D01*
X95797802Y-74993842D01*
X95961177Y-74879446D01*
X96128271Y-74712352D01*
X96263811Y-74518781D01*
X96363679Y-74304614D01*
X96424839Y-74076359D01*
X96445435Y-73840951D01*
X96424839Y-73605543D01*
X96363679Y-73377288D01*
X96263811Y-73163122D01*
X96128271Y-72969550D01*
X96128270Y-72969548D01*
X95961178Y-72802457D01*
X95961171Y-72802452D01*
X95946895Y-72792456D01*
X95922297Y-72775232D01*
X95767610Y-72666918D01*
X95767606Y-72666916D01*
X95746159Y-72656915D01*
X95553439Y-72567048D01*
X95553435Y-72567047D01*
X95553431Y-72567045D01*
X95468449Y-72544275D01*
X95408788Y-72507910D01*
X95378259Y-72445063D01*
X95386554Y-72375688D01*
X95431039Y-72321810D01*
X95497591Y-72300535D01*
X95500542Y-72300500D01*
X117481689Y-72300500D01*
X117548728Y-72320185D01*
G37*
%TD.AperFunction*%
%TA.AperFunction,Conductor*%
G36*
X107366942Y-81220185D02*
G01*
X107387584Y-81236819D01*
X113046090Y-86895325D01*
X113046100Y-86895336D01*
X113050430Y-86899666D01*
X113050431Y-86899667D01*
X113162235Y-87011471D01*
X113162237Y-87011472D01*
X113162241Y-87011475D01*
X113299160Y-87090524D01*
X113299167Y-87090528D01*
X113410970Y-87120485D01*
X113451893Y-87131451D01*
X113451894Y-87131451D01*
X116640685Y-87131451D01*
X116707724Y-87151136D01*
X116753068Y-87203048D01*
X116755741Y-87208781D01*
X116889634Y-87400000D01*
X116891277Y-87402346D01*
X116891282Y-87402353D01*
X117058373Y-87569444D01*
X117058379Y-87569449D01*
X117243934Y-87699376D01*
X117287559Y-87753953D01*
X117294753Y-87823451D01*
X117263230Y-87885806D01*
X117243934Y-87902526D01*
X117058373Y-88032456D01*
X116891281Y-88199548D01*
X116755741Y-88393120D01*
X116755740Y-88393122D01*
X116655874Y-88607286D01*
X116655870Y-88607295D01*
X116594714Y-88835537D01*
X116594712Y-88835547D01*
X116574117Y-89070950D01*
X116574117Y-89070951D01*
X116594712Y-89306354D01*
X116594714Y-89306364D01*
X116655870Y-89534606D01*
X116655872Y-89534610D01*
X116655873Y-89534614D01*
X116660537Y-89544615D01*
X116755741Y-89748781D01*
X116755743Y-89748785D01*
X116891277Y-89942346D01*
X116891282Y-89942353D01*
X117058373Y-90109444D01*
X117058379Y-90109449D01*
X117243934Y-90239376D01*
X117287559Y-90293953D01*
X117294753Y-90363451D01*
X117263230Y-90425806D01*
X117243934Y-90442526D01*
X117058373Y-90572456D01*
X116891281Y-90739548D01*
X116755741Y-90933120D01*
X116755740Y-90933122D01*
X116655874Y-91147286D01*
X116655870Y-91147295D01*
X116594714Y-91375537D01*
X116594712Y-91375547D01*
X116574117Y-91610950D01*
X116574117Y-91610951D01*
X116594712Y-91846354D01*
X116594714Y-91846364D01*
X116655870Y-92074606D01*
X116655872Y-92074610D01*
X116655873Y-92074614D01*
X116660537Y-92084615D01*
X116755741Y-92288781D01*
X116755743Y-92288785D01*
X116891277Y-92482346D01*
X116891282Y-92482353D01*
X117058373Y-92649444D01*
X117058379Y-92649449D01*
X117243934Y-92779376D01*
X117287559Y-92833953D01*
X117294753Y-92903451D01*
X117263230Y-92965806D01*
X117243934Y-92982526D01*
X117058373Y-93112456D01*
X116891281Y-93279548D01*
X116755741Y-93473120D01*
X116755740Y-93473122D01*
X116655874Y-93687286D01*
X116655870Y-93687295D01*
X116594714Y-93915537D01*
X116594712Y-93915547D01*
X116574117Y-94150950D01*
X116574117Y-94150951D01*
X116594712Y-94386354D01*
X116594714Y-94386363D01*
X116655870Y-94614606D01*
X116655872Y-94614610D01*
X116655873Y-94614614D01*
X116660537Y-94624615D01*
X116755741Y-94828781D01*
X116755743Y-94828785D01*
X116891277Y-95022346D01*
X116891282Y-95022353D01*
X117058373Y-95189444D01*
X117058379Y-95189449D01*
X117243934Y-95319376D01*
X117287559Y-95373953D01*
X117294753Y-95443451D01*
X117263230Y-95505806D01*
X117243934Y-95522526D01*
X117058373Y-95652456D01*
X116891281Y-95819548D01*
X116755741Y-96013120D01*
X116755740Y-96013122D01*
X116655874Y-96227286D01*
X116655870Y-96227295D01*
X116594714Y-96455537D01*
X116594712Y-96455547D01*
X116574117Y-96690950D01*
X116574117Y-96690951D01*
X116594712Y-96926354D01*
X116594714Y-96926364D01*
X116655870Y-97154606D01*
X116655872Y-97154610D01*
X116655873Y-97154614D01*
X116660537Y-97164615D01*
X116755741Y-97368781D01*
X116755743Y-97368785D01*
X116891277Y-97562346D01*
X116891282Y-97562353D01*
X117058373Y-97729444D01*
X117058379Y-97729449D01*
X117243934Y-97859376D01*
X117287559Y-97913953D01*
X117294753Y-97983451D01*
X117263230Y-98045806D01*
X117243934Y-98062526D01*
X117058373Y-98192456D01*
X116891281Y-98359548D01*
X116755741Y-98553120D01*
X116755740Y-98553122D01*
X116655874Y-98767286D01*
X116655870Y-98767295D01*
X116594714Y-98995537D01*
X116594712Y-98995547D01*
X116574117Y-99230950D01*
X116574117Y-99230951D01*
X116594712Y-99466354D01*
X116594714Y-99466364D01*
X116655870Y-99694606D01*
X116655872Y-99694610D01*
X116655873Y-99694614D01*
X116755741Y-99908781D01*
X116755743Y-99908785D01*
X116891277Y-100102346D01*
X116891282Y-100102353D01*
X117058373Y-100269444D01*
X117058379Y-100269449D01*
X117243934Y-100399376D01*
X117287559Y-100453953D01*
X117294753Y-100523451D01*
X117263230Y-100585806D01*
X117243934Y-100602526D01*
X117058373Y-100732456D01*
X116891281Y-100899548D01*
X116755741Y-101093120D01*
X116755740Y-101093122D01*
X116655874Y-101307286D01*
X116655873Y-101307288D01*
X116594714Y-101535537D01*
X116594712Y-101535547D01*
X116574117Y-101770950D01*
X116574117Y-101770951D01*
X116594712Y-102006354D01*
X116594714Y-102006364D01*
X116655870Y-102234606D01*
X116655872Y-102234610D01*
X116655873Y-102234614D01*
X116755741Y-102448781D01*
X116755743Y-102448785D01*
X116891277Y-102642346D01*
X116891282Y-102642353D01*
X117058373Y-102809444D01*
X117058379Y-102809449D01*
X117243934Y-102939376D01*
X117287559Y-102993953D01*
X117294753Y-103063451D01*
X117263230Y-103125806D01*
X117243934Y-103142526D01*
X117058373Y-103272456D01*
X116891281Y-103439548D01*
X116755741Y-103633120D01*
X116755740Y-103633122D01*
X116664926Y-103827873D01*
X116618753Y-103880312D01*
X116551560Y-103899464D01*
X116484679Y-103879248D01*
X116464863Y-103863149D01*
X116236819Y-103635105D01*
X116203334Y-103573782D01*
X116200500Y-103547424D01*
X116200500Y-91189060D01*
X116200501Y-91189047D01*
X116200501Y-91020944D01*
X116166225Y-90893026D01*
X116159577Y-90868216D01*
X116091065Y-90749548D01*
X116080524Y-90731290D01*
X116080518Y-90731282D01*
X106812332Y-81463097D01*
X106812330Y-81463094D01*
X106761417Y-81412181D01*
X106727932Y-81350858D01*
X106732916Y-81281166D01*
X106774788Y-81225233D01*
X106840252Y-81200816D01*
X106849098Y-81200500D01*
X107299903Y-81200500D01*
X107366942Y-81220185D01*
G37*
%TD.AperFunction*%
%TA.AperFunction,Conductor*%
G36*
X95339776Y-103887939D02*
G01*
X95282769Y-103855026D01*
X95155602Y-103820951D01*
X95023950Y-103820951D01*
X94896783Y-103855026D01*
X94839776Y-103887939D01*
X94839776Y-102213963D01*
X94896783Y-102246876D01*
X95023950Y-102280951D01*
X95155602Y-102280951D01*
X95282769Y-102246876D01*
X95339776Y-102213963D01*
X95339776Y-103887939D01*
G37*
%TD.AperFunction*%
%TA.AperFunction,Conductor*%
G36*
X108266942Y-79320185D02*
G01*
X108287583Y-79336818D01*
X113422235Y-84471471D01*
X113422237Y-84471472D01*
X113422241Y-84471475D01*
X113559160Y-84550524D01*
X113559167Y-84550528D01*
X113711894Y-84591452D01*
X113711896Y-84591452D01*
X113877605Y-84591452D01*
X113877621Y-84591451D01*
X116640685Y-84591451D01*
X116707724Y-84611136D01*
X116753068Y-84663048D01*
X116755741Y-84668781D01*
X116755742Y-84668782D01*
X116891277Y-84862346D01*
X116891282Y-84862353D01*
X117058373Y-85029444D01*
X117058379Y-85029449D01*
X117243934Y-85159376D01*
X117287559Y-85213953D01*
X117294753Y-85283451D01*
X117263230Y-85345806D01*
X117243934Y-85362526D01*
X117058373Y-85492456D01*
X116891282Y-85659547D01*
X116755741Y-85853121D01*
X116755738Y-85853126D01*
X116753065Y-85858860D01*
X116706891Y-85911297D01*
X116640685Y-85930451D01*
X113831048Y-85930451D01*
X113764009Y-85910766D01*
X113743367Y-85894132D01*
X108087590Y-80238355D01*
X108087588Y-80238352D01*
X107968717Y-80119481D01*
X107968716Y-80119480D01*
X107881904Y-80069360D01*
X107881904Y-80069359D01*
X107881900Y-80069358D01*
X107831785Y-80040423D01*
X107679057Y-79999499D01*
X107520943Y-79999499D01*
X107513347Y-79999499D01*
X107513331Y-79999500D01*
X101849097Y-79999500D01*
X101782058Y-79979815D01*
X101736303Y-79927011D01*
X101726359Y-79857853D01*
X101755384Y-79794297D01*
X101761416Y-79787819D01*
X102212416Y-79336819D01*
X102273739Y-79303334D01*
X102300097Y-79300500D01*
X108199903Y-79300500D01*
X108266942Y-79320185D01*
G37*
%TD.AperFunction*%
%TA.AperFunction,Conductor*%
G36*
X99590473Y-82478927D02*
G01*
X99667210Y-82527145D01*
X99837480Y-82586725D01*
X99837485Y-82586726D01*
X100016731Y-82606922D01*
X100016735Y-82606922D01*
X100016736Y-82606922D01*
X100029435Y-82605490D01*
X100061615Y-82601865D01*
X100130437Y-82613919D01*
X100181817Y-82661268D01*
X100199500Y-82725085D01*
X100199500Y-83879016D01*
X100199499Y-83879034D01*
X100199499Y-83950901D01*
X100179814Y-84017940D01*
X100127010Y-84063695D01*
X100057852Y-84073639D01*
X99994296Y-84044614D01*
X99987818Y-84038582D01*
X99436819Y-83487583D01*
X99403334Y-83426260D01*
X99400500Y-83399902D01*
X99400500Y-82583920D01*
X99420185Y-82516881D01*
X99472989Y-82471126D01*
X99542147Y-82461182D01*
X99590473Y-82478927D01*
G37*
%TD.AperFunction*%
%TA.AperFunction,Conductor*%
G36*
X116547055Y-78520185D02*
G01*
X116592810Y-78572989D01*
X116602754Y-78642147D01*
X116599790Y-78656595D01*
X116594715Y-78675533D01*
X116594712Y-78675547D01*
X116574117Y-78910950D01*
X116574117Y-78910951D01*
X116594712Y-79146354D01*
X116594714Y-79146364D01*
X116655870Y-79374606D01*
X116655872Y-79374610D01*
X116655873Y-79374614D01*
X116660537Y-79384615D01*
X116755741Y-79588781D01*
X116755743Y-79588785D01*
X116891277Y-79782346D01*
X116891282Y-79782353D01*
X117058373Y-79949444D01*
X117058379Y-79949449D01*
X117243934Y-80079376D01*
X117287559Y-80133953D01*
X117294753Y-80203451D01*
X117263230Y-80265806D01*
X117243934Y-80282526D01*
X117058373Y-80412456D01*
X116891282Y-80579547D01*
X116755741Y-80773121D01*
X116755738Y-80773126D01*
X116753065Y-80778860D01*
X116706891Y-80831297D01*
X116640685Y-80850451D01*
X112116733Y-80850451D01*
X112049694Y-80830766D01*
X112029052Y-80814132D01*
X109927101Y-78712181D01*
X109893616Y-78650858D01*
X109898600Y-78581166D01*
X109940472Y-78525233D01*
X110005936Y-78500816D01*
X110014782Y-78500500D01*
X116480016Y-78500500D01*
X116547055Y-78520185D01*
G37*
%TD.AperFunction*%
%TD*%
M02*
