%TF.GenerationSoftware,KiCad,Pcbnew,8.0.5*%
%TF.CreationDate,2024-10-18T17:30:21-04:00*%
%TF.ProjectId,STM32F4Example,53544d33-3246-4344-9578-616d706c652e,rev?*%
%TF.SameCoordinates,Original*%
%TF.FileFunction,Legend,Bot*%
%TF.FilePolarity,Positive*%
%FSLAX46Y46*%
G04 Gerber Fmt 4.6, Leading zero omitted, Abs format (unit mm)*
G04 Created by KiCad (PCBNEW 8.0.5) date 2024-10-18 17:30:21*
%MOMM*%
%LPD*%
G01*
G04 APERTURE LIST*
%ADD10R,1.700000X1.700000*%
%ADD11O,1.700000X1.700000*%
%ADD12C,0.650000*%
%ADD13O,1.000000X2.100000*%
%ADD14O,1.000000X1.800000*%
G04 APERTURE END LIST*
%LPC*%
D10*
%TO.C,J3*%
X95089776Y-114480951D03*
D11*
X95089776Y-111940951D03*
X95089776Y-109400951D03*
X95089776Y-106860951D03*
X95089776Y-104320951D03*
X95089776Y-101780951D03*
X95089776Y-99240951D03*
X95089776Y-96700951D03*
X95089776Y-94160951D03*
X95089776Y-91620951D03*
X95089776Y-89080951D03*
X95089776Y-86540951D03*
X95089776Y-84000951D03*
X95089776Y-81460951D03*
X95089776Y-78920951D03*
X95089776Y-76380951D03*
X95089776Y-73840951D03*
%TD*%
D10*
%TO.C,J1*%
X110300000Y-98975000D03*
D11*
X110300000Y-96435000D03*
%TD*%
D12*
%TO.C,U3*%
X103700000Y-111552500D03*
X109490000Y-111552500D03*
D13*
X102280000Y-111052500D03*
X110920000Y-111052500D03*
D14*
X110920000Y-115232500D03*
X102280000Y-115232500D03*
%TD*%
D10*
%TO.C,J2*%
X117929776Y-114470951D03*
D11*
X117929776Y-111930951D03*
X117929776Y-109390951D03*
X117929776Y-106850951D03*
X117929776Y-104310951D03*
X117929776Y-101770951D03*
X117929776Y-99230951D03*
X117929776Y-96690951D03*
X117929776Y-94150951D03*
X117929776Y-91610951D03*
X117929776Y-89070951D03*
X117929776Y-86530951D03*
X117929776Y-83990951D03*
X117929776Y-81450951D03*
X117929776Y-78910951D03*
X117929776Y-76370951D03*
X117929776Y-73830951D03*
%TD*%
%LPD*%
M02*
