M48
; DRILL file {KiCad 8.0.5} date 2024-10-18T17:30:21-0400
; FORMAT={-:-/ absolute / inch / decimal}
; #@! TF.CreationDate,2024-10-18T17:30:21-04:00
; #@! TF.GenerationSoftware,Kicad,Pcbnew,8.0.5
; #@! TF.FileFunction,Plated,1,2,PTH
FMAT,2
INCH
; #@! TA.AperFunction,Plated,PTH,ViaDrill
T1C0.0118
; #@! TA.AperFunction,Plated,PTH,ComponentDrill
T2C0.0236
; #@! TA.AperFunction,Plated,PTH,ComponentDrill
T3C0.0256
; #@! TA.AperFunction,Plated,PTH,ComponentDrill
T4C0.0394
%
G90
G05
T1
X3.8858Y-3.9213
X3.8976Y-3.4803
X3.9055Y-3.0
X3.9055Y-4.3937
X3.9055Y-4.5079
X3.9184Y-3.4157
X3.9331Y-3.2717
X3.937Y-3.4921
X3.9377Y-3.2205
X3.9409Y-3.3937
X3.9528Y-4.2126
X3.9567Y-4.1575
X3.9606Y-3.4409
X3.9646Y-3.3701
X3.9882Y-4.2992
X3.9892Y-3.7244
X4.003Y-3.2205
X4.0207Y-3.7244
X4.0345Y-3.2205
X4.066Y-3.2214
X4.0709Y-3.622
X4.0866Y-3.6575
X4.0866Y-4.0
X4.126Y-2.9252
X4.1654Y-2.9528
X4.1693Y-3.9016
X4.1693Y-4.2874
X4.2047Y-4.2756
X4.2789Y-3.172
X4.3189Y-4.0472
X4.3937Y-2.9094
X4.3976Y-3.1024
X4.4055Y-2.9685
X4.4173Y-4.3425
X4.4237Y-3.3189
X4.4471Y-3.5647
X4.4567Y-4.3976
X4.4567Y-4.5
X4.4803Y-3.4646
X4.5197Y-3.3504
X4.5236Y-2.9252
T3
X4.0827Y-4.3918
X4.3106Y-4.3918
T4
X3.7437Y-2.9071
X3.7437Y-3.0071
X3.7437Y-3.1071
X3.7437Y-3.2071
X3.7437Y-3.3071
X3.7437Y-3.4071
X3.7437Y-3.5071
X3.7437Y-3.6071
X3.7437Y-3.7071
X3.7437Y-3.8071
X3.7437Y-3.9071
X3.7437Y-4.0071
X3.7437Y-4.1071
X3.7437Y-4.2071
X3.7437Y-4.3071
X3.7437Y-4.4071
X3.7437Y-4.5071
X4.3425Y-3.7967
X4.3425Y-3.8967
X4.6429Y-2.9067
X4.6429Y-3.0067
X4.6429Y-3.1067
X4.6429Y-3.2067
X4.6429Y-3.3067
X4.6429Y-3.4067
X4.6429Y-3.5067
X4.6429Y-3.6067
X4.6429Y-3.7067
X4.6429Y-3.8067
X4.6429Y-3.9067
X4.6429Y-4.0067
X4.6429Y-4.1067
X4.6429Y-4.2067
X4.6429Y-4.3067
X4.6429Y-4.4067
X4.6429Y-4.5067
T2
G00X4.0268Y-4.3505
M15
G01X4.0268Y-4.3938
M16
G05
G00X4.0268Y-4.521
M15
G01X4.0268Y-4.5525
M16
G05
G00X4.3669Y-4.3505
M15
G01X4.3669Y-4.3938
M16
G05
G00X4.3669Y-4.521
M15
G01X4.3669Y-4.5525
M16
G05
M30
