%TF.GenerationSoftware,KiCad,Pcbnew,8.0.5*%
%TF.CreationDate,2024-10-18T17:30:21-04:00*%
%TF.ProjectId,STM32F4Example,53544d33-3246-4344-9578-616d706c652e,rev?*%
%TF.SameCoordinates,Original*%
%TF.FileFunction,Copper,L1,Top*%
%TF.FilePolarity,Positive*%
%FSLAX46Y46*%
G04 Gerber Fmt 4.6, Leading zero omitted, Abs format (unit mm)*
G04 Created by KiCad (PCBNEW 8.0.5) date 2024-10-18 17:30:21*
%MOMM*%
%LPD*%
G01*
G04 APERTURE LIST*
G04 Aperture macros list*
%AMRoundRect*
0 Rectangle with rounded corners*
0 $1 Rounding radius*
0 $2 $3 $4 $5 $6 $7 $8 $9 X,Y pos of 4 corners*
0 Add a 4 corners polygon primitive as box body*
4,1,4,$2,$3,$4,$5,$6,$7,$8,$9,$2,$3,0*
0 Add four circle primitives for the rounded corners*
1,1,$1+$1,$2,$3*
1,1,$1+$1,$4,$5*
1,1,$1+$1,$6,$7*
1,1,$1+$1,$8,$9*
0 Add four rect primitives between the rounded corners*
20,1,$1+$1,$2,$3,$4,$5,0*
20,1,$1+$1,$4,$5,$6,$7,0*
20,1,$1+$1,$6,$7,$8,$9,0*
20,1,$1+$1,$8,$9,$2,$3,0*%
%AMRotRect*
0 Rectangle, with rotation*
0 The origin of the aperture is its center*
0 $1 length*
0 $2 width*
0 $3 Rotation angle, in degrees counterclockwise*
0 Add horizontal line*
21,1,$1,$2,0,0,$3*%
G04 Aperture macros list end*
%TA.AperFunction,SMDPad,CuDef*%
%ADD10RoundRect,0.140000X0.140000X0.170000X-0.140000X0.170000X-0.140000X-0.170000X0.140000X-0.170000X0*%
%TD*%
%TA.AperFunction,SMDPad,CuDef*%
%ADD11RoundRect,0.140000X-0.021213X0.219203X-0.219203X0.021213X0.021213X-0.219203X0.219203X-0.021213X0*%
%TD*%
%TA.AperFunction,ComponentPad*%
%ADD12R,1.700000X1.700000*%
%TD*%
%TA.AperFunction,ComponentPad*%
%ADD13O,1.700000X1.700000*%
%TD*%
%TA.AperFunction,SMDPad,CuDef*%
%ADD14RoundRect,0.140000X0.021213X-0.219203X0.219203X-0.021213X-0.021213X0.219203X-0.219203X0.021213X0*%
%TD*%
%TA.AperFunction,SMDPad,CuDef*%
%ADD15R,2.500000X1.100000*%
%TD*%
%TA.AperFunction,SMDPad,CuDef*%
%ADD16R,2.340000X3.600000*%
%TD*%
%TA.AperFunction,SMDPad,CuDef*%
%ADD17RoundRect,0.140000X-0.219203X-0.021213X-0.021213X-0.219203X0.219203X0.021213X0.021213X0.219203X0*%
%TD*%
%TA.AperFunction,SMDPad,CuDef*%
%ADD18RoundRect,0.218750X0.335876X0.026517X0.026517X0.335876X-0.335876X-0.026517X-0.026517X-0.335876X0*%
%TD*%
%TA.AperFunction,SMDPad,CuDef*%
%ADD19RotRect,1.400000X1.200000X225.000000*%
%TD*%
%TA.AperFunction,SMDPad,CuDef*%
%ADD20RoundRect,0.140000X0.170000X-0.140000X0.170000X0.140000X-0.170000X0.140000X-0.170000X-0.140000X0*%
%TD*%
%TA.AperFunction,ComponentPad*%
%ADD21C,0.650000*%
%TD*%
%TA.AperFunction,ComponentPad*%
%ADD22O,1.000000X2.100000*%
%TD*%
%TA.AperFunction,ComponentPad*%
%ADD23O,1.000000X1.800000*%
%TD*%
%TA.AperFunction,SMDPad,CuDef*%
%ADD24R,0.600000X1.240000*%
%TD*%
%TA.AperFunction,SMDPad,CuDef*%
%ADD25R,0.300000X1.240000*%
%TD*%
%TA.AperFunction,SMDPad,CuDef*%
%ADD26RoundRect,0.140000X-0.140000X-0.170000X0.140000X-0.170000X0.140000X0.170000X-0.140000X0.170000X0*%
%TD*%
%TA.AperFunction,SMDPad,CuDef*%
%ADD27RoundRect,0.200000X-0.200000X-0.275000X0.200000X-0.275000X0.200000X0.275000X-0.200000X0.275000X0*%
%TD*%
%TA.AperFunction,SMDPad,CuDef*%
%ADD28RoundRect,0.062500X0.220971X0.309359X-0.309359X-0.220971X-0.220971X-0.309359X0.309359X0.220971X0*%
%TD*%
%TA.AperFunction,SMDPad,CuDef*%
%ADD29RoundRect,0.062500X-0.220971X0.309359X-0.309359X0.220971X0.220971X-0.309359X0.309359X-0.220971X0*%
%TD*%
%TA.AperFunction,HeatsinkPad*%
%ADD30RotRect,5.600000X5.600000X225.000000*%
%TD*%
%TA.AperFunction,SMDPad,CuDef*%
%ADD31RoundRect,0.200000X0.200000X0.275000X-0.200000X0.275000X-0.200000X-0.275000X0.200000X-0.275000X0*%
%TD*%
%TA.AperFunction,SMDPad,CuDef*%
%ADD32RoundRect,0.200000X-0.275000X0.200000X-0.275000X-0.200000X0.275000X-0.200000X0.275000X0.200000X0*%
%TD*%
%TA.AperFunction,ViaPad*%
%ADD33C,0.600000*%
%TD*%
%TA.AperFunction,Conductor*%
%ADD34C,0.400000*%
%TD*%
%TA.AperFunction,Conductor*%
%ADD35C,0.200000*%
%TD*%
G04 APERTURE END LIST*
D10*
%TO.P,C12,1*%
%TO.N,+3V3*%
X107980000Y-100400000D03*
%TO.P,C12,2*%
%TO.N,GND*%
X107020000Y-100400000D03*
%TD*%
%TO.P,C10,1*%
%TO.N,+3V3*%
X107980000Y-99400000D03*
%TO.P,C10,2*%
%TO.N,GND*%
X107020000Y-99400000D03*
%TD*%
D11*
%TO.P,C2,1*%
%TO.N,+3V3*%
X104739411Y-90560589D03*
%TO.P,C2,2*%
%TO.N,GND*%
X104060589Y-91239411D03*
%TD*%
D12*
%TO.P,J3,1,Pin_1*%
%TO.N,+3V3*%
X95089776Y-114480951D03*
D13*
%TO.P,J3,2,Pin_2*%
%TO.N,Net-(J3-Pin_2)*%
X95089776Y-111940951D03*
%TO.P,J3,3,Pin_3*%
%TO.N,Net-(J3-Pin_3)*%
X95089776Y-109400951D03*
%TO.P,J3,4,Pin_4*%
%TO.N,Net-(J3-Pin_4)*%
X95089776Y-106860951D03*
%TO.P,J3,5,Pin_5*%
%TO.N,GND*%
X95089776Y-104320951D03*
%TO.P,J3,6,Pin_6*%
X95089776Y-101780951D03*
%TO.P,J3,7,Pin_7*%
%TO.N,Net-(J3-Pin_7)*%
X95089776Y-99240951D03*
%TO.P,J3,8,Pin_8*%
%TO.N,Net-(J3-Pin_8)*%
X95089776Y-96700951D03*
%TO.P,J3,9,Pin_9*%
%TO.N,Net-(J3-Pin_9)*%
X95089776Y-94160951D03*
%TO.P,J3,10,Pin_10*%
%TO.N,Net-(J3-Pin_10)*%
X95089776Y-91620951D03*
%TO.P,J3,11,Pin_11*%
%TO.N,Net-(J3-Pin_11)*%
X95089776Y-89080951D03*
%TO.P,J3,12,Pin_12*%
%TO.N,Net-(J3-Pin_12)*%
X95089776Y-86540951D03*
%TO.P,J3,13,Pin_13*%
%TO.N,Net-(J3-Pin_13)*%
X95089776Y-84000951D03*
%TO.P,J3,14,Pin_14*%
%TO.N,Net-(J3-Pin_14)*%
X95089776Y-81460951D03*
%TO.P,J3,15,Pin_15*%
%TO.N,Net-(J3-Pin_15)*%
X95089776Y-78920951D03*
%TO.P,J3,16,Pin_16*%
%TO.N,Net-(J3-Pin_16)*%
X95089776Y-76380951D03*
%TO.P,J3,17,Pin_17*%
%TO.N,+3V3*%
X95089776Y-73840951D03*
%TD*%
D12*
%TO.P,J1,1,Pin_1*%
%TO.N,+3V3*%
X110300000Y-98975000D03*
D13*
%TO.P,J1,2,Pin_2*%
%TO.N,Net-(J1-Pin_2)*%
X110300000Y-96435000D03*
%TD*%
D14*
%TO.P,C1,1*%
%TO.N,Net-(U4-NRST)*%
X109260589Y-81139411D03*
%TO.P,C1,2*%
%TO.N,GND*%
X109939411Y-80460589D03*
%TD*%
%TO.P,C7,1*%
%TO.N,+3.3VA*%
X109160589Y-79839411D03*
%TO.P,C7,2*%
%TO.N,GND*%
X109839411Y-79160589D03*
%TD*%
D11*
%TO.P,C8,1*%
%TO.N,/XOT*%
X109639411Y-77960589D03*
%TO.P,C8,2*%
%TO.N,GND*%
X108960589Y-78639411D03*
%TD*%
D15*
%TO.P,U2,1,ADJ/GND*%
%TO.N,GND*%
X103759999Y-103300000D03*
%TO.P,U2,2,OUTPUT*%
%TO.N,+3V3*%
X103760000Y-105600000D03*
%TO.P,U2,3,INPUT*%
%TO.N,+5V*%
X103759999Y-107900000D03*
D16*
%TO.P,U2,4,OUTPUT*%
%TO.N,+3V3*%
X109700000Y-105600000D03*
%TD*%
D17*
%TO.P,C4,1*%
%TO.N,+3V3*%
X111660589Y-86460589D03*
%TO.P,C4,2*%
%TO.N,GND*%
X112339411Y-87139411D03*
%TD*%
D11*
%TO.P,C6,1*%
%TO.N,+3V3*%
X104639411Y-77460589D03*
%TO.P,C6,2*%
%TO.N,GND*%
X103960589Y-78139411D03*
%TD*%
D18*
%TO.P,L1,1,1*%
%TO.N,+3.3VA*%
X106756847Y-77656847D03*
%TO.P,L1,2,2*%
%TO.N,+3V3*%
X105643153Y-76543153D03*
%TD*%
D11*
%TO.P,C13,1*%
%TO.N,Net-(U4-VCAP1)*%
X99339411Y-82360589D03*
%TO.P,C13,2*%
%TO.N,GND*%
X98660589Y-83039411D03*
%TD*%
D19*
%TO.P,X1,1,OSC1*%
%TO.N,/XIN*%
X109276777Y-73821142D03*
%TO.P,X1,2,GND*%
%TO.N,GND*%
X107721142Y-75376777D03*
%TO.P,X1,3,OSC2*%
%TO.N,/XOT*%
X108923223Y-76578858D03*
%TO.P,X1,4,GND*%
%TO.N,GND*%
X110478858Y-75023223D03*
%TD*%
D20*
%TO.P,C11,1*%
%TO.N,+5V*%
X101500000Y-107860000D03*
%TO.P,C11,2*%
%TO.N,GND*%
X101500000Y-106900000D03*
%TD*%
D14*
%TO.P,C5,1*%
%TO.N,+3V3*%
X111621178Y-83678822D03*
%TO.P,C5,2*%
%TO.N,GND*%
X112300000Y-83000000D03*
%TD*%
D21*
%TO.P,U3,*%
%TO.N,*%
X103700000Y-111552500D03*
X109490000Y-111552500D03*
D22*
%TO.P,U3,1,SHELL*%
%TO.N,unconnected-(U3-SHELL-Pad1)*%
X102280000Y-111052500D03*
%TO.P,U3,2,SHELL*%
%TO.N,unconnected-(U3-SHELL-Pad2)*%
X110920000Y-111052500D03*
D23*
%TO.P,U3,3,SHELL*%
%TO.N,unconnected-(U3-SHELL-Pad3)*%
X110920000Y-115232500D03*
%TO.P,U3,4,SHELL*%
%TO.N,unconnected-(U3-SHELL-Pad4)*%
X102280000Y-115232500D03*
D24*
%TO.P,U3,A1B12,GND*%
%TO.N,GND*%
X103400000Y-110432500D03*
%TO.P,U3,A4B9,VBUS*%
%TO.N,+5V*%
X104200000Y-110432500D03*
D25*
%TO.P,U3,A5,CC1*%
%TO.N,Net-(U3-CC1)*%
X105350000Y-110432500D03*
%TO.P,U3,A6,DP1*%
%TO.N,/USBD+*%
X106350000Y-110432500D03*
%TO.P,U3,A7,DN1*%
%TO.N,/USBD-*%
X106850000Y-110432500D03*
%TO.P,U3,A8,SBU1*%
%TO.N,unconnected-(U3-SBU1-PadA8)*%
X107850000Y-110432500D03*
D24*
%TO.P,U3,B1A12,GND*%
%TO.N,GND*%
X109800000Y-110432500D03*
%TO.P,U3,B4A9,VBUS*%
%TO.N,+5V*%
X109000000Y-110432500D03*
D25*
%TO.P,U3,B5,CC2*%
%TO.N,Net-(U3-CC2)*%
X108350000Y-110432500D03*
%TO.P,U3,B6,DP2*%
%TO.N,/USBD+*%
X107350000Y-110432500D03*
%TO.P,U3,B7,DN2*%
%TO.N,/USBD-*%
X105850000Y-110432500D03*
%TO.P,U3,B8,SBU2*%
%TO.N,unconnected-(U3-SBU2-PadB8)*%
X104850000Y-110432500D03*
%TD*%
D26*
%TO.P,C9,1*%
%TO.N,/XIN*%
X110720000Y-77600000D03*
%TO.P,C9,2*%
%TO.N,GND*%
X111680000Y-77600000D03*
%TD*%
D27*
%TO.P,R1,1*%
%TO.N,Net-(U3-CC2)*%
X112375000Y-113000000D03*
%TO.P,R1,2*%
%TO.N,GND*%
X114025000Y-113000000D03*
%TD*%
D28*
%TO.P,U4,1,VBAT*%
%TO.N,+3V3*%
X110661359Y-84589087D03*
%TO.P,U4,2,PC13*%
%TO.N,unconnected-(U4-PC13-Pad2)*%
X110307806Y-84235534D03*
%TO.P,U4,3,PC14*%
%TO.N,unconnected-(U4-PC14-Pad3)*%
X109954252Y-83881980D03*
%TO.P,U4,4,PC15*%
%TO.N,unconnected-(U4-PC15-Pad4)*%
X109600699Y-83528427D03*
%TO.P,U4,5,PH0*%
%TO.N,/XIN*%
X109247146Y-83174874D03*
%TO.P,U4,6,PH1*%
%TO.N,/XOT*%
X108893592Y-82821320D03*
%TO.P,U4,7,NRST*%
%TO.N,Net-(U4-NRST)*%
X108540039Y-82467767D03*
%TO.P,U4,8,VSSA*%
%TO.N,GND*%
X108186485Y-82114213D03*
%TO.P,U4,9,VDDA*%
%TO.N,+3.3VA*%
X107832932Y-81760660D03*
%TO.P,U4,10,PA0*%
%TO.N,unconnected-(U4-PA0-Pad10)*%
X107479379Y-81407107D03*
%TO.P,U4,11,PA1*%
%TO.N,Net-(J3-Pin_16)*%
X107125825Y-81053553D03*
%TO.P,U4,12,PA2*%
%TO.N,Net-(J3-Pin_15)*%
X106772272Y-80700000D03*
D29*
%TO.P,U4,13,PA3*%
%TO.N,Net-(J3-Pin_14)*%
X105800000Y-80700000D03*
%TO.P,U4,14,PA4*%
%TO.N,Net-(J3-Pin_13)*%
X105446447Y-81053553D03*
%TO.P,U4,15,PA5*%
%TO.N,Net-(J3-Pin_12)*%
X105092893Y-81407107D03*
%TO.P,U4,16,PA6*%
%TO.N,Net-(J3-Pin_11)*%
X104739340Y-81760660D03*
%TO.P,U4,17,PA7*%
%TO.N,Net-(J3-Pin_10)*%
X104385787Y-82114213D03*
%TO.P,U4,18,PB0*%
%TO.N,Net-(J2-Pin_2)*%
X104032233Y-82467767D03*
%TO.P,U4,19,PB1*%
%TO.N,Net-(J2-Pin_3)*%
X103678680Y-82821320D03*
%TO.P,U4,20,PB2*%
%TO.N,Net-(J2-Pin_4)*%
X103325126Y-83174874D03*
%TO.P,U4,21,PB10*%
%TO.N,Net-(J2-Pin_12)*%
X102971573Y-83528427D03*
%TO.P,U4,22,VCAP1*%
%TO.N,Net-(U4-VCAP1)*%
X102618020Y-83881980D03*
%TO.P,U4,23,VSS*%
%TO.N,GND*%
X102264466Y-84235534D03*
%TO.P,U4,24,VDD*%
%TO.N,+3V3*%
X101910913Y-84589087D03*
D28*
%TO.P,U4,25,PB12*%
%TO.N,Net-(J2-Pin_13)*%
X101910913Y-85561359D03*
%TO.P,U4,26,PB13*%
%TO.N,Net-(J2-Pin_14)*%
X102264466Y-85914912D03*
%TO.P,U4,27,PB14*%
%TO.N,Net-(J2-Pin_15)*%
X102618020Y-86268466D03*
%TO.P,U4,28,PB15*%
%TO.N,Net-(J2-Pin_16)*%
X102971573Y-86622019D03*
%TO.P,U4,29,PA8*%
%TO.N,Net-(J3-Pin_9)*%
X103325126Y-86975572D03*
%TO.P,U4,30,PA9*%
%TO.N,Net-(J3-Pin_8)*%
X103678680Y-87329126D03*
%TO.P,U4,31,PA10*%
%TO.N,Net-(J3-Pin_7)*%
X104032233Y-87682679D03*
%TO.P,U4,32,PA11*%
%TO.N,/USBD-*%
X104385787Y-88036233D03*
%TO.P,U4,33,PA12*%
%TO.N,/USBD+*%
X104739340Y-88389786D03*
%TO.P,U4,34,PA13*%
%TO.N,Net-(J3-Pin_4)*%
X105092893Y-88743339D03*
%TO.P,U4,35,VSS*%
%TO.N,GND*%
X105446447Y-89096893D03*
%TO.P,U4,36,VDD*%
%TO.N,+3V3*%
X105800000Y-89450446D03*
D29*
%TO.P,U4,37,PA14*%
%TO.N,Net-(J3-Pin_3)*%
X106772272Y-89450446D03*
%TO.P,U4,38,PA15*%
%TO.N,Net-(J3-Pin_2)*%
X107125825Y-89096893D03*
%TO.P,U4,39,PB3*%
%TO.N,Net-(J2-Pin_5)*%
X107479379Y-88743339D03*
%TO.P,U4,40,PB4*%
%TO.N,Net-(J2-Pin_6)*%
X107832932Y-88389786D03*
%TO.P,U4,41,PB5*%
%TO.N,Net-(J2-Pin_7)*%
X108186485Y-88036233D03*
%TO.P,U4,42,PB6*%
%TO.N,Net-(J2-Pin_8)*%
X108540039Y-87682679D03*
%TO.P,U4,43,PB7*%
%TO.N,Net-(J2-Pin_9)*%
X108893592Y-87329126D03*
%TO.P,U4,44,BOOT0*%
%TO.N,Net-(J1-Pin_2)*%
X109247146Y-86975572D03*
%TO.P,U4,45,PB8*%
%TO.N,Net-(J2-Pin_10)*%
X109600699Y-86622019D03*
%TO.P,U4,46,PB9*%
%TO.N,Net-(J2-Pin_11)*%
X109954252Y-86268466D03*
%TO.P,U4,47,VSS*%
%TO.N,GND*%
X110307806Y-85914912D03*
%TO.P,U4,48,VDD*%
%TO.N,+3V3*%
X110661359Y-85561359D03*
D30*
%TO.P,U4,49,VSS*%
%TO.N,GND*%
X106286136Y-85075223D03*
%TD*%
D31*
%TO.P,R3,1*%
%TO.N,Net-(U3-CC1)*%
X100800000Y-113000000D03*
%TO.P,R3,2*%
%TO.N,GND*%
X99150000Y-113000000D03*
%TD*%
D32*
%TO.P,R2,1*%
%TO.N,Net-(J1-Pin_2)*%
X107600000Y-96375000D03*
%TO.P,R2,2*%
%TO.N,GND*%
X107600000Y-98025000D03*
%TD*%
D11*
%TO.P,C3,1*%
%TO.N,+3V3*%
X100639411Y-83960589D03*
%TO.P,C3,2*%
%TO.N,GND*%
X99960589Y-84639411D03*
%TD*%
D12*
%TO.P,J2,1,Pin_1*%
%TO.N,+5V*%
X117929776Y-114470951D03*
D13*
%TO.P,J2,2,Pin_2*%
%TO.N,Net-(J2-Pin_2)*%
X117929776Y-111930951D03*
%TO.P,J2,3,Pin_3*%
%TO.N,Net-(J2-Pin_3)*%
X117929776Y-109390951D03*
%TO.P,J2,4,Pin_4*%
%TO.N,Net-(J2-Pin_4)*%
X117929776Y-106850951D03*
%TO.P,J2,5,Pin_5*%
%TO.N,Net-(J2-Pin_5)*%
X117929776Y-104310951D03*
%TO.P,J2,6,Pin_6*%
%TO.N,Net-(J2-Pin_6)*%
X117929776Y-101770951D03*
%TO.P,J2,7,Pin_7*%
%TO.N,Net-(J2-Pin_7)*%
X117929776Y-99230951D03*
%TO.P,J2,8,Pin_8*%
%TO.N,Net-(J2-Pin_8)*%
X117929776Y-96690951D03*
%TO.P,J2,9,Pin_9*%
%TO.N,Net-(J2-Pin_9)*%
X117929776Y-94150951D03*
%TO.P,J2,10,Pin_10*%
%TO.N,Net-(J2-Pin_10)*%
X117929776Y-91610951D03*
%TO.P,J2,11,Pin_11*%
%TO.N,Net-(J2-Pin_11)*%
X117929776Y-89070951D03*
%TO.P,J2,12,Pin_12*%
%TO.N,Net-(J2-Pin_12)*%
X117929776Y-86530951D03*
%TO.P,J2,13,Pin_13*%
%TO.N,Net-(J2-Pin_13)*%
X117929776Y-83990951D03*
%TO.P,J2,14,Pin_14*%
%TO.N,Net-(J2-Pin_14)*%
X117929776Y-81450951D03*
%TO.P,J2,15,Pin_15*%
%TO.N,Net-(J2-Pin_15)*%
X117929776Y-78910951D03*
%TO.P,J2,16,Pin_16*%
%TO.N,Net-(J2-Pin_16)*%
X117929776Y-76370951D03*
%TO.P,J2,17,Pin_17*%
%TO.N,+5V*%
X117929776Y-73830951D03*
%TD*%
D33*
%TO.N,GND*%
X111700000Y-78800000D03*
X101300000Y-109200000D03*
X114800000Y-85100000D03*
X113200000Y-114300000D03*
X111900000Y-75400000D03*
X114900000Y-74300000D03*
X100000000Y-88700000D03*
X103400000Y-92000000D03*
X108684441Y-80570048D03*
X112361947Y-84300000D03*
X111600000Y-73900000D03*
X103800000Y-92900000D03*
X100400000Y-107000000D03*
X112200000Y-110300000D03*
X105800000Y-75000000D03*
X104800000Y-74300000D03*
X99200000Y-76200000D03*
X113800000Y-88000000D03*
X99200000Y-111600000D03*
X103800000Y-101600000D03*
X113200000Y-111700000D03*
X105900000Y-99100000D03*
X99900000Y-83100000D03*
X99200000Y-114500000D03*
X99000000Y-88400000D03*
%TO.N,+3V3*%
X109700000Y-102800000D03*
X100500000Y-105600000D03*
%TO.N,Net-(J1-Pin_2)*%
X112956497Y-90543503D03*
%TO.N,Net-(J2-Pin_2)*%
X103276210Y-81824739D03*
%TO.N,Net-(J2-Pin_14)*%
X100100000Y-86200000D03*
%TO.N,Net-(J2-Pin_13)*%
X100700000Y-85600000D03*
%TO.N,Net-(J2-Pin_12)*%
X100016735Y-81801357D03*
%TO.N,Net-(J2-Pin_4)*%
X101676547Y-81801358D03*
%TO.N,Net-(J2-Pin_15)*%
X99527180Y-86758464D03*
%TO.N,Net-(J2-Pin_16)*%
X100600000Y-87400000D03*
%TO.N,Net-(J2-Pin_3)*%
X102476549Y-81801357D03*
%TO.N,Net-(J3-Pin_4)*%
X98700000Y-99600000D03*
%TO.N,/USBD-*%
X101325000Y-94600000D03*
X105900000Y-108900000D03*
%TO.N,/USBD+*%
X106800000Y-108600000D03*
X102125003Y-94600000D03*
%TD*%
D34*
%TO.N,+3V3*%
X107980000Y-99400000D02*
X107980000Y-100400000D01*
D35*
%TO.N,GND*%
X98660589Y-83039411D02*
X98721178Y-83100000D01*
X110530000Y-109702500D02*
X111602500Y-109702500D01*
X105126917Y-89416423D02*
X105446447Y-89096893D01*
X101500000Y-83700000D02*
X100900000Y-83100000D01*
X111680000Y-77600000D02*
X111680000Y-75620000D01*
X98927180Y-88327180D02*
X98927180Y-85672820D01*
X103300000Y-91101918D02*
X104985495Y-89416423D01*
X110478858Y-75023223D02*
X110478858Y-75021142D01*
X109221178Y-78900000D02*
X108960589Y-78639411D01*
X109839411Y-79160589D02*
X109578822Y-78900000D01*
X105800000Y-75400000D02*
X105800000Y-75000000D01*
X99000000Y-88400000D02*
X98927180Y-88327180D01*
X112337330Y-88000000D02*
X113800000Y-88000000D01*
X102264466Y-84235534D02*
X103104155Y-85075223D01*
X104060589Y-92639411D02*
X104060589Y-91239411D01*
X108960589Y-78639411D02*
X108960589Y-78560589D01*
X108186485Y-82114213D02*
X106286136Y-84014562D01*
X109839411Y-80360589D02*
X109839411Y-79160589D01*
X102167500Y-109200000D02*
X101300000Y-109200000D01*
X102264466Y-84235534D02*
X101728932Y-83700000D01*
X110307806Y-85970476D02*
X112337330Y-88000000D01*
X103300000Y-91900000D02*
X103300000Y-91101918D01*
X103104155Y-85075223D02*
X106286136Y-85075223D01*
X111602500Y-109702500D02*
X112200000Y-110300000D01*
X109578822Y-78900000D02*
X109221178Y-78900000D01*
X111680000Y-75620000D02*
X111900000Y-75400000D01*
X108552463Y-80702026D02*
X108552463Y-81748235D01*
X110478858Y-75021142D02*
X111600000Y-73900000D01*
X101728932Y-83700000D02*
X101500000Y-83700000D01*
X103400000Y-92000000D02*
X103300000Y-91900000D01*
X112300000Y-84238053D02*
X112361947Y-84300000D01*
X108684441Y-80570048D02*
X108552463Y-80702026D01*
X103800000Y-92900000D02*
X104060589Y-92639411D01*
X112300000Y-83000000D02*
X112300000Y-84238053D01*
X109468117Y-85075223D02*
X106286136Y-85075223D01*
X110307806Y-85914912D02*
X110307806Y-85970476D01*
X108960589Y-78560589D02*
X105800000Y-75400000D01*
X106286136Y-84014562D02*
X106286136Y-85075223D01*
X110307806Y-85914912D02*
X109468117Y-85075223D01*
X109800000Y-110432500D02*
X110530000Y-109702500D01*
X98927180Y-85672820D02*
X99960589Y-84639411D01*
X100900000Y-83100000D02*
X99900000Y-83100000D01*
X104985495Y-89416423D02*
X105126917Y-89416423D01*
X103400000Y-110432500D02*
X102167500Y-109200000D01*
X108552463Y-81748235D02*
X108186485Y-82114213D01*
X98721178Y-83100000D02*
X99900000Y-83100000D01*
X109939411Y-80460589D02*
X109839411Y-80360589D01*
D34*
%TO.N,+3V3*%
X109700000Y-105600000D02*
X109700000Y-102800000D01*
X98099880Y-85496028D02*
X99795908Y-83800000D01*
X100500000Y-105600000D02*
X100400000Y-105600000D01*
D35*
X104739411Y-90511035D02*
X105800000Y-89450446D01*
D34*
X104822536Y-90643714D02*
X104739411Y-90560589D01*
X101019773Y-73840951D02*
X103639411Y-76460589D01*
X97400000Y-112200000D02*
X97370727Y-112200000D01*
X103760000Y-105600000D02*
X109700000Y-105600000D01*
X111401975Y-82893933D02*
X111401975Y-83459619D01*
X93700000Y-103200000D02*
X93700000Y-93800000D01*
X103721975Y-76543153D02*
X103639411Y-76460589D01*
X95089776Y-73840951D02*
X101019773Y-73840951D01*
X93700000Y-93800000D02*
X93700000Y-75230727D01*
X109700000Y-101700000D02*
X110300000Y-101100000D01*
X111401975Y-83459619D02*
X111621178Y-83678822D01*
D35*
X111560589Y-86460589D02*
X110661359Y-85561359D01*
D34*
X113061947Y-85059231D02*
X111660589Y-86460589D01*
X110300000Y-101100000D02*
X110300000Y-98975000D01*
X93700000Y-113091175D02*
X93700000Y-103200000D01*
X95629049Y-92870951D02*
X98099880Y-90400120D01*
X98099880Y-90400120D02*
X98099880Y-85496028D01*
X97036156Y-103070951D02*
X104822536Y-95284571D01*
X94612009Y-92870951D02*
X95629049Y-92870951D01*
X103639411Y-76460589D02*
X104639411Y-77460589D01*
X102358821Y-72501903D02*
X111501903Y-72501903D01*
X94572009Y-103070951D02*
X97036156Y-103070951D01*
X101019773Y-73840951D02*
X102358821Y-72501903D01*
X111501903Y-72501903D02*
X112600000Y-73600000D01*
X100478822Y-83800000D02*
X100639411Y-83960589D01*
X93700000Y-103942960D02*
X94572009Y-103070951D01*
X113061947Y-82157855D02*
X113061947Y-85059231D01*
X103760000Y-105600000D02*
X100500000Y-105600000D01*
D35*
X100778822Y-84100000D02*
X100639411Y-83960589D01*
D34*
X109700000Y-102800000D02*
X109700000Y-102020000D01*
X95089776Y-114480951D02*
X93700000Y-113091175D01*
X100400000Y-105600000D02*
X97400000Y-108600000D01*
D35*
X101421826Y-84100000D02*
X100778822Y-84100000D01*
D34*
X112600000Y-73600000D02*
X112600000Y-81695908D01*
X105643153Y-76543153D02*
X103721975Y-76543153D01*
D35*
X111571624Y-83678822D02*
X110661359Y-84589087D01*
D34*
X104822536Y-95284571D02*
X104822536Y-90643714D01*
X99795908Y-83800000D02*
X100478822Y-83800000D01*
X93700000Y-75230727D02*
X95089776Y-73840951D01*
D35*
X104739411Y-90560589D02*
X104739411Y-90511035D01*
D34*
X97400000Y-108600000D02*
X97400000Y-112200000D01*
X112600000Y-81695908D02*
X113061947Y-82157855D01*
X93700000Y-93782960D02*
X94612009Y-92870951D01*
D35*
X111621178Y-83678822D02*
X111571624Y-83678822D01*
D34*
X93700000Y-104100000D02*
X93700000Y-103942960D01*
D35*
X101910913Y-84589087D02*
X101421826Y-84100000D01*
D34*
X93700000Y-93800000D02*
X93700000Y-93782960D01*
X109700000Y-102020000D02*
X109700000Y-101700000D01*
X97370727Y-112200000D02*
X95089776Y-114480951D01*
D35*
X111660589Y-86460589D02*
X111560589Y-86460589D01*
D34*
X109700000Y-102020000D02*
X107980000Y-100300000D01*
X112600000Y-81695908D02*
X111401975Y-82893933D01*
%TO.N,+3.3VA*%
X106756847Y-77656847D02*
X108000000Y-78900000D01*
D35*
X108152463Y-81441129D02*
X108152463Y-80847537D01*
D34*
X108939411Y-79839411D02*
X109160589Y-79839411D01*
X108000000Y-78900000D02*
X108939411Y-79839411D01*
D35*
X108000000Y-80695074D02*
X108000000Y-78900000D01*
X107832932Y-81760660D02*
X108152463Y-81441129D01*
X108152463Y-80847537D02*
X108000000Y-80695074D01*
%TO.N,/XOT*%
X108893592Y-82821320D02*
X110600000Y-81114912D01*
X108923223Y-77244401D02*
X108923223Y-76578858D01*
X110600000Y-78921178D02*
X108923223Y-77244401D01*
X110600000Y-81114912D02*
X110600000Y-78921178D01*
%TO.N,/XIN*%
X110720000Y-78475492D02*
X110720000Y-76820000D01*
X108900000Y-74197919D02*
X109276777Y-73821142D01*
X108900000Y-75000000D02*
X108900000Y-74197919D01*
X111000000Y-81422020D02*
X111000000Y-78755492D01*
X109247146Y-83174874D02*
X111000000Y-81422020D01*
X110720000Y-76820000D02*
X108900000Y-75000000D01*
X111000000Y-78755492D02*
X110720000Y-78475492D01*
D34*
%TO.N,+5V*%
X109000000Y-109512500D02*
X109412500Y-109100000D01*
X103859999Y-107800000D02*
X107287500Y-107800000D01*
X103759999Y-107900000D02*
X101680000Y-107900000D01*
X109412500Y-109100000D02*
X112300000Y-109100000D01*
X104200000Y-108340001D02*
X104200000Y-110432500D01*
X112300000Y-109100000D02*
X117670951Y-114470951D01*
X107287500Y-107800000D02*
X109000000Y-109512500D01*
X117670951Y-114470951D02*
X117929776Y-114470951D01*
X109000000Y-109512500D02*
X109000000Y-110432500D01*
X103759999Y-107900000D02*
X103859999Y-107800000D01*
X117929776Y-114470951D02*
X119300000Y-113100727D01*
X119300000Y-75201175D02*
X117929776Y-73830951D01*
X103759999Y-107900000D02*
X104200000Y-108340001D01*
X119300000Y-113100727D02*
X119300000Y-75201175D01*
D35*
%TO.N,Net-(J1-Pin_2)*%
X109708097Y-87295103D02*
X109566677Y-87295103D01*
X110300000Y-96435000D02*
X107660000Y-96435000D01*
X112956497Y-90543503D02*
X109708097Y-87295103D01*
X109566677Y-87295103D02*
X109247146Y-86975572D01*
X107660000Y-96435000D02*
X107600000Y-96375000D01*
%TO.N,Net-(J2-Pin_2)*%
X103276210Y-81824739D02*
X103389205Y-81824739D01*
X103389205Y-81824739D02*
X104032233Y-82467767D01*
%TO.N,Net-(J2-Pin_10)*%
X116118825Y-89800000D02*
X117929776Y-91610951D01*
X112778680Y-89800000D02*
X116118825Y-89800000D01*
X109600699Y-86622019D02*
X112778680Y-89800000D01*
%TO.N,Net-(J2-Pin_14)*%
X101779378Y-86400000D02*
X102264466Y-85914912D01*
X100100000Y-86200000D02*
X100300000Y-86400000D01*
X100300000Y-86400000D02*
X101779378Y-86400000D01*
%TO.N,Net-(J2-Pin_7)*%
X115600000Y-96901175D02*
X117929776Y-99230951D01*
X115600000Y-95449748D02*
X115600000Y-96901175D01*
X108186485Y-88036233D02*
X115600000Y-95449748D01*
%TO.N,Net-(J2-Pin_5)*%
X107798909Y-89062869D02*
X107940329Y-89062869D01*
X107940329Y-89062869D02*
X114800000Y-95922540D01*
X107479379Y-88743339D02*
X107798909Y-89062869D01*
X114800000Y-101181175D02*
X117929776Y-104310951D01*
X114800000Y-95922540D02*
X114800000Y-101181175D01*
%TO.N,Net-(J2-Pin_13)*%
X100700000Y-85600000D02*
X101100000Y-86000000D01*
X101472272Y-86000000D02*
X101910913Y-85561359D01*
X101100000Y-86000000D02*
X101472272Y-86000000D01*
%TO.N,Net-(J2-Pin_6)*%
X115200000Y-99041175D02*
X117929776Y-101770951D01*
X107832932Y-88389786D02*
X115200000Y-95756854D01*
X115200000Y-95756854D02*
X115200000Y-99041175D01*
%TO.N,Net-(J2-Pin_12)*%
X100628020Y-81601358D02*
X100216734Y-81601358D01*
X100216734Y-81601358D02*
X100016735Y-81801357D01*
X102971573Y-83528427D02*
X102244504Y-82801358D01*
X101828020Y-82801358D02*
X100628020Y-81601358D01*
X102244504Y-82801358D02*
X101828020Y-82801358D01*
%TO.N,Net-(J2-Pin_8)*%
X117548311Y-96690951D02*
X117929776Y-96690951D01*
X108540039Y-87682679D02*
X117548311Y-96690951D01*
%TO.N,Net-(J2-Pin_4)*%
X102833577Y-82824745D02*
X102974997Y-82824745D01*
X101876552Y-82001363D02*
X101876552Y-82049887D01*
X101876552Y-82049887D02*
X102228023Y-82401358D01*
X101676547Y-81801358D02*
X101876552Y-82001363D01*
X102410190Y-82401358D02*
X102833577Y-82824745D01*
X102228023Y-82401358D02*
X102410190Y-82401358D01*
X102974997Y-82824745D02*
X103325126Y-83174874D01*
%TO.N,Net-(J2-Pin_9)*%
X115715417Y-94150951D02*
X117929776Y-94150951D01*
X108893592Y-87329126D02*
X115715417Y-94150951D01*
%TO.N,Net-(J2-Pin_15)*%
X99809935Y-86758464D02*
X99851471Y-86800000D01*
X99527180Y-86758464D02*
X99809935Y-86758464D01*
X102086486Y-86800000D02*
X102618020Y-86268466D01*
X99851471Y-86800000D02*
X102086486Y-86800000D01*
%TO.N,Net-(J2-Pin_16)*%
X100600000Y-87400000D02*
X102193592Y-87400000D01*
X102193592Y-87400000D02*
X102971573Y-86622019D01*
%TO.N,Net-(J2-Pin_11)*%
X112756737Y-89070951D02*
X117929776Y-89070951D01*
X109954252Y-86268466D02*
X112756737Y-89070951D01*
%TO.N,Net-(J2-Pin_3)*%
X103282105Y-82424745D02*
X103678680Y-82821320D01*
X102476549Y-81801357D02*
X102476549Y-81873607D01*
X102476549Y-81873607D02*
X103027687Y-82424745D01*
X103027687Y-82424745D02*
X103282105Y-82424745D01*
%TO.N,Net-(J3-Pin_12)*%
X105092893Y-81407107D02*
X104087144Y-80401358D01*
X104087144Y-80401358D02*
X103139552Y-80401358D01*
X96600000Y-82265686D02*
X96600000Y-85030727D01*
X103139552Y-80401358D02*
X103138194Y-80400000D01*
X103138194Y-80400000D02*
X98465686Y-80400000D01*
X98465686Y-80400000D02*
X96600000Y-82265686D01*
X96600000Y-85030727D02*
X95089776Y-86540951D01*
%TO.N,Net-(J3-Pin_10)*%
X103501358Y-81201358D02*
X99101358Y-81201358D01*
X99100000Y-81200000D02*
X98797058Y-81200000D01*
X97500000Y-89210727D02*
X95089776Y-91620951D01*
X97500000Y-82497058D02*
X97500000Y-89210727D01*
X103856497Y-81584923D02*
X103856497Y-81556497D01*
X98797058Y-81200000D02*
X97500000Y-82497058D01*
X99101358Y-81201358D02*
X99100000Y-81200000D01*
X103856497Y-81556497D02*
X103501358Y-81201358D01*
X104385787Y-82114213D02*
X103856497Y-81584923D01*
%TO.N,Net-(J3-Pin_2)*%
X107800000Y-91065686D02*
X107800000Y-94500000D01*
X107800000Y-94500000D02*
X105200000Y-97100000D01*
X107125825Y-89096893D02*
X108100000Y-90071068D01*
X105200000Y-97565686D02*
X97100000Y-105665686D01*
X97100000Y-107511050D02*
X96500000Y-108111050D01*
X96500000Y-108111050D02*
X96500000Y-110530727D01*
X105200000Y-97100000D02*
X105200000Y-97565686D01*
X108100000Y-90765686D02*
X107800000Y-91065686D01*
X108100000Y-90071068D02*
X108100000Y-90765686D01*
X97100000Y-105665686D02*
X97100000Y-107511050D01*
X96500000Y-110530727D02*
X95089776Y-111940951D01*
%TO.N,Net-(J3-Pin_9)*%
X96139747Y-94160951D02*
X95089776Y-94160951D01*
X103325126Y-86975572D02*
X96139747Y-94160951D01*
%TO.N,Net-(J3-Pin_8)*%
X103678680Y-87329126D02*
X95089776Y-95918030D01*
X95089776Y-95918030D02*
X95089776Y-96700951D01*
%TO.N,Net-(J3-Pin_16)*%
X97508825Y-78800000D02*
X95089776Y-76380951D01*
X104161312Y-78801358D02*
X103802292Y-78801358D01*
X107445356Y-80734022D02*
X107445356Y-79745356D01*
X106500000Y-78800000D02*
X104162670Y-78800000D01*
X103802292Y-78801358D02*
X103800934Y-78800000D01*
X104162670Y-78800000D02*
X104161312Y-78801358D01*
X107125825Y-81053553D02*
X107445356Y-80734022D01*
X107445356Y-79745356D02*
X106500000Y-78800000D01*
X103800934Y-78800000D02*
X97508825Y-78800000D01*
%TO.N,Net-(J3-Pin_11)*%
X102973867Y-80801358D02*
X102972509Y-80800000D01*
X104739340Y-81760660D02*
X103780038Y-80801358D01*
X102972509Y-80800000D02*
X98631372Y-80800000D01*
X97100000Y-87070727D02*
X95089776Y-89080951D01*
X98631372Y-80800000D02*
X97100000Y-82331372D01*
X103780038Y-80801358D02*
X102973867Y-80801358D01*
X97100000Y-82331372D02*
X97100000Y-87070727D01*
%TO.N,Net-(J3-Pin_3)*%
X107400000Y-94334314D02*
X104800000Y-96934314D01*
X107400000Y-90900000D02*
X107400000Y-94334314D01*
X96700000Y-105500000D02*
X96700000Y-107345364D01*
X96700000Y-107345364D02*
X95089776Y-108955588D01*
X107700000Y-90600000D02*
X107400000Y-90900000D01*
X106772272Y-89450446D02*
X107700000Y-90378174D01*
X95089776Y-108955588D02*
X95089776Y-109400951D01*
X107700000Y-90378174D02*
X107700000Y-90600000D01*
X104800000Y-96934314D02*
X104800000Y-97400000D01*
X104800000Y-97400000D02*
X96700000Y-105500000D01*
%TO.N,Net-(J3-Pin_4)*%
X98700000Y-99600000D02*
X98900000Y-99600000D01*
X98900000Y-99600000D02*
X102800000Y-95700000D01*
X102800000Y-95700000D02*
X102800000Y-91036232D01*
X102800000Y-91036232D02*
X105092893Y-88743339D01*
%TO.N,Net-(J3-Pin_14)*%
X105800000Y-80700000D02*
X104700000Y-79600000D01*
X104700000Y-79600000D02*
X104494042Y-79600000D01*
X104494042Y-79600000D02*
X104492684Y-79601358D01*
X103469564Y-79600000D02*
X96950727Y-79600000D01*
X103470922Y-79601358D02*
X103469564Y-79600000D01*
X104492684Y-79601358D02*
X103470922Y-79601358D01*
X96950727Y-79600000D02*
X95089776Y-81460951D01*
%TO.N,Net-(J3-Pin_15)*%
X106334314Y-79200000D02*
X104328356Y-79200000D01*
X104328356Y-79200000D02*
X104326998Y-79201358D01*
X103635249Y-79200000D02*
X95368825Y-79200000D01*
X106772272Y-80700000D02*
X106995496Y-80476776D01*
X104326998Y-79201358D02*
X103636607Y-79201358D01*
X95368825Y-79200000D02*
X95089776Y-78920951D01*
X106995496Y-80476776D02*
X106995496Y-79861182D01*
X103636607Y-79201358D02*
X103635249Y-79200000D01*
X106995496Y-79861182D02*
X106334314Y-79200000D01*
%TO.N,Net-(J3-Pin_7)*%
X104032233Y-87682679D02*
X104017321Y-87682679D01*
X96900000Y-94800000D02*
X96900000Y-97430727D01*
X96900000Y-97430727D02*
X95089776Y-99240951D01*
X104017321Y-87682679D02*
X96900000Y-94800000D01*
%TO.N,Net-(J3-Pin_13)*%
X103305237Y-80001358D02*
X103303879Y-80000000D01*
X95089776Y-83210224D02*
X95089776Y-84000951D01*
X105446447Y-81053553D02*
X104394252Y-80001358D01*
X98300000Y-80000000D02*
X95089776Y-83210224D01*
X104394252Y-80001358D02*
X103305237Y-80001358D01*
X103303879Y-80000000D02*
X98300000Y-80000000D01*
%TO.N,Net-(U3-CC2)*%
X108350000Y-110432500D02*
X108350000Y-112250000D01*
X109100000Y-113000000D02*
X112275000Y-113000000D01*
X108350000Y-112250000D02*
X109100000Y-113000000D01*
X112275000Y-113000000D02*
X112375000Y-113100000D01*
%TO.N,Net-(U3-CC1)*%
X105350000Y-112350000D02*
X104700000Y-113000000D01*
X104700000Y-113000000D02*
X100800000Y-113000000D01*
X105350000Y-110432500D02*
X105350000Y-112350000D01*
%TO.N,/USBD-*%
X105850000Y-111302500D02*
X106047500Y-111500000D01*
X101475000Y-90982376D02*
X103990071Y-88467305D01*
X105900000Y-108900000D02*
X105850000Y-108950000D01*
X103990071Y-88431949D02*
X104385787Y-88036233D01*
X101325000Y-94600000D02*
X101475000Y-94450000D01*
X106047500Y-111500000D02*
X106600000Y-111500000D01*
X103990071Y-88467305D02*
X103990071Y-88431949D01*
X106850000Y-111250000D02*
X106850000Y-110432500D01*
X105850000Y-110432500D02*
X105850000Y-111302500D01*
X106600000Y-111500000D02*
X106850000Y-111250000D01*
X105850000Y-108950000D02*
X105850000Y-110432500D01*
X101475000Y-94450000D02*
X101475000Y-90982376D01*
%TO.N,/USBD+*%
X107350000Y-109550000D02*
X107350000Y-110432500D01*
X104343624Y-88785502D02*
X104739340Y-88389786D01*
X107100000Y-109300000D02*
X107350000Y-109550000D01*
X101925000Y-91168770D02*
X104308268Y-88785502D01*
X101925000Y-94399997D02*
X101925000Y-91168770D01*
X106800000Y-109200000D02*
X106900000Y-109300000D01*
X106800000Y-108600000D02*
X106800000Y-109200000D01*
X106612500Y-109300000D02*
X106900000Y-109300000D01*
X106900000Y-109300000D02*
X107100000Y-109300000D01*
X106350000Y-109562500D02*
X106612500Y-109300000D01*
X104308268Y-88785502D02*
X104343624Y-88785502D01*
X102125003Y-94600000D02*
X101925000Y-94399997D01*
X106350000Y-110432500D02*
X106350000Y-109562500D01*
%TO.N,Net-(U4-NRST)*%
X108540039Y-82467767D02*
X109260589Y-81747217D01*
X109260589Y-81747217D02*
X109260589Y-81139411D01*
%TO.N,Net-(U4-VCAP1)*%
X102618020Y-83881980D02*
X101960976Y-83224936D01*
X101960976Y-83224936D02*
X101960976Y-83201358D01*
X101662334Y-83201358D02*
X101428020Y-82967043D01*
X101960976Y-83201358D02*
X101662334Y-83201358D01*
X100862333Y-82401357D02*
X99380179Y-82401357D01*
X99380179Y-82401357D02*
X99339411Y-82360589D01*
X101428020Y-82967043D02*
X100862333Y-82401357D01*
%TD*%
%TA.AperFunction,Conductor*%
%TO.N,GND*%
G36*
X100630320Y-106462849D02*
G01*
X100686253Y-106504721D01*
X100710670Y-106570185D01*
X100706063Y-106613625D01*
X100695495Y-106650000D01*
X101626000Y-106650000D01*
X101693039Y-106669685D01*
X101738794Y-106722489D01*
X101750000Y-106774000D01*
X101750000Y-106955500D01*
X101730315Y-107022539D01*
X101677511Y-107068294D01*
X101626000Y-107079500D01*
X101265302Y-107079500D01*
X101229008Y-107082356D01*
X101229002Y-107082357D01*
X101073610Y-107127503D01*
X101073605Y-107127506D01*
X101064766Y-107132732D01*
X101001648Y-107150000D01*
X100695496Y-107150000D01*
X100737968Y-107296194D01*
X100749911Y-107316389D01*
X100767092Y-107384113D01*
X100749911Y-107442628D01*
X100737506Y-107463604D01*
X100737504Y-107463609D01*
X100692357Y-107619002D01*
X100692356Y-107619008D01*
X100689500Y-107655302D01*
X100689500Y-108064697D01*
X100692356Y-108100991D01*
X100692357Y-108100997D01*
X100737504Y-108256390D01*
X100737505Y-108256393D01*
X100819881Y-108395684D01*
X100819887Y-108395692D01*
X100934307Y-108510112D01*
X100934311Y-108510115D01*
X100934313Y-108510117D01*
X101073605Y-108592494D01*
X101114587Y-108604400D01*
X101229002Y-108637642D01*
X101229005Y-108637642D01*
X101229007Y-108637643D01*
X101265310Y-108640500D01*
X101265318Y-108640500D01*
X101734682Y-108640500D01*
X101734690Y-108640500D01*
X101770993Y-108637643D01*
X101770995Y-108637642D01*
X101770997Y-108637642D01*
X101881891Y-108605424D01*
X101916486Y-108600500D01*
X101945858Y-108600500D01*
X102012897Y-108620185D01*
X102058652Y-108672989D01*
X102062029Y-108681140D01*
X102066203Y-108692331D01*
X102066204Y-108692332D01*
X102066205Y-108692335D01*
X102152451Y-108807544D01*
X102152454Y-108807547D01*
X102267663Y-108893793D01*
X102267670Y-108893797D01*
X102402516Y-108944091D01*
X102402515Y-108944091D01*
X102409443Y-108944835D01*
X102462126Y-108950500D01*
X103375500Y-108950499D01*
X103442539Y-108970183D01*
X103488294Y-109022987D01*
X103499500Y-109074499D01*
X103499500Y-109471061D01*
X103479815Y-109538100D01*
X103474767Y-109545372D01*
X103456204Y-109570168D01*
X103456202Y-109570171D01*
X103405908Y-109705017D01*
X103399501Y-109764616D01*
X103399500Y-109764635D01*
X103399500Y-109969215D01*
X103379815Y-110036254D01*
X103327011Y-110082009D01*
X103257853Y-110091953D01*
X103194297Y-110062928D01*
X103166144Y-110027673D01*
X103164644Y-110024867D01*
X103150000Y-109966409D01*
X103150000Y-109312500D01*
X103052155Y-109312500D01*
X102992627Y-109318901D01*
X102992620Y-109318903D01*
X102857913Y-109369145D01*
X102857906Y-109369149D01*
X102742812Y-109455309D01*
X102711317Y-109497381D01*
X102655383Y-109539251D01*
X102585691Y-109544235D01*
X102576052Y-109541728D01*
X102571835Y-109540448D01*
X102378543Y-109502000D01*
X102378541Y-109502000D01*
X102181459Y-109502000D01*
X102181457Y-109502000D01*
X101988170Y-109540447D01*
X101988160Y-109540450D01*
X101806092Y-109615864D01*
X101806079Y-109615871D01*
X101642218Y-109725360D01*
X101642214Y-109725363D01*
X101502863Y-109864714D01*
X101502860Y-109864718D01*
X101393371Y-110028579D01*
X101393364Y-110028592D01*
X101317950Y-110210660D01*
X101317947Y-110210670D01*
X101279500Y-110403956D01*
X101279500Y-111701045D01*
X101318807Y-111898653D01*
X101312580Y-111968244D01*
X101269717Y-112023422D01*
X101203827Y-112046666D01*
X101160302Y-112041230D01*
X101127196Y-112030914D01*
X101056616Y-112024500D01*
X100543384Y-112024500D01*
X100524145Y-112026248D01*
X100472807Y-112030913D01*
X100310393Y-112081522D01*
X100164811Y-112169530D01*
X100164810Y-112169531D01*
X100062327Y-112272015D01*
X100001004Y-112305500D01*
X99931312Y-112300516D01*
X99886965Y-112272015D01*
X99784877Y-112169927D01*
X99639395Y-112081980D01*
X99639396Y-112081980D01*
X99477105Y-112031409D01*
X99477106Y-112031409D01*
X99406572Y-112025000D01*
X99400000Y-112025000D01*
X99400000Y-113974999D01*
X99406581Y-113974999D01*
X99477102Y-113968591D01*
X99477107Y-113968590D01*
X99639396Y-113918018D01*
X99784877Y-113830072D01*
X99784878Y-113830071D01*
X99886963Y-113727985D01*
X99948286Y-113694499D01*
X100017977Y-113699483D01*
X100062326Y-113727984D01*
X100164811Y-113830469D01*
X100164813Y-113830470D01*
X100164815Y-113830472D01*
X100310394Y-113918478D01*
X100472804Y-113969086D01*
X100543384Y-113975500D01*
X100543387Y-113975500D01*
X101056613Y-113975500D01*
X101056616Y-113975500D01*
X101127196Y-113969086D01*
X101289606Y-113918478D01*
X101435185Y-113830472D01*
X101555472Y-113710185D01*
X101585598Y-113660349D01*
X101637126Y-113613162D01*
X101691715Y-113600500D01*
X102086295Y-113600500D01*
X102153334Y-113620185D01*
X102199089Y-113672989D01*
X102209033Y-113742147D01*
X102180008Y-113805703D01*
X102121230Y-113843477D01*
X102110487Y-113846117D01*
X101988170Y-113870447D01*
X101988160Y-113870450D01*
X101806092Y-113945864D01*
X101806079Y-113945871D01*
X101642218Y-114055360D01*
X101642214Y-114055363D01*
X101502863Y-114194714D01*
X101502860Y-114194718D01*
X101393371Y-114358579D01*
X101393364Y-114358592D01*
X101317950Y-114540660D01*
X101317947Y-114540670D01*
X101279500Y-114733956D01*
X101279500Y-115731045D01*
X101303422Y-115851309D01*
X101297195Y-115920900D01*
X101254332Y-115976078D01*
X101188442Y-115999322D01*
X101181805Y-115999500D01*
X96254433Y-115999500D01*
X96187394Y-115979815D01*
X96141639Y-115927011D01*
X96131695Y-115857853D01*
X96160720Y-115794297D01*
X96180122Y-115776234D01*
X96259117Y-115717096D01*
X96297322Y-115688497D01*
X96383572Y-115573282D01*
X96433867Y-115438434D01*
X96440276Y-115378824D01*
X96440275Y-114172468D01*
X96459960Y-114105430D01*
X96476589Y-114084793D01*
X97229800Y-113331582D01*
X98250001Y-113331582D01*
X98256408Y-113402102D01*
X98256409Y-113402107D01*
X98306981Y-113564396D01*
X98394927Y-113709877D01*
X98515122Y-113830072D01*
X98660604Y-113918019D01*
X98660603Y-113918019D01*
X98822894Y-113968590D01*
X98822893Y-113968590D01*
X98893408Y-113974998D01*
X98893426Y-113974999D01*
X98899999Y-113974998D01*
X98900000Y-113974998D01*
X98900000Y-113250000D01*
X98250001Y-113250000D01*
X98250001Y-113331582D01*
X97229800Y-113331582D01*
X97749692Y-112811690D01*
X97768471Y-112796278D01*
X97846542Y-112744114D01*
X97944114Y-112646542D01*
X98020775Y-112531811D01*
X98020777Y-112531804D01*
X98023645Y-112526441D01*
X98026178Y-112527795D01*
X98062190Y-112482936D01*
X98070738Y-112480073D01*
X98198206Y-112480073D01*
X98243881Y-112528947D01*
X98256592Y-112595880D01*
X98250000Y-112668427D01*
X98250000Y-112750000D01*
X98900000Y-112750000D01*
X98900000Y-112025000D01*
X98899999Y-112024999D01*
X98893436Y-112025000D01*
X98893417Y-112025001D01*
X98822897Y-112031408D01*
X98822892Y-112031409D01*
X98660603Y-112081981D01*
X98515122Y-112169927D01*
X98394927Y-112290122D01*
X98315453Y-112421588D01*
X98263925Y-112468776D01*
X98198206Y-112480073D01*
X98070738Y-112480073D01*
X98128443Y-112460747D01*
X98177511Y-112473172D01*
X98130737Y-112453345D01*
X98091363Y-112395626D01*
X98087719Y-112333245D01*
X98100500Y-112268994D01*
X98100500Y-108941518D01*
X98120185Y-108874479D01*
X98136814Y-108853842D01*
X100499307Y-106491348D01*
X100560628Y-106457865D01*
X100630320Y-106462849D01*
G37*
%TD.AperFunction*%
%TA.AperFunction,Conductor*%
G36*
X112025520Y-109820185D02*
G01*
X112046162Y-109836819D01*
X114238681Y-112029338D01*
X114272166Y-112090661D01*
X114275000Y-112117019D01*
X114275000Y-112750000D01*
X114907981Y-112750000D01*
X114975020Y-112769685D01*
X114995662Y-112786319D01*
X116542957Y-114333614D01*
X116576442Y-114394937D01*
X116579276Y-114421295D01*
X116579276Y-115368821D01*
X116579277Y-115368827D01*
X116585684Y-115428434D01*
X116635978Y-115563279D01*
X116635982Y-115563286D01*
X116722228Y-115678495D01*
X116722231Y-115678498D01*
X116837445Y-115764748D01*
X116840963Y-115766669D01*
X116843796Y-115769503D01*
X116844545Y-115770063D01*
X116844464Y-115770170D01*
X116890368Y-115816075D01*
X116905219Y-115884348D01*
X116880801Y-115949812D01*
X116824867Y-115991682D01*
X116781535Y-115999500D01*
X112018195Y-115999500D01*
X111951156Y-115979815D01*
X111905401Y-115927011D01*
X111895457Y-115857853D01*
X111896578Y-115851309D01*
X111920499Y-115731045D01*
X111920500Y-115731043D01*
X111920500Y-114733956D01*
X111882052Y-114540670D01*
X111882051Y-114540669D01*
X111882051Y-114540665D01*
X111821689Y-114394937D01*
X111806635Y-114358592D01*
X111806628Y-114358579D01*
X111697139Y-114194718D01*
X111697136Y-114194714D01*
X111557785Y-114055363D01*
X111557781Y-114055360D01*
X111393920Y-113945871D01*
X111393907Y-113945864D01*
X111211839Y-113870450D01*
X111211829Y-113870447D01*
X111089513Y-113846117D01*
X111027603Y-113813732D01*
X110993028Y-113753016D01*
X110996768Y-113683247D01*
X111037635Y-113626575D01*
X111102653Y-113600994D01*
X111113705Y-113600500D01*
X111483285Y-113600500D01*
X111550324Y-113620185D01*
X111589401Y-113660349D01*
X111619342Y-113709877D01*
X111619530Y-113710188D01*
X111739811Y-113830469D01*
X111739813Y-113830470D01*
X111739815Y-113830472D01*
X111885394Y-113918478D01*
X112047804Y-113969086D01*
X112118384Y-113975500D01*
X112118387Y-113975500D01*
X112631613Y-113975500D01*
X112631616Y-113975500D01*
X112702196Y-113969086D01*
X112864606Y-113918478D01*
X113010185Y-113830472D01*
X113112673Y-113727983D01*
X113173994Y-113694499D01*
X113243685Y-113699483D01*
X113288034Y-113727984D01*
X113390122Y-113830072D01*
X113535604Y-113918019D01*
X113535603Y-113918019D01*
X113697894Y-113968590D01*
X113697893Y-113968590D01*
X113768408Y-113974998D01*
X113768426Y-113974999D01*
X114275000Y-113974999D01*
X114281581Y-113974999D01*
X114352102Y-113968591D01*
X114352107Y-113968590D01*
X114514396Y-113918018D01*
X114659877Y-113830072D01*
X114780072Y-113709877D01*
X114868019Y-113564395D01*
X114918590Y-113402106D01*
X114925000Y-113331572D01*
X114925000Y-113250000D01*
X114275000Y-113250000D01*
X114275000Y-113974999D01*
X113768426Y-113974999D01*
X113774999Y-113974998D01*
X113775000Y-113974998D01*
X113775000Y-112025000D01*
X113774999Y-112024999D01*
X113768436Y-112025000D01*
X113768417Y-112025001D01*
X113697897Y-112031408D01*
X113697892Y-112031409D01*
X113535603Y-112081981D01*
X113390122Y-112169927D01*
X113390121Y-112169928D01*
X113288035Y-112272015D01*
X113226712Y-112305500D01*
X113157020Y-112300516D01*
X113112673Y-112272015D01*
X113010188Y-112169530D01*
X113009880Y-112169344D01*
X112864606Y-112081522D01*
X112702196Y-112030914D01*
X112702194Y-112030913D01*
X112702192Y-112030913D01*
X112652778Y-112026423D01*
X112631616Y-112024500D01*
X112118384Y-112024500D01*
X112083094Y-112027707D01*
X112047801Y-112030914D01*
X112041345Y-112032926D01*
X111971485Y-112034074D01*
X111912094Y-111997270D01*
X111882029Y-111934199D01*
X111882844Y-111890347D01*
X111887148Y-111868713D01*
X111905441Y-111776747D01*
X111920500Y-111701043D01*
X111920500Y-110403956D01*
X111882052Y-110210670D01*
X111882051Y-110210669D01*
X111882051Y-110210665D01*
X111882049Y-110210660D01*
X111806635Y-110028592D01*
X111806628Y-110028579D01*
X111783116Y-109993391D01*
X111762238Y-109926714D01*
X111780722Y-109859333D01*
X111832701Y-109812643D01*
X111886218Y-109800500D01*
X111958481Y-109800500D01*
X112025520Y-109820185D01*
G37*
%TD.AperFunction*%
%TA.AperFunction,Conductor*%
G36*
X106573200Y-96678547D02*
G01*
X106629134Y-96720418D01*
X106648253Y-96757839D01*
X106681522Y-96864606D01*
X106769530Y-97010188D01*
X106872015Y-97112673D01*
X106905500Y-97173996D01*
X106900516Y-97243688D01*
X106872015Y-97288035D01*
X106769928Y-97390121D01*
X106769927Y-97390122D01*
X106681980Y-97535604D01*
X106631409Y-97697893D01*
X106625000Y-97768427D01*
X106625000Y-97775000D01*
X108574999Y-97775000D01*
X108574999Y-97768417D01*
X108568591Y-97697897D01*
X108568590Y-97697892D01*
X108518018Y-97535603D01*
X108430072Y-97390122D01*
X108327984Y-97288034D01*
X108294499Y-97226711D01*
X108299483Y-97157019D01*
X108327983Y-97112673D01*
X108368839Y-97071818D01*
X108430162Y-97038333D01*
X108456519Y-97035500D01*
X109010909Y-97035500D01*
X109077948Y-97055185D01*
X109123292Y-97107097D01*
X109125965Y-97112830D01*
X109261501Y-97306396D01*
X109261506Y-97306402D01*
X109383430Y-97428326D01*
X109416915Y-97489649D01*
X109411931Y-97559341D01*
X109370059Y-97615274D01*
X109339083Y-97632189D01*
X109207669Y-97681203D01*
X109207664Y-97681206D01*
X109092455Y-97767452D01*
X109092452Y-97767455D01*
X109006206Y-97882664D01*
X109006202Y-97882671D01*
X108955908Y-98017517D01*
X108950598Y-98066916D01*
X108949501Y-98077123D01*
X108949500Y-98077135D01*
X108949500Y-98922521D01*
X108929815Y-98989560D01*
X108877011Y-99035315D01*
X108807853Y-99045259D01*
X108744297Y-99016234D01*
X108717513Y-98979699D01*
X108716465Y-98980320D01*
X108653712Y-98874211D01*
X108630117Y-98834313D01*
X108630115Y-98834311D01*
X108630112Y-98834307D01*
X108510171Y-98714366D01*
X108512144Y-98712392D01*
X108479023Y-98666524D01*
X108475240Y-98596757D01*
X108489818Y-98561046D01*
X108518018Y-98514397D01*
X108518019Y-98514396D01*
X108568590Y-98352106D01*
X108575000Y-98281572D01*
X108575000Y-98275000D01*
X106625001Y-98275000D01*
X106625001Y-98281582D01*
X106631408Y-98352102D01*
X106631409Y-98352110D01*
X106676251Y-98496011D01*
X106677403Y-98565871D01*
X106640602Y-98625263D01*
X106620988Y-98639632D01*
X106484627Y-98720276D01*
X106484616Y-98720285D01*
X106370285Y-98834616D01*
X106370278Y-98834625D01*
X106287968Y-98973804D01*
X106287966Y-98973809D01*
X106242855Y-99129081D01*
X106242854Y-99129087D01*
X106241209Y-99149999D01*
X106241210Y-99150000D01*
X107075500Y-99150000D01*
X107142539Y-99169685D01*
X107188294Y-99222489D01*
X107199500Y-99274000D01*
X107199500Y-99634697D01*
X107202356Y-99670991D01*
X107202357Y-99670997D01*
X107247504Y-99826390D01*
X107247504Y-99826392D01*
X107247506Y-99826395D01*
X107252730Y-99835229D01*
X107270000Y-99898352D01*
X107270000Y-99901645D01*
X107252734Y-99964763D01*
X107247507Y-99973600D01*
X107247504Y-99973608D01*
X107202357Y-100129002D01*
X107202356Y-100129008D01*
X107199500Y-100165302D01*
X107199500Y-100634697D01*
X107202356Y-100670991D01*
X107202357Y-100670997D01*
X107247503Y-100826389D01*
X107247505Y-100826393D01*
X107247506Y-100826395D01*
X107252732Y-100835233D01*
X107270000Y-100898352D01*
X107270000Y-101204503D01*
X107416194Y-101162032D01*
X107436384Y-101150091D01*
X107504108Y-101132906D01*
X107562629Y-101150089D01*
X107583605Y-101162494D01*
X107624587Y-101174400D01*
X107739002Y-101207642D01*
X107739005Y-101207642D01*
X107739007Y-101207643D01*
X107775310Y-101210500D01*
X107848481Y-101210500D01*
X107915520Y-101230185D01*
X107936162Y-101246819D01*
X108963181Y-102273837D01*
X108996666Y-102335160D01*
X108999500Y-102361518D01*
X108999500Y-102374507D01*
X108980494Y-102440478D01*
X108974209Y-102450479D01*
X108914633Y-102620737D01*
X108914630Y-102620750D01*
X108894435Y-102799996D01*
X108894435Y-102800003D01*
X108914630Y-102979249D01*
X108914632Y-102979257D01*
X108968970Y-103134546D01*
X108972531Y-103204324D01*
X108937802Y-103264952D01*
X108875809Y-103297179D01*
X108851928Y-103299500D01*
X108482130Y-103299500D01*
X108482123Y-103299501D01*
X108422516Y-103305908D01*
X108287671Y-103356202D01*
X108287664Y-103356206D01*
X108172455Y-103442452D01*
X108172452Y-103442455D01*
X108086206Y-103557664D01*
X108086202Y-103557671D01*
X108035908Y-103692517D01*
X108029914Y-103748274D01*
X108029501Y-103752123D01*
X108029500Y-103752135D01*
X108029500Y-104775500D01*
X108009815Y-104842539D01*
X107957011Y-104888294D01*
X107905500Y-104899500D01*
X105574141Y-104899500D01*
X105507102Y-104879815D01*
X105461347Y-104827011D01*
X105457969Y-104818859D01*
X105453796Y-104807669D01*
X105453793Y-104807665D01*
X105453793Y-104807664D01*
X105367547Y-104692455D01*
X105367544Y-104692452D01*
X105252335Y-104606206D01*
X105252328Y-104606202D01*
X105144312Y-104565915D01*
X105088378Y-104524044D01*
X105063961Y-104458580D01*
X105078813Y-104390307D01*
X105128218Y-104340901D01*
X105144312Y-104333551D01*
X105252085Y-104293354D01*
X105252092Y-104293350D01*
X105367186Y-104207190D01*
X105367189Y-104207187D01*
X105453349Y-104092093D01*
X105453353Y-104092086D01*
X105503595Y-103957379D01*
X105503597Y-103957372D01*
X105509998Y-103897844D01*
X105509999Y-103897827D01*
X105509999Y-103550000D01*
X102009999Y-103550000D01*
X102009999Y-103897844D01*
X102016400Y-103957372D01*
X102016402Y-103957379D01*
X102066644Y-104092086D01*
X102066648Y-104092093D01*
X102152808Y-104207187D01*
X102152811Y-104207190D01*
X102267905Y-104293350D01*
X102267912Y-104293354D01*
X102375686Y-104333551D01*
X102431620Y-104375422D01*
X102456037Y-104440886D01*
X102441186Y-104509159D01*
X102391781Y-104558565D01*
X102375687Y-104565915D01*
X102267669Y-104606203D01*
X102267664Y-104606206D01*
X102152455Y-104692452D01*
X102152452Y-104692455D01*
X102066206Y-104807664D01*
X102066204Y-104807668D01*
X102066204Y-104807669D01*
X102062039Y-104818834D01*
X102020171Y-104874766D01*
X101954707Y-104899184D01*
X101945859Y-104899500D01*
X100925494Y-104899500D01*
X100859523Y-104880494D01*
X100849525Y-104874212D01*
X100679254Y-104814631D01*
X100679249Y-104814630D01*
X100500004Y-104794435D01*
X100499996Y-104794435D01*
X100320750Y-104814630D01*
X100320745Y-104814631D01*
X100150476Y-104874211D01*
X99997737Y-104970184D01*
X99870182Y-105097739D01*
X99870181Y-105097741D01*
X99807587Y-105197358D01*
X99790275Y-105219066D01*
X97912181Y-107097161D01*
X97850858Y-107130646D01*
X97781166Y-107125662D01*
X97725233Y-107083790D01*
X97700816Y-107018326D01*
X97700500Y-107009480D01*
X97700500Y-105965782D01*
X97720185Y-105898743D01*
X97736814Y-105878106D01*
X100912765Y-102702155D01*
X102009999Y-102702155D01*
X102009999Y-103050000D01*
X103509999Y-103050000D01*
X104009999Y-103050000D01*
X105509999Y-103050000D01*
X105509999Y-102702172D01*
X105509998Y-102702155D01*
X105503597Y-102642627D01*
X105503595Y-102642620D01*
X105453353Y-102507913D01*
X105453349Y-102507906D01*
X105367189Y-102392812D01*
X105367186Y-102392809D01*
X105252092Y-102306649D01*
X105252085Y-102306645D01*
X105117378Y-102256403D01*
X105117371Y-102256401D01*
X105057843Y-102250000D01*
X104009999Y-102250000D01*
X104009999Y-103050000D01*
X103509999Y-103050000D01*
X103509999Y-102250000D01*
X102462154Y-102250000D01*
X102402626Y-102256401D01*
X102402619Y-102256403D01*
X102267912Y-102306645D01*
X102267905Y-102306649D01*
X102152811Y-102392809D01*
X102152808Y-102392812D01*
X102066648Y-102507906D01*
X102066644Y-102507913D01*
X102016402Y-102642620D01*
X102016400Y-102642627D01*
X102009999Y-102702155D01*
X100912765Y-102702155D01*
X102964919Y-100650000D01*
X106241210Y-100650000D01*
X106242854Y-100670910D01*
X106287968Y-100826195D01*
X106370278Y-100965374D01*
X106370285Y-100965383D01*
X106484616Y-101079714D01*
X106484625Y-101079721D01*
X106623804Y-101162031D01*
X106770000Y-101204504D01*
X106770000Y-100650000D01*
X106241210Y-100650000D01*
X102964919Y-100650000D01*
X103464920Y-100149999D01*
X106241209Y-100149999D01*
X106241210Y-100150000D01*
X106770000Y-100150000D01*
X106770000Y-99650000D01*
X106241210Y-99650000D01*
X106242854Y-99670910D01*
X106287968Y-99826195D01*
X106287968Y-99826196D01*
X106294288Y-99836882D01*
X106311468Y-99904607D01*
X106294288Y-99963118D01*
X106287968Y-99973803D01*
X106287966Y-99973809D01*
X106242855Y-100129081D01*
X106242854Y-100129087D01*
X106241209Y-100149999D01*
X103464920Y-100149999D01*
X105558506Y-98056413D01*
X105558511Y-98056410D01*
X105568714Y-98046206D01*
X105568716Y-98046206D01*
X105680520Y-97934402D01*
X105693888Y-97911248D01*
X105758438Y-97799444D01*
X105758439Y-97799444D01*
X105758447Y-97799426D01*
X105759577Y-97797471D01*
X105800501Y-97644743D01*
X105800501Y-97486629D01*
X105800501Y-97479034D01*
X105800500Y-97479016D01*
X105800500Y-97400097D01*
X105820185Y-97333058D01*
X105836819Y-97312416D01*
X106139050Y-97010185D01*
X106442188Y-96707046D01*
X106503509Y-96673563D01*
X106573200Y-96678547D01*
G37*
%TD.AperFunction*%
%TA.AperFunction,Conductor*%
G36*
X97420867Y-103748274D02*
G01*
X97456520Y-103808362D01*
X97454027Y-103878187D01*
X97424053Y-103926710D01*
X96616092Y-104734671D01*
X96554769Y-104768156D01*
X96485077Y-104763172D01*
X96429144Y-104721300D01*
X96404727Y-104655836D01*
X96408636Y-104614895D01*
X96420411Y-104570951D01*
X95522788Y-104570951D01*
X95555701Y-104513944D01*
X95589776Y-104386777D01*
X95589776Y-104255125D01*
X95555701Y-104127958D01*
X95522788Y-104070951D01*
X96420412Y-104070951D01*
X96420411Y-104070950D01*
X96381986Y-103927545D01*
X96383649Y-103857695D01*
X96422811Y-103799832D01*
X96487040Y-103772328D01*
X96501761Y-103771451D01*
X97105152Y-103771451D01*
X97202352Y-103752116D01*
X97240484Y-103744531D01*
X97288921Y-103724467D01*
X97358388Y-103716999D01*
X97420867Y-103748274D01*
G37*
%TD.AperFunction*%
%TA.AperFunction,Conductor*%
G36*
X95282815Y-103791136D02*
G01*
X95328570Y-103843940D01*
X95337907Y-103886859D01*
X95282769Y-103855026D01*
X95155602Y-103820951D01*
X95023950Y-103820951D01*
X94896783Y-103855026D01*
X94842432Y-103886405D01*
X94859461Y-103828412D01*
X94912265Y-103782657D01*
X94963776Y-103771451D01*
X95215776Y-103771451D01*
X95282815Y-103791136D01*
G37*
%TD.AperFunction*%
%TA.AperFunction,Conductor*%
G36*
X95339776Y-102246451D02*
G01*
X95320091Y-102313490D01*
X95267287Y-102359245D01*
X95215776Y-102370451D01*
X94963776Y-102370451D01*
X94896737Y-102350766D01*
X94850982Y-102297962D01*
X94839776Y-102246451D01*
X94839776Y-102213963D01*
X94896783Y-102246876D01*
X95023950Y-102280951D01*
X95155602Y-102280951D01*
X95282769Y-102246876D01*
X95339776Y-102213963D01*
X95339776Y-102246451D01*
G37*
%TD.AperFunction*%
%TA.AperFunction,Conductor*%
G36*
X100793834Y-91857915D02*
G01*
X100849767Y-91899787D01*
X100874184Y-91965251D01*
X100874500Y-91974097D01*
X100874500Y-93869190D01*
X100854815Y-93936229D01*
X100827815Y-93966135D01*
X100822738Y-93970183D01*
X100695184Y-94097737D01*
X100599211Y-94250476D01*
X100539631Y-94420745D01*
X100539630Y-94420750D01*
X100519435Y-94599996D01*
X100519435Y-94600003D01*
X100539630Y-94779249D01*
X100539631Y-94779254D01*
X100599211Y-94949523D01*
X100637269Y-95010091D01*
X100695184Y-95102262D01*
X100822738Y-95229816D01*
X100880148Y-95265889D01*
X100971817Y-95323489D01*
X100975478Y-95325789D01*
X101085102Y-95364148D01*
X101145745Y-95385368D01*
X101145750Y-95385369D01*
X101324996Y-95405565D01*
X101325000Y-95405565D01*
X101325004Y-95405565D01*
X101504249Y-95385369D01*
X101504251Y-95385368D01*
X101504255Y-95385368D01*
X101504258Y-95385366D01*
X101504262Y-95385366D01*
X101681095Y-95323489D01*
X101681846Y-95325637D01*
X101740128Y-95316035D01*
X101768592Y-95324391D01*
X101768908Y-95323489D01*
X101775480Y-95325788D01*
X101775481Y-95325789D01*
X101945748Y-95385368D01*
X101977158Y-95388907D01*
X102041571Y-95415972D01*
X102081127Y-95473566D01*
X102083266Y-95543403D01*
X102050956Y-95599808D01*
X98882723Y-98768040D01*
X98821400Y-98801525D01*
X98781159Y-98803579D01*
X98700003Y-98794435D01*
X98699996Y-98794435D01*
X98520750Y-98814630D01*
X98520745Y-98814631D01*
X98350476Y-98874211D01*
X98197737Y-98970184D01*
X98070184Y-99097737D01*
X97974211Y-99250476D01*
X97914631Y-99420745D01*
X97914630Y-99420750D01*
X97894435Y-99599996D01*
X97894435Y-99600003D01*
X97914630Y-99779249D01*
X97914631Y-99779254D01*
X97974211Y-99949523D01*
X98048233Y-100067328D01*
X98070184Y-100102262D01*
X98197738Y-100229816D01*
X98276724Y-100279446D01*
X98350014Y-100325498D01*
X98350478Y-100325789D01*
X98483508Y-100372338D01*
X98490289Y-100374711D01*
X98547065Y-100415433D01*
X98572812Y-100480386D01*
X98559356Y-100548948D01*
X98537015Y-100579434D01*
X96782318Y-102334132D01*
X96720995Y-102367617D01*
X96694637Y-102370451D01*
X96491043Y-102370451D01*
X96424004Y-102350766D01*
X96378249Y-102297962D01*
X96368305Y-102228804D01*
X96371268Y-102214357D01*
X96420412Y-102030951D01*
X95522788Y-102030951D01*
X95555701Y-101973944D01*
X95589776Y-101846777D01*
X95589776Y-101715125D01*
X95555701Y-101587958D01*
X95522788Y-101530951D01*
X96420412Y-101530951D01*
X96420411Y-101530950D01*
X96363208Y-101317464D01*
X96363205Y-101317458D01*
X96263376Y-101103373D01*
X96263375Y-101103371D01*
X96127889Y-100909877D01*
X96127884Y-100909871D01*
X95960854Y-100742841D01*
X95775181Y-100612830D01*
X95731556Y-100558253D01*
X95724364Y-100488755D01*
X95755886Y-100426400D01*
X95775182Y-100409681D01*
X95961177Y-100279446D01*
X96128271Y-100112352D01*
X96263811Y-99918781D01*
X96363679Y-99704614D01*
X96424839Y-99476359D01*
X96445435Y-99240951D01*
X96424839Y-99005543D01*
X96390447Y-98877190D01*
X96392110Y-98807344D01*
X96422539Y-98757421D01*
X97258506Y-97921455D01*
X97258511Y-97921451D01*
X97268714Y-97911247D01*
X97268716Y-97911247D01*
X97380520Y-97799443D01*
X97459577Y-97662511D01*
X97500500Y-97509784D01*
X97500500Y-95100097D01*
X97520185Y-95033058D01*
X97536819Y-95012416D01*
X100662819Y-91886416D01*
X100724142Y-91852931D01*
X100793834Y-91857915D01*
G37*
%TD.AperFunction*%
%TA.AperFunction,Conductor*%
G36*
X103605703Y-91888056D02*
G01*
X103612181Y-91894088D01*
X103674963Y-91956870D01*
X103702625Y-91980496D01*
X103702635Y-91980503D01*
X103844326Y-92058399D01*
X103844336Y-92058402D01*
X104000947Y-92098613D01*
X104008695Y-92099592D01*
X104008432Y-92101666D01*
X104065075Y-92118299D01*
X104110830Y-92171103D01*
X104122036Y-92222614D01*
X104122036Y-94943052D01*
X104102351Y-95010091D01*
X104085717Y-95030733D01*
X103612181Y-95504269D01*
X103550858Y-95537754D01*
X103481166Y-95532770D01*
X103425233Y-95490898D01*
X103400816Y-95425434D01*
X103400500Y-95416588D01*
X103400500Y-91981769D01*
X103420185Y-91914730D01*
X103472989Y-91868975D01*
X103542147Y-91859031D01*
X103605703Y-91888056D01*
G37*
%TD.AperFunction*%
%TA.AperFunction,Conductor*%
G36*
X99005583Y-87369391D02*
G01*
X99012061Y-87375423D01*
X99024918Y-87388280D01*
X99047315Y-87402353D01*
X99143999Y-87463104D01*
X99177658Y-87484253D01*
X99332318Y-87538371D01*
X99347925Y-87543832D01*
X99347930Y-87543833D01*
X99527176Y-87564029D01*
X99527180Y-87564029D01*
X99527183Y-87564029D01*
X99700338Y-87544519D01*
X99769160Y-87556573D01*
X99820540Y-87603922D01*
X99831261Y-87626780D01*
X99841567Y-87656230D01*
X99874210Y-87749521D01*
X99963502Y-87891628D01*
X99970184Y-87902262D01*
X100097738Y-88029816D01*
X100250478Y-88125789D01*
X100420745Y-88185368D01*
X100420750Y-88185369D01*
X100599996Y-88205565D01*
X100600000Y-88205565D01*
X100600004Y-88205565D01*
X100779249Y-88185369D01*
X100779252Y-88185368D01*
X100779255Y-88185368D01*
X100949522Y-88125789D01*
X101029766Y-88075367D01*
X101097003Y-88056367D01*
X101163838Y-88076734D01*
X101209052Y-88130002D01*
X101218291Y-88199258D01*
X101188620Y-88262515D01*
X101183420Y-88268042D01*
X99012061Y-90439401D01*
X98950738Y-90472886D01*
X98881046Y-90467902D01*
X98825113Y-90426030D01*
X98800696Y-90360566D01*
X98800380Y-90351720D01*
X98800380Y-87463104D01*
X98820065Y-87396065D01*
X98872869Y-87350310D01*
X98942027Y-87340366D01*
X99005583Y-87369391D01*
G37*
%TD.AperFunction*%
%TA.AperFunction,Conductor*%
G36*
X106374849Y-81625268D02*
G01*
X106384508Y-81636414D01*
X106392272Y-81646532D01*
X106392274Y-81646534D01*
X106392277Y-81646537D01*
X106532842Y-81787102D01*
X106532846Y-81787105D01*
X106620925Y-81854692D01*
X106620926Y-81854692D01*
X106620927Y-81854693D01*
X106627963Y-81858756D01*
X106626261Y-81861702D01*
X106668413Y-81895680D01*
X106673655Y-81905269D01*
X106674176Y-81904969D01*
X106678238Y-81912005D01*
X106678240Y-81912007D01*
X106745826Y-82000086D01*
X106745830Y-82000090D01*
X106745831Y-82000091D01*
X106886393Y-82140653D01*
X106886403Y-82140662D01*
X106974475Y-82208243D01*
X106974479Y-82208246D01*
X106974483Y-82208247D01*
X106981516Y-82212308D01*
X106979804Y-82215272D01*
X107021888Y-82249119D01*
X107027196Y-82258828D01*
X107027729Y-82258521D01*
X107031793Y-82265561D01*
X107031795Y-82265563D01*
X107099379Y-82353639D01*
X107099383Y-82353643D01*
X107099384Y-82353644D01*
X107239946Y-82494206D01*
X107239956Y-82494215D01*
X107306012Y-82544902D01*
X107328032Y-82561799D01*
X107328034Y-82561800D01*
X107335071Y-82565863D01*
X107333465Y-82568643D01*
X107376135Y-82603002D01*
X107381156Y-82612146D01*
X107381718Y-82611822D01*
X107385780Y-82618858D01*
X107437567Y-82686349D01*
X107457451Y-82666467D01*
X107518774Y-82632982D01*
X107561328Y-82631211D01*
X107562589Y-82631377D01*
X107626480Y-82659651D01*
X107664943Y-82717981D01*
X107669330Y-82738170D01*
X107669494Y-82739419D01*
X107658704Y-82808450D01*
X107634231Y-82843243D01*
X107614346Y-82863127D01*
X107614346Y-82863128D01*
X107681834Y-82914913D01*
X107688872Y-82918976D01*
X107687030Y-82922165D01*
X107728340Y-82955023D01*
X107734334Y-82965917D01*
X107734836Y-82965628D01*
X107738900Y-82972668D01*
X107761298Y-83001857D01*
X107806486Y-83060746D01*
X107806490Y-83060750D01*
X107806491Y-83060751D01*
X107947053Y-83201313D01*
X107947063Y-83201322D01*
X108018171Y-83255886D01*
X108035139Y-83268906D01*
X108035143Y-83268907D01*
X108042176Y-83272968D01*
X108040464Y-83275932D01*
X108082548Y-83309779D01*
X108087856Y-83319488D01*
X108088389Y-83319181D01*
X108092453Y-83326221D01*
X108124783Y-83368353D01*
X108160039Y-83414299D01*
X108160043Y-83414303D01*
X108160044Y-83414304D01*
X108300609Y-83554869D01*
X108300613Y-83554872D01*
X108388692Y-83622459D01*
X108388693Y-83622459D01*
X108388694Y-83622460D01*
X108395730Y-83626523D01*
X108394028Y-83629469D01*
X108436180Y-83663447D01*
X108441422Y-83673036D01*
X108441943Y-83672736D01*
X108446005Y-83679772D01*
X108446007Y-83679774D01*
X108513593Y-83767853D01*
X108513597Y-83767857D01*
X108513598Y-83767858D01*
X108654160Y-83908420D01*
X108654170Y-83908429D01*
X108727116Y-83964403D01*
X108742246Y-83976013D01*
X108742250Y-83976014D01*
X108749283Y-83980075D01*
X108747571Y-83983039D01*
X108789655Y-84016886D01*
X108794963Y-84026595D01*
X108795496Y-84026288D01*
X108799560Y-84033328D01*
X108830714Y-84073927D01*
X108867146Y-84121406D01*
X108867150Y-84121410D01*
X108867151Y-84121411D01*
X109007713Y-84261973D01*
X109007723Y-84261982D01*
X109070071Y-84309824D01*
X109095799Y-84329566D01*
X109095803Y-84329567D01*
X109102836Y-84333628D01*
X109101124Y-84336592D01*
X109143208Y-84370439D01*
X109148516Y-84380148D01*
X109149049Y-84379841D01*
X109153113Y-84386881D01*
X109178773Y-84420321D01*
X109220699Y-84474959D01*
X109220703Y-84474963D01*
X109220704Y-84474964D01*
X109361269Y-84615529D01*
X109361273Y-84615532D01*
X109449352Y-84683119D01*
X109449353Y-84683119D01*
X109449354Y-84683120D01*
X109456390Y-84687183D01*
X109454688Y-84690129D01*
X109496840Y-84724107D01*
X109502082Y-84733696D01*
X109502603Y-84733396D01*
X109506665Y-84740432D01*
X109528643Y-84769074D01*
X109574253Y-84828513D01*
X109574257Y-84828517D01*
X109574258Y-84828518D01*
X109714827Y-84969087D01*
X109725349Y-84977160D01*
X109766552Y-85033587D01*
X109770707Y-85103333D01*
X109736495Y-85164254D01*
X109735737Y-85164910D01*
X109735666Y-85165996D01*
X109755550Y-85185880D01*
X109789035Y-85247203D01*
X109790817Y-85289679D01*
X109790653Y-85290930D01*
X109762421Y-85354842D01*
X109704118Y-85393345D01*
X109683836Y-85397758D01*
X109682586Y-85397922D01*
X109613555Y-85387126D01*
X109578773Y-85362657D01*
X109558889Y-85342773D01*
X109507100Y-85410267D01*
X109503039Y-85417303D01*
X109500122Y-85415619D01*
X109465303Y-85457936D01*
X109456166Y-85462867D01*
X109456394Y-85463261D01*
X109449350Y-85467327D01*
X109361277Y-85534910D01*
X109361267Y-85534918D01*
X109220702Y-85675483D01*
X109153111Y-85763568D01*
X109149049Y-85770604D01*
X109146112Y-85768908D01*
X109112063Y-85811096D01*
X109102541Y-85816295D01*
X109102841Y-85816814D01*
X109095797Y-85820880D01*
X109007724Y-85888463D01*
X109007714Y-85888471D01*
X108867149Y-86029036D01*
X108799558Y-86117121D01*
X108795496Y-86124157D01*
X108792559Y-86122461D01*
X108758510Y-86164649D01*
X108748988Y-86169848D01*
X108749288Y-86170367D01*
X108742244Y-86174433D01*
X108654171Y-86242016D01*
X108654161Y-86242024D01*
X108513599Y-86382586D01*
X108513590Y-86382596D01*
X108446006Y-86470672D01*
X108441940Y-86477715D01*
X108438997Y-86476015D01*
X108404994Y-86518178D01*
X108395431Y-86523399D01*
X108395733Y-86523922D01*
X108388688Y-86527989D01*
X108300617Y-86595570D01*
X108300607Y-86595578D01*
X108160042Y-86736143D01*
X108092451Y-86824228D01*
X108088389Y-86831264D01*
X108085452Y-86829568D01*
X108051403Y-86871756D01*
X108041881Y-86876955D01*
X108042181Y-86877474D01*
X108035137Y-86881540D01*
X107947064Y-86949123D01*
X107947054Y-86949131D01*
X107806492Y-87089693D01*
X107806483Y-87089703D01*
X107738899Y-87177779D01*
X107734833Y-87184822D01*
X107731890Y-87183122D01*
X107697887Y-87225285D01*
X107688324Y-87230506D01*
X107688626Y-87231029D01*
X107681581Y-87235096D01*
X107593510Y-87302677D01*
X107593500Y-87302685D01*
X107452935Y-87443250D01*
X107385344Y-87531335D01*
X107381282Y-87538371D01*
X107378345Y-87536675D01*
X107344296Y-87578863D01*
X107334774Y-87584062D01*
X107335074Y-87584581D01*
X107328030Y-87588647D01*
X107239957Y-87656230D01*
X107239947Y-87656238D01*
X107099382Y-87796803D01*
X107031791Y-87884888D01*
X107027729Y-87891924D01*
X107024792Y-87890228D01*
X106990743Y-87932416D01*
X106981221Y-87937615D01*
X106981521Y-87938134D01*
X106974477Y-87942200D01*
X106886404Y-88009783D01*
X106886394Y-88009791D01*
X106745832Y-88150353D01*
X106745823Y-88150363D01*
X106678239Y-88238439D01*
X106674173Y-88245482D01*
X106671230Y-88243782D01*
X106637227Y-88285945D01*
X106627664Y-88291166D01*
X106627966Y-88291689D01*
X106620921Y-88295756D01*
X106532850Y-88363337D01*
X106532840Y-88363345D01*
X106392278Y-88503907D01*
X106392267Y-88503920D01*
X106384190Y-88514445D01*
X106327759Y-88555643D01*
X106258013Y-88559792D01*
X106197095Y-88525574D01*
X106196446Y-88524825D01*
X106195361Y-88524754D01*
X106175478Y-88544638D01*
X106114154Y-88578122D01*
X106071679Y-88579904D01*
X106070428Y-88579740D01*
X106006516Y-88551508D01*
X105968013Y-88493205D01*
X105963614Y-88473032D01*
X105963447Y-88471763D01*
X105974190Y-88402730D01*
X105998700Y-88367860D01*
X106018584Y-88347976D01*
X105951094Y-88296190D01*
X105944058Y-88292128D01*
X105945798Y-88289112D01*
X105903829Y-88254987D01*
X105898527Y-88245223D01*
X105898093Y-88245474D01*
X105894033Y-88238443D01*
X105894032Y-88238439D01*
X105826446Y-88150360D01*
X105773349Y-88097263D01*
X105685878Y-88009792D01*
X105685868Y-88009783D01*
X105597793Y-87942200D01*
X105590754Y-87938136D01*
X105592443Y-87935208D01*
X105550220Y-87901088D01*
X105545059Y-87891628D01*
X105544544Y-87891926D01*
X105540479Y-87884886D01*
X105472896Y-87796811D01*
X105472893Y-87796807D01*
X105425607Y-87749521D01*
X105332325Y-87656239D01*
X105332315Y-87656230D01*
X105244240Y-87588647D01*
X105237201Y-87584583D01*
X105238890Y-87581655D01*
X105196667Y-87547535D01*
X105191506Y-87538075D01*
X105190991Y-87538373D01*
X105186926Y-87531333D01*
X105160867Y-87497373D01*
X105119340Y-87443254D01*
X105051509Y-87375423D01*
X104978769Y-87302683D01*
X104924090Y-87260726D01*
X104890687Y-87235094D01*
X104890686Y-87235093D01*
X104890684Y-87235092D01*
X104883652Y-87231032D01*
X104885344Y-87228100D01*
X104843138Y-87194019D01*
X104837957Y-87184521D01*
X104837438Y-87184821D01*
X104833371Y-87177777D01*
X104779817Y-87107986D01*
X104765786Y-87089700D01*
X104713427Y-87037341D01*
X104625218Y-86949132D01*
X104625208Y-86949123D01*
X104537133Y-86881540D01*
X104530094Y-86877476D01*
X104531783Y-86874548D01*
X104489560Y-86840428D01*
X104484399Y-86830968D01*
X104483884Y-86831266D01*
X104479819Y-86824226D01*
X104443089Y-86776359D01*
X104412233Y-86736147D01*
X104343177Y-86667091D01*
X104271662Y-86595576D01*
X104227619Y-86561780D01*
X104183580Y-86527987D01*
X104183579Y-86527986D01*
X104183577Y-86527985D01*
X104176545Y-86523925D01*
X104178237Y-86520993D01*
X104136031Y-86486912D01*
X104130850Y-86477414D01*
X104130331Y-86477714D01*
X104126264Y-86470670D01*
X104078897Y-86408942D01*
X104058679Y-86382593D01*
X104014272Y-86338186D01*
X103918111Y-86242025D01*
X103918101Y-86242016D01*
X103830026Y-86174433D01*
X103822987Y-86170369D01*
X103824676Y-86167441D01*
X103782453Y-86133321D01*
X103777292Y-86123861D01*
X103776777Y-86124159D01*
X103772712Y-86117119D01*
X103705129Y-86029044D01*
X103705126Y-86029040D01*
X103655808Y-85979722D01*
X103564558Y-85888472D01*
X103564548Y-85888463D01*
X103476473Y-85820880D01*
X103469434Y-85816816D01*
X103471123Y-85813888D01*
X103428900Y-85779768D01*
X103423739Y-85770308D01*
X103423224Y-85770606D01*
X103419159Y-85763566D01*
X103351576Y-85675491D01*
X103351573Y-85675487D01*
X103335634Y-85659548D01*
X103211002Y-85534916D01*
X103155668Y-85492456D01*
X103122920Y-85467327D01*
X103122919Y-85467326D01*
X103122917Y-85467325D01*
X103115885Y-85463265D01*
X103117577Y-85460333D01*
X103075371Y-85426252D01*
X103070190Y-85416754D01*
X103069671Y-85417054D01*
X103065604Y-85410010D01*
X103032536Y-85366916D01*
X102998019Y-85321933D01*
X102937037Y-85260951D01*
X102857451Y-85181365D01*
X102857447Y-85181362D01*
X102857445Y-85181360D01*
X102846918Y-85173282D01*
X102805717Y-85116854D01*
X102801563Y-85047108D01*
X102835777Y-84986188D01*
X102836532Y-84985533D01*
X102836603Y-84984448D01*
X102816720Y-84964565D01*
X102783235Y-84903242D01*
X102781466Y-84860675D01*
X102781631Y-84859417D01*
X102809912Y-84795529D01*
X102868246Y-84757071D01*
X102888314Y-84752703D01*
X102889580Y-84752536D01*
X102958615Y-84763271D01*
X102993496Y-84787787D01*
X103013380Y-84807671D01*
X103065171Y-84740177D01*
X103069233Y-84733142D01*
X103072511Y-84735035D01*
X103104687Y-84694096D01*
X103116193Y-84687726D01*
X103115880Y-84687184D01*
X103122916Y-84683120D01*
X103122920Y-84683119D01*
X103210999Y-84615533D01*
X103351572Y-84474959D01*
X103419159Y-84386880D01*
X103419162Y-84386872D01*
X103423225Y-84379837D01*
X103426200Y-84381554D01*
X103459971Y-84339513D01*
X103469747Y-84334170D01*
X103469435Y-84333629D01*
X103476467Y-84329568D01*
X103476473Y-84329566D01*
X103564552Y-84261980D01*
X103705125Y-84121406D01*
X103772712Y-84033327D01*
X103772715Y-84033319D01*
X103776778Y-84026284D01*
X103779753Y-84028001D01*
X103813524Y-83985960D01*
X103823300Y-83980617D01*
X103822988Y-83980076D01*
X103830020Y-83976015D01*
X103830026Y-83976013D01*
X103918105Y-83908427D01*
X104058678Y-83767853D01*
X104126265Y-83679774D01*
X104126267Y-83679767D01*
X104130329Y-83672735D01*
X104133298Y-83674449D01*
X104167103Y-83632388D01*
X104176853Y-83627064D01*
X104176541Y-83626523D01*
X104183577Y-83622460D01*
X104183580Y-83622459D01*
X104271659Y-83554873D01*
X104412232Y-83414299D01*
X104479819Y-83326220D01*
X104479822Y-83326212D01*
X104483885Y-83319177D01*
X104486860Y-83320894D01*
X104520631Y-83278853D01*
X104530407Y-83273510D01*
X104530095Y-83272969D01*
X104537127Y-83268908D01*
X104537133Y-83268906D01*
X104625212Y-83201320D01*
X104765785Y-83060746D01*
X104833372Y-82972667D01*
X104833374Y-82972660D01*
X104837436Y-82965628D01*
X104840405Y-82967342D01*
X104874210Y-82925281D01*
X104883960Y-82919957D01*
X104883648Y-82919416D01*
X104890684Y-82915353D01*
X104890687Y-82915352D01*
X104978766Y-82847766D01*
X105119339Y-82707192D01*
X105186926Y-82619113D01*
X105186929Y-82619105D01*
X105190992Y-82612070D01*
X105193967Y-82613787D01*
X105227738Y-82571746D01*
X105237514Y-82566403D01*
X105237202Y-82565862D01*
X105244234Y-82561801D01*
X105244240Y-82561799D01*
X105332319Y-82494213D01*
X105472892Y-82353639D01*
X105540479Y-82265560D01*
X105540482Y-82265552D01*
X105544545Y-82258517D01*
X105547520Y-82260234D01*
X105581291Y-82218193D01*
X105591067Y-82212850D01*
X105590755Y-82212309D01*
X105597787Y-82208248D01*
X105597793Y-82208246D01*
X105685872Y-82140660D01*
X105826445Y-82000086D01*
X105894032Y-81912007D01*
X105894034Y-81912000D01*
X105898096Y-81904968D01*
X105901065Y-81906682D01*
X105934870Y-81864621D01*
X105944620Y-81859297D01*
X105944308Y-81858756D01*
X105951344Y-81854693D01*
X105951347Y-81854692D01*
X106039426Y-81787106D01*
X106179999Y-81646532D01*
X106187757Y-81636421D01*
X106244181Y-81595217D01*
X106313927Y-81591059D01*
X106374849Y-81625268D01*
G37*
%TD.AperFunction*%
%TA.AperFunction,Conductor*%
G36*
X117548728Y-72320185D02*
G01*
X117594483Y-72372989D01*
X117604427Y-72442147D01*
X117575402Y-72505703D01*
X117516624Y-72543477D01*
X117513782Y-72544275D01*
X117466120Y-72557045D01*
X117466111Y-72557049D01*
X117251947Y-72656915D01*
X117251945Y-72656916D01*
X117058373Y-72792456D01*
X116891281Y-72959548D01*
X116755741Y-73153120D01*
X116755740Y-73153122D01*
X116655874Y-73367286D01*
X116655870Y-73367295D01*
X116594714Y-73595537D01*
X116594712Y-73595547D01*
X116574117Y-73830950D01*
X116574117Y-73830951D01*
X116594712Y-74066354D01*
X116594714Y-74066364D01*
X116655870Y-74294606D01*
X116655872Y-74294610D01*
X116655873Y-74294614D01*
X116709687Y-74410018D01*
X116755741Y-74508781D01*
X116755743Y-74508785D01*
X116891277Y-74702346D01*
X116891282Y-74702353D01*
X117058373Y-74869444D01*
X117058379Y-74869449D01*
X117243934Y-74999376D01*
X117287559Y-75053953D01*
X117294753Y-75123451D01*
X117263230Y-75185806D01*
X117243934Y-75202526D01*
X117058373Y-75332456D01*
X116891281Y-75499548D01*
X116755741Y-75693120D01*
X116755740Y-75693122D01*
X116655874Y-75907286D01*
X116655870Y-75907295D01*
X116594714Y-76135537D01*
X116594712Y-76135547D01*
X116574117Y-76370950D01*
X116574117Y-76370951D01*
X116594712Y-76606354D01*
X116594714Y-76606364D01*
X116655870Y-76834606D01*
X116655872Y-76834610D01*
X116655873Y-76834614D01*
X116745451Y-77026715D01*
X116755741Y-77048781D01*
X116755743Y-77048785D01*
X116891277Y-77242346D01*
X116891282Y-77242353D01*
X117058373Y-77409444D01*
X117058379Y-77409449D01*
X117243934Y-77539376D01*
X117287559Y-77593953D01*
X117294753Y-77663451D01*
X117263230Y-77725806D01*
X117243934Y-77742526D01*
X117058373Y-77872456D01*
X116891281Y-78039548D01*
X116755741Y-78233120D01*
X116755740Y-78233122D01*
X116655874Y-78447286D01*
X116655870Y-78447295D01*
X116594714Y-78675537D01*
X116594712Y-78675547D01*
X116574117Y-78910950D01*
X116574117Y-78910951D01*
X116594712Y-79146354D01*
X116594714Y-79146364D01*
X116655870Y-79374606D01*
X116655872Y-79374610D01*
X116655873Y-79374614D01*
X116692642Y-79453465D01*
X116755741Y-79588781D01*
X116755743Y-79588785D01*
X116891277Y-79782346D01*
X116891282Y-79782353D01*
X117058373Y-79949444D01*
X117058379Y-79949449D01*
X117243934Y-80079376D01*
X117287559Y-80133953D01*
X117294753Y-80203451D01*
X117263230Y-80265806D01*
X117243934Y-80282526D01*
X117058373Y-80412456D01*
X116891281Y-80579548D01*
X116755741Y-80773120D01*
X116755740Y-80773122D01*
X116655874Y-80987286D01*
X116655870Y-80987295D01*
X116594714Y-81215537D01*
X116594712Y-81215547D01*
X116574117Y-81450950D01*
X116574117Y-81450951D01*
X116594712Y-81686354D01*
X116594714Y-81686364D01*
X116655870Y-81914606D01*
X116655872Y-81914610D01*
X116655873Y-81914614D01*
X116737128Y-82088865D01*
X116755741Y-82128781D01*
X116755743Y-82128785D01*
X116891277Y-82322346D01*
X116891282Y-82322353D01*
X117058373Y-82489444D01*
X117058379Y-82489449D01*
X117243934Y-82619376D01*
X117287559Y-82673953D01*
X117294753Y-82743451D01*
X117263230Y-82805806D01*
X117243934Y-82822526D01*
X117058373Y-82952456D01*
X116891281Y-83119548D01*
X116755741Y-83313120D01*
X116755740Y-83313122D01*
X116655874Y-83527286D01*
X116655870Y-83527295D01*
X116594714Y-83755537D01*
X116594712Y-83755547D01*
X116574117Y-83990950D01*
X116574117Y-83990951D01*
X116594712Y-84226354D01*
X116594714Y-84226364D01*
X116655870Y-84454606D01*
X116655872Y-84454610D01*
X116655873Y-84454614D01*
X116736106Y-84626673D01*
X116755741Y-84668781D01*
X116755743Y-84668785D01*
X116891277Y-84862346D01*
X116891282Y-84862353D01*
X117058373Y-85029444D01*
X117058379Y-85029449D01*
X117243934Y-85159376D01*
X117287559Y-85213953D01*
X117294753Y-85283451D01*
X117263230Y-85345806D01*
X117243934Y-85362526D01*
X117058373Y-85492456D01*
X116891281Y-85659548D01*
X116755741Y-85853120D01*
X116755740Y-85853122D01*
X116655874Y-86067286D01*
X116655870Y-86067295D01*
X116594714Y-86295537D01*
X116594712Y-86295547D01*
X116574117Y-86530950D01*
X116574117Y-86530951D01*
X116594712Y-86766354D01*
X116594714Y-86766364D01*
X116655870Y-86994606D01*
X116655872Y-86994610D01*
X116655873Y-86994614D01*
X116741591Y-87178437D01*
X116755741Y-87208781D01*
X116755743Y-87208785D01*
X116891277Y-87402346D01*
X116891282Y-87402353D01*
X117058373Y-87569444D01*
X117058379Y-87569449D01*
X117243934Y-87699376D01*
X117287559Y-87753953D01*
X117294753Y-87823451D01*
X117263230Y-87885806D01*
X117243934Y-87902526D01*
X117058373Y-88032456D01*
X116891282Y-88199547D01*
X116755741Y-88393121D01*
X116755738Y-88393126D01*
X116753065Y-88398860D01*
X116706891Y-88451297D01*
X116640685Y-88470451D01*
X113056834Y-88470451D01*
X112989795Y-88450766D01*
X112969153Y-88434132D01*
X112632284Y-88097263D01*
X112598799Y-88035940D01*
X112603783Y-87966248D01*
X112645655Y-87910315D01*
X112660228Y-87900920D01*
X112697366Y-87880503D01*
X112713323Y-87866875D01*
X112123390Y-87276943D01*
X112089905Y-87215620D01*
X112094889Y-87145929D01*
X112099078Y-87139410D01*
X112692964Y-87139410D01*
X112692964Y-87139411D01*
X113066874Y-87513321D01*
X113066876Y-87513321D01*
X113080498Y-87497373D01*
X113080501Y-87497368D01*
X113158399Y-87355673D01*
X113158402Y-87355663D01*
X113198613Y-87199052D01*
X113198614Y-87199045D01*
X113198614Y-87037346D01*
X113198613Y-87037341D01*
X113158399Y-86880721D01*
X113158399Y-86880720D01*
X113085059Y-86747315D01*
X112692964Y-87139410D01*
X112099078Y-87139410D01*
X112123386Y-87101585D01*
X112378437Y-86846535D01*
X112402087Y-86818845D01*
X112480047Y-86677034D01*
X112482600Y-86667088D01*
X112515024Y-86610243D01*
X112748183Y-86377084D01*
X112748601Y-86374205D01*
X112773641Y-86338192D01*
X113606060Y-85505774D01*
X113649727Y-85440423D01*
X113682722Y-85391042D01*
X113713654Y-85316365D01*
X113735527Y-85263560D01*
X113741947Y-85231284D01*
X113749479Y-85193416D01*
X113762447Y-85128226D01*
X113762447Y-82088865D01*
X113762445Y-82088851D01*
X113762421Y-82088729D01*
X113762360Y-82088424D01*
X113735528Y-81953534D01*
X113735527Y-81953527D01*
X113719409Y-81914614D01*
X113682724Y-81826047D01*
X113606059Y-81711309D01*
X113336819Y-81442069D01*
X113303334Y-81380746D01*
X113300500Y-81354388D01*
X113300500Y-73531007D01*
X113296150Y-73509142D01*
X113296150Y-73509138D01*
X113277242Y-73414084D01*
X113273580Y-73395672D01*
X113252198Y-73344050D01*
X113220777Y-73268192D01*
X113144112Y-73153454D01*
X113144111Y-73153453D01*
X112502838Y-72512181D01*
X112469353Y-72450858D01*
X112474337Y-72381167D01*
X112516208Y-72325233D01*
X112581673Y-72300816D01*
X112590519Y-72300500D01*
X117481689Y-72300500D01*
X117548728Y-72320185D01*
G37*
%TD.AperFunction*%
%TA.AperFunction,Conductor*%
G36*
X100124130Y-84564948D02*
G01*
X100168477Y-84593449D01*
X100176609Y-84601581D01*
X100210094Y-84662904D01*
X100205110Y-84732596D01*
X100176609Y-84776943D01*
X99586676Y-85366875D01*
X99600883Y-85379009D01*
X99639075Y-85437517D01*
X99639571Y-85507385D01*
X99602216Y-85566430D01*
X99597755Y-85570166D01*
X99470184Y-85697737D01*
X99374212Y-85850475D01*
X99374211Y-85850476D01*
X99348708Y-85923359D01*
X99307986Y-85980135D01*
X99272623Y-85999444D01*
X99177656Y-86032675D01*
X99177655Y-86032676D01*
X99024917Y-86128648D01*
X99012061Y-86141505D01*
X98950738Y-86174990D01*
X98881046Y-86170006D01*
X98825113Y-86128134D01*
X98800696Y-86062670D01*
X98800380Y-86053824D01*
X98800380Y-85837546D01*
X98820065Y-85770507D01*
X98836694Y-85749870D01*
X99993115Y-84593448D01*
X100054438Y-84559964D01*
X100124130Y-84564948D01*
G37*
%TD.AperFunction*%
%TA.AperFunction,Conductor*%
G36*
X112280780Y-84267953D02*
G01*
X112336714Y-84309824D01*
X112361131Y-84375288D01*
X112361447Y-84384135D01*
X112361447Y-84717712D01*
X112341762Y-84784751D01*
X112325128Y-84805393D01*
X111636124Y-85494396D01*
X111574801Y-85527881D01*
X111505109Y-85522897D01*
X111450068Y-85482202D01*
X111407136Y-85426252D01*
X111394916Y-85410326D01*
X111147493Y-85162903D01*
X111114008Y-85101580D01*
X111118992Y-85031888D01*
X111147491Y-84987543D01*
X111394911Y-84740124D01*
X111462498Y-84652046D01*
X111463564Y-84649470D01*
X111490445Y-84609234D01*
X111524839Y-84574840D01*
X111586161Y-84541358D01*
X111612517Y-84538525D01*
X111723301Y-84538525D01*
X111723305Y-84538525D01*
X111880049Y-84498280D01*
X112021860Y-84420320D01*
X112049550Y-84396670D01*
X112149767Y-84296452D01*
X112211088Y-84262969D01*
X112280780Y-84267953D01*
G37*
%TD.AperFunction*%
%TA.AperFunction,Conductor*%
G36*
X98654071Y-82794889D02*
G01*
X98698418Y-82823390D01*
X98953449Y-83078422D01*
X98953465Y-83078437D01*
X98981155Y-83102087D01*
X98981157Y-83102088D01*
X99122963Y-83180046D01*
X99122970Y-83180048D01*
X99132908Y-83182600D01*
X99189755Y-83215024D01*
X99202310Y-83227579D01*
X99235795Y-83288902D01*
X99230811Y-83358594D01*
X99202310Y-83402941D01*
X99024119Y-83581132D01*
X98962796Y-83614617D01*
X98893104Y-83609633D01*
X98848757Y-83581132D01*
X98394716Y-83127091D01*
X98361231Y-83065768D01*
X98366215Y-82996076D01*
X98394716Y-82951728D01*
X98523056Y-82823389D01*
X98584379Y-82789905D01*
X98654071Y-82794889D01*
G37*
%TD.AperFunction*%
%TA.AperFunction,Conductor*%
G36*
X111818834Y-75341396D02*
G01*
X111874767Y-75383268D01*
X111899184Y-75448732D01*
X111899500Y-75457578D01*
X111899500Y-81354388D01*
X111879815Y-81421427D01*
X111863181Y-81442069D01*
X111812182Y-81493068D01*
X111750859Y-81526553D01*
X111681167Y-81521569D01*
X111625234Y-81479697D01*
X111600817Y-81414233D01*
X111600501Y-81405387D01*
X111600501Y-81335368D01*
X111600500Y-81335350D01*
X111600500Y-78844552D01*
X111600501Y-78844539D01*
X111600501Y-78676437D01*
X111600501Y-78676435D01*
X111559577Y-78523707D01*
X111480520Y-78386776D01*
X111466319Y-78372575D01*
X111432834Y-78311252D01*
X111430000Y-78284894D01*
X111430000Y-78098352D01*
X111447267Y-78035233D01*
X111452494Y-78026395D01*
X111461820Y-77994297D01*
X111497642Y-77870997D01*
X111497643Y-77870991D01*
X111498408Y-77861268D01*
X111500500Y-77834690D01*
X111500500Y-77365310D01*
X111497643Y-77329007D01*
X111472467Y-77242353D01*
X111452495Y-77173608D01*
X111452492Y-77173600D01*
X111447266Y-77164763D01*
X111430000Y-77101645D01*
X111430000Y-76795494D01*
X111416831Y-76785607D01*
X111393692Y-76785540D01*
X111335024Y-76747596D01*
X111309198Y-76698761D01*
X111279577Y-76588216D01*
X111279573Y-76588209D01*
X111200524Y-76451290D01*
X111200518Y-76451282D01*
X110991157Y-76241921D01*
X110957672Y-76180598D01*
X110962656Y-76110906D01*
X110991157Y-76066559D01*
X111687819Y-75369897D01*
X111749142Y-75336412D01*
X111818834Y-75341396D01*
G37*
%TD.AperFunction*%
%TA.AperFunction,Conductor*%
G36*
X107972550Y-77333994D02*
G01*
X108002829Y-77356227D01*
X108279712Y-77633109D01*
X108532457Y-77885854D01*
X108579139Y-77923474D01*
X108593880Y-77930206D01*
X108630051Y-77955320D01*
X108784976Y-78110245D01*
X108817399Y-78167087D01*
X108819953Y-78177037D01*
X108897911Y-78318842D01*
X108897914Y-78318846D01*
X108921561Y-78346533D01*
X108921577Y-78346550D01*
X109176609Y-78601581D01*
X109210094Y-78662904D01*
X109205110Y-78732595D01*
X109176609Y-78776944D01*
X109109785Y-78843767D01*
X109048461Y-78877251D01*
X108978770Y-78872266D01*
X108934423Y-78843766D01*
X107848291Y-77757634D01*
X107814806Y-77696311D01*
X107811972Y-77669953D01*
X107811972Y-77546261D01*
X107794491Y-77472505D01*
X107798184Y-77402733D01*
X107839012Y-77346034D01*
X107904014Y-77320409D01*
X107972550Y-77333994D01*
G37*
%TD.AperFunction*%
%TA.AperFunction,Conductor*%
G36*
X100745293Y-74561136D02*
G01*
X100765935Y-74577770D01*
X103526353Y-77338188D01*
X103542512Y-77367781D01*
X103784976Y-77610245D01*
X103817399Y-77667087D01*
X103819953Y-77677037D01*
X103897911Y-77818842D01*
X103897914Y-77818846D01*
X103921561Y-77846533D01*
X103921577Y-77846550D01*
X104064204Y-77989177D01*
X104097689Y-78050500D01*
X104092705Y-78120192D01*
X104050833Y-78176125D01*
X103985369Y-78200542D01*
X103976523Y-78200858D01*
X103898439Y-78200858D01*
X103882251Y-78199797D01*
X103879993Y-78199499D01*
X103879991Y-78199499D01*
X103721877Y-78199499D01*
X103718486Y-78199499D01*
X103651447Y-78179814D01*
X103630805Y-78163180D01*
X103214940Y-77747315D01*
X103214939Y-77747315D01*
X103141599Y-77880724D01*
X103101386Y-78037341D01*
X103101386Y-78075500D01*
X103081701Y-78142539D01*
X103028897Y-78188294D01*
X102977386Y-78199500D01*
X97808922Y-78199500D01*
X97741883Y-78179815D01*
X97721241Y-78163181D01*
X96422542Y-76864482D01*
X96389057Y-76803159D01*
X96390448Y-76744708D01*
X96415940Y-76649569D01*
X96424839Y-76616359D01*
X96445435Y-76380951D01*
X96424839Y-76145543D01*
X96363679Y-75917288D01*
X96263811Y-75703122D01*
X96234667Y-75661499D01*
X96128270Y-75509548D01*
X95961178Y-75342457D01*
X95961172Y-75342452D01*
X95775618Y-75212526D01*
X95731993Y-75157949D01*
X95724799Y-75088451D01*
X95756322Y-75026096D01*
X95775618Y-75009376D01*
X95901913Y-74920943D01*
X95961177Y-74879446D01*
X96128271Y-74712352D01*
X96210912Y-74594327D01*
X96265489Y-74550703D01*
X96312487Y-74541451D01*
X100678254Y-74541451D01*
X100745293Y-74561136D01*
G37*
%TD.AperFunction*%
%TA.AperFunction,Conductor*%
G36*
X108106852Y-73222088D02*
G01*
X108152607Y-73274892D01*
X108162551Y-73344050D01*
X108133526Y-73407606D01*
X108127494Y-73414084D01*
X107969788Y-73571789D01*
X107969782Y-73571796D01*
X107932160Y-73618481D01*
X107932159Y-73618483D01*
X107872372Y-73749395D01*
X107857480Y-73852979D01*
X107828455Y-73916535D01*
X107769677Y-73954309D01*
X107752388Y-73958070D01*
X107649536Y-73972857D01*
X107518755Y-74032583D01*
X107518753Y-74032584D01*
X107472122Y-74070162D01*
X107472115Y-74070168D01*
X107120101Y-74422181D01*
X107120101Y-74422182D01*
X107987014Y-75289095D01*
X108020499Y-75350418D01*
X108015515Y-75420110D01*
X107987014Y-75464457D01*
X107808823Y-75642649D01*
X107747500Y-75676134D01*
X107677809Y-75671150D01*
X107633461Y-75642649D01*
X106766548Y-74775736D01*
X106414533Y-75127750D01*
X106414527Y-75127757D01*
X106376949Y-75174388D01*
X106376948Y-75174390D01*
X106317222Y-75305171D01*
X106296762Y-75447487D01*
X106296762Y-75447489D01*
X106307165Y-75519854D01*
X106297220Y-75589013D01*
X106251464Y-75641816D01*
X106184425Y-75661499D01*
X106117386Y-75641813D01*
X106106112Y-75633638D01*
X106067601Y-75602266D01*
X106067588Y-75602258D01*
X105917345Y-75526804D01*
X105917343Y-75526803D01*
X105917342Y-75526803D01*
X105753737Y-75488028D01*
X105585602Y-75488028D01*
X105421997Y-75526803D01*
X105421993Y-75526804D01*
X105271750Y-75602258D01*
X105271745Y-75602261D01*
X105271744Y-75602262D01*
X105223189Y-75641816D01*
X105194969Y-75664804D01*
X105194963Y-75664809D01*
X105053439Y-75806334D01*
X104992116Y-75839819D01*
X104965758Y-75842653D01*
X104063494Y-75842653D01*
X103996455Y-75822968D01*
X103975813Y-75806334D01*
X102098111Y-73928632D01*
X102064626Y-73867309D01*
X102069610Y-73797617D01*
X102098111Y-73753270D01*
X102612659Y-73238722D01*
X102673982Y-73205237D01*
X102700340Y-73202403D01*
X108039813Y-73202403D01*
X108106852Y-73222088D01*
G37*
%TD.AperFunction*%
%TA.AperFunction,Conductor*%
G36*
X111227423Y-73222088D02*
G01*
X111248065Y-73238722D01*
X111863181Y-73853838D01*
X111896666Y-73915161D01*
X111899500Y-73941519D01*
X111899500Y-74447446D01*
X111879815Y-74514485D01*
X111827011Y-74560240D01*
X111757853Y-74570184D01*
X111694297Y-74541159D01*
X111687819Y-74535127D01*
X110869301Y-73716609D01*
X110822665Y-73679028D01*
X110726968Y-73635325D01*
X110674164Y-73589570D01*
X110665685Y-73574043D01*
X110621394Y-73477060D01*
X110621391Y-73477055D01*
X110583777Y-73430380D01*
X110583771Y-73430373D01*
X110567482Y-73414084D01*
X110533997Y-73352761D01*
X110538981Y-73283069D01*
X110580853Y-73227136D01*
X110646317Y-73202719D01*
X110655163Y-73202403D01*
X111160384Y-73202403D01*
X111227423Y-73222088D01*
G37*
%TD.AperFunction*%
%TD*%
M02*
